<?xml version="1.0" encoding="utf-8"?>
<!-- Generator: Adobe Illustrator 24.1.0, SVG Export Plug-In . SVG Version: 6.00 Build 0)  -->
<svg version="1.1" id="Layer_1" xmlns="http://www.w3.org/2000/svg" xmlns:xlink="http://www.w3.org/1999/xlink" x="0px" y="0px"
	 viewBox="0 0 80 65" style="enable-background:new 0 0 80 65;" xml:space="preserve">
<path d="M40,3.48h5c0.69,0,1.25-0.56,1.25-1.25S45.69,0.98,45,0.98h-5c-0.69,0-1.25,0.56-1.25,1.25S39.31,3.48,40,3.48z"/>
<path d="M30,3.48h5c0.69,0,1.25-0.56,1.25-1.25S35.69,0.98,35,0.98h-5c-0.69,0-1.25,0.56-1.25,1.25S29.31,3.48,30,3.48z"/>
<path d="M50,3.48h5c0.69,0,1.25-0.56,1.25-1.25S55.69,0.98,55,0.98h-5c-0.69,0-1.25,0.56-1.25,1.25S49.31,3.48,50,3.48z"/>
<path d="M15,3.48c0.69,0,1.25-0.56,1.25-1.25S15.69,0.98,15,0.98h-5c-0.69,0-1.25,0.56-1.25,1.25S9.31,3.48,10,3.48H15z"/>
<path d="M60,3.48h5c0.12,0,0.24-0.02,0.36-0.05c0.1,0.06,0.21,0.11,0.33,0.15c0.81,0.24,1.47,0.88,1.71,1.69
	c0.16,0.54,0.66,0.89,1.2,0.89c0.12,0,0.24-0.02,0.36-0.05c0.66-0.2,1.03-0.89,0.84-1.55c-0.49-1.63-1.78-2.91-3.41-3.38
	c-0.12-0.03-0.23-0.05-0.35-0.05c-0.12,0-0.24,0.02-0.36,0.05c-0.19-0.13-0.43-0.2-0.68-0.2h-5c-0.69,0-1.25,0.56-1.25,1.25
	S59.31,3.48,60,3.48z"/>
<path d="M20,3.48h5c0.69,0,1.25-0.56,1.25-1.25S25.69,0.98,25,0.98h-5c-0.69,0-1.25,0.56-1.25,1.25S19.31,3.48,20,3.48z"/>
<path d="M1.25,14.38c0.69,0,1.25-0.56,1.25-1.25v-5c0-0.69-0.56-1.25-1.25-1.25C0.56,6.88,0,7.44,0,8.13v5
	C0,13.82,0.56,14.38,1.25,14.38z"/>
<path d="M3.51,50.49c-0.64-0.48-1.01-1.21-1.01-2v-0.35c0-0.69-0.56-1.25-1.25-1.25C0.56,46.88,0,47.44,0,48.13v0.35c0,0,0,0,0,0.01
	c0,0,0,0,0,0c0,0,0,0,0,0.01c0,0,0,0,0,0c0,0,0,0,0,0.01c0,0,0,0,0,0c0,0,0,0,0,0.01c0,0,0,0,0,0c0,0,0,0,0,0.01l0,0
	c0,0,0,0.01,0,0.01c0,0,0,0,0,0c0,0,0,0,0,0.01c0,0,0,0,0,0c0,0,0,0,0,0.01c0,0,0,0,0,0c0,0,0,0.01,0,0.01c0,0,0,0,0,0
	c0,0,0,0,0,0.01c0,0,0,0,0,0c0,0,0,0,0,0.01c0,0,0,0,0,0c0,0,0,0,0,0.01v0c0,0,0,0,0,0.01v0c0,0,0,0,0,0.01c0,0,0,0,0,0
	c0,0,0,0,0,0.01c0,0,0,0,0,0c0,0,0,0,0,0.01v0c0,0,0,0,0,0.01c0,0,0,0,0,0c0,0,0,0.01,0,0.01v0c0,0.01,0,0.01,0,0.01c0,0,0,0,0,0
	c0,0,0,0,0,0.01c0,0,0,0,0,0c0,0.01,0,0.01,0,0.01c0,0,0,0,0,0c0,0,0,0,0,0.01c0,0,0,0,0,0c0,0,0,0.01,0,0.01v0c0,0,0,0,0,0.01v0
	c0,0,0,0,0,0.01c0,0,0,0,0,0c0,0,0,0,0,0.01c0,0,0,0,0,0c0,0,0,0,0,0.01c0,0,0,0,0,0c0,0,0,0,0,0.01c0,0,0,0,0,0c0,0,0,0,0,0.01v0
	c0,0,0,0,0,0.01c0,0,0,0,0,0c0,0,0,0,0,0.01c0,0,0,0,0,0c0,0,0,0,0,0.01c0,0,0,0,0,0c0,0,0,0,0,0.01c0,0,0,0,0,0c0,0,0,0,0,0.01
	c0,0,0,0,0,0c0,0,0,0,0,0.01c0,0,0,0,0,0c0,0,0,0.01,0,0.01c0,0,0,0,0,0c0,0,0,0,0,0.01c0,0,0,0,0,0c0,0,0,0.01,0,0.01c0,0,0,0,0,0
	c0,0,0,0,0,0.01c0,0,0,0,0,0c0,0,0,0,0,0.01v0c0,0,0,0,0,0.01c0,0,0,0,0,0c0,0,0,0,0,0.01c0,0,0,0,0,0c0,0,0,0,0,0.01c0,0,0,0,0,0
	c0,0,0,0,0,0.01c0,0,0,0,0,0c0,0,0,0,0,0.01c0,0,0,0,0,0c0,0,0,0,0,0.01c0,0,0,0,0,0c0,0,0,0,0,0.01v0c0,0,0,0,0,0.01c0,0,0,0,0,0
	c0,0,0,0,0,0.01l0,0c0,0,0,0,0,0.01c0,0,0,0,0,0c0,0,0,0,0,0.01c0,0,0,0,0,0c0,0,0,0,0,0.01v0c0,0,0,0,0,0.01v0c0,0,0,0,0,0.01
	c0,0,0,0,0,0c0,0,0,0,0,0.01c0,0,0,0,0,0c0,0,0,0,0,0.01v0c0,0,0,0,0,0.01c0,0,0,0,0,0c0,0,0,0,0,0.01c0,0,0,0,0,0
	c0,0,0,0.01,0,0.01v0c0,0,0,0,0,0.01c0,0,0,0,0,0c0,0,0,0,0,0.01c0,0,0,0,0,0c0,0,0,0,0,0.01v0c0,0,0,0,0,0.01v0c0,0,0,0,0,0.01
	c0,0,0,0,0,0c0,0,0,0.01,0,0.01c0,0,0,0,0,0c0,0,0,0,0,0.01c0,0,0,0,0,0c0,0,0,0,0,0.01c0,0,0,0,0,0c0,0,0,0,0,0.01c0,0,0,0,0,0
	c0,0,0,0,0,0.01v0c0,0,0,0,0,0.01c0,0,0,0,0,0c0,0,0,0,0,0.01c0,0,0,0,0,0c0,0,0,0,0,0.01c0,0,0,0,0,0.01c0,0,0,0,0,0
	c0,0,0,0,0,0.01v0c0,0,0,0,0,0.01v0c0,0,0,0,0,0.01c0,0,0,0,0,0c0,0,0,0,0,0.01c0,0,0,0,0,0c0,0,0,0.01,0,0.01v0c0,0,0,0,0,0.01
	c0,0,0,0,0,0c0,0,0,0.01,0,0.01c0,0,0,0,0,0c0,0,0,0,0,0.01c0,0,0,0,0,0c0,0,0,0,0,0.01v0c0,0,0,0,0,0.01c0,0,0,0,0,0
	c0,0,0,0,0,0.01c0,0,0,0,0,0c0,0,0,0,0,0.01c0,0,0,0,0,0c0,0,0,0,0,0.01v0c0,0,0,0,0,0.01c0,0,0,0,0,0c0,0,0,0,0,0.01v0
	c0,0,0,0,0,0.01s0,0,0,0.01c0,0,0,0,0,0c0,0,0,0,0,0.01c0,0,0,0,0,0c0,0,0,0,0,0.01l0,0c0,0,0,0,0,0.01l0,0c0,0,0,0,0,0.01
	c0,0,0,0,0,0c0,0,0,0,0,0.01c0,0,0,0,0,0.01c0,0,0,0,0,0c0,0,0,0,0,0.01c0,0,0,0,0,0c0,0,0,0.01,0,0.01c0,0,0,0,0,0c0,0,0,0,0,0.01
	c0,0,0,0,0,0c0,0,0,0.01,0,0.01c0,0,0,0,0,0c0,0,0,0,0,0.01c0,0,0,0,0,0c0,0,0,0,0,0.01v0c0,0,0,0,0,0.01c0,0,0,0,0,0
	c0,0,0,0,0,0.01v0c0,0,0,0,0,0.01c0,0,0,0,0,0c0,0,0,0.01,0,0.01c0,0,0,0,0,0c0,0,0,0,0,0.01c0,0,0,0,0,0c0,0,0,0,0,0.01
	c0,0,0,0,0,0.01c0,0,0,0,0,0c0,0,0,0,0,0.01v0c0,0,0,0,0,0.01h0c0,0,0,0,0,0.01l0,0c0,0,0,0,0,0.01c0,0,0,0,0,0c0,0,0,0.01,0,0.01
	c0,0,0,0,0,0c0,0,0,0,0,0.01v0c0,0,0,0.01,0,0.01l0,0c0,0,0,0,0,0.01c0,0,0,0,0,0c0,0,0,0,0,0.01c0,0,0,0,0,0c0,0,0,0,0,0.01
	c0,0,0,0,0,0c0,0,0,0,0,0.01c0,0,0,0,0,0c0,0,0,0,0,0.01c0,0,0,0,0,0c0,0,0,0,0,0.01l0,0c0,0,0,0,0,0.01c0,0,0,0,0,0c0,0,0,0,0,0.01
	c0,0,0,0,0,0c0,0,0,0,0,0.01c0,0,0,0,0,0c0,0,0,0,0,0.01c0,0,0,0,0,0c0,0,0,0,0,0.01c0,0,0,0,0,0c0,0,0,0.01,0,0.01c0,0,0,0,0,0
	c0,0,0,0,0,0.01c0,0,0,0,0,0c0,0,0,0.01,0,0.01c0,0,0,0,0,0c0,0,0,0,0,0.01c0,0,0,0,0,0c0,0,0,0.01,0,0.01v0c0,0,0,0,0,0.01v0
	c0,0,0,0.01,0,0.01v0c0,0,0,0,0,0.01l0,0c0,0,0,0.01,0,0.01c0,0,0,0,0,0.01c0,0,0,0,0,0c0,0,0,0,0,0.01c0,0,0,0,0,0.01c0,0,0,0,0,0
	c0,0,0,0,0,0.01c0,0,0,0,0,0c0,0,0,0.01,0,0.01h0c0,0,0,0,0,0.01c0,0,0,0,0,0c0,0,0,0,0,0.01l0,0c0,0,0,0.01,0,0.01c0,0,0,0,0,0
	c0,0,0,0,0,0.01c0,0,0,0,0,0c0,0,0,0.01,0,0.01c0,0,0,0,0,0c0,0,0,0.01,0,0.01v0c0,0,0,0.01,0,0.01v0c0,0,0,0,0,0.01c0,0,0,0,0,0
	c0,0.01,0,0.01,0,0.01v0c0,0,0,0,0,0.01v0c0,0,0,0.01,0,0.01l0,0c0,0,0,0,0,0.01l0,0c0,0,0,0,0,0.01l0,0c0,0,0,0,0,0.01c0,0,0,0,0,0
	c0,0,0,0,0,0.01l0,0c0,0,0,0,0,0.01l0,0c0,0,0,0,0,0.01v0c0,0,0,0,0,0.01c0,0,0,0,0,0c0,0,0,0,0,0.01c0,0,0,0,0,0c0,0,0,0.01,0,0.01
	c0,0,0,0,0,0c0,0,0,0,0,0.01c0,0,0,0,0,0c0,0,0,0.01,0,0.01l0,0c0,0,0,0,0,0.01v0c0,0,0,0.01,0,0.01c0,0,0,0,0,0.01l0,0
	c0,0,0,0,0,0.01v0c0,0,0,0,0,0.01c0,0,0,0,0,0c0,0,0,0,0,0.01c0,0,0,0,0,0c0,0,0,0.01,0,0.01v0c0,0,0,0,0,0.01c0,0,0,0,0,0
	c0,0,0,0,0,0.01c0,0,0,0,0,0c0,0,0,0.01,0,0.01v0c0,0,0,0,0,0.01v0c0,0,0,0.01,0,0.01l0,0c0,0,0,0,0,0.01c0,0,0,0,0,0
	c0,0,0,0.01,0,0.01c0,0,0,0,0,0c0,0,0,0,0,0.01l0,0c0,0,0,0.01,0,0.01h0c0,0,0,0,0,0.01c0,0,0,0,0,0c0,0,0,0.01,0,0.01v0
	c0,0,0,0,0,0.01c0,0,0,0,0,0c0,0,0,0.01,0,0.01c0,0,0,0,0,0.01c0,0,0,0,0,0c0,0,0,0,0,0.01v0c0,0,0,0,0,0.01c0,0,0,0,0,0.01
	c0,0,0,0,0,0c0,0,0,0,0,0.01v0c0,0,0,0.01,0.01,0.01l0,0c0,0,0,0,0,0.01c0,0,0,0,0,0c0,0,0,0.01,0.01,0.01v0c0,0,0,0,0,0.01v0
	c0,0,0,0.01,0.01,0.01c0,0,0,0,0,0c0,0,0,0,0,0.01c0,0,0,0,0,0c0,0,0,0.01,0.01,0.01c0,0,0,0,0,0c0,0,0,0,0,0.01c0,0,0,0,0,0
	c0,0,0,0.01,0.01,0.01c0,0,0,0,0,0c0,0,0,0,0,0.01c0,0,0,0,0,0c0,0,0,0,0,0.01c0,0,0,0,0,0.01c0,0,0,0,0,0.01c0,0,0,0,0,0
	c0,0,0,0,0,0.01c0,0,0,0,0,0.01c0,0,0,0,0,0.01l0,0c0,0,0,0,0,0.01c0,0,0,0,0,0c0,0,0,0.01,0.01,0.01c0,0,0,0,0,0c0,0,0,0,0,0.01
	l0,0c0,0,0,0.01,0.01,0.01l0,0c0,0,0,0,0,0.01c0,0,0,0,0,0c0,0,0,0.01,0.01,0.01c0,0,0,0,0,0c0,0,0,0,0,0.01c0,0,0,0,0,0
	c0,0,0,0,0,0.01v0c0,0,0,0,0,0.01l0,0c0,0,0,0,0,0.01c0,0,0,0,0,0c0,0,0,0,0,0.01c0,0,0,0,0,0c0,0,0,0,0,0.01c0,0,0,0,0,0
	c0,0,0,0,0,0.01l0,0c0,0,0,0,0,0.01c0,0,0,0,0,0c0,0,0,0,0,0.01l0,0c0,0,0,0,0,0.01c0,0,0,0,0,0c0,0,0,0,0,0.01c0,0,0,0,0,0
	c0,0,0,0,0,0.01v0c0,0,0,0,0,0.01l0,0c0,0,0,0,0,0.01c0,0,0,0,0,0c0,0,0,0.01,0.01,0.01v0c0,0,0,0,0,0.01l0,0c0,0,0,0.01,0.01,0.01
	l0,0c0,0,0,0,0,0.01l0,0c0,0,0,0.01,0.01,0.01c0,0,0,0,0,0c0,0,0,0,0,0.01c0,0,0,0,0,0c0,0,0,0,0,0.01c0,0,0,0,0,0c0,0,0,0,0,0.01
	c0,0,0,0,0,0c0,0,0,0,0,0.01c0,0,0,0,0,0c0,0,0,0,0,0.01l0,0c0,0,0,0,0,0.01c0,0,0,0,0,0c0,0,0,0,0,0.01c0,0,0,0,0,0c0,0,0,0,0,0.01
	c0,0,0,0,0,0c0,0,0,0,0,0.01c0,0,0,0,0,0c0,0,0,0,0,0.01c0,0,0,0,0,0c0,0,0,0,0,0.01c0,0,0,0,0,0c0,0,0,0,0,0.01c0,0,0,0,0,0
	c0,0,0,0,0,0.01l0,0c0,0,0,0,0,0.01l0,0c0,0,0,0,0,0.01c0,0,0,0,0,0c0,0,0,0,0,0.01c0,0,0,0,0,0c0,0,0,0,0,0.01c0,0,0,0,0,0
	c0,0,0,0,0,0.01v0c0,0,0,0,0,0.01c0,0,0,0,0,0c0,0,0,0,0,0.01c0,0,0,0,0,0c0,0,0,0,0,0.01c0,0,0,0,0,0c0,0,0,0,0,0.01c0,0,0,0,0,0
	c0,0,0,0,0,0.01c0,0,0,0,0,0c0,0,0,0,0,0.01c0,0,0,0,0,0c0,0,0,0,0,0.01c0,0,0,0,0,0c0,0,0,0,0,0.01c0,0,0,0,0,0c0,0,0,0,0,0.01
	c0,0,0,0,0,0c0,0,0,0,0,0.01c0,0,0,0,0,0c0,0,0,0,0,0.01c0,0,0,0,0,0c0,0,0,0,0,0.01c0,0,0,0,0,0c0,0,0,0,0,0.01c0,0,0,0,0,0
	c0,0,0,0,0,0.01c0,0,0,0,0,0c0,0,0,0,0,0.01c0,0,0,0,0,0c0,0,0,0,0,0.01c0,0,0,0,0,0c0,0,0,0,0,0.01c0,0,0,0,0,0c0,0,0,0,0,0.01
	c0,0,0,0,0,0c0,0,0,0.01,0.01,0.01c0,0,0,0,0,0c0,0,0,0,0,0.01l0,0c0,0,0,0,0,0.01c0,0,0,0,0,0c0,0,0,0,0,0.01c0,0,0,0,0,0
	c0,0,0,0,0,0.01c0,0,0,0,0,0c0,0,0,0,0,0.01c0,0,0,0,0,0c0,0,0,0,0,0.01c0,0,0,0,0,0c0,0,0,0,0,0.01c0,0,0,0,0,0c0,0,0,0,0,0.01
	c0,0,0,0,0,0c0,0,0,0,0,0c0,0,0,0,0,0c0,0,0,0,0,0c0,0,0,0,0,0c0,0,0,0,0,0.01c0,0,0,0,0,0c0,0,0,0,0,0c0,0,0,0,0,0c0,0,0,0,0,0.01
	c0,0,0,0,0,0c0,0,0,0,0,0.01c0,0,0,0,0,0c0,0,0,0,0,0c0,0,0,0,0,0c0,0,0,0,0,0.01c0,0,0,0,0,0c0,0,0,0,0,0c0,0,0,0,0,0c0,0,0,0,0,0
	c0,0,0,0,0,0c0,0,0,0,0,0c0,0,0,0,0,0c0,0,0,0,0,0c0,0,0,0,0,0c0,0,0,0,0,0c0,0,0,0,0,0c0,0,0,0,0,0c0,0,0,0,0,0c0,0,0,0,0,0.01
	c0,0,0,0,0,0c0,0,0,0,0,0c0,0,0,0,0,0c0,0,0,0,0,0c0,0,0,0,0,0c0,0,0,0,0,0c0,0,0,0,0,0c0,0,0,0,0,0c0,0,0,0,0,0c0,0,0,0,0,0
	c0,0,0,0,0,0c0,0,0,0,0,0c0,0,0,0,0,0c0,0,0,0,0,0c0,0,0,0,0,0c0,0,0,0,0,0c0,0,0,0,0,0c0,0,0,0,0,0.01c0,0,0,0,0,0c0,0,0,0,0,0
	c0,0,0,0,0,0c0,0,0,0,0,0c0,0,0,0,0,0c0,0,0,0,0,0c0,0,0,0,0,0c0,0,0,0,0,0c0,0,0,0,0,0c0,0,0,0,0,0c0,0,0,0,0,0c0,0,0,0,0,0
	c0,0,0,0,0,0c0,0,0,0,0,0c0,0,0,0,0,0c0,0,0,0,0,0c0,0,0,0,0,0c0,0,0,0,0,0c0,0,0,0,0,0c0,0,0,0,0,0c0,0,0,0,0,0c0,0,0,0,0,0
	c0,0,0,0,0,0c0,0,0,0,0,0c0,0,0,0,0,0c0,0,0,0,0,0c0,0,0,0,0,0c0,0,0,0,0,0c0,0,0,0,0,0c0,0,0,0,0,0c0,0,0,0,0,0c0,0,0,0,0,0
	c0,0,0,0,0,0c0,0,0,0,0,0c0,0,0,0,0,0c0,0,0,0,0,0c0,0,0,0,0,0c0,0,0,0,0,0c0,0,0,0,0,0c0,0,0,0,0,0c0,0,0,0,0,0c0,0,0,0,0,0
	c0,0,0,0,0,0c0,0,0,0,0,0c0,0,0,0,0,0c0,0,0,0,0,0c0,0,0,0,0,0c0,0,0,0,0,0c0,0,0,0,0,0c0,0,0,0,0,0c0,0,0,0,0,0c0,0,0,0,0,0
	c0,0,0,0,0,0c0,0,0,0,0,0c0,0,0,0,0,0c0,0,0,0,0,0c0,0,0,0,0,0c0,0,0,0,0,0c0,0,0,0,0,0c0,0,0,0,0,0c0,0,0,0,0,0.01l0,0c0,0,0,0,0,0
	c0,0,0,0,0,0c0,0,0,0,0,0c0,0,0,0,0,0c0,0,0,0,0,0.01c0,0,0,0,0,0c0,0,0,0,0,0.01c0,0,0,0,0,0c0,0,0,0,0,0c0,0,0,0,0,0
	c0,0,0,0,0,0.01c0,0,0,0,0,0c0,0,0,0,0,0.01c0,0,0,0,0,0c0,0,0,0,0,0c0,0,0,0,0,0c0,0,0,0,0,0.01c0,0,0,0,0,0c0,0,0,0,0,0.01
	c0,0,0,0,0,0c0,0,0,0.01,0.01,0.01l0,0c0,0,0,0,0,0.01l0,0c0,0,0,0.01,0.01,0.01l0,0c0,0,0,0,0,0.01c0,0,0,0,0,0
	c0,0,0,0.01,0.01,0.01c0,0,0,0,0,0c0,0,0,0,0,0.01v0c0,0,0.01,0.01,0.01,0.01c0,0,0,0,0,0c0,0,0,0,0,0.01c0,0,0,0,0,0
	c0,0.01,0.01,0.01,0.01,0.02c0.31,0.43,0.68,0.81,1.1,1.13c0.22,0.17,0.49,0.25,0.75,0.25c0.38,0,0.76-0.17,1-0.5
	C4.18,51.68,4.07,50.9,3.51,50.49z"/>
<path d="M5.55,52.23c0,0.69,0.56,1.25,1.25,1.25h0.7v-2.5H6.8C6.11,50.98,5.55,51.54,5.55,52.23z"/>
<path d="M6.25,2.23c0-0.69-0.56-1.25-1.25-1.25c0,0,0,0-0.01,0c0,0,0,0,0,0c0,0,0,0-0.01,0c0,0,0,0,0,0c0,0,0,0-0.01,0c0,0,0,0,0,0
	c0,0,0,0-0.01,0c0,0,0,0,0,0c0,0,0,0-0.01,0h0c0,0,0,0-0.01,0c0,0,0,0,0,0c0,0,0,0-0.01,0c0,0,0,0,0,0c0,0,0,0-0.01,0c0,0,0,0,0,0
	c0,0-0.01,0-0.01,0c0,0,0,0,0,0c0,0,0,0-0.01,0c0,0,0,0,0,0c0,0-0.01,0-0.01,0c0,0,0,0,0,0c0,0,0,0-0.01,0c0,0,0,0,0,0
	c0,0,0,0-0.01,0h0c0,0,0,0-0.01,0c0,0,0,0,0,0c0,0-0.01,0-0.01,0c0,0,0,0,0,0c0,0,0,0-0.01,0c0,0,0,0,0,0c0,0,0,0-0.01,0
	c0,0,0,0,0,0c0,0,0,0-0.01,0h0c0,0,0,0-0.01,0c0,0,0,0,0,0c0,0,0,0-0.01,0c0,0,0,0,0,0c0,0,0,0-0.01,0h0c0,0,0,0-0.01,0c0,0,0,0,0,0
	c0,0,0,0-0.01,0c0,0,0,0-0.01,0c0,0,0,0,0,0c0,0-0.01,0-0.01,0h0c0,0,0,0-0.01,0c0,0,0,0,0,0c0,0,0,0-0.01,0c0,0,0,0,0,0
	c0,0,0,0-0.01,0c0,0,0,0,0,0c0,0,0,0-0.01,0c0,0,0,0,0,0c0,0,0,0-0.01,0c0,0,0,0,0,0c0,0,0,0-0.01,0h0c0,0,0,0-0.01,0c0,0,0,0,0,0
	c0,0,0,0-0.01,0c0,0,0,0,0,0c0,0,0,0-0.01,0c0,0,0,0,0,0c0,0,0,0-0.01,0c0,0,0,0,0,0c0,0,0,0-0.01,0c0,0,0,0,0,0c0,0,0,0-0.01,0l0,0
	c0,0,0,0-0.01,0c0,0,0,0,0,0c0,0-0.01,0-0.01,0c0,0,0,0,0,0c0,0,0,0-0.01,0c0,0,0,0,0,0c0,0,0,0-0.01,0c0,0,0,0,0,0c0,0,0,0-0.01,0
	c0,0,0,0,0,0c0,0,0,0-0.01,0h0c0,0,0,0-0.01,0c0,0,0,0,0,0c0,0-0.01,0-0.01,0c0,0,0,0-0.01,0c0,0,0,0,0,0c0,0,0,0-0.01,0
	c0,0,0,0,0,0c0,0,0,0-0.01,0c0,0,0,0,0,0c0,0,0,0-0.01,0c0,0,0,0,0,0c0,0,0,0-0.01,0c0,0,0,0,0,0c0,0-0.01,0-0.01,0c0,0,0,0,0,0
	c0,0,0,0-0.01,0c0,0,0,0,0,0c0,0,0,0-0.01,0c0,0,0,0,0,0C4.56,1,4.56,1,4.55,1c0,0,0,0,0,0c0,0,0,0-0.01,0c0,0,0,0,0,0
	c0,0,0,0-0.01,0c0,0,0,0,0,0c0,0-0.01,0-0.01,0c0,0,0,0,0,0c0,0,0,0-0.01,0h0c0,0,0,0-0.01,0c0,0,0,0,0,0c0,0,0,0-0.01,0h0
	c0,0,0,0-0.01,0c0,0,0,0,0,0c0,0,0,0-0.01,0h0c0,0,0,0-0.01,0c0,0,0,0,0,0c0,0-0.01,0-0.01,0c0,0,0,0,0,0c0,0,0,0-0.01,0h0
	c0,0,0,0-0.01,0h0c0,0,0,0-0.01,0c0,0,0,0,0,0c0,0,0,0-0.01,0c0,0,0,0,0,0c-0.01,0-0.01,0-0.01,0c0,0,0,0,0,0c0,0,0,0-0.01,0h0
	c0,0,0,0-0.01,0c0,0,0,0,0,0c0,0,0,0-0.01,0c0,0,0,0,0,0c0,0,0,0-0.01,0c0,0,0,0,0,0c0,0,0,0-0.01,0c0,0,0,0,0,0c0,0-0.01,0-0.01,0
	h0c0,0,0,0-0.01,0c0,0,0,0-0.01,0l0,0c0,0,0,0-0.01,0c0,0-0.01,0-0.01,0c0,0,0,0,0,0c0,0,0,0-0.01,0c0,0,0,0,0,0c0,0-0.01,0-0.01,0
	c0,0,0,0,0,0c0,0-0.01,0-0.01,0c0,0,0,0,0,0c0,0,0,0-0.01,0c0,0,0,0-0.01,0c0,0,0,0,0,0c0,0-0.01,0-0.01,0h0c0,0-0.01,0-0.01,0
	c0,0,0,0,0,0c0,0-0.01,0-0.01,0c0,0,0,0,0,0c0,0-0.01,0-0.01,0h0c0,0,0,0-0.01,0l0,0c0,0,0,0-0.01,0c0,0,0,0,0,0c0,0,0,0-0.01,0l0,0
	c0,0,0,0-0.01,0c0,0,0,0,0,0c-0.01,0-0.01,0-0.02,0h0c0,0-0.01,0-0.01,0h0c0,0-0.01,0-0.01,0c0,0,0,0,0,0c0,0,0,0-0.01,0h0
	c-0.01,0-0.01,0-0.01,0c0,0,0,0,0,0c-0.01,0-0.01,0-0.01,0c0,0,0,0,0,0c-0.01,0-0.01,0-0.01,0c0,0,0,0,0,0c-0.01,0-0.01,0-0.02,0
	c0,0,0,0,0,0c0,0-0.01,0-0.02,0h0c0,0-0.01,0-0.01,0c0,0,0,0,0,0c-0.01,0-0.02,0-0.04,0.01h0c0,0-0.01,0-0.01,0c0,0,0,0,0,0
	c-0.01,0-0.01,0-0.01,0c0,0,0,0,0,0c0,0,0,0-0.01,0c-0.01,0-0.01,0-0.02,0h0c-0.01,0-0.01,0-0.01,0h0c0,0-0.01,0-0.01,0
	C2.62,1.38,1.5,2.19,0.79,3.29c-0.37,0.58-0.2,1.35,0.38,1.72c0.21,0.14,0.44,0.2,0.68,0.2c0.41,0,0.81-0.2,1.05-0.57
	C3.36,3.91,4.15,3.48,5,3.48C5.69,3.48,6.25,2.92,6.25,2.23z"/>
<path d="M1.25,24.38c0.69,0,1.25-0.56,1.25-1.25v-5c0-0.69-0.56-1.25-1.25-1.25C0.56,16.88,0,17.44,0,18.13v5
	C0,23.82,0.56,24.38,1.25,24.38z"/>
<path d="M1.25,34.38c0.69,0,1.25-0.56,1.25-1.25v-5c0-0.69-0.56-1.25-1.25-1.25C0.56,26.88,0,27.44,0,28.13v5
	C0,33.82,0.56,34.38,1.25,34.38z"/>
<path d="M1.25,44.38c0.69,0,1.25-0.56,1.25-1.25v-5c0-0.69-0.56-1.25-1.25-1.25C0.56,36.88,0,37.44,0,38.13v5
	C0,43.82,0.56,44.38,1.25,44.38z"/>
<path d="M49.8,40.24c0.06-0.42,0.32-0.78,0.71-0.96l2.33-1.09l-11.58-2.41l3.62,10.73l1.07-2.53c0.15-0.37,0.48-0.64,0.87-0.73
	C46.9,43.21,47,43.2,47.1,43.2c0.3,0,0.59,0.1,0.81,0.3l7.44,6.39l2.2-2.25l-7.32-6.29C49.9,41.08,49.74,40.66,49.8,40.24z"/>
<path d="M75,10.98H15c-2.75,0-5,2.25-5,5v42.5c0,2.75,2.25,5,5,5h60c2.75,0,5-2.25,5-5v-42.5C80,13.23,77.75,10.98,75,10.98z
	 M41.88,25.98c0-0.69,0.56-1.25,1.25-1.25c0.69,0,1.25,0.56,1.25,1.25v3.75c0,0.69-0.56,1.25-1.25,1.25c-0.69,0-1.25-0.56-1.25-1.25
	V25.98z M35.21,37.21l-3.75,0.62c-0.07,0.01-0.14,0.02-0.21,0.02c-0.6,0-1.13-0.43-1.23-1.04c-0.11-0.68,0.35-1.32,1.03-1.44
	l3.75-0.62c0.68-0.11,1.33,0.35,1.44,1.03C36.35,36.46,35.89,37.1,35.21,37.21z M37.13,31.24c-0.24,0.24-0.56,0.37-0.88,0.37
	c-0.32,0-0.64-0.12-0.88-0.37l-3.75-3.75c-0.49-0.49-0.49-1.28,0-1.77c0.49-0.49,1.28-0.49,1.77,0l3.75,3.75
	C37.62,29.96,37.62,30.75,37.13,31.24z M60.27,48.43l-3.94,4.05c-0.24,0.25-0.57,0.38-0.9,0.38c-0.29,0-0.58-0.1-0.81-0.3
	l-7.03-6.04l-1.68,4c-0.2,0.48-0.68,0.78-1.2,0.76c-0.52-0.02-0.97-0.36-1.14-0.85l-5.38-15.92c-0.14-0.42-0.05-0.89,0.25-1.23
	c0.3-0.34,0.75-0.49,1.19-0.39l17.38,3.61c0.53,0.11,0.92,0.54,0.99,1.08c0.06,0.53-0.22,1.05-0.71,1.28l-3.97,1.87l6.87,5.9
	c0.26,0.22,0.42,0.55,0.43,0.89C60.64,47.85,60.51,48.19,60.27,48.43z"/>
</svg>
