<?xml version="1.0" encoding="utf-8"?>
<!-- Generator: Adobe Illustrator 24.1.0, SVG Export Plug-In . SVG Version: 6.00 Build 0)  -->
<svg version="1.1" xmlns="http://www.w3.org/2000/svg" xmlns:xlink="http://www.w3.org/1999/xlink" x="0px" y="0px"
	 viewBox="0 0 117 140" style="enable-background:new 0 0 117 140;" xml:space="preserve">
<style type="text/css">
	.st0{display:none;}
	.st1{display:inline;}
	.st2{fill:#E0E0E0;}
	.st3{fill:url(#SVGID_1_);}
	.st4{fill:#EFF2F4;}
	.st5{fill:#474747;}
	.st6{fill:#FFFFFF;}
	.st7{fill:url(#SVGID_2_);}
	.st8{fill:url(#SVGID_3_);}
	.st9{fill:url(#SVGID_4_);}
	.st10{fill:#5097FF;}
	.st11{fill:url(#SVGID_5_);}
	.st12{fill:url(#SVGID_6_);}
	.st13{fill:#ED4343;}
</style>
<g id="PNG" class="st0">
	<g class="st1">
		<g>
			<path class="st2" d="M84.64,132.56H9.29c-3.96,0-7.18-3.21-7.18-7.18V8.18C2.12,4.21,5.33,1,9.29,1h57.04l25.48,25.32v99.06
				C91.82,129.35,88.6,132.56,84.64,132.56z"/>
			<linearGradient id="SVGID_1_" gradientUnits="userSpaceOnUse" x1="69.6287" y1="36.1949" x2="91.8173" y2="36.1949">
				<stop  offset="0" style="stop-color:#C4C3C3"/>
				<stop  offset="0.9986" style="stop-color:#E0E0E0"/>
			</linearGradient>
			<path class="st3" d="M69.63,25.18l22.19,22.02V26.32c0,0-16.02,0-18.31,0S69.63,25.18,69.63,25.18z"/>
			<path class="st4" d="M73.51,26.32h18.31L66.33,1v18.15C66.33,23.11,69.55,26.32,73.51,26.32z"/>
		</g>
		<path class="st5" d="M102.32,139.32H63.47c-7.96,0-14.41-6.45-14.41-14.41v-8.62c0-7.96,6.45-14.41,14.41-14.41h38.85
			c7.96,0,14.41,6.45,14.41,14.41v8.62C116.73,132.87,110.28,139.32,102.32,139.32z"/>
		<g>
			<path class="st6" d="M70.36,122.2c-1.01,0.84-2.45,1.26-4.32,1.26h-3.58v6.19h-3.57v-17.22h7.39c1.7,0,3.06,0.44,4.08,1.33
				c1.01,0.89,1.52,2.26,1.52,4.12C71.87,119.92,71.36,121.36,70.36,122.2z M67.61,116c-0.46-0.38-1.09-0.57-1.91-0.57h-3.24v5.07
				h3.24c0.82,0,1.46-0.21,1.91-0.62c0.46-0.41,0.68-1.07,0.68-1.96C68.29,117.02,68.07,116.38,67.61,116z"/>
			<path class="st6" d="M74.7,112.44h3.77l6.83,12v-12h3.35v17.22h-3.6l-7.01-12.22v12.22H74.7V112.44z"/>
			<path class="st6" d="M103.6,117.81c-0.27-1.18-0.94-2-2-2.46c-0.59-0.26-1.25-0.39-1.97-0.39c-1.39,0-2.52,0.52-3.42,1.57
				c-0.89,1.05-1.34,2.62-1.34,4.72c0,2.11,0.48,3.61,1.45,4.49c0.97,0.88,2.06,1.32,3.29,1.32c1.21,0,2.2-0.35,2.97-1.04
				c0.77-0.69,1.25-1.6,1.42-2.72h-3.98v-2.87h7.17v9.24h-2.38l-0.36-2.15c-0.69,0.81-1.32,1.39-1.87,1.72
				c-0.95,0.58-2.12,0.87-3.5,0.87c-2.28,0-4.15-0.79-5.61-2.37c-1.52-1.59-2.28-3.76-2.28-6.51c0-2.79,0.77-5.02,2.3-6.7
				c1.53-1.68,3.56-2.52,6.09-2.52c2.19,0,3.95,0.55,5.27,1.66c1.33,1.11,2.09,2.49,2.28,4.15H103.6z"/>
		</g>
	</g>
</g>
<g id="JPG">
	<g>
		<g>
			<path class="st2" d="M84.64,132.56H9.29c-3.96,0-7.18-3.21-7.18-7.18V8.18C2.12,4.21,5.33,1,9.29,1h57.04l25.48,25.32v99.06
				C91.82,129.35,88.6,132.56,84.64,132.56z"/>
			<linearGradient id="SVGID_2_" gradientUnits="userSpaceOnUse" x1="69.6287" y1="36.1949" x2="91.8173" y2="36.1949">
				<stop  offset="0" style="stop-color:#C4C3C3"/>
				<stop  offset="0.9986" style="stop-color:#E0E0E0"/>
			</linearGradient>
			<path class="st7" d="M69.63,25.18l22.19,22.02V26.32c0,0-16.02,0-18.31,0S69.63,25.18,69.63,25.18z"/>
			<path class="st4" d="M73.51,26.32h18.31L66.33,1v18.15C66.33,23.11,69.55,26.32,73.51,26.32z"/>
		</g>
		<path class="st5" d="M102.32,139.32H63.47c-7.96,0-14.41-6.45-14.41-14.41v-8.62c0-7.96,6.45-14.41,14.41-14.41h38.85
			c7.96,0,14.41,6.45,14.41,14.41v8.62C116.73,132.87,110.28,139.32,102.32,139.32z"/>
		<g>
			<path class="st6" d="M70.36,122.2c-1.01,0.84-2.45,1.26-4.32,1.26h-3.58v6.19h-3.57v-17.22h7.39c1.7,0,3.06,0.44,4.08,1.33
				c1.01,0.89,1.52,2.26,1.52,4.12C71.87,119.92,71.36,121.36,70.36,122.2z M67.61,116c-0.46-0.38-1.09-0.57-1.91-0.57h-3.24v5.07
				h3.24c0.82,0,1.46-0.21,1.91-0.62c0.46-0.41,0.68-1.07,0.68-1.96C68.29,117.02,68.07,116.38,67.61,116z"/>
			<path class="st6" d="M74.7,112.44h3.77l6.83,12v-12h3.35v17.22h-3.6l-7.01-12.22v12.22H74.7V112.44z"/>
			<path class="st6" d="M103.6,117.81c-0.27-1.18-0.94-2-2-2.46c-0.59-0.26-1.25-0.39-1.97-0.39c-1.39,0-2.52,0.52-3.42,1.57
				c-0.89,1.05-1.34,2.62-1.34,4.72c0,2.11,0.48,3.61,1.45,4.49c0.97,0.88,2.06,1.32,3.29,1.32c1.21,0,2.2-0.35,2.97-1.04
				c0.77-0.69,1.25-1.6,1.42-2.72h-3.98v-2.87h7.17v9.24h-2.38l-0.36-2.15c-0.69,0.81-1.32,1.39-1.87,1.72
				c-0.95,0.58-2.12,0.87-3.5,0.87c-2.28,0-4.15-0.79-5.61-2.37c-1.52-1.59-2.28-3.76-2.28-6.51c0-2.79,0.77-5.02,2.3-6.7
				c1.53-1.68,3.56-2.52,6.09-2.52c2.19,0,3.95,0.55,5.27,1.66c1.33,1.11,2.09,2.49,2.28,4.15H103.6z"/>
		</g>
	</g>
	<g>
		<g>
			<path class="st2" d="M84.36,132.71H9.16c-3.96,0-7.16-3.21-7.16-7.16V8.58c0-3.96,3.21-7.16,7.16-7.16h56.92l25.43,25.27v98.86
				C91.52,129.5,88.31,132.71,84.36,132.71z"/>
			<linearGradient id="SVGID_3_" gradientUnits="userSpaceOnUse" x1="69.3752" y1="36.5379" x2="91.5193" y2="36.5379">
				<stop  offset="0" style="stop-color:#C4C3C3"/>
				<stop  offset="0.9986" style="stop-color:#E0E0E0"/>
			</linearGradient>
			<path class="st8" d="M69.38,25.55l22.14,21.98V26.69c0,0-15.99,0-18.27,0S69.38,25.55,69.38,25.55z"/>
			<path class="st4" d="M73.25,26.69h18.27L66.09,1.41v18.11C66.09,23.48,69.29,26.69,73.25,26.69z"/>
		</g>
		<path class="st5" d="M101.97,139.45H63.26c-7.96,0-14.41-6.45-14.41-14.41v-8.55c0-7.96,6.45-14.41,14.41-14.41h38.72
			c7.96,0,14.41,6.45,14.41,14.41v8.55C116.38,133,109.93,139.45,101.97,139.45z"/>
		<g>
			<path class="st6" d="M62.65,123.29v0.4c0.03,1.33,0.17,2.26,0.41,2.8c0.24,0.54,0.77,0.81,1.57,0.81c0.8,0,1.32-0.3,1.58-0.89
				c0.15-0.35,0.23-0.94,0.23-1.77v-12.02h3.59v11.96c0,1.46-0.25,2.62-0.74,3.47c-0.84,1.45-2.34,2.17-4.52,2.17
				s-3.64-0.58-4.39-1.75c-0.74-1.17-1.12-2.76-1.12-4.78v-0.4H62.65z"/>
			<path class="st6" d="M85.36,122.37c-1.01,0.84-2.44,1.26-4.31,1.26h-3.58v6.18h-3.57v-17.18h7.38c1.7,0,3.06,0.44,4.07,1.33
				c1.01,0.89,1.52,2.26,1.52,4.11C86.87,120.1,86.37,121.53,85.36,122.37z M82.62,116.18c-0.45-0.38-1.09-0.57-1.91-0.57h-3.24
				v5.06h3.24c0.82,0,1.46-0.21,1.91-0.62c0.45-0.41,0.68-1.06,0.68-1.96C83.3,117.2,83.07,116.56,82.62,116.18z"/>
			<path class="st6" d="M101.3,117.99c-0.27-1.17-0.94-1.99-1.99-2.46c-0.59-0.26-1.25-0.38-1.97-0.38c-1.38,0-2.52,0.52-3.41,1.56
				c-0.89,1.04-1.33,2.61-1.33,4.71c0,2.11,0.48,3.6,1.45,4.48c0.96,0.88,2.06,1.31,3.29,1.31c1.2,0,2.19-0.35,2.96-1.04
				c0.77-0.69,1.24-1.6,1.42-2.72h-3.97v-2.87h7.16v9.22h-2.38l-0.36-2.14c-0.69,0.81-1.31,1.38-1.86,1.72
				c-0.95,0.58-2.11,0.87-3.5,0.87c-2.28,0-4.14-0.79-5.59-2.36c-1.52-1.58-2.27-3.75-2.27-6.5c0-2.78,0.77-5.01,2.3-6.69
				c1.53-1.68,3.56-2.52,6.07-2.52c2.18,0,3.94,0.55,5.26,1.66c1.32,1.11,2.08,2.49,2.28,4.14H101.3z"/>
		</g>
	</g>
</g>
<g id="DOC" class="st0">
	<g class="st1">
		<g>
			<path class="st2" d="M84,132.26H8.84c-3.95,0-7.16-3.2-7.16-7.16V8.2c0-3.95,3.2-7.16,7.16-7.16h56.89L91.15,26.3v98.8
				C91.15,129.05,87.95,132.26,84,132.26z"/>
			<linearGradient id="SVGID_4_" gradientUnits="userSpaceOnUse" x1="69.022" y1="36.1434" x2="91.1534" y2="36.1434">
				<stop  offset="0" style="stop-color:#C4C3C3"/>
				<stop  offset="0.9986" style="stop-color:#E0E0E0"/>
			</linearGradient>
			<path class="st9" d="M69.02,25.16l22.13,21.96V26.3c0,0-15.98,0-18.26,0S69.02,25.16,69.02,25.16z"/>
			<path class="st4" d="M72.89,26.3h18.26L65.74,1.04v18.1C65.74,23.09,68.94,26.3,72.89,26.3z"/>
		</g>
		<path class="st10" d="M101.59,139H62.91c-7.96,0-14.41-6.45-14.41-14.41v-8.53c0-7.96,6.45-14.41,14.41-14.41h38.68
			c7.96,0,14.41,6.45,14.41,14.41v8.53C116,132.55,109.55,139,101.59,139z"/>
		<g>
			<path class="st6" d="M67.62,112.56c1.2,0.4,2.18,1.12,2.93,2.18c0.6,0.85,1.01,1.78,1.22,2.77c0.22,0.99,0.33,1.94,0.33,2.84
				c0,2.28-0.46,4.22-1.38,5.8c-1.24,2.14-3.16,3.2-5.76,3.2h-7.4v-17.17h7.4C66.03,112.21,66.92,112.33,67.62,112.56z
				 M61.05,115.17v11.21h3.31c1.7,0,2.88-0.83,3.55-2.5c0.37-0.92,0.55-2.01,0.55-3.27c0-1.75-0.27-3.09-0.82-4.02
				c-0.55-0.94-1.64-1.4-3.27-1.4H61.05z"/>
			<path class="st6" d="M88.01,127.83c-1.3,1.34-3.17,2-5.63,2c-2.45,0-4.33-0.67-5.63-2c-1.74-1.64-2.61-4-2.61-7.08
				c0-3.15,0.87-5.51,2.61-7.08c1.3-1.34,3.17-2,5.63-2c2.45,0,4.33,0.67,5.63,2c1.73,1.58,2.6,3.94,2.6,7.08
				C90.61,123.84,89.75,126.2,88.01,127.83z M85.77,125.23c0.83-1.05,1.25-2.54,1.25-4.47c0-1.93-0.42-3.42-1.25-4.47
				c-0.83-1.05-1.96-1.58-3.38-1.58c-1.42,0-2.56,0.52-3.4,1.57c-0.85,1.05-1.27,2.54-1.27,4.47s0.42,3.42,1.27,4.47
				c0.85,1.05,1.98,1.57,3.4,1.57C83.81,126.8,84.94,126.27,85.77,125.23z"/>
			<path class="st6" d="M94.99,113.98c1.38-1.41,3.14-2.12,5.28-2.12c2.86,0,4.95,0.95,6.27,2.84c0.73,1.06,1.12,2.13,1.18,3.2
				h-3.59c-0.23-0.82-0.52-1.44-0.88-1.86c-0.64-0.75-1.59-1.12-2.84-1.12c-1.28,0-2.29,0.53-3.02,1.58
				c-0.74,1.05-1.11,2.54-1.11,4.47c0,1.93,0.39,3.37,1.17,4.33c0.78,0.96,1.77,1.44,2.97,1.44c1.23,0,2.17-0.41,2.81-1.23
				c0.36-0.44,0.65-1.11,0.89-1.99h3.56c-0.31,1.87-1.09,3.39-2.36,4.57c-1.26,1.17-2.88,1.76-4.86,1.76
				c-2.44,0-4.36-0.79-5.76-2.38c-1.4-1.59-2.1-3.77-2.1-6.55C92.6,117.92,93.4,115.61,94.99,113.98z"/>
		</g>
	</g>
</g>
<g id="PDF" class="st0">
	<g class="st1">
		<g>
			<path class="st2" d="M84,132.26H8.84c-3.95,0-7.16-3.2-7.16-7.16V8.2c0-3.95,3.2-7.16,7.16-7.16h56.89L91.15,26.3v98.8
				C91.15,129.05,87.95,132.26,84,132.26z"/>
			<linearGradient id="SVGID_5_" gradientUnits="userSpaceOnUse" x1="69.022" y1="36.1434" x2="91.1534" y2="36.1434">
				<stop  offset="0" style="stop-color:#C4C3C3"/>
				<stop  offset="0.9986" style="stop-color:#E0E0E0"/>
			</linearGradient>
			<path class="st11" d="M69.02,25.16l22.13,21.96V26.3c0,0-15.98,0-18.26,0S69.02,25.16,69.02,25.16z"/>
			<path class="st4" d="M72.89,26.3h18.26L65.74,1.04v18.1C65.74,23.09,68.94,26.3,72.89,26.3z"/>
		</g>
		<path class="st10" d="M101.59,139H62.91c-7.96,0-14.41-6.45-14.41-14.41v-8.53c0-7.96,6.45-14.41,14.41-14.41h38.68
			c7.96,0,14.41,6.45,14.41,14.41v8.53C116,132.55,109.55,139,101.59,139z"/>
		<g>
			<path class="st6" d="M67.62,112.56c1.2,0.4,2.18,1.12,2.93,2.18c0.6,0.85,1.01,1.78,1.22,2.77c0.22,0.99,0.33,1.94,0.33,2.84
				c0,2.28-0.46,4.22-1.38,5.8c-1.24,2.14-3.16,3.2-5.76,3.2h-7.4v-17.17h7.4C66.03,112.21,66.92,112.33,67.62,112.56z
				 M61.05,115.17v11.21h3.31c1.7,0,2.88-0.83,3.55-2.5c0.37-0.92,0.55-2.01,0.55-3.27c0-1.75-0.27-3.09-0.82-4.02
				c-0.55-0.94-1.64-1.4-3.27-1.4H61.05z"/>
			<path class="st6" d="M88.01,127.83c-1.3,1.34-3.17,2-5.63,2c-2.45,0-4.33-0.67-5.63-2c-1.74-1.64-2.61-4-2.61-7.08
				c0-3.15,0.87-5.51,2.61-7.08c1.3-1.34,3.17-2,5.63-2c2.45,0,4.33,0.67,5.63,2c1.73,1.58,2.6,3.94,2.6,7.08
				C90.61,123.84,89.75,126.2,88.01,127.83z M85.77,125.23c0.83-1.05,1.25-2.54,1.25-4.47c0-1.93-0.42-3.42-1.25-4.47
				c-0.83-1.05-1.96-1.58-3.38-1.58c-1.42,0-2.56,0.52-3.4,1.57c-0.85,1.05-1.27,2.54-1.27,4.47s0.42,3.42,1.27,4.47
				c0.85,1.05,1.98,1.57,3.4,1.57C83.81,126.8,84.94,126.27,85.77,125.23z"/>
			<path class="st6" d="M94.99,113.98c1.38-1.41,3.14-2.12,5.28-2.12c2.86,0,4.95,0.95,6.27,2.84c0.73,1.06,1.12,2.13,1.18,3.2
				h-3.59c-0.23-0.82-0.52-1.44-0.88-1.86c-0.64-0.75-1.59-1.12-2.84-1.12c-1.28,0-2.29,0.53-3.02,1.58
				c-0.74,1.05-1.11,2.54-1.11,4.47c0,1.93,0.39,3.37,1.17,4.33c0.78,0.96,1.77,1.44,2.97,1.44c1.23,0,2.17-0.41,2.81-1.23
				c0.36-0.44,0.65-1.11,0.89-1.99h3.56c-0.31,1.87-1.09,3.39-2.36,4.57c-1.26,1.17-2.88,1.76-4.86,1.76
				c-2.44,0-4.36-0.79-5.76-2.38c-1.4-1.59-2.1-3.77-2.1-6.55C92.6,117.92,93.4,115.61,94.99,113.98z"/>
		</g>
	</g>
	<g class="st1">
		<g>
			<path class="st2" d="M84.61,132.27H9.53c-3.95,0-7.15-3.2-7.15-7.15V8.34c0-3.95,3.2-7.15,7.15-7.15h56.83l25.39,25.23v98.7
				C91.76,129.07,88.55,132.27,84.61,132.27z"/>
			<linearGradient id="SVGID_6_" gradientUnits="userSpaceOnUse" x1="69.6482" y1="36.2553" x2="91.7555" y2="36.2553">
				<stop  offset="0" style="stop-color:#C4C3C3"/>
				<stop  offset="0.9986" style="stop-color:#E0E0E0"/>
			</linearGradient>
			<path class="st12" d="M69.65,25.29l22.11,21.94V26.42c0,0-15.96,0-18.24,0C71.24,26.42,69.65,25.29,69.65,25.29z"/>
			<path class="st4" d="M73.51,26.42h18.24L66.36,1.19v18.08C66.36,23.22,69.57,26.42,73.51,26.42z"/>
		</g>
		<path class="st13" d="M102.17,139h-38.6c-7.96,0-14.41-6.45-14.41-14.41v-8.48c0-7.96,6.45-14.41,14.41-14.41h38.6
			c7.96,0,14.41,6.45,14.41,14.41v8.48C116.58,132.55,110.12,139,102.17,139z"/>
		<g>
			<path class="st6" d="M72.36,121.95c-1,0.84-2.44,1.26-4.3,1.26h-3.57v6.17h-3.56v-17.15h7.36c1.7,0,3.05,0.44,4.06,1.33
				c1.01,0.88,1.51,2.25,1.51,4.11C73.87,119.68,73.37,121.11,72.36,121.95z M69.63,115.77c-0.45-0.38-1.09-0.57-1.91-0.57h-3.23
				v5.05h3.23c0.82,0,1.45-0.21,1.91-0.62c0.45-0.41,0.68-1.06,0.68-1.95C70.31,116.78,70.08,116.15,69.63,115.77z"/>
			<path class="st6" d="M86.79,112.59c1.2,0.4,2.18,1.12,2.92,2.18c0.6,0.85,1.01,1.78,1.22,2.77c0.22,0.99,0.33,1.94,0.33,2.84
				c0,2.28-0.46,4.21-1.37,5.8c-1.24,2.13-3.16,3.2-5.75,3.2h-7.4v-17.15h7.4C85.2,112.23,86.09,112.36,86.79,112.59z M80.22,115.2
				v11.19h3.31c1.69,0,2.87-0.83,3.54-2.5c0.37-0.92,0.55-2.01,0.55-3.27c0-1.75-0.27-3.09-0.82-4.02c-0.55-0.93-1.64-1.4-3.27-1.4
				H80.22z"/>
			<path class="st6" d="M93.96,112.24h12.23v3.01h-8.67v3.94h7.6v2.98h-7.6v7.19h-3.56V112.24z"/>
		</g>
	</g>
</g>
</svg>
