<?xml version="1.0" encoding="utf-8"?>
<!-- Generator: Adobe Illustrator 24.1.0, SVG Export Plug-In . SVG Version: 6.00 Build 0)  -->
<svg version="1.1" xmlns="http://www.w3.org/2000/svg" xmlns:xlink="http://www.w3.org/1999/xlink" x="0px" y="0px"
	 viewBox="0 0 140 140" style="enable-background:new 0 0 140 140;" xml:space="preserve">
<style type="text/css">
	.st0{display:none;}
	.st1{display:inline;}
	.st2{fill:#73D7FF;}
	.st3{fill:#FFFFFF;}
	.st4{fill:#003575;}
</style>
<g id="Layer_1" class="st0">
	<g class="st1">
		<g>
			<g>
				<ellipse class="st2" cx="69.88" cy="48.45" rx="46.45" ry="46.09"/>
			</g>
		</g>
		<g>
			<g>
				<rect x="49.05" y="97.88" class="st3" width="41.66" height="25.01"/>
			</g>
		</g>
		<g>
			<g>
				<rect x="62.23" y="124.91" class="st2" width="14.49" height="9.83"/>
			</g>
		</g>
		<g>
			<path class="st4" d="M69.88,0.24c-28.7,0-52.04,22.35-52.04,49.82c0,12.8,5.06,24.96,14.25,34.24c0.56,0.57,1.32,0.89,2.12,0.89
				c0.8,0,1.54-0.31,2.11-0.87c0.57-0.56,0.89-1.32,0.89-2.11c0.01-0.8-0.3-1.55-0.87-2.12c-8.07-8.16-12.52-18.82-12.52-30.03
				c0-24.17,20.66-43.82,46.05-43.82c25.39,0,46.05,19.66,46.05,43.82c0,11.85-4.89,22.95-13.77,31.26
				c-0.58,0.54-0.92,1.28-0.95,2.08c-0.03,0.8,0.26,1.56,0.81,2.15c0.57,0.61,1.35,0.95,2.19,0.95c0.76,0,1.49-0.29,2.04-0.81
				c10.11-9.45,15.67-22.1,15.67-35.63C121.92,22.59,98.58,0.24,69.88,0.24z"/>
			<path class="st4" d="M60.96,59.54c0.94,0,2.14-0.38,2.68-1.46l4.93-9.86c0.25-0.5,0.75-0.81,1.31-0.81
				c0.55,0,1.06,0.31,1.31,0.81l4.93,9.86c0.51,1.02,1.54,1.66,2.68,1.66c1.14,0,2.17-0.63,2.68-1.65l8.92-17.84
				c0.36-0.72,0.42-1.53,0.16-2.29c-0.25-0.76-0.79-1.37-1.5-1.73c-0.42-0.21-0.87-0.32-1.34-0.32c-1.15,0-2.17,0.63-2.68,1.65
				l-4.93,9.86c-0.25,0.5-0.75,0.81-1.31,0.81c-0.55,0-1.06-0.31-1.31-0.81l-4.93-9.86c-0.54-1.07-1.74-1.46-2.68-1.46
				c-0.94,0-2.14,0.38-2.68,1.46l-4.93,9.86c-0.25,0.5-0.75,0.81-1.31,0.81s-1.06-0.31-1.31-0.81l-4.93-9.86
				c-0.51-1.02-1.54-1.66-2.69-1.66c-0.47,0-0.92,0.11-1.34,0.31c-0.72,0.36-1.25,0.97-1.5,1.73c-0.25,0.76-0.2,1.57,0.16,2.29
				l8.92,17.83C58.82,59.16,60.02,59.54,60.96,59.54z"/>
			<path class="st4" d="M95.17,103.56c0-5.34-4.34-9.68-9.68-9.68h-2.23c-0.81,0-1.46-0.65-1.46-1.46V74.58c0-1.65-1.34-3-3-3
				c-1.65,0-3,1.34-3,3v17.84c0,0.81-0.66,1.46-1.46,1.46h-8.92c-0.81,0-1.46-0.65-1.46-1.46V74.58c0-1.65-1.34-3-3-3s-3,1.34-3,3
				v17.84c0,0.81-0.65,1.46-1.46,1.46h-2.23c-5.34,0-9.68,4.34-9.68,9.68c0,2.08,0.69,4.09,1.99,5.81c0.4,0.52,0.4,1.24,0,1.77
				c-1.3,1.72-1.99,3.73-1.99,5.81c0,5.34,4.34,9.68,9.68,9.68h2.23c0.81,0,1.46,0.65,1.46,1.46c0,6.57,5.34,11.91,11.91,11.91
				c6.57,0,11.91-5.34,11.91-11.91c0-0.81,0.66-1.46,1.46-1.46h2.23c5.34,0,9.68-4.34,9.68-9.68c0-2.08-0.69-4.09-1.99-5.81
				c-0.4-0.52-0.4-1.24,0-1.77C94.48,107.65,95.17,105.64,95.17,103.56z M69.88,134.01c-3.27,0-5.92-2.66-5.92-5.92
				c0-0.81,0.65-1.46,1.46-1.46h8.92c0.81,0,1.46,0.65,1.46,1.46C75.8,131.35,73.15,134.01,69.88,134.01z M85.49,120.63H54.27
				c-2,0-3.69-1.69-3.69-3.69c0-2,1.69-3.69,3.69-3.69h31.21c2,0,3.69,1.69,3.69,3.69C89.18,118.94,87.49,120.63,85.49,120.63z
				 M85.49,107.26H54.27c-2,0-3.69-1.69-3.69-3.69c0-2,1.69-3.69,3.69-3.69h31.21c2,0,3.69,1.69,3.69,3.69
				C89.18,105.57,87.49,107.26,85.49,107.26z"/>
			<path class="st4" d="M127.85,15.15c0.8,0,1.55-0.31,2.12-0.88l8.92-8.92c0.57-0.57,0.88-1.32,0.88-2.12
				c0-0.8-0.31-1.55-0.88-2.12c-0.57-0.57-1.32-0.88-2.12-0.88s-1.55,0.31-2.12,0.88l-8.92,8.92c-0.57,0.57-0.88,1.32-0.88,2.12
				c0,0.8,0.31,1.55,0.88,2.12C126.29,14.84,127.05,15.15,127.85,15.15z"/>
			<path class="st4" d="M5.11,1.12C4.55,0.55,3.8,0.24,3,0.24c-0.8,0-1.55,0.31-2.12,0.88S0,2.44,0,3.24c0,0.8,0.31,1.55,0.88,2.12
				l8.92,8.92c0.57,0.57,1.32,0.88,2.12,0.88c0.8,0,1.55-0.31,2.12-0.88s0.88-1.32,0.88-2.12c0-0.8-0.31-1.55-0.88-2.12L5.11,1.12z"
				/>
			<path class="st4" d="M11.91,84.96c-0.8,0-1.55,0.31-2.12,0.88l-8.92,8.92C0.31,95.32,0,96.07,0,96.87c0,0.8,0.31,1.55,0.88,2.12
				C1.44,99.56,2.2,99.87,3,99.87c0.8,0,1.55-0.31,2.12-0.88l8.92-8.92c0.57-0.57,0.88-1.32,0.88-2.12c0-0.8-0.31-1.55-0.88-2.12
				S12.71,84.96,11.91,84.96z"/>
			<path class="st4" d="M129.96,85.84c-0.57-0.57-1.32-0.88-2.12-0.88c-0.8,0-1.55,0.31-2.12,0.88c-0.57,0.57-0.88,1.32-0.88,2.12
				c0,0.8,0.31,1.55,0.88,2.12l8.92,8.92c0.57,0.57,1.32,0.88,2.12,0.88s1.55-0.31,2.12-0.88c0.57-0.57,0.88-1.32,0.88-2.12
				c0-0.8-0.31-1.55-0.88-2.12L129.96,85.84z"/>
		</g>
	</g>
</g>
<g id="Layer_2" class="st0">
	<g class="st1">
		<g>
			<g>
				<rect x="4.94" y="34.27" class="st2" width="132.06" height="93.62"/>
			</g>
		</g>
		<g>
			<g>
				<rect x="53.07" y="68.61" class="st3" width="34.44" height="25.21"/>
			</g>
		</g>
		<g>
			<g>
				<g>
					<path class="st4" d="M128.03,29.32c-0.78-0.03-1.4-0.68-1.4-1.46v-4.49c0-1.65-1.34-2.99-2.99-2.99
						c-1.65,0-2.99,1.34-2.99,2.99v4.46c0,0.81-0.66,1.46-1.46,1.46h-8.92c-0.81,0-1.46-0.66-1.46-1.46v-8.92
						c0-6.57-5.34-11.91-11.91-11.91h-53.5c-6.57,0-11.91,5.34-11.91,11.91v8.92c0,0.81-0.66,1.46-1.46,1.46H21.1
						c-0.81,0-1.46-0.66-1.46-1.46v-4.46c0-1.65-1.34-2.99-2.99-2.99c-1.65,0-2.99,1.34-2.99,2.99v4.49c0,0.78-0.62,1.43-1.4,1.46
						C5.53,29.58,0.27,35.05,0.27,41.76v84.15c0,1.65,1.34,2.99,2.99,2.99h44.58h5.01h84.15c1.65,0,2.99-1.34,2.99-2.99V41.76
						C140,35.05,134.74,29.58,128.03,29.32z M37.47,18.91c0-3.27,2.66-5.92,5.92-5.92h53.5c3.26,0,5.92,2.66,5.92,5.92v8.92
						c0,0.81-0.66,1.46-1.46,1.46H38.93c-0.81,0-1.46-0.66-1.46-1.46V18.91z M134.01,121.45c0,0.81-0.66,1.46-1.46,1.46H52.85h-5.01
						H7.72c-0.81,0-1.46-0.66-1.46-1.46V82.67c0-0.54,0.29-1.03,0.76-1.29c0.22-0.12,0.46-0.18,0.7-0.18c0.28,0,0.55,0.08,0.79,0.23
						c2.91,1.88,6.27,2.87,9.72,2.87h29.6c0.81,0,1.46,0.66,1.46,1.46v5.42c0,3.58,2.91,6.49,6.49,6.49h28.68
						c3.58,0,6.49-2.91,6.49-6.49v-5.42c0-0.81,0.65-1.46,1.46-1.46h29.6c3.46,0,6.82-0.99,9.72-2.87c0.24-0.16,0.52-0.23,0.79-0.23
						c0.24,0,0.48,0.06,0.7,0.18c0.47,0.26,0.76,0.75,0.76,1.29V121.45z M55.3,90.24V72.41c0-0.81,0.66-1.46,1.46-1.46h26.75
						c0.81,0,1.46,0.66,1.46,1.46v17.83c0,0.81-0.66,1.46-1.46,1.46H56.76C55.95,91.7,55.3,91.05,55.3,90.24z M134.01,66.35
						c0,6.61-5.38,11.98-11.98,11.98h-29.6c-0.81,0-1.46-0.66-1.46-1.46v-5.42c0-3.58-2.91-6.49-6.49-6.49H55.79
						c-3.58,0-6.49,2.91-6.49,6.49v5.42c0,0.81-0.66,1.46-1.46,1.46h-29.6c-6.61,0-11.98-5.37-11.98-11.98V41.76
						c0-3.57,2.91-6.48,6.48-6.48h114.79c3.57,0,6.48,2.91,6.48,6.48V66.35z"/>
				</g>
			</g>
			<g>
				<g>
					<path class="st4" d="M67.14,81.32L67.14,81.32c0-1.65,1.34-2.99,2.99-2.99l0,0c1.65,0,2.99,1.34,2.99,2.99l0,0
						c0,1.65-1.34,3-2.99,3l0,0C68.48,84.32,67.14,82.98,67.14,81.32z"/>
				</g>
			</g>
		</g>
	</g>
</g>
<g id="Layer_3" class="st0">
	<g class="st1">
		<polygon class="st3" points="22.18,95.75 41.67,86.4 54.4,90.85 62.36,99.13 82.84,100.13 89.6,105.5 91.79,112.42 125.8,105.5 
			134.94,107.49 136.93,115.84 80.45,137.72 20.99,122 		"/>
		<rect x="3.09" y="75.47" class="st2" width="16.9" height="60.06"/>
		<circle class="st2" cx="96.63" cy="43.8" r="38.32"/>
		<g>
			<path class="st4" d="M96.52,57.95c-2.77,0-5.19-1.47-6.02-3.67c-0.44-1.16-1.56-1.94-2.8-1.94c-0.36,0-0.72,0.07-1.06,0.2
				c-0.75,0.28-1.35,0.84-1.68,1.57c-0.33,0.73-0.36,1.55-0.07,2.3c1.26,3.33,4.14,5.98,7.71,7.09c0.61,0.19,1.03,0.76,1.03,1.4
				v0.64c0,1.65,1.35,3,3,3c1.65,0,3-1.35,3-3v-0.84c0-0.62,0.39-1.17,0.98-1.38c1.62-0.57,3.03-1.4,4.19-2.45
				c2.43-2.2,3.77-5.17,3.77-8.37c0-2.92-1.41-8.38-10.83-12.08c-2.63-1.03-7.03-3.25-7.03-6.5c0-1.5,0.62-2.85,1.8-3.93
				c1.09-0.99,2.6-1.53,4.24-1.53c2.77,0,5.19,1.47,6.02,3.67c0.44,1.16,1.57,1.94,2.81,1.94c0.36,0,0.72-0.07,1.06-0.19
				c0.75-0.28,1.35-0.84,1.68-1.57c0.33-0.73,0.36-1.55,0.07-2.3c-1.26-3.33-4.14-5.98-7.71-7.09c-0.61-0.19-1.03-0.76-1.03-1.4
				v-0.64c0-1.65-1.35-3-3-3c-1.65,0-3,1.35-3,3v0.84c0,0.62-0.39,1.17-0.98,1.38c-1.62,0.57-3.03,1.4-4.19,2.45
				c-2.43,2.2-3.77,5.17-3.77,8.37c0,2.92,1.41,8.38,10.83,12.08c2.63,1.03,7.03,3.25,7.03,6.5c0,1.49-0.62,2.85-1.8,3.93
				C99.67,57.4,98.16,57.95,96.52,57.95z"/>
			<path class="st4" d="M56.45,49.1c-0.23,0-0.46,0.03-0.69,0.09c-0.78,0.18-1.45,0.65-1.87,1.33c-0.43,0.68-0.56,1.48-0.38,2.27
				c0.36,1.57,0.83,3.19,1.41,4.82c6.16,17.23,22.72,28.8,41.21,28.8c24.1,0,43.7-19.38,43.7-43.2c0-23.82-19.6-43.2-43.7-43.2
				c-4.99,0-9.88,0.83-14.55,2.45c-0.76,0.26-1.37,0.81-1.71,1.53c-0.35,0.72-0.4,1.54-0.13,2.29c0.42,1.21,1.56,2.02,2.83,2.02
				c0.34,0,0.67-0.06,1-0.17C87.58,6.72,91.81,6,96.12,6c20.79,0,37.7,16.69,37.7,37.2c0,20.51-16.91,37.2-37.7,37.2
				c-15.97,0-30.26-9.98-35.56-24.82c-0.49-1.36-0.9-2.76-1.21-4.14C59.04,50.09,57.82,49.1,56.45,49.1z"/>
			<path class="st4" d="M56.43,14.93c1.65,0,3-1.35,3-3V7.47c0-1.65-1.35-3-3-3c-1.65,0-3,1.35-3,3v4.47
				C53.42,13.59,54.77,14.93,56.43,14.93z"/>
			<path class="st4" d="M56.43,37.27c1.65,0,3-1.35,3-3V29.8c0-1.65-1.35-3-3-3c-1.65,0-3,1.35-3,3v4.47
				C53.42,35.92,54.77,37.27,56.43,37.27z"/>
			<path class="st4" d="M65.36,23.87h4.47c1.65,0,3-1.35,3-3c0-1.65-1.35-3-3-3h-4.47c-1.65,0-3,1.35-3,3
				C62.36,22.52,63.71,23.87,65.36,23.87z"/>
			<path class="st4" d="M43.03,23.87h4.47c1.65,0,3-1.35,3-3c0-1.65-1.35-3-3-3h-4.47c-1.65,0-3,1.35-3,3
				C40.03,22.52,41.37,23.87,43.03,23.87z"/>
			<path class="st4" d="M127.78,101.31c-1.7,0-3.6,0.26-5.63,0.78c-2.53,0.64-5.13,1.37-7.64,2.07l-0.31,0.09
				c-6.43,1.79-12.22,3.35-18.1,4.24c-0.07,0.01-0.15,0.02-0.22,0.02c-0.65,0-1.24-0.44-1.41-1.09
				c-1.93-7.24-8.49-11.57-17.56-11.57c-1.5,0-3.08,0.11-4.71,0.34c-1.49,0.21-2.87,0.31-4.09,0.31c-6.35,0-8.51-2.8-10.64-5.56
				c-1.25-1.61-2.53-3.28-4.53-4.31c-2.24-1.17-4.98-1.76-8.14-1.76c-5.59,0-12.67,1.94-18.95,5.2c-0.21,0.11-0.44,0.16-0.68,0.16
				c-0.26,0-0.53-0.07-0.76-0.21c-0.44-0.27-0.7-0.74-0.7-1.25v-14.3c0-1.65-1.35-3-3-3H2.83c-1.65,0-3,1.35-3,3V137
				c0,1.65,1.35,3,3,3h17.87c1.65,0,3-1.35,3-3v-8.73c0-0.47,0.22-0.91,0.6-1.18c0.25-0.19,0.56-0.28,0.86-0.28
				c0.15,0,0.3,0.02,0.45,0.07C37.89,130.82,67.52,140,77.55,140c10.69,0,48.92-13.82,59.87-20.8c1.08-0.69,4.36-2.78,0.8-11.18
				C136.33,103.57,132.81,101.31,127.78,101.31z M17.69,132.53c0,0.81-0.66,1.47-1.47,1.47H7.29c-0.81,0-1.47-0.66-1.47-1.47v-53.6
				c0-0.81,0.66-1.47,1.47-1.47h8.93c0.81,0,1.47,0.66,1.47,1.47V132.53z M132.96,114.88c-12.03,6.97-47.24,19.12-55.41,19.12
				c-10.33,0-48.52-12.32-52.84-13.72c-0.6-0.2-1.01-0.76-1.01-1.4V99.9c0-1.64,2.49-3.13,2.5-3.13c5.67-3.54,13.14-5.91,18.58-5.91
				c2.16,0,3.96,0.37,5.35,1.09c0.78,0.41,1.52,1.33,2.57,2.68c2.56,3.32,6.07,7.87,15.44,7.87c1.52,0,3.16-0.12,4.89-0.36
				c1.36-0.19,2.67-0.28,3.89-0.28c4.47,0,7.93,1.31,10,3.78c1.73,2.06,1.98,4.26,2,5.11c0.02,0.61-0.34,1.17-0.91,1.4
				c-0.58,0.24-1.21,0.5-1.86,0.77l-0.12,0.05c-3.69,1.54-7.83,3.19-10.24,3.19c-0.38,0-0.72-0.04-1.02-0.12
				c-2.49-0.67-12.41-3.45-20.38-5.69l-7.48-2.1c-0.27-0.07-0.54-0.11-0.82-0.11c-1.33,0-2.52,0.9-2.89,2.2
				c-0.22,0.78-0.13,1.59,0.27,2.29c0.39,0.69,1.03,1.19,1.8,1.41c2,0.56,4.87,1.37,8.05,2.26c7.78,2.18,17.45,4.9,19.88,5.55
				c0.75,0.2,1.59,0.3,2.48,0.3c4.04,0,8.91-2.04,12.83-3.69c1.07-0.45,2.18-0.92,3.11-1.26c0.86-0.32,1.6-0.93,2.18-1.82
				c0.24-0.36,0.62-0.6,1.05-0.65c6.98-0.85,13.91-2.7,20.99-4.68c2.56-0.71,5.21-1.45,7.82-2.12c1.65-0.42,3.01-0.62,4.16-0.62
				c3.54,0,4.38,2,4.84,3.08c0.5,1.17,0.84,2.16,1.01,2.92C133.8,113.91,133.52,114.55,132.96,114.88z"/>
		</g>
	</g>
</g>
<g id="Layer_4" class="st0">
	<g class="st1">
		<rect x="3.72" y="5.06" class="st3" width="92.68" height="131.44"/>
		<path class="st2" d="M42.49,108.05c0,5.61-4.55,10.16-10.16,10.16s-10.16-4.55-10.16-10.16s4.55-10.16,10.16-10.16
			S42.49,102.44,42.49,108.05z"/>
		<rect x="120.46" y="16.43" class="st2" width="16.21" height="93.85"/>
		<g>
			<g>
				<path class="st4" d="M74.65,40.47h-49c-1.65,0-2.99,1.34-2.99,2.99s1.34,2.99,2.99,2.99h49c1.65,0,2.99-1.34,2.99-2.99
					S76.29,40.47,74.65,40.47z"/>
			</g>
			<g>
				<path class="st4" d="M39.01,28.64h22.27c1.65,0,2.99-1.34,2.99-2.99s-1.34-2.99-2.99-2.99H39.01c-1.65,0-2.99,1.34-2.99,2.99
					S37.36,28.64,39.01,28.64z"/>
			</g>
			<g>
				<path class="st4" d="M74.65,58.29h-49c-1.65,0-2.99,1.34-2.99,2.99c0,1.65,1.34,2.99,2.99,2.99h49c1.65,0,2.99-1.34,2.99-2.99
					C77.64,59.63,76.29,58.29,74.65,58.29z"/>
			</g>
			<g>
				<path class="st4" d="M74.65,76.11h-49c-1.65,0-2.99,1.34-2.99,2.99s1.34,2.99,2.99,2.99h49c1.65,0,2.99-1.34,2.99-2.99
					S76.29,76.11,74.65,76.11z"/>
			</g>
			<g>
				<path class="st4" d="M92.46,0.38H7.83c-4.11,0-7.45,3.34-7.45,7.45v124.72c0,4.11,3.34,7.45,7.45,7.45h84.63
					c4.11,0,7.45-3.34,7.45-7.45V7.83C99.91,3.72,96.57,0.38,92.46,0.38z M93.93,132.55c0,0.81-0.65,1.46-1.46,1.46H7.83
					c-0.81,0-1.46-0.65-1.46-1.46V7.83c0-0.81,0.65-1.46,1.46-1.46h84.63c0.81,0,1.46,0.65,1.46,1.46V132.55z"/>
			</g>
			<g>
				<path class="st4" d="M137.01,13.75c-0.81,0-1.46-0.66-1.46-1.46V3.37c0-1.65-1.34-2.99-2.99-2.99h-8.91
					c-1.65,0-2.99,1.34-2.99,2.99v8.91c0,0.81-0.65,1.46-1.46,1.46c-1.65,0-2.99,1.34-2.99,2.99v93.54c0,1.65,1.34,2.99,2.99,2.99
					c0.81,0,1.46,0.65,1.46,1.46v8.91c0,1.65,1.34,2.99,2.99,2.99c0.81,0,1.46,0.65,1.46,1.46v8.91c0,1.65,1.34,2.99,2.99,2.99
					s2.99-1.34,2.99-2.99v-8.91c0-0.81,0.65-1.46,1.46-1.46c1.65,0,2.99-1.34,2.99-2.99v-8.91c0-0.81,0.65-1.46,1.46-1.46
					c1.65,0,2.99-1.34,2.99-2.99V16.74C140,15.09,138.66,13.75,137.01,13.75z M134.01,105.83c0,0.81-0.65,1.46-1.46,1.46h-8.91
					c-0.81,0-1.46-0.65-1.46-1.46V21.19c0-0.81,0.65-1.46,1.46-1.46h8.91c0.81,0,1.46,0.66,1.46,1.46V105.83z"/>
			</g>
			<g>
				<path class="st4" d="M32.33,93.92c-7.79,0-14.13,6.34-14.13,14.13c0,7.79,6.34,14.13,14.13,14.13c7.79,0,14.13-6.34,14.13-14.13
					C46.46,100.26,40.12,93.92,32.33,93.92z M32.33,116.2c-4.49,0-8.14-3.65-8.14-8.14s3.65-8.14,8.14-8.14s8.14,3.65,8.14,8.14
					S36.82,116.2,32.33,116.2z"/>
			</g>
			<g>
				<path class="st4" d="M74.65,107.29h-8.91c-1.65,0-2.99,1.34-2.99,2.99c0,1.65,1.34,2.99,2.99,2.99h8.91
					c1.65,0,2.99-1.34,2.99-2.99C77.64,108.63,76.29,107.29,74.65,107.29z"/>
			</g>
		</g>
	</g>
</g>
<g id="Layer_5" class="st0">
	<g class="st1">
		<path class="st3" d="M77.77,23.03c0,10.56-8.56,19.12-19.12,19.12c-10.56,0-19.12-8.56-19.12-19.12S48.08,3.9,58.64,3.9
			C69.21,3.9,77.77,12.46,77.77,23.03z"/>
		<g>
			<path class="st2" d="M126.91,70.54l-9.51-24.49l-12.55-5.98l8.99-23.71L95.06,19.4l-4.08,8.65c0,0-11.38-2.17-14.75,5.31
				c-0.9,2-2.27,1.51-3.8,4.21l0,0L52.9,42.03L42.5,32.81c-13.12,3.06-21.08,9.82-24.79,13.77c-1.7,1.81-4.98,2.68-4.98,2.68
				L1.57,71.46l10.31,32.51l16.65,13.88l7.09,19.03h14.91l5.55-12.88h6.84v0.99h12.19l3.83,11.89h17.97l4.63-18.24l14.8-9.91
				l5.55-12.29l14.54-1.59l0.93-24.18L126.91,70.54z"/>
		</g>
		<path class="st3" d="M108.18,60.87c0,4-3.24,7.24-7.24,7.24c-4,0-7.24-3.24-7.24-7.24c0-4,3.24-7.24,7.24-7.24
			C104.94,53.63,108.18,56.87,108.18,60.87z"/>
		<g>
			<path class="st4" d="M58.64,46.05c12.7,0,23.03-10.33,23.03-23.02C81.67,10.33,71.34,0,58.64,0c-12.7,0-23.03,10.33-23.03,23.03
				C35.62,35.72,45.95,46.05,58.64,46.05z M58.64,5.98c9.4,0,17.04,7.65,17.04,17.04c0,9.4-7.65,17.04-17.04,17.04
				c-9.4,0-17.04-7.65-17.04-17.04C41.6,13.63,49.25,5.98,58.64,5.98z"/>
			<path class="st4" d="M136.56,66.78h-7.86c-0.7,0-1.31-0.5-1.44-1.19c-2.48-13.38-7.89-22.18-17.02-27.71
				c-0.61-0.37-0.87-1.13-0.6-1.8l7.43-18.36c0.35-0.86,0.28-1.82-0.17-2.61c-0.46-0.79-1.27-1.34-2.16-1.47
				c-0.48-0.07-2.22-0.27-4.62-0.27c-6.22,0-17.21,1.42-20.87,10.97c-0.29,0.74-0.27,1.56,0.06,2.29c0.32,0.73,0.91,1.29,1.66,1.57
				c0.35,0.13,0.71,0.2,1.07,0.2c1.23,0,2.35-0.77,2.79-1.92c1.58-4.12,6.01-6.55,12.82-7.03c0.03,0,0.07,0,0.1,0
				c0.47,0,0.91,0.22,1.18,0.6c0.3,0.41,0.36,0.94,0.17,1.41l-6.47,15.98c-0.01,0.04-0.01,0.08-0.02,0.12
				c-0.02,0.14-0.03,0.28-0.07,0.42c-0.02,0.09-0.04,0.19-0.07,0.28c-0.03,0.12-0.07,0.28-0.07,0.33c0,0.07,0.03,0.14,0.04,0.22
				c0.02,0.1,0.05,0.2,0.06,0.31l0.04,0.27c0.02,0.12,0.04,0.28,0.06,0.33c0.03,0.07,0.08,0.13,0.13,0.19
				c0.06,0.08,0.11,0.17,0.18,0.26l0.13,0.22c0.07,0.11,0.14,0.24,0.18,0.28c0.06,0.05,0.13,0.09,0.19,0.13
				c0.1,0.06,0.19,0.12,0.28,0.19c0.11,0.08,0.22,0.17,0.33,0.26c0.04,0.04,0.09,0.08,0.11,0.09c10.23,4.69,15.56,13.32,17.81,28.88
				c0.21,1.46,1.48,2.56,2.96,2.56h7.19c0.81,0,1.46,0.66,1.46,1.46v17.81c0,0.81-0.65,1.46-1.46,1.46h-11.22
				c-1.56,0-2.84,1.17-2.98,2.72c-0.01,0.15-1.55,15.29-17.62,19.61c-0.12,0.07-0.25,0.14-0.4,0.2c-0.24,0.09-0.47,0.18-0.63,0.3
				c-0.07,0.05-0.17,0.15-0.28,0.26l-0.1,0.1c-0.17,0.17-0.31,0.3-0.39,0.44c-0.08,0.12-0.15,0.3-0.25,0.57
				c-0.05,0.13-0.11,0.25-0.21,0.42l-3.59,14.36c-0.16,0.65-0.75,1.11-1.42,1.11H81.89c-0.63,0-1.19-0.4-1.39-1l-3.44-10.32
				c-0.41-1.22-1.55-2.04-2.84-2.04H56.42c-1.29,0-2.43,0.82-2.83,2.05l-3.44,10.31c-0.2,0.6-0.76,1-1.39,1H37.64
				c-0.67,0-1.26-0.46-1.42-1.11l-3.57-14.28c-0.03-0.07-0.07-0.16-0.1-0.26c-0.04-0.15-0.15-0.34-0.3-0.61
				c-0.05-0.08-0.09-0.17-0.14-0.25c-0.03-0.06-0.06-0.13-0.1-0.18c-0.03-0.04-0.15-0.13-0.23-0.2l-0.27-0.22
				c-0.16-0.14-0.31-0.26-0.44-0.33c-0.09-0.05-0.16-0.1-0.21-0.14C15.74,108.69,5.98,93.19,5.98,76.45
				c0-15.23,7.79-29.15,20.84-37.23c1.4-0.87,1.84-2.72,0.97-4.12c-0.55-0.89-1.51-1.42-2.55-1.42c-0.55,0-1.09,0.15-1.57,0.45
				C8.85,43.32,0,59.14,0,76.45c0,18.16,10.42,35.44,26.56,44.02c0.37,0.19,0.63,0.53,0.73,0.94l3.97,15.87
				c0.33,1.33,1.53,2.27,2.9,2.27h17.81c1.29,0,2.43-0.82,2.84-2.05l3.44-10.31c0.2-0.6,0.76-1,1.39-1h11.39c0.63,0,1.19,0.4,1.39,1
				l3.44,10.32c0.41,1.22,1.54,2.04,2.83,2.04h17.81c1.37,0,2.57-0.93,2.9-2.27l3.87-15.49c0.12-0.48,0.47-0.86,0.94-1.03
				c12.9-4.5,17.39-14.59,18.91-20.21c0.17-0.64,0.75-1.08,1.41-1.08h12.03c1.65,0,2.99-1.34,2.99-2.99V69.77
				C139.55,68.12,138.21,66.78,136.56,66.78z"/>
			<path class="st4" d="M100.94,70.89c5.52,0,10.02-4.49,10.02-10.02c0-5.52-4.5-10.02-10.02-10.02c-5.53,0-10.02,4.49-10.02,10.02
				C90.92,66.39,95.41,70.89,100.94,70.89z M100.94,56.78c2.25,0,4.09,1.83,4.09,4.09c0,2.25-1.83,4.09-4.09,4.09
				c-2.25,0-4.09-1.84-4.09-4.09C96.85,58.61,98.68,56.78,100.94,56.78z"/>
		</g>
	</g>
</g>
<g id="Layer_6">
	<g>
		<rect x="3.94" y="21.59" class="st2" width="97.33" height="115.41"/>
		<path class="st3" d="M63.38,12c-1.33-4.95-5.81-8.62-11.18-8.62c-5.37,0-9.85,3.67-11.18,8.62H21.9v18.2h60.59V12H63.38z"/>
		<circle class="st3" cx="105.73" cy="105.73" r="31.27"/>
		<g>
			<path class="st4" d="M52.13,18c1.65,0,3-1.35,3-3c0-1.65-1.35-3-3-3s-3,1.35-3,3C49.13,16.66,50.48,18,52.13,18z"/>
			<path class="st4" d="M74.47,134h-67C6.66,134,6,133.34,6,132.53V25.33c0-0.81,0.66-1.47,1.47-1.47h8.93
				c0.81,0,1.47,0.66,1.47,1.47v4.47c0,1.65,1.35,3,3,3H83.4c1.65,0,3-1.35,3-3v-4.47c0-0.81,0.66-1.47,1.47-1.47h8.93
				c0.81,0,1.47,0.66,1.47,1.47v35.73c0,1.65,1.35,3,3,3c1.65,0,3-1.35,3-3V25.33c0-4.12-3.35-7.47-7.47-7.47h-8.93
				c-0.81,0-1.47-0.66-1.47-1.47v-4.47c0-1.65-1.35-3-3-3H67.55c-0.52,0-1.01-0.28-1.27-0.73C63.35,3.14,57.93,0,52.13,0
				c-5.8,0-11.22,3.14-14.15,8.2c-0.26,0.45-0.75,0.73-1.27,0.73H20.87c-1.65,0-3,1.35-3,3v4.47c0,0.81-0.66,1.47-1.47,1.47H7.47
				C3.35,17.87,0,21.22,0,25.33v107.2c0,4.12,3.35,7.47,7.47,7.47h67c1.65,0,3-1.35,3-3C77.47,135.35,76.12,134,74.47,134z
				 M23.87,16.4c0-0.81,0.66-1.46,1.47-1.46h14.22c1.27,0,2.4-0.8,2.83-1.99C43.85,8.79,47.77,6,52.13,6c4.35,0,8.27,2.79,9.75,6.93
				c0.43,1.19,1.56,2,2.83,2h14.22c0.81,0,1.47,0.66,1.47,1.46v8.93c0,0.81-0.66,1.47-1.47,1.47h-53.6c-0.81,0-1.47-0.66-1.47-1.47
				V16.4z"/>
			<path class="st4" d="M86.4,56.6c0-1.65-1.35-3-3-3H56.6c-1.65,0-3,1.35-3,3c0,1.65,1.35,3,3,3h26.8
				C85.05,59.6,86.4,58.25,86.4,56.6z"/>
			<path class="st4" d="M68.53,83.4c0-1.65-1.35-3-3-3H56.6c-1.65,0-3,1.35-3,3c0,1.65,1.35,3,3,3h8.93
				C67.19,86.4,68.53,85.05,68.53,83.4z"/>
			<path class="st4" d="M56.6,107.2c-1.65,0-3,1.35-3,3c0,1.65,1.35,3,3,3h4.47c1.65,0,3-1.35,3-3c0-1.65-1.35-3-3-3H56.6z"/>
			<path class="st4" d="M45,45.27c-0.52-0.39-1.14-0.6-1.79-0.6c-0.96,0-1.83,0.44-2.4,1.2L30.49,59.61
				c-0.25,0.34-0.64,0.55-1.07,0.58c-0.03,0-0.07,0-0.1,0c-0.39,0-0.76-0.15-1.04-0.43l-5.29-5.29c-0.57-0.57-1.32-0.88-2.12-0.88
				c-0.8,0-1.55,0.31-2.12,0.88c-1.17,1.17-1.17,3.07,0,4.24l8.83,8.83c0.08,0.05,0.18,0.11,0.3,0.22c0.08,0.07,0.15,0.14,0.2,0.21
				c0.04,0.02,0.07,0.03,0.11,0.05c0.09,0.04,0.18,0.08,0.27,0.13c0.08,0.04,0.16,0.08,0.23,0.13c0.03,0.02,0.06,0.03,0.07,0.04
				c0.37,0.14,0.72,0.21,1.03,0.21h0c0.38,0,0.79-0.1,1.18-0.27c0.03-0.02,0.06-0.05,0.09-0.07c0.09-0.07,0.19-0.14,0.29-0.2
				c0.1-0.06,0.2-0.12,0.3-0.18c0.06-0.03,0.14-0.08,0.19-0.11c0.05-0.08,0.11-0.18,0.21-0.29c0.09-0.1,0.18-0.18,0.25-0.23
				L45.6,49.46c0.48-0.64,0.68-1.43,0.57-2.22C46.06,46.45,45.64,45.75,45,45.27z"/>
			<path class="st4" d="M45,72.07c-0.52-0.39-1.14-0.6-1.8-0.6c-0.96,0-1.83,0.44-2.4,1.2L30.49,86.41
				c-0.25,0.34-0.64,0.55-1.07,0.58c-0.03,0-0.07,0-0.1,0c-0.39,0-0.76-0.15-1.04-0.43l-5.29-5.29c-0.57-0.57-1.32-0.88-2.12-0.88
				c-0.8,0-1.55,0.31-2.12,0.88c-1.17,1.17-1.17,3.07,0,4.24l8.83,8.83c0.08,0.05,0.18,0.11,0.3,0.22c0.08,0.07,0.15,0.14,0.2,0.21
				c0.04,0.02,0.07,0.03,0.11,0.05c0.09,0.04,0.18,0.08,0.27,0.13c0.08,0.04,0.16,0.08,0.23,0.13c0.03,0.02,0.06,0.04,0.07,0.04
				c0.37,0.14,0.72,0.21,1.03,0.21h0c0.38,0,0.79-0.1,1.18-0.27c0.03-0.02,0.06-0.04,0.09-0.07c0.09-0.07,0.19-0.14,0.29-0.2
				c0.1-0.06,0.2-0.12,0.3-0.18c0.06-0.03,0.14-0.08,0.19-0.11c0.05-0.08,0.11-0.18,0.21-0.28c0.09-0.1,0.18-0.18,0.25-0.23
				L45.6,76.26c0.48-0.64,0.68-1.43,0.57-2.22C46.06,73.25,45.64,72.55,45,72.07z"/>
			<path class="st4" d="M43.2,98.27c-0.96,0-1.83,0.44-2.4,1.2l-10.31,13.75c-0.25,0.34-0.64,0.55-1.07,0.58c-0.03,0-0.07,0-0.1,0
				c-0.39,0-0.76-0.15-1.04-0.43l-5.29-5.29c-0.57-0.57-1.32-0.88-2.12-0.88c-0.8,0-1.55,0.31-2.12,0.88
				c-1.17,1.17-1.17,3.07,0,4.24l8.83,8.83c0.08,0.05,0.18,0.12,0.3,0.22c0.08,0.07,0.15,0.15,0.2,0.21
				c0.04,0.02,0.07,0.03,0.11,0.05c0.09,0.04,0.18,0.08,0.27,0.13c0.08,0.04,0.16,0.08,0.23,0.13c0.03,0.02,0.06,0.04,0.07,0.04
				c0.37,0.14,0.72,0.21,1.03,0.21h0c0.38,0,0.79-0.1,1.18-0.27c0.03-0.02,0.06-0.04,0.09-0.07c0.09-0.07,0.19-0.14,0.29-0.2
				c0.1-0.06,0.2-0.12,0.3-0.18c0.06-0.03,0.14-0.08,0.19-0.11c0.05-0.08,0.11-0.18,0.21-0.28c0.09-0.1,0.18-0.18,0.25-0.23
				l13.29-17.72c0.48-0.64,0.68-1.43,0.57-2.22c-0.11-0.79-0.53-1.5-1.17-1.98C44.48,98.47,43.86,98.27,43.2,98.27z"/>
			<path class="st4" d="M105.73,71.46c-18.89,0-34.27,15.37-34.27,34.27c0,18.89,15.37,34.27,34.27,34.27
				c18.9,0,34.27-15.37,34.27-34.27C140,86.84,124.63,71.46,105.73,71.46z M105.73,134c-15.59,0-28.27-12.68-28.27-28.27
				c0-15.59,12.68-28.27,28.27-28.27c15.59,0,28.27,12.68,28.27,28.27C134,121.32,121.32,134,105.73,134z"/>
			<path class="st4" d="M123.6,102.73h-13.4c-0.81,0-1.47-0.66-1.47-1.47v-13.4c0-1.65-1.35-3-3-3c-1.65,0-3,1.35-3,3v17.87
				c0,1.65,1.35,3,3,3h17.87c1.65,0,3-1.35,3-3C126.6,104.08,125.25,102.73,123.6,102.73z"/>
		</g>
	</g>
</g>
</svg>
