<svg id="Layer_1" data-name="Layer 1" xmlns="http://www.w3.org/2000/svg" viewBox="0 0 139.76 139.76"><defs><style>.cls-1{fill:#73d7ff;}.cls-2{fill:#fff;}.cls-3{fill:#003575;}</style></defs><ellipse class="cls-1" cx="69.88" cy="48.21" rx="46.45" ry="46.09"/><rect class="cls-2" x="49.05" y="97.64" width="41.66" height="25.01"/><rect class="cls-1" x="62.23" y="124.67" width="14.49" height="9.83"/><path class="cls-3" d="M69.88.24c-28.7,0-52,22.35-52,49.82A48.49,48.49,0,0,0,32.09,84.3a3,3,0,0,0,2.12.89,3,3,0,0,0,3-3,3,3,0,0,0-.87-2.12,42.55,42.55,0,0,1-12.51-30c0-24.17,20.66-43.83,46.05-43.83s46.05,19.66,46.05,43.83a42.46,42.46,0,0,1-13.77,31.25,3,3,0,0,0-1,2.08,3,3,0,0,0,5,2.29,48.38,48.38,0,0,0,15.67-35.62C121.92,22.59,98.58.24,69.88.24Z" transform="translate(0 -0.24)"/><path class="cls-3" d="M61,59.54a2.93,2.93,0,0,0,2.68-1.46l4.93-9.85a1.46,1.46,0,0,1,2.62,0l4.93,9.85a3,3,0,0,0,5.36,0L90.4,40.25A3,3,0,0,0,90.56,38,3,3,0,0,0,85,37.57l-4.93,9.86a1.46,1.46,0,0,1-2.62,0l-4.93-9.86a3.19,3.19,0,0,0-5.36,0l-4.93,9.86a1.46,1.46,0,0,1-2.62,0l-4.92-9.86A3,3,0,0,0,52,35.91,3,3,0,0,0,49.2,38a3,3,0,0,0,.16,2.29l8.92,17.83A2.93,2.93,0,0,0,61,59.54Z" transform="translate(0 -0.24)"/><path class="cls-3" d="M95.17,103.56a9.69,9.69,0,0,0-9.68-9.68H83.26a1.47,1.47,0,0,1-1.47-1.46V74.58a3,3,0,1,0-6,0V92.42a1.46,1.46,0,0,1-1.46,1.46H65.42A1.46,1.46,0,0,1,64,92.42V74.58a3,3,0,1,0-6,0V92.42a1.47,1.47,0,0,1-1.47,1.46H54.27a9.69,9.69,0,0,0-9.68,9.68,9.59,9.59,0,0,0,2,5.81,1.47,1.47,0,0,1,0,1.76,9.59,9.59,0,0,0-2,5.81,9.69,9.69,0,0,0,9.68,9.68H56.5A1.47,1.47,0,0,1,58,128.09a11.91,11.91,0,0,0,23.82,0,1.47,1.47,0,0,1,1.47-1.47h2.23a9.69,9.69,0,0,0,9.68-9.68,9.59,9.59,0,0,0-2-5.81,1.47,1.47,0,0,1,0-1.76A9.59,9.59,0,0,0,95.17,103.56ZM69.88,134A5.93,5.93,0,0,1,64,128.09a1.46,1.46,0,0,1,1.46-1.47h8.92a1.46,1.46,0,0,1,1.46,1.47A5.93,5.93,0,0,1,69.88,134Zm15.61-13.38H54.27a3.69,3.69,0,0,1,0-7.38H85.49a3.69,3.69,0,1,1,0,7.38Zm0-13.37H54.27a3.7,3.7,0,0,1,0-7.39H85.49a3.7,3.7,0,0,1,0,7.39Z" transform="translate(0 -0.24)"/><path class="cls-3" d="M127.85,15.15a2.93,2.93,0,0,0,2.11-.88l8.92-8.92a3,3,0,0,0,0-4.23,3,3,0,0,0-4.23,0L125.73,10a3,3,0,0,0,2.12,5.11Z" transform="translate(0 -0.24)"/><path class="cls-3" d="M5.11,1.12A2.93,2.93,0,0,0,3,.24a3,3,0,0,0-3,3A2.93,2.93,0,0,0,.88,5.35L9.8,14.27A3,3,0,1,0,14,10Z" transform="translate(0 -0.24)"/><path class="cls-3" d="M11.91,85a2.93,2.93,0,0,0-2.11.88L.88,94.76A3,3,0,0,0,.88,99,3,3,0,0,0,3,99.87,2.93,2.93,0,0,0,5.11,99L14,90.07A3,3,0,0,0,11.91,85Z" transform="translate(0 -0.24)"/><path class="cls-3" d="M130,85.84a3,3,0,1,0-4.23,4.23L134.65,99a3,3,0,1,0,4.23-4.23Z" transform="translate(0 -0.24)"/></svg>