<?xml version="1.0" encoding="utf-8"?>
<!-- Generator: Adobe Illustrator 24.0.0, SVG Export Plug-In . SVG Version: 6.00 Build 0)  -->
<svg version="1.1" id="Layer_1" xmlns="http://www.w3.org/2000/svg" xmlns:xlink="http://www.w3.org/1999/xlink" x="0px" y="0px"
	 viewBox="0 0 120 75" style="enable-background:new 0 0 120 75;" xml:space="preserve">
<style type="text/css">
	.st0{fill:url(#SVGID_1_);}
	.st1{fill:#FFFFFD;}
	.st2{fill:url(#SVGID_2_);}
	.st3{fill:url(#SVGID_3_);}
</style>
<radialGradient id="SVGID_1_" cx="60.01" cy="37.475" r="50.0331" gradientTransform="matrix(1 0 0 -1 0 75)" gradientUnits="userSpaceOnUse">
	<stop  offset="0.3134" style="stop-color:#09B4F0"/>
	<stop  offset="1" style="stop-color:#006E98"/>
</radialGradient>
<path class="st0" d="M115.1,75.03H4.93c-2.72,0-4.92-2.2-4.92-4.92V4.94c0-2.72,2.2-4.92,4.92-4.92h110.16
	c2.72,0,4.92,2.2,4.92,4.92V70.1C120.02,72.82,117.81,75.03,115.1,75.03z"/>
<g>
	<path class="st1" d="M31.69,15.15h-3.46c0.45-0.41,0.57-1.87,0.73-4.52L29,10.02c0.12-1.47,0.16-2.65,0.16-3.46
		c0-0.69-0.08-1.14-0.28-1.3h3.87c0.94,0,2.77,0.04,2.77,1.95c0,1.3-1.18,2.08-2.28,2.36c1.55,0.12,2.69,0.9,2.69,2.48
		C35.97,13.76,34.34,15.15,31.69,15.15 M31.57,10.34h-0.69l-0.12,1.47c-0.04,0.65-0.08,1.18-0.08,1.83c0,0.08,0.28,0.28,0.94,0.28
		c1.38,0,2.28-0.69,2.28-1.83C33.93,10.83,32.83,10.34,31.57,10.34 M31.85,6.43c-0.2,0-0.45,0-0.69,0.04
		c-0.12,0.69-0.16,1.34-0.2,2.12c0,0-0.04,0.61-0.04,0.57h0.24c1.26,0,2.4-0.45,2.4-1.59C33.6,6.92,33.03,6.43,31.85,6.43
		 M44.07,15.23c-0.85,0-0.94-0.04-1.59-2.36l-0.24-0.85c-0.41,0.2-1.14,0.28-2.28,0.28h-1.18l-0.2,0.45
		c-0.2,0.45-0.69,1.38-0.69,1.95c0,0.12,0,0.24,0.04,0.45h-2.36c0.65-0.65,1.55-2.24,2.73-4.76l0.69-1.47
		c0.61-1.34,1.3-2.85,1.3-3.05c0-0.2-0.04-0.37-0.12-0.57h2.16c0,0,0.57,2.12,1.06,3.91l0.41,1.55c0.73,2.65,1.22,3.91,1.79,4.4
		C45,15.19,44.31,15.23,44.07,15.23 M40.97,7.57l-1.63,3.46h2.61L40.97,7.57 M53.43,15.55c-0.73,0-0.9-0.12-1.14-0.45l-2.81-3.83
		c-0.2-0.33-0.41-0.53-0.73-0.53h-0.04l-0.04,0.77c-0.04,1.02-0.12,1.83-0.12,2.44c0,0.65,0.08,1.06,0.28,1.22h-2.69
		c0.41-0.33,0.53-1.47,0.77-4.52l0.04-0.61c0.12-1.47,0.16-2.65,0.16-3.46c0-0.69-0.08-1.14-0.28-1.3h3.62
		c1.22,0,2.81,0.2,2.81,2.12c0,1.59-1.06,2.44-2.36,2.85c0.12,0.12,0.37,0.41,0.49,0.57l1.99,2.65c1.26,1.67,1.34,1.75,1.79,1.95
		C54.65,15.51,53.92,15.55,53.43,15.55 M49.85,6.47c-0.24,0-0.53,0-0.77,0.04c-0.08,0.41-0.12,1.14-0.2,2.32l-0.04,0.69
		c0.12,0.04,0.33,0.04,0.45,0.04c1.22,0,2.08-0.77,2.08-1.87C51.31,6.92,50.79,6.47,49.85,6.47 M58.68,15.35
		c-2.56,0-4.03-2.12-4.03-4.44c0-3.26,1.79-5.82,5.17-5.82c1.06,0,1.55,0.2,2.44,0.2l-0.24,2.52c-0.49-0.9-1.3-1.47-2.36-1.47
		c-2.12,0-2.97,2.28-2.97,4.23c0,2.12,1.22,3.3,2.77,3.3c0.85,0,1.63-0.2,2.89-1.1C61.82,14.33,60.64,15.35,58.68,15.35
		 M76.11,15.23c-0.85,0-0.9-0.04-1.59-2.36l-0.24-0.85c-0.41,0.2-1.14,0.28-2.28,0.28h-1.22l-0.2,0.45
		c-0.33,0.65-0.69,1.42-0.69,1.95c0,0.12,0.04,0.28,0.04,0.45h-7c0.41-0.45,0.53-1.91,0.73-4.52l0.04-0.61
		c0.12-1.51,0.16-2.65,0.16-3.46c0-0.65-0.08-1.1-0.24-1.3h2.73c-0.41,0.28-0.53,1.87-0.69,4.52l-0.04,0.61
		c-0.04,0.98-0.2,1.99-0.2,2.93c0,0.45,0.16,0.57,0.65,0.57c1.67,0,2.04-0.04,2.81-0.53c0.49-0.85,0.98-1.91,1.51-3.01l0.69-1.47
		c0.65-1.38,1.3-2.81,1.3-3.05c0-0.2-0.04-0.37-0.12-0.57h2.16c0,0,0.85,3.22,1.06,3.91l0.41,1.55c0.73,2.65,1.18,3.91,1.83,4.4
		C77.13,15.19,76.35,15.23,76.11,15.23 M73.01,7.57l-1.59,3.46h2.56L73.01,7.57 M82.3,9.81c-0.2,0.41-0.53,0.9-0.69,1.3
		c-0.16,0.73-0.2,1.71-0.2,2.77c0,0.45,0.08,1.06,0.28,1.26H79c0.49-0.45,0.65-3.18,0.65-4.07c-0.37-1.22-0.85-2.44-1.59-3.91
		c-0.49-0.9-1.02-1.75-1.38-1.91c0.61-0.04,1.38-0.08,1.75-0.08c0.65,0,0.85,0.08,1.26,0.98c0.65,1.47,1.1,2.56,1.38,3.34
		c0.65-1.06,1.14-1.79,1.75-2.81c0.12-0.24,0.28-0.57,0.28-0.85c0-0.2-0.04-0.49-0.12-0.57h2.65C85.06,5.37,82.78,9,82.3,9.81
		 M91.25,7.57c-0.41-0.73-1.3-1.3-2.28-1.3c-0.85,0-1.59,0.33-1.59,1.22c0,0.77,0.94,1.26,1.91,1.91c1.06,0.65,2.16,1.47,2.16,2.89
		c0,1.83-1.79,3.01-3.91,3.01c-0.85,0-1.75-0.16-2.77-0.53l0.16-2.44c0.49,0.98,1.38,1.75,2.73,1.75c1.02,0,1.83-0.49,1.83-1.38
		c0-0.73-0.61-1.22-1.38-1.67c-1.63-0.98-2.65-1.75-2.65-3.18c0-2.12,1.75-2.81,3.62-2.81c1.06,0,1.75,0.2,2.4,0.2L91.25,7.57
		L91.25,7.57z"/>
</g>
<linearGradient id="SVGID_2_" gradientUnits="userSpaceOnUse" x1="14.32" y1="37.015" x2="30.3101" y2="37.015">
	<stop  offset="0" style="stop-color:#575757"/>
	<stop  offset="0.5192" style="stop-color:#FFFFFF"/>
	<stop  offset="1" style="stop-color:#A8A8A8"/>
</linearGradient>
<path class="st2" d="M28.39,42.96H16.24c-1.06,0-1.92-0.86-1.92-1.92v-8.05c0-1.06,0.86-1.92,1.92-1.92h12.15
	c1.06,0,1.92,0.86,1.92,1.92v8.05C30.32,42.1,29.45,42.96,28.39,42.96z"/>
<radialGradient id="SVGID_3_" cx="63.6093" cy="29.1351" r="18.9731" gradientTransform="matrix(1 0 0 -1 0 75.0001)" gradientUnits="userSpaceOnUse">
	<stop  offset="0" style="stop-color:#20A5F4"/>
	<stop  offset="1" style="stop-color:#006698"/>
</radialGradient>
<path class="st3" d="M80.69,34.61c-0.36-0.84-0.95-1.79-2.03-2.51c-0.48-0.36-1.07-0.72-1.67-0.95c-0.48-0.12-0.95-0.24-1.55-0.24
	h-0.12c-0.72,0-2.03,0.12-2.74,1.19c-0.36,0.36-0.48,1.07-0.36,1.67c0.12,0.48,0.48,0.95,0.95,1.07c0,0,0.12,0.12,0.36,0.12
	c0,0.12-0.12,0.36-0.12,0.36c-0.36,0.36-0.95,0.95-2.74,0.95h-0.12c-0.95-0.12-1.67-0.36-2.74-1.43c-0.6-0.72-0.95-2.03-0.95-4.06
	c0-1.07-0.12-1.91-0.36-2.62c-0.12-0.48-0.6-0.95-0.95-1.19c-0.36-0.24-0.6-0.36-1.19-0.6c-0.72-0.12-1.43-0.24-2.03-0.24
	c-0.72,0-1.19,0.12-1.43,0.48h-0.72c-0.36,0-0.83,0.12-1.19,0.12c-0.72,0.12-1.19,0.48-1.67,0.84c-0.12,0.12-0.6,0.6-0.72,1.07
	c0,0.36,0.12,0.72,0.12,0.84l0.12,0.12c0.24-0.24,0.72-0.36,1.31-0.36c0.84,0,2.03,0.36,2.27,0.95c0.6,0.95,0.36,1.67,0.36,2.51
	c-0.36,2.27-1.19,3.34-2.98,3.58c-0.36,0.12-0.72,0.12-0.95,0.12c-1.31,0-2.27-0.36-2.74-1.19v-0.24c0,0,0.12,0,0.24-0.12
	c0.48-0.24,0.84-0.6,0.95-1.07c0.12-0.6,0-1.19-0.36-1.67c-0.72-0.72-1.67-1.19-2.74-1.19c-0.72,0-1.19,0.12-1.67,0.24
	c-1.43,0.36-2.74,1.55-3.7,3.46c-0.72,1.43-1.19,3.1-1.31,5.01c-0.12,1.91-0.12,3.46,0,4.89c0.12,2.39,0.6,3.82,1.19,5.37
	c0.6,1.55,1.31,2.98,2.15,4.29c0.24,0.36,0.36,0.72,0.6,0.95l0.1-0.13c0.12-0.12,0.24-0.24,0.36-0.48c0.48-0.36,1.31-1.55,1.55-1.91
	c0.24-0.36,0.6-0.95,0.83-1.55l0.12-0.24l0.24,0.12c0.24,0.24,0.36,0.6,0.36,0.95c0,0.36-0.12,0.72-0.36,1.43
	c-0.24,0.83-0.72,1.79-1.19,2.74c0.12,0.12,0.12,0.36,0,0.36c-0.36,0.6-0.36,0.83-0.36,1.07h0.12c0.12,0,0.6-0.12,0.95-0.48
	c0.36-0.24,1.31-1.07,2.51-2.74c0.95-1.19,1.55-2.51,2.27-3.94l0.12-0.24l0.24,0.12c0.12,0.12,0.24,0.12,0.36,0.24
	c0.12,0.24,0.12,0.6,0.12,0.95c-0.12,0.95-0.72,2.27-1.07,3.22c-0.72,1.67-2.03,3.46-2.98,4.77c0,0.12-0.24,0.36-0.36,0.36
	c0.12,0.12,0.24,0.24,0.48,0.36l0.36,0.36c1.31,1.07,2.5,1.91,4.06,2.74c1.19,0.72,3.58,1.91,5.25,2.39
	c1.67-0.36,4.06-1.67,5.25-2.39c1.55-0.83,2.74-1.67,4.06-2.74l0.36-0.36c0.24-0.12,0.36-0.36,0.48-0.36
	c0.12-0.24,0.12-0.36,0.12-0.48l-0.12-0.12c-0.95-1.19-2.27-3.1-2.98-4.77c-0.36-0.95-0.95-2.27-1.07-3.22
	c-0.12-0.36,0-0.72,0.12-0.95L70,49.97c0.12-0.12,0.36-0.12,0.36-0.12l0.12,0.24c0.72,1.43,1.43,2.74,2.27,3.94
	c1.19,1.67,2.15,2.51,2.51,2.74c0.36,0.36,0.72,0.48,0.95,0.48h0.12c0.12-0.12,0-0.36-0.36-0.95c-0.12-0.12-0.12-0.24-0.12-0.36
	c-0.48-0.95-0.95-1.91-1.19-2.74c-0.24-0.72-0.36-1.19-0.36-1.43c0-0.36,0.12-0.72,0.36-0.95l0.24-0.12l0.12,0.24
	c0.24,0.6,0.72,1.31,0.95,1.67c0.24,0.36,1.19,1.43,1.43,1.79c0.24,0.24,0.36,0.36,0.36,0.48L77.83,55
	c0.12-0.12,0.24-0.36,0.48-0.84l0.12-0.12c0.72-1.19,1.43-2.74,2.03-4.29c0.6-1.43,0.95-2.98,1.19-5.37c0.12-1.43,0.24-2.98,0-4.89
	C81.77,37.71,81.29,35.92,80.69,34.61L80.69,34.61z"/>
</svg>
