<?xml version="1.0" encoding="utf-8"?>
<!-- Generator: Adobe Illustrator 24.0.0, SVG Export Plug-In . SVG Version: 6.00 Build 0)  -->
<svg version="1.1" id="Layer_1" xmlns="http://www.w3.org/2000/svg" xmlns:xlink="http://www.w3.org/1999/xlink" x="0px" y="0px"
	 viewBox="0 0 120 75" style="enable-background:new 0 0 120 75;" xml:space="preserve">
<style type="text/css">
	.st0{fill:url(#SVGID_1_);}
	.st1{clip-path:url(#SVGID_3_);}
	.st2{fill:url(#SVGID_4_);}
	.st3{fill:url(#SVGID_5_);}
	.st4{fill:#F99F1C;}
	.st5{fill:#ED1C24;}
	.st6{opacity:0.43;fill:#F99F1C;}
	.st7{fill:#D22F2F;}
	.st8{fill:#FFFFFF;}
</style>
<linearGradient id="SVGID_1_" gradientUnits="userSpaceOnUse" x1="0.0564" y1="37.7053" x2="120.0564" y2="37.7053">
	<stop  offset="0" style="stop-color:#0D2C6A"/>
	<stop  offset="0.4454" style="stop-color:#004698"/>
	<stop  offset="1" style="stop-color:#3053CC"/>
</linearGradient>
<path class="st0" d="M115.14,75.21H4.97c-2.72,0-4.92-2.2-4.92-4.92V5.12c0-2.72,2.2-4.92,4.92-4.92h110.16
	c2.72,0,4.92,2.2,4.92,4.92v65.16C120.06,73,117.85,75.21,115.14,75.21z"/>
<g>
	<defs>
		<rect id="SVGID_2_" x="0" y="0" width="120" height="75"/>
	</defs>
	<clipPath id="SVGID_3_">
		<use xlink:href="#SVGID_2_"  style="overflow:visible;"/>
	</clipPath>
	<g class="st1">
		<g id="G5g6Uw_1_">
			<g>
				
					<linearGradient id="SVGID_4_" gradientUnits="userSpaceOnUse" x1="-23.2286" y1="6.5623" x2="116.8916" y2="6.5623" gradientTransform="matrix(0.9205 -0.3907 0.3907 0.9205 -9.8826 26.424)">
					<stop  offset="0" style="stop-color:#0D2CD8"/>
					<stop  offset="0.4465" style="stop-color:#0046D9"/>
					<stop  offset="1" style="stop-color:#3072CC"/>
				</linearGradient>
				<path class="st2" d="M-52.77-15.97c8.9,1.24,17.85,2.26,26.7,3.78C-6.91-8.91,12.27-5.74,31.3-1.84
					c15.15,3.1,30.22,6.72,44.95,11.43c8.16,2.61,16.29,5.39,24.05,9.04c5.31,2.5,10.92,4.74,15.41,8.63
					c6.39,5.54,6.93,14-0.23,19.22c-7.26,5.29-15.6,8.34-24.04,11.01C66.79,65.3,41.46,70.15,16,74.41
					C7.69,75.8-0.62,77.2-8.92,78.58c-0.97,0.16-1.95,0.25-3-0.13c7.94-1.92,15.88-3.87,23.83-5.75
					c19.74-4.66,38.67-11.67,56.99-20.25c4.02-1.88,7.65-5.04,10.76-8.28c4.08-4.25,4.07-9.39,0.77-14.33
					c-4-6-9.94-9.69-16.12-12.95C50.43,9.56,35.64,4.52,20.5,0.58C6.21-3.15-8.16-6.57-22.58-9.77c-9.12-2.02-18.39-3.4-27.6-5.06
					c-0.9-0.16-1.79-0.36-2.69-0.55C-52.83-15.58-52.8-15.78-52.77-15.97z"/>
			</g>
		</g>
	</g>
</g>
<linearGradient id="SVGID_5_" gradientUnits="userSpaceOnUse" x1="13.0564" y1="38.4967" x2="29.0564" y2="38.4967">
	<stop  offset="0" style="stop-color:#575757"/>
	<stop  offset="0.5192" style="stop-color:#FFFFFF"/>
	<stop  offset="1" style="stop-color:#A8A8A8"/>
</linearGradient>
<path class="st3" d="M27.13,44.45H14.98c-1.06,0-1.92-0.86-1.92-1.92v-8.05c0-1.06,0.86-1.92,1.92-1.92h12.15
	c1.06,0,1.92,0.86,1.92,1.92v8.05C29.06,43.59,28.19,44.45,27.13,44.45z"/>
<g>
	<circle class="st4" cx="105.17" cy="62.88" r="7.8"/>
	<circle class="st5" cx="95.43" cy="62.88" r="7.8"/>
	<ellipse class="st6" cx="100.3" cy="62.88" rx="2.93" ry="6.09"/>
</g>
<g>
	<path class="st7" d="M60.42,25.08c-2.97,2.11-6.48,4.31-10.25,6.63l-0.15,0.08c-0.05,0.03-0.07,0.1-0.03,0.16
		c0.03,0.05,0.1,0.07,0.16,0.03l0.13-0.07c3.2-1.67,6.89-3.66,10.58-5.7c0.02-0.02,0.03-0.02,0.07-0.03
		C60.71,25.85,60.53,25.47,60.42,25.08z M79.88,9.33c-4.67-5.16-34.72-0.52-47.5,2.27l-0.29,0.07c-0.07,0.02-0.1,0.07-0.1,0.13
		c0.02,0.07,0.07,0.1,0.13,0.1l0.29-0.07c10.58-1.88,32.6-4.49,37.35,0.21c1.45,1.44,1.09,3.28-0.57,5.45
		c0.9,0.59,1.55,1.5,1.84,2.64C77.56,15.77,81.95,11.63,79.88,9.33z"/>
	<g>
		<path class="st8" d="M62.31,23.72c0.07,1.81,1.21,3.3,2.71,3.3c2.91,0,4.13-3.56,4.05-5.94c-0.07-1.81-1.24-3.3-2.73-3.3
			C63.83,17.78,62.23,21.32,62.31,23.72z M60.78,23.63c-0.11-3.1,2.32-6.25,5.84-6.25c2.35,0,3.9,1.57,3.98,3.97
			c0.11,3.26-2.15,6.25-5.84,6.25C62.41,27.59,60.86,26.02,60.78,23.63z M27.43,22.81c-0.13,0.05-0.29,0.1-0.49,0.13
			c-0.2,0.05-0.57,0.11-1.09,0.2c-0.36,0.07-0.62,0.13-0.77,0.24c-0.15,0.1-0.23,0.23-0.24,0.38c-0.03,0.16,0.02,0.29,0.16,0.39
			c0.15,0.1,0.38,0.15,0.7,0.15c0.24,0,0.49-0.03,0.73-0.11c0.24-0.08,0.44-0.18,0.6-0.31c0.11-0.1,0.2-0.23,0.26-0.38
			C27.31,23.38,27.36,23.15,27.43,22.81L27.43,22.81z M30.5,20.9c-0.02,0.28-0.07,0.54-0.13,0.96l-0.52,2.91
			c-0.05,0.26,0.05,0.46,0.29,0.6l-0.02,0.11h-2.97l-0.03-0.73c-0.42,0.26-0.95,0.47-1.42,0.6c-0.47,0.11-0.85,0.18-1.42,0.18
			c-0.96,0-1.5-0.1-1.88-0.42c-0.39-0.34-0.57-0.57-0.56-1.04c0.02-0.28,0.15-0.62,0.36-0.87c0.21-0.24,0.49-0.41,0.78-0.56
			c0.31-0.15,0.67-0.24,1.19-0.33c0.52-0.08,1.26-0.16,2.24-0.24c0.51-0.05,0.83-0.16,0.98-0.21c0.21-0.08,0.28-0.16,0.31-0.33
			c0.05-0.29-0.03-0.47-0.44-0.56c-1.06-0.21-3.07,0.13-4.1,0.39l0.56-1.52c1.35-0.2,2.64-0.33,3.98-0.33
			C29.83,19.51,30.51,20.12,30.5,20.9z M39.08,25.49l1.03-5.81h2.84l-1.03,5.81H39.08z M40.28,18.34c0.08-0.47,0.83-0.87,1.68-0.87
			c0.85,0,1.45,0.39,1.37,0.87c-0.08,0.47-0.85,0.87-1.68,0.87C40.8,19.2,40.18,18.81,40.28,18.34z M53.04,22.83
			c-0.13,0.05-0.29,0.1-0.49,0.13c-0.2,0.05-0.57,0.11-1.11,0.2c-0.36,0.07-0.62,0.13-0.77,0.24c-0.13,0.1-0.21,0.23-0.24,0.38
			c-0.03,0.16,0.03,0.29,0.16,0.39c0.15,0.1,0.38,0.15,0.72,0.15c0.24,0,0.49-0.03,0.73-0.11s0.44-0.18,0.6-0.31
			c0.11-0.1,0.2-0.23,0.24-0.38C52.93,23.4,52.98,23.17,53.04,22.83L53.04,22.83z M56.09,20.92c-0.02,0.28-0.07,0.54-0.15,0.96
			l-0.51,2.91c-0.05,0.26,0.05,0.46,0.29,0.6l-0.02,0.1h-2.97l-0.02-0.73c-0.44,0.26-0.96,0.47-1.42,0.6
			c-0.47,0.13-0.85,0.18-1.42,0.18c-0.96,0-1.5-0.1-1.88-0.42c-0.39-0.34-0.57-0.57-0.56-1.04c0.02-0.28,0.15-0.62,0.36-0.87
			s0.49-0.41,0.78-0.56c0.31-0.15,0.67-0.24,1.19-0.34c0.52-0.08,1.26-0.16,2.24-0.24c0.51-0.05,0.82-0.16,0.96-0.21
			c0.21-0.08,0.29-0.16,0.33-0.34c0.05-0.29-0.05-0.47-0.44-0.55c-1.08-0.21-3.07,0.13-4.1,0.39l0.55-1.52
			c1.37-0.2,2.63-0.33,3.98-0.33C55.42,19.53,56.11,20.13,56.09,20.92L56.09,20.92z M21.45,23.4c-0.93,0.18-1.44,0.26-2.35,0.26
			c-1.36,0-2.43-0.67-2.38-1.91c0.05-0.82,1.01-2.56,3.49-2.56c0.78,0,1.39,0.13,2.2,0.6l0.36-2.01c-1.11-0.42-1.84-0.49-2.81-0.47
			c-3.25,0.03-6.37,1.5-6.74,4.51c-0.39,3.05,3.33,3.82,4.98,3.8c0.95,0,1.94-0.05,2.87-0.13L21.45,23.4L21.45,23.4z M44.52,19.64
			l0.2-1.18l2.97-0.65l-0.31,1.83h1.45l-0.28,1.18h-1.4l-0.85,4.67c0,0-2.86-0.02-2.87,0l0.85-4.65H43.2l0.21-1.18h1.11L44.52,19.64
			L44.52,19.64z M58.98,25.49h-2.91l1.45-8.1l2.82,0.08L58.98,25.49z M35.33,21.05c-0.38,0-0.7,0.11-1.01,0.34
			c-0.29,0.23-0.49,0.56-0.55,1c-0.08,0.51-0.03,0.87,0.16,1.09c0.2,0.23,0.49,0.34,0.88,0.34c0.26,0,0.52-0.05,0.72-0.15
			c0.24-0.13,0.41-0.26,0.56-0.47c0.16-0.23,0.26-0.47,0.31-0.77c0.08-0.46,0.02-0.8-0.2-1.03C35.98,21.16,35.7,21.05,35.33,21.05z
			 M30.15,27.49l1.39-7.79h2.5l-0.2,1c0.21-0.29,0.55-0.54,1.04-0.73c0.47-0.2,1.03-0.34,1.62-0.34c0.65,0,1.04,0.03,1.53,0.29
			c0.49,0.26,0.82,0.62,1.01,1.11c0.18,0.47,0.23,1,0.13,1.58c-0.16,0.96-0.64,1.71-1.4,2.27c-0.77,0.56-1.45,0.7-2.42,0.7
			c-0.34,0-0.64-0.03-0.88-0.1c-0.23-0.07-0.42-0.13-0.57-0.23c-0.13-0.1-0.28-0.21-0.47-0.42l-0.46,2.66H30.15L30.15,27.49z
			 M81.71,21.76c-0.02-0.47-0.24-0.78-0.73-0.78c-1.16,0-2.4,2.29-2.61,3.2C80.25,24.18,81.74,23.04,81.71,21.76L81.71,21.76z
			 M81.95,25.34l0.23,0.15c-0.57,1.16-1.73,2.09-3.09,2.09c-1.11,0-2.02-0.73-2.07-2.12c-0.08-2.48,2.24-4.8,4.15-4.8
			c0.82,0,1.58,0.36,1.62,1.24c0.07,1.98-2.71,2.58-4.54,2.63c-0.07,0.21-0.08,0.41-0.07,0.73c0.03,0.82,0.52,1.52,1.55,1.52
			C80.61,26.74,81.49,26.04,81.95,25.34z"/>
		<path class="st8" d="M70.56,21.7c0.2-0.03,0.52-0.07,0.65-0.07c0.21,0,0.41,0.03,0.41,0.24c0,0.13-0.21,1.01-0.26,1.21l-0.44,1.96
			c-0.18,0.8-0.38,1.63-0.54,2.3h1.14l0.64-3.09c1.96-2.02,2.71-2.69,3.17-2.69c0.21,0,0.34,0.11,0.36,0.36
			c0.02,0.36-0.21,1.18-0.29,1.4l-0.65,2.25c-0.15,0.51-0.26,0.96-0.24,1.29c0.02,0.49,0.33,0.72,0.77,0.72
			c0.83,0,1.44-0.87,1.96-1.71l-0.15-0.28c-0.21,0.34-0.7,1.09-1.09,1.09c-0.13,0-0.24-0.08-0.24-0.29
			c-0.02-0.26,0.1-0.65,0.18-0.91l0.72-2.64c0.2-0.73,0.29-1.19,0.28-1.45c-0.02-0.49-0.31-0.72-0.75-0.72
			c-0.75,0-1.75,0.54-3.85,2.97h-0.03l0.26-1.18c0.15-0.65,0.28-1.32,0.42-1.78c-0.73,0.26-1.76,0.56-2.42,0.69L70.56,21.7
			L70.56,21.7z"/>
	</g>
	<path class="st8" d="M82.96,19.59c0-0.59,0.47-1.01,1.03-1.01S85,19.01,85,19.59c0,0.59-0.47,1.01-1.01,1.01
		C83.42,20.61,82.96,20.18,82.96,19.59z M83.99,20.44c0.46,0,0.82-0.36,0.82-0.85c0-0.47-0.36-0.83-0.82-0.83s-0.82,0.36-0.82,0.83
		C83.16,20.08,83.52,20.44,83.99,20.44z M83.76,20.18h-0.18v-1.16h0.44c0.28,0,0.41,0.1,0.41,0.33c0,0.21-0.13,0.29-0.31,0.33
		l0.33,0.51h-0.2l-0.31-0.51h-0.2v0.51H83.76z M83.97,19.53c0.15,0,0.28-0.02,0.28-0.2c0-0.15-0.13-0.16-0.26-0.16h-0.24v0.36H83.97
		z"/>
</g>
</svg>
