<?xml version="1.0" encoding="utf-8"?>
<!-- Generator: Adobe Illustrator 24.0.0, SVG Export Plug-In . SVG Version: 6.00 Build 0)  -->
<svg version="1.1" id="Layer_1" xmlns="http://www.w3.org/2000/svg" xmlns:xlink="http://www.w3.org/1999/xlink" x="0px" y="0px"
	 viewBox="0 0 120 75" style="enable-background:new 0 0 120 75;" xml:space="preserve">
<style type="text/css">
	.st0{fill:url(#SVGID_1_);}
	.st1{opacity:0.3;clip-path:url(#SVGID_3_);fill:#FFFFFF;}
	.st2{fill:url(#SVGID_4_);}
	.st3{fill:#FFFFFF;}
	.st4{clip-path:url(#SVGID_6_);}
	.st5{fill-rule:evenodd;clip-rule:evenodd;fill:#FFFFFF;}
	.st6{fill-rule:evenodd;clip-rule:evenodd;fill:url(#SVGID_7_);}
</style>
<linearGradient id="SVGID_1_" gradientUnits="userSpaceOnUse" x1="60.05" y1="0.2" x2="60.05" y2="75.21">
	<stop  offset="1.014525e-03" style="stop-color:#030E24"/>
	<stop  offset="0.2572" style="stop-color:#042141"/>
	<stop  offset="0.5454" style="stop-color:#0B3974"/>
	<stop  offset="1" style="stop-color:#266FB1"/>
</linearGradient>
<path class="st0" d="M115.14,75.21H4.97c-2.72,0-4.92-2.2-4.92-4.92V5.12c0-2.72,2.2-4.92,4.92-4.92h110.16
	c2.72,0,4.92,2.2,4.92,4.92v65.16C120.06,73,117.85,75.21,115.14,75.21z"/>
<g>
	<defs>
		<path id="SVGID_2_" d="M115.02,75.21H4.85c-2.72,0-4.92-2.2-4.92-4.92V5.12c0-2.72,2.2-4.92,4.92-4.92h110.16
			c2.72,0,4.92,2.2,4.92,4.92v65.16C119.94,73,117.73,75.21,115.02,75.21z"/>
	</defs>
	<clipPath id="SVGID_3_">
		<use xlink:href="#SVGID_2_"  style="overflow:visible;"/>
	</clipPath>
	<path class="st1" d="M126.91,38.58c0-17.23-13.96-31.19-31.2-31.19c-17.23,0-31.19,13.96-31.19,31.19
		c0,17.23,13.96,31.2,31.19,31.2c1.78,0,3.53-0.14,5.24-0.43V21.77h-7.16c-2.42,6.44-8.58,6.39-8.58,6.39v6.56h5.56v25.16
		c-9.68-2.24-16.9-10.93-16.9-21.3c0-12.06,9.78-21.84,21.85-21.84c12.06,0,21.85,9.78,21.85,21.84c0,9.1-5.55,16.89-13.44,20.18
		v9.88C117.27,64.97,126.91,52.91,126.91,38.58"/>
</g>
<linearGradient id="SVGID_4_" gradientUnits="userSpaceOnUse" x1="13.06" y1="38.505" x2="29.0501" y2="38.505">
	<stop  offset="0" style="stop-color:#575757"/>
	<stop  offset="0.5192" style="stop-color:#FFFFFF"/>
	<stop  offset="1" style="stop-color:#A8A8A8"/>
</linearGradient>
<path class="st2" d="M27.13,44.45H14.98c-1.06,0-1.92-0.86-1.92-1.92v-8.05c0-1.06,0.86-1.92,1.92-1.92h12.15
	c1.06,0,1.92,0.86,1.92,1.92v8.05C29.06,43.59,28.19,44.45,27.13,44.45z"/>
<g>
	<path class="st3" d="M18.24,14.45c0-2.93-2.38-5.31-5.31-5.31c-2.93,0-5.31,2.38-5.31,5.31c0,2.93,2.38,5.31,5.31,5.31
		c0.3,0,0.6-0.02,0.89-0.07v-8.1h-1.22c-0.41,1.1-1.46,1.09-1.46,1.09v1.12h0.95v4.28c-1.65-0.38-2.88-1.86-2.88-3.63
		c0-2.05,1.66-3.72,3.72-3.72c2.05,0,3.72,1.66,3.72,3.72c0,1.55-0.94,2.87-2.29,3.43v1.68C16.6,18.94,18.24,16.89,18.24,14.45
		 M21.78,16.81v-4.72h2.39v0.63h-1.7v1.42h1.7v0.63h-1.7v2.04H21.78z M25.34,12.87h-0.66v-0.78h0.66V12.87z M25.34,16.81h-0.66
		v-3.53h0.66V16.81z M26.08,16.81v-3.53h0.62v0.32h0.01c0.28-0.4,0.73-0.41,0.9-0.42v0.68c-0.1,0-0.32,0.04-0.48,0.13
		c-0.21,0.11-0.39,0.38-0.39,0.89v1.93H26.08z M29.4,14.22c-0.04-0.29-0.21-0.43-0.45-0.43c-0.24,0-0.41,0.15-0.41,0.38
		c0,0.29,0.25,0.37,0.55,0.46c0.27,0.08,1.07,0.31,1.07,1.15c0,0.63-0.43,1.13-1.19,1.13c-0.45,0-1.25-0.28-1.25-1.25h0.66
		c0.02,0.4,0.23,0.64,0.6,0.64c0.3,0,0.51-0.18,0.51-0.48c0-0.31-0.27-0.42-0.62-0.54c-0.38-0.14-0.99-0.31-0.99-1.06
		c0-0.52,0.44-1.02,1.11-1.02c0.4,0,1.06,0.25,1.08,1.03L29.4,14.22L29.4,14.22z M31.52,16.81h-0.66v-2.93h-0.48v-0.61h0.48v-1.19
		h0.66v1.19h0.58v0.61h-0.58V16.81z M36.97,16.81l-2.33-3.65h-0.01v3.65h-0.69v-4.72h0.75l2.3,3.59h0.01v-3.59h0.69v4.72H36.97z
		 M41.87,16.81v-3.53h-0.66v0.5h-0.01c-0.26-0.39-0.71-0.59-1.2-0.59c-1.27,0-1.88,1.01-1.88,1.88c0,0.93,0.68,1.84,1.88,1.84
		c0.48,0,0.94-0.2,1.2-0.64h0.01v0.55L41.87,16.81L41.87,16.81z M41.22,15.05c0,0.68-0.54,1.24-1.23,1.24
		c-0.7,0-1.21-0.61-1.21-1.24c0-0.55,0.4-1.26,1.21-1.26C40.68,13.79,41.22,14.3,41.22,15.05 M43.52,16.81h-0.66v-2.93h-0.48v-0.61
		h0.48v-1.19h0.66v1.19h0.58v0.61h-0.58V16.81z M45.17,12.87H44.5v-0.78h0.66V12.87z M45.17,16.81H44.5v-3.53h0.66V16.81z
		 M49.42,15.03c0-1.01-0.84-1.85-1.91-1.85c-1.1,0-1.91,0.87-1.91,1.84c0,0.89,0.72,1.88,1.91,1.88
		C48.71,16.9,49.42,15.89,49.42,15.03 M48.75,15.03c0,0.67-0.53,1.26-1.24,1.26c-0.74,0-1.24-0.62-1.24-1.26
		c0-0.63,0.5-1.25,1.24-1.25C48.26,13.79,48.75,14.41,48.75,15.03 M52.33,16.81v-1.92c0-0.27,0-1.1-0.88-1.1
		c-0.55,0-0.93,0.39-0.93,1.1v1.93h-0.66v-3.53h0.62v0.38h0.01c0.36-0.47,0.89-0.47,1.03-0.47c0.55,0,1,0.24,1.25,0.63
		c0.14,0.23,0.22,0.51,0.22,0.91v2.09H52.33z M57.18,16.81v-3.53h-0.66v0.5H56.5c-0.26-0.39-0.71-0.59-1.2-0.59
		c-1.27,0-1.88,1.01-1.88,1.88c0,0.93,0.68,1.84,1.88,1.84c0.48,0,0.94-0.2,1.2-0.64h0.01v0.55L57.18,16.81L57.18,16.81z
		 M56.53,15.05c0,0.68-0.54,1.24-1.23,1.24c-0.7,0-1.21-0.61-1.21-1.24c0-0.55,0.4-1.26,1.21-1.26
		C55.99,13.79,56.53,14.3,56.53,15.05 M57.81,12.09h0.66v4.72h-0.66V12.09z M61.21,12.72h0.52c0.15,0,0.8,0,0.8,0.67
		c0,0.27-0.12,0.66-0.76,0.66h-0.56L61.21,12.72L61.21,12.72z M60.53,16.81h1.41c1.3,0,1.57-0.89,1.57-1.37
		c0-0.73-0.5-1.03-0.7-1.15c0.16-0.14,0.42-0.37,0.42-0.89c0-0.33-0.14-1.31-1.47-1.31h-1.22V16.81z M61.21,14.69h0.66
		c0.24,0,0.56,0.01,0.77,0.29c0.1,0.13,0.17,0.29,0.17,0.47c0,0.24-0.16,0.74-0.86,0.74h-0.75V14.69z M67.55,16.81v-3.53h-0.66v0.5
		h-0.01c-0.25-0.39-0.71-0.59-1.2-0.59c-1.27,0-1.88,1.01-1.88,1.88c0,0.93,0.68,1.84,1.88,1.84c0.48,0,0.94-0.2,1.2-0.64h0.01v0.55
		L67.55,16.81L67.55,16.81z M66.9,15.05c0,0.68-0.54,1.24-1.23,1.24c-0.7,0-1.2-0.61-1.2-1.24c0-0.55,0.4-1.26,1.21-1.26
		C66.35,13.79,66.9,14.3,66.9,15.05 M70.74,16.81v-1.92c0-0.27,0-1.1-0.88-1.1c-0.56,0-0.93,0.39-0.93,1.1v1.93h-0.66v-3.53h0.62
		v0.38h0.01c0.36-0.47,0.89-0.47,1.03-0.47c0.55,0,1,0.24,1.25,0.63c0.14,0.23,0.22,0.51,0.22,0.91v2.09H70.74z M74.75,13.28
		l-1.28,1.67l1.49,1.87h-0.83l-1.42-1.83H72.7v1.83h-0.66v-4.72h0.66v2.89h0.01l1.26-1.7L74.75,13.28z"/>
</g>
<g>
	<defs>
		<rect id="SVGID_5_" x="97.21" y="55.49" width="16.67" height="16.74"/>
	</defs>
	<clipPath id="SVGID_6_">
		<use xlink:href="#SVGID_5_"  style="overflow:visible;"/>
	</clipPath>
	<g class="st4">
		<path class="st5" d="M95.77,54.13h19.53v19.53H95.77V54.13z"/>
		<linearGradient id="SVGID_7_" gradientUnits="userSpaceOnUse" x1="96.1848" y1="63.8971" x2="113.9895" y2="63.8971">
			<stop  offset="0.0646" style="stop-color:#0B3974"/>
			<stop  offset="0.5627" style="stop-color:#0077A6"/>
			<stop  offset="1" style="stop-color:#266FB1"/>
		</linearGradient>
		<path class="st6" d="M96.63,72.14h-0.06c0-0.03-0.01-0.07-0.01-0.08c0-0.01,0-0.04-0.04-0.04h-0.08v0.13h-0.04v-0.29h0.13
			c0.06,0,0.1,0.01,0.1,0.07c0,0.04-0.01,0.06-0.03,0.07c0.01,0.01,0.03,0.03,0.03,0.06v0.06c0,0.01,0,0.01,0.01,0.01V72.14
			L96.63,72.14z M96.58,71.93c0-0.04-0.03-0.04-0.04-0.04h-0.1v0.08h0.08C96.55,71.97,96.58,71.95,96.58,71.93z M96.81,71.98
			c0-0.17-0.14-0.31-0.32-0.31c-0.17,0-0.31,0.14-0.31,0.31c0,0.18,0.14,0.32,0.31,0.32C96.67,72.3,96.81,72.16,96.81,71.98z
			 M96.77,71.98c0,0.15-0.13,0.27-0.28,0.27s-0.27-0.11-0.27-0.27c0-0.14,0.11-0.27,0.27-0.27S96.77,71.84,96.77,71.98z
			 M113.99,66.34c0,0.42-0.27,0.61-0.74,0.61h-0.91v-0.42h0.91c0.08,0,0.15-0.01,0.18-0.04c0.03-0.03,0.06-0.07,0.06-0.13
			c0-0.06-0.03-0.11-0.06-0.14c-0.03-0.03-0.08-0.04-0.17-0.04c-0.43-0.01-0.98,0.01-0.98-0.6c0-0.28,0.18-0.59,0.67-0.59h0.94v0.42
			h-0.87c-0.08,0-0.14,0-0.18,0.03c-0.04,0.04-0.07,0.08-0.07,0.15s0.04,0.11,0.1,0.14c0.06,0.01,0.11,0.03,0.18,0.03h0.25
			c0.27,0,0.43,0.06,0.55,0.15C113.93,66.01,113.99,66.14,113.99,66.34z M112.02,65.92c-0.11-0.1-0.28-0.15-0.55-0.15h-0.25
			c-0.07,0-0.13-0.01-0.18-0.03c-0.06-0.03-0.1-0.07-0.1-0.14s0.01-0.11,0.07-0.15c0.04-0.03,0.1-0.03,0.18-0.03h0.87v-0.42h-0.94
			c-0.5,0-0.67,0.31-0.67,0.59c0,0.61,0.55,0.59,0.98,0.6c0.08,0,0.14,0.01,0.17,0.04c0.03,0.03,0.06,0.08,0.06,0.14
			c0,0.06-0.03,0.1-0.06,0.13c-0.04,0.03-0.1,0.04-0.18,0.04h-0.91v0.42h0.91c0.48,0,0.74-0.2,0.74-0.61
			C112.16,66.14,112.1,66.01,112.02,65.92L112.02,65.92z M110.23,66.55h-1.1v-0.39h1.08v-0.39h-1.08V65.4h1.1v-0.41h-1.57v1.96h1.57
			V66.55L110.23,66.55z M108.16,65.09c-0.15-0.08-0.34-0.1-0.57-0.1h-1.08v1.96h0.48v-0.71h0.5c0.17,0,0.27,0.01,0.34,0.08
			c0.08,0.1,0.08,0.27,0.08,0.39v0.24h0.46v-0.38c0-0.18-0.01-0.27-0.07-0.36c-0.04-0.06-0.13-0.13-0.24-0.17
			c0.13-0.04,0.34-0.21,0.34-0.52C108.4,65.3,108.32,65.18,108.16,65.09z M105.51,64.99h-1.5l-0.6,0.64l-0.57-0.64h-1.89v1.96h1.86
			l0.6-0.64l0.57,0.64h0.91v-0.66h0.59c0.41,0,0.81-0.11,0.81-0.66C106.29,65.11,105.87,64.99,105.51,64.99L105.51,64.99z
			 M107.78,65.8c-0.07,0.03-0.14,0.03-0.22,0.03l-0.57,0.01V65.4h0.57c0.08,0,0.17,0,0.22,0.04c0.06,0.03,0.1,0.08,0.1,0.17
			C107.88,65.69,107.84,65.76,107.78,65.8z M105.51,65.9h-0.61v-0.5h0.61c0.17,0,0.28,0.07,0.28,0.24
			C105.79,65.8,105.67,65.9,105.51,65.9z M103.7,65.97l0.73-0.77v1.58L103.7,65.97z M102.57,66.55h-1.16v-0.39h1.03v-0.39h-1.03
			V65.4h1.17l0.52,0.57L102.57,66.55L102.57,66.55z M112.69,63.58h-0.67l-0.88-1.47v1.47h-0.95l-0.18-0.43h-0.98l-0.18,0.43h-0.55
			c-0.22,0-0.52-0.06-0.68-0.22c-0.15-0.17-0.24-0.39-0.24-0.74c0-0.29,0.04-0.56,0.25-0.77c0.14-0.15,0.39-0.22,0.71-0.22h0.45
			v0.42h-0.45c-0.17,0-0.27,0.03-0.36,0.11c-0.08,0.08-0.13,0.24-0.13,0.45s0.04,0.36,0.13,0.46c0.07,0.07,0.2,0.1,0.32,0.1h0.21
			l0.67-1.54h0.7l0.78,1.84v-1.84h0.73l0.82,1.36v-1.36h0.48L112.69,63.58L112.69,63.58L112.69,63.58z M107.14,61.63h-0.48v1.96
			h0.48V61.63L107.14,61.63z M106.15,61.71c-0.15-0.08-0.32-0.08-0.56-0.08h-1.08v1.96h0.46v-0.71h0.5c0.17,0,0.28,0.01,0.35,0.08
			c0.08,0.1,0.07,0.27,0.07,0.38v0.25h0.48v-0.39c0-0.17-0.01-0.25-0.08-0.35c-0.04-0.06-0.13-0.13-0.22-0.17
			c0.13-0.06,0.34-0.21,0.34-0.52C106.4,61.93,106.3,61.81,106.15,61.71L106.15,61.71z M104.18,63.18h-1.09v-0.39h1.08v-0.41h-1.08
			v-0.35h1.09v-0.41h-1.57v1.96h1.57V63.18L104.18,63.18z M102.26,61.63h-0.77l-0.57,1.33l-0.61-1.33h-0.75v1.84l-0.8-1.84h-0.7
			l-0.84,1.96h0.5l0.18-0.43h0.98l0.18,0.43h0.95v-1.54l0.68,1.54h0.41l0.68-1.54v1.54h0.48L102.26,61.63L102.26,61.63L102.26,61.63
			z M109.84,62.73l-0.32-0.77l-0.32,0.77H109.84z M105.79,62.42c-0.07,0.04-0.14,0.04-0.24,0.04h-0.57v-0.43h0.57
			c0.08,0,0.18,0,0.24,0.03c0.06,0.04,0.08,0.1,0.08,0.18C105.87,62.32,105.84,62.39,105.79,62.42z M98.07,62.73l0.32-0.77
			l0.32,0.77H98.07z M113.88,55.49H97.21v7.04l0.57-1.3h1.22l0.17,0.32v-0.32h1.43l0.32,0.7l0.31-0.7h4.54
			c0.21,0,0.39,0.04,0.53,0.15v-0.15h1.24v0.15c0.21-0.11,0.48-0.15,0.78-0.15h1.8l0.17,0.32v-0.32h1.33l0.2,0.32v-0.32h1.3v2.74
			h-1.31l-0.25-0.42v0.42h-1.64l-0.18-0.45h-0.41l-0.18,0.45h-0.85c-0.34,0-0.59-0.08-0.75-0.17v0.17h-2.03v-0.63
			c0-0.08-0.01-0.1-0.07-0.1h-0.07v0.73h-3.91v-0.35l-0.14,0.35h-0.82l-0.14-0.34v0.34h-1.58l-0.17-0.45H98.2l-0.18,0.45h-0.81v8.26
			h16.67v-5.02c-0.18,0.08-0.43,0.13-0.68,0.13h-1.22v-0.17c-0.14,0.11-0.39,0.17-0.63,0.17h-3.83v-0.63c0-0.08-0.01-0.08-0.08-0.08
			h-0.07v0.71h-1.26V66.6c-0.21,0.1-0.45,0.1-0.66,0.1h-0.14v0.64h-1.54l-0.36-0.42L103,67.34h-2.47V64.6h2.52l0.36,0.42l0.39-0.42
			h1.69c0.2,0,0.52,0.03,0.66,0.17V64.6h1.51c0.15,0,0.45,0.03,0.64,0.17V64.6h2.28v0.17c0.13-0.11,0.36-0.17,0.57-0.17h1.27v0.17
			c0.14-0.1,0.34-0.17,0.59-0.17h0.87V55.49L113.88,55.49z"/>
	</g>
</g>
</svg>
