<?xml version="1.0" encoding="utf-8"?>
<!-- Generator: Adobe Illustrator 24.0.0, SVG Export Plug-In . SVG Version: 6.00 Build 0)  -->
<svg version="1.1" id="Layer_1" xmlns="http://www.w3.org/2000/svg" xmlns:xlink="http://www.w3.org/1999/xlink" x="0px" y="0px"
	 viewBox="0 0 120 75" style="enable-background:new 0 0 120 75;" xml:space="preserve">
<style type="text/css">
	.st0{fill:url(#SVGID_1_);}
	.st1{clip-path:url(#SVGID_3_);fill:none;stroke:#A7A9AC;stroke-width:0.05;stroke-miterlimit:10;}
	.st2{clip-path:url(#SVGID_5_);fill:none;stroke:#231F20;stroke-width:0.05;stroke-miterlimit:10;}
	.st3{fill:#231F20;}
	.st4{fill:#808285;}
	.st5{fill:url(#SVGID_6_);}
	.st6{fill:#FAC610;}
	.st7{fill:#FFFFFF;}
</style>
<linearGradient id="SVGID_1_" gradientUnits="userSpaceOnUse" x1="0" y1="37.5" x2="120" y2="37.5">
	<stop  offset="0" style="stop-color:#000000"/>
	<stop  offset="0.4444" style="stop-color:#000000"/>
	<stop  offset="1" style="stop-color:#1A1A1A"/>
</linearGradient>
<path class="st0" d="M115.08,75H4.92C2.2,75,0,72.8,0,70.08V4.92C0,2.2,2.2,0,4.92,0h110.16C117.8,0,120,2.2,120,4.92v65.16
	C120,72.8,117.8,75,115.08,75z"/>
<g>
	<g>
		<defs>
			<rect id="SVGID_2_" x="12.68" width="107.14" height="75"/>
		</defs>
		<clipPath id="SVGID_3_">
			<use xlink:href="#SVGID_2_"  style="overflow:visible;"/>
		</clipPath>
		<polygon class="st1" points="104.83,23.26 100.42,23.26 98.21,27.09 100.42,30.91 104.83,30.91 107.04,27.09 		"/>
		<polygon class="st1" points="104.83,15.61 100.42,15.61 98.21,19.43 100.42,23.26 104.83,23.26 107.04,19.43 		"/>
		<polygon class="st1" points="84.96,19.43 80.54,19.43 78.33,23.26 80.54,27.09 84.96,27.09 87.17,23.26 		"/>
		<polygon class="st1" points="91.58,23.26 87.16,23.26 84.95,27.09 87.16,30.91 91.58,30.91 93.78,27.09 		"/>
		<polygon class="st1" points="91.58,15.61 87.16,15.61 84.95,19.43 87.16,23.26 91.58,23.26 93.78,19.43 		"/>
		<polygon class="st1" points="91.58,7.96 87.16,7.96 84.95,11.78 87.16,15.61 91.58,15.61 93.78,11.78 		"/>
		<polygon class="st1" points="98.2,19.43 93.79,19.43 91.58,23.26 93.79,27.09 98.2,27.09 100.41,23.26 		"/>
		<polygon class="st1" points="98.2,4.13 93.79,4.13 91.58,7.96 93.79,11.78 98.2,11.78 100.41,7.96 		"/>
		<polygon class="st1" points="111.48,27.09 107.06,27.09 104.85,30.91 107.06,34.74 111.48,34.74 113.69,30.91 		"/>
		<polygon class="st1" points="104.83,30.91 100.42,30.91 98.21,34.74 100.42,38.56 104.83,38.56 107.04,34.74 		"/>
		<polygon class="st1" points="91.58,38.56 87.16,38.56 84.95,42.39 87.16,46.22 91.58,46.22 93.78,42.39 		"/>
		<polygon class="st1" points="84.96,34.74 80.54,34.74 78.33,38.56 80.54,42.39 84.96,42.39 87.17,38.56 		"/>
		<polygon class="st1" points="78.33,38.56 73.91,38.56 71.7,42.39 73.91,46.22 78.33,46.22 80.54,42.39 		"/>
		<polygon class="st1" points="71.7,34.74 67.28,34.74 65.07,38.56 67.28,42.39 71.7,42.39 73.91,38.56 		"/>
		<polygon class="st1" points="65.12,46.22 60.7,46.22 58.49,50.04 60.7,53.87 65.12,53.87 67.33,50.04 		"/>
		<polygon class="st1" points="65.12,30.91 60.7,30.91 58.49,34.74 60.7,38.56 65.12,38.56 67.33,34.74 		"/>
		<polygon class="st1" points="71.7,42.39 67.28,42.39 65.07,46.22 67.28,50.04 71.7,50.04 73.91,46.22 		"/>
		<polygon class="st1" points="58.51,42.39 54.09,42.39 51.88,46.22 54.09,50.04 58.51,50.04 60.72,46.22 		"/>
		<polygon class="st1" points="98.2,42.39 93.79,42.39 91.58,46.22 93.79,50.04 98.2,50.04 100.41,46.22 		"/>
		<polygon class="st1" points="98.2,50.04 93.79,50.04 91.58,53.87 93.79,57.7 98.2,57.7 100.41,53.87 		"/>
		<polygon class="st1" points="98.2,57.7 93.79,57.7 91.58,61.52 93.79,65.35 98.2,65.35 100.41,61.52 		"/>
		<polygon class="st1" points="104.83,61.52 100.42,61.52 98.21,65.35 100.42,69.17 104.83,69.17 107.04,65.35 		"/>
		<polygon class="st1" points="104.83,69.17 100.42,69.17 98.21,73 100.42,76.83 104.83,76.83 107.04,73 		"/>
		<polygon class="st1" points="84.96,57.7 80.54,57.7 78.33,61.52 80.54,65.35 84.96,65.35 87.17,61.52 		"/>
		<polygon class="st1" points="84.96,73 80.54,73 78.33,76.83 80.54,80.65 84.96,80.65 87.17,76.83 		"/>
		<polygon class="st1" points="71.7,57.7 67.28,57.7 65.07,61.52 67.28,65.35 71.7,65.35 73.91,61.52 		"/>
		<polygon class="st1" points="78.33,61.52 73.91,61.52 71.7,65.35 73.91,69.17 78.33,69.17 80.54,65.35 		"/>
		<polygon class="st1" points="78.33,69.17 73.91,69.17 71.7,73 73.91,76.83 78.33,76.83 80.54,73 		"/>
		<polygon class="st1" points="91.58,53.87 87.16,53.87 84.95,57.7 87.16,61.52 91.58,61.52 93.78,57.7 		"/>
		<polygon class="st1" points="78.33,53.87 73.91,53.87 71.7,57.7 73.91,61.52 78.33,61.52 80.54,57.7 		"/>
		<polygon class="st1" points="104.83,46.22 100.42,46.22 98.21,50.04 100.42,53.87 104.83,53.87 107.04,50.04 		"/>
		<polygon class="st1" points="111.48,42.39 107.06,42.39 104.85,46.22 107.06,50.04 111.48,50.04 113.69,46.22 		"/>
		<polygon class="st1" points="98.2,34.74 93.79,34.74 91.58,38.56 93.79,42.39 98.2,42.39 100.41,38.56 		"/>
	</g>
	<g>
		<defs>
			<rect id="SVGID_4_" x="12.68" width="107.14" height="75"/>
		</defs>
		<clipPath id="SVGID_5_">
			<use xlink:href="#SVGID_4_"  style="overflow:visible;"/>
		</clipPath>
		<polygon class="st2" points="113.67,15.61 109.25,15.61 107.04,19.43 109.25,23.26 113.67,23.26 115.88,19.43 		"/>
		<polygon class="st2" points="113.67,7.96 109.25,7.96 107.04,11.78 109.25,15.61 113.67,15.61 115.88,11.78 		"/>
		<polygon class="st2" points="93.79,11.78 89.37,11.78 87.17,15.61 89.37,19.43 93.79,19.43 96,15.61 		"/>
		<polygon class="st2" points="100.41,15.61 95.99,15.61 93.78,19.43 95.99,23.26 100.41,23.26 102.62,19.43 		"/>
		<polygon class="st2" points="100.41,7.96 95.99,7.96 93.78,11.78 95.99,15.61 100.41,15.61 102.62,11.78 		"/>
		<polygon class="st2" points="100.41,0.3 95.99,0.3 93.78,4.13 95.99,7.96 100.41,7.96 102.62,4.13 		"/>
		<polygon class="st2" points="107.04,11.78 102.62,11.78 100.41,15.61 102.62,19.43 107.04,19.43 109.25,15.61 		"/>
		<polygon class="st2" points="107.04,-3.52 102.62,-3.52 100.41,0.3 102.62,4.13 107.04,4.13 109.25,0.3 		"/>
		<polygon class="st2" points="120.31,19.43 115.89,19.43 113.69,23.26 115.89,27.09 120.31,27.09 122.52,23.26 		"/>
		<polygon class="st2" points="113.67,23.26 109.25,23.26 107.04,27.09 109.25,30.91 113.67,30.91 115.88,27.09 		"/>
		<polygon class="st2" points="100.41,30.91 95.99,30.91 93.78,34.74 95.99,38.56 100.41,38.56 102.62,34.74 		"/>
		<polygon class="st2" points="93.79,27.09 89.37,27.09 87.17,30.91 89.37,34.74 93.79,34.74 96,30.91 		"/>
		<polygon class="st2" points="87.16,30.91 82.75,30.91 80.54,34.74 82.75,38.56 87.16,38.56 89.37,34.74 		"/>
		<polygon class="st2" points="80.54,27.09 76.12,27.09 73.91,30.91 76.12,34.74 80.54,34.74 82.75,30.91 		"/>
		<polygon class="st2" points="73.95,38.56 69.53,38.56 67.33,42.39 69.53,46.22 73.95,46.22 76.16,42.39 		"/>
		<polygon class="st2" points="73.95,23.26 69.53,23.26 67.33,27.09 69.53,30.91 73.95,30.91 76.16,27.09 		"/>
		<polygon class="st2" points="80.54,34.74 76.12,34.74 73.91,38.56 76.12,42.39 80.54,42.39 82.75,38.56 		"/>
		<polygon class="st2" points="67.28,34.74 62.86,34.74 60.66,38.56 62.86,42.39 67.28,42.39 69.49,38.56 		"/>
		<polygon class="st2" points="107.04,34.74 102.62,34.74 100.41,38.56 102.62,42.39 107.04,42.39 109.25,38.56 		"/>
		<polygon class="st2" points="107.04,42.39 102.62,42.39 100.41,46.22 102.62,50.04 107.04,50.04 109.25,46.22 		"/>
		<polygon class="st2" points="107.04,50.04 102.62,50.04 100.41,53.87 102.62,57.7 107.04,57.7 109.25,53.87 		"/>
		<polygon class="st2" points="113.67,53.87 109.25,53.87 107.04,57.7 109.25,61.52 113.67,61.52 115.88,57.7 		"/>
		<polygon class="st2" points="113.67,61.52 109.25,61.52 107.04,65.35 109.25,69.17 113.67,69.17 115.88,65.35 		"/>
		<polygon class="st2" points="93.79,50.04 89.37,50.04 87.17,53.87 89.37,57.7 93.79,57.7 96,53.87 		"/>
		<polygon class="st2" points="93.79,65.35 89.37,65.35 87.17,69.17 89.37,73 93.79,73 96,69.17 		"/>
		<polygon class="st2" points="93.79,73 89.37,73 87.17,76.83 89.37,80.65 93.79,80.65 96,76.83 		"/>
		<polygon class="st2" points="80.54,50.04 76.12,50.04 73.91,53.87 76.12,57.7 80.54,57.7 82.75,53.87 		"/>
		<polygon class="st2" points="87.16,53.87 82.75,53.87 80.54,57.7 82.75,61.52 87.16,61.52 89.37,57.7 		"/>
		<polygon class="st2" points="87.16,61.52 82.75,61.52 80.54,65.35 82.75,69.17 87.16,69.17 89.37,65.35 		"/>
		<polygon class="st2" points="100.41,46.22 95.99,46.22 93.78,50.04 95.99,53.87 100.41,53.87 102.62,50.04 		"/>
		<polygon class="st2" points="87.16,46.22 82.75,46.22 80.54,50.04 82.75,53.87 87.16,53.87 89.37,50.04 		"/>
		<polygon class="st2" points="113.67,38.56 109.25,38.56 107.04,42.39 109.25,46.22 113.67,46.22 115.88,42.39 		"/>
		<polygon class="st2" points="120.31,34.74 115.89,34.74 113.69,38.56 115.89,42.39 120.31,42.39 122.52,38.56 		"/>
		<polygon class="st2" points="107.04,27.09 102.62,27.09 100.41,30.91 102.62,34.74 107.04,34.74 109.25,30.91 		"/>
	</g>
	<circle class="st3" cx="102.62" cy="42.39" r="0.34"/>
	<circle class="st3" cx="89.37" cy="27.09" r="0.34"/>
	<circle class="st3" cx="107.04" cy="50.04" r="0.34"/>
	<path class="st3" d="M87.5,53.87c0-0.19-0.15-0.34-0.34-0.34c-0.19,0-0.34,0.15-0.34,0.34c0,0.19,0.15,0.34,0.34,0.34
		C87.35,54.2,87.5,54.05,87.5,53.87z"/>
	<path class="st3" d="M80.87,65.35c0-0.19-0.15-0.34-0.34-0.34c-0.19,0-0.34,0.15-0.34,0.34c0,0.19,0.15,0.34,0.34,0.34
		C80.72,65.68,80.87,65.53,80.87,65.35z"/>
	<path class="st3" d="M89.71,73c0-0.19-0.15-0.34-0.34-0.34c-0.19,0-0.34,0.15-0.34,0.34c0,0.19,0.15,0.34,0.34,0.34
		C89.56,73.34,89.71,73.18,89.71,73z"/>
	<path class="st3" d="M107.38,65.35c0-0.19-0.15-0.34-0.34-0.34c-0.19,0-0.34,0.15-0.34,0.34c0,0.19,0.15,0.34,0.34,0.34
		C107.23,65.68,107.38,65.53,107.38,65.35z"/>
	<path class="st3" d="M114.02,61.52c0-0.19-0.15-0.34-0.34-0.34c-0.19,0-0.34,0.15-0.34,0.34c0,0.19,0.15,0.34,0.34,0.34
		C113.87,61.86,114.02,61.71,114.02,61.52z"/>
	<path class="st3" d="M114.02,38.56c0-0.19-0.15-0.34-0.34-0.34c-0.19,0-0.34,0.15-0.34,0.34c0,0.19,0.15,0.34,0.34,0.34
		C113.87,38.9,114.02,38.75,114.02,38.56z"/>
	<path class="st3" d="M102.96,34.74c0-0.19-0.15-0.34-0.34-0.34c-0.19,0-0.34,0.15-0.34,0.34c0,0.19,0.15,0.34,0.34,0.34
		C102.81,35.08,102.96,34.92,102.96,34.74z"/>
	<circle class="st3" cx="89.37" cy="34.74" r="0.34"/>
	<path class="st3" d="M87.5,15.61c0-0.19-0.15-0.34-0.34-0.34c-0.19,0-0.34,0.15-0.34,0.34c0,0.19,0.15,0.34,0.34,0.34
		C87.35,15.94,87.5,15.79,87.5,15.61z"/>
	<circle class="st3" cx="109.27" cy="7.96" r="0.34"/>
	<path class="st3" d="M102.97,27.09c0-0.19-0.15-0.34-0.34-0.34c-0.19,0-0.34,0.15-0.34,0.34c0,0.19,0.15,0.34,0.34,0.34
		C102.82,27.42,102.97,27.27,102.97,27.09z"/>
	<circle class="st3" cx="62.91" cy="34.74" r="0.34"/>
	<circle class="st3" cx="73.91" cy="30.91" r="0.34"/>
	<path class="st3" d="M69.83,23.26c0-0.19-0.15-0.34-0.34-0.34c-0.19,0-0.34,0.15-0.34,0.34s0.15,0.34,0.34,0.34
		C69.68,23.6,69.83,23.45,69.83,23.26z"/>
	<path class="st3" d="M67.65,42.39c0-0.19-0.15-0.34-0.34-0.34c-0.19,0-0.34,0.15-0.34,0.34c0,0.19,0.15,0.34,0.34,0.34
		C67.5,42.73,67.65,42.58,67.65,42.39z"/>
	<path class="st3" d="M74.25,38.56c0-0.19-0.15-0.34-0.34-0.34s-0.34,0.15-0.34,0.34c0,0.19,0.15,0.34,0.34,0.34
		S74.25,38.75,74.25,38.56z"/>
	<path class="st3" d="M96.34,15.61c0-0.19-0.15-0.34-0.34-0.34c-0.19,0-0.34,0.15-0.34,0.34c0,0.19,0.15,0.34,0.34,0.34
		C96.19,15.94,96.34,15.79,96.34,15.61z"/>
	<path class="st3" d="M100.65,0.31c0-0.13-0.11-0.24-0.24-0.24c-0.13,0-0.24,0.11-0.24,0.24s0.11,0.24,0.24,0.24
		C100.54,0.54,100.65,0.44,100.65,0.31z"/>
	<path class="st3" d="M96.33,7.96c0-0.19-0.15-0.34-0.34-0.34c-0.19,0-0.34,0.15-0.34,0.34c0,0.19,0.15,0.34,0.34,0.34
		C96.18,8.29,96.33,8.14,96.33,7.96z"/>
	<circle class="st3" cx="109.25" cy="23.26" r="0.34"/>
	<path class="st3" d="M116.22,19.43c0-0.19-0.15-0.34-0.34-0.34c-0.19,0-0.34,0.15-0.34,0.34c0,0.19,0.15,0.34,0.34,0.34
		C116.06,19.77,116.22,19.62,116.22,19.43z"/>
	<path class="st4" d="M91.94,23.26c0-0.19-0.15-0.34-0.34-0.34c-0.19,0-0.34,0.15-0.34,0.34c0,0.19,0.15,0.34,0.34,0.34
		C91.79,23.6,91.94,23.45,91.94,23.26z"/>
	<path class="st4" d="M91.94,38.56c0-0.19-0.15-0.34-0.34-0.34c-0.19,0-0.34,0.15-0.34,0.34c0,0.19,0.15,0.34,0.34,0.34
		C91.79,38.9,91.94,38.75,91.94,38.56z"/>
	<path class="st4" d="M98.54,11.78c0-0.19-0.15-0.34-0.34-0.34c-0.19,0-0.34,0.15-0.34,0.34c0,0.19,0.15,0.34,0.34,0.34
		C98.39,12.12,98.54,11.97,98.54,11.78z"/>
	<path class="st4" d="M78.69,23.26c0-0.19-0.15-0.34-0.34-0.34c-0.19,0-0.34,0.15-0.34,0.34c0,0.19,0.15,0.34,0.34,0.34
		C78.54,23.6,78.69,23.45,78.69,23.26z"/>
	<path class="st4" d="M85.29,42.39c0-0.19-0.15-0.34-0.34-0.34c-0.19,0-0.34,0.15-0.34,0.34c0,0.19,0.15,0.34,0.34,0.34
		C85.14,42.73,85.29,42.58,85.29,42.39z"/>
	<path class="st4" d="M111.8,34.74c0-0.19-0.15-0.34-0.34-0.34c-0.19,0-0.34,0.15-0.34,0.34c0,0.19,0.15,0.34,0.34,0.34
		C111.65,35.08,111.8,34.92,111.8,34.74z"/>
	<path class="st4" d="M98.54,57.7c0-0.19-0.15-0.34-0.34-0.34c-0.19,0-0.34,0.15-0.34,0.34c0,0.19,0.15,0.34,0.34,0.34
		C98.39,58.03,98.54,57.88,98.54,57.7z"/>
	<path class="st4" d="M65.41,53.87c0-0.19-0.15-0.34-0.34-0.34c-0.19,0-0.34,0.15-0.34,0.34c0,0.19,0.15,0.34,0.34,0.34
		C65.26,54.21,65.41,54.05,65.41,53.87z"/>
	<path class="st4" d="M61.05,46.22c0-0.19-0.15-0.34-0.34-0.34c-0.19,0-0.34,0.15-0.34,0.34c0,0.19,0.15,0.34,0.34,0.34
		C60.9,46.55,61.05,46.4,61.05,46.22z"/>
	<path class="st4" d="M52.22,46.22c0-0.19-0.15-0.34-0.34-0.34c-0.19,0-0.34,0.15-0.34,0.34c0,0.19,0.15,0.34,0.34,0.34
		C52.07,46.55,52.22,46.4,52.22,46.22z"/>
	<circle class="st4" cx="73.91" cy="69.17" r="0.34"/>
	<path class="st4" d="M107.38,73c0-0.19-0.15-0.34-0.34-0.34c-0.19,0-0.34,0.15-0.34,0.34c0,0.19,0.15,0.34,0.34,0.34
		C107.23,73.34,107.38,73.18,107.38,73z"/>
	<path class="st4" d="M91.91,46.22c0-0.19-0.15-0.34-0.34-0.34c-0.19,0-0.34,0.15-0.34,0.34c0,0.19,0.15,0.34,0.34,0.34
		C91.76,46.55,91.91,46.4,91.91,46.22z"/>
	<path class="st4" d="M78.69,46.22c0-0.19-0.15-0.34-0.34-0.34c-0.19,0-0.34,0.15-0.34,0.34c0,0.19,0.15,0.34,0.34,0.34
		C78.54,46.55,78.69,46.4,78.69,46.22z"/>
	<circle class="st4" cx="73.91" cy="61.52" r="0.34"/>
	<path class="st4" d="M80.87,73c0-0.19-0.15-0.34-0.34-0.34c-0.19,0-0.34,0.15-0.34,0.34c0,0.19,0.15,0.34,0.34,0.34
		C80.72,73.34,80.87,73.18,80.87,73z"/>
	<path class="st4" d="M98.54,65.35c0-0.19-0.15-0.34-0.34-0.34c-0.19,0-0.34,0.15-0.34,0.34c0,0.19,0.15,0.34,0.34,0.34
		C98.39,65.68,98.54,65.53,98.54,65.35z"/>
	<path class="st4" d="M111.8,50.04c0-0.19-0.15-0.34-0.34-0.34s-0.34,0.15-0.34,0.34c0,0.19,0.15,0.34,0.34,0.34
		S111.8,50.23,111.8,50.04z"/>
</g>
<linearGradient id="SVGID_6_" gradientUnits="userSpaceOnUse" x1="13" y1="38.2914" x2="29" y2="38.2914">
	<stop  offset="0" style="stop-color:#575757"/>
	<stop  offset="0.5192" style="stop-color:#FFFFFF"/>
	<stop  offset="1" style="stop-color:#A8A8A8"/>
</linearGradient>
<path class="st5" d="M27.08,44.24H14.92c-1.06,0-1.92-0.86-1.92-1.92v-8.05c0-1.06,0.86-1.92,1.92-1.92h12.15
	c1.06,0,1.92,0.86,1.92,1.92v8.05C29,43.38,28.14,44.24,27.08,44.24z"/>
<g>
	<path class="st6" d="M13.88,24.59h-3.27c0-0.41,0-16.48,0-16.94h3.27C13.88,8.02,13.88,24.14,13.88,24.59z M9.06,16.11H5.79
		c0,0.55,0,8.11,0,8.48h3.27C9.06,24.12,9.06,16.63,9.06,16.11z M18.68,7.65h-3.27c0,0.38,0,8.2,0,8.48h3.27
		C18.68,15.66,18.68,7.99,18.68,7.65z"/>
	<path class="st7" d="M42.44,15.3v4.56h-1.05v-4.57c0-1.39-0.57-2.03-1.78-2.03c-1.45,0-2.21,1.07-2.21,2.12v4.47h-1.05v-7.48h1.05
		v0.81c0.52-0.52,1.3-0.92,2.27-0.92C41.46,12.27,42.44,13.34,42.44,15.3z M54.86,12.27c-0.98,0-1.76,0.4-2.27,0.92V9.07h-1.05
		v10.79h1.05v-4.47c0-1.05,0.76-2.12,2.21-2.12c1.22,0,1.78,0.65,1.78,2.03v4.57h1.05V15.3C57.62,13.34,56.64,12.27,54.86,12.27z
		 M70.44,16.05v0.11c0,2.17-1.55,3.81-3.6,3.81c-2.01,0-3.59-1.66-3.59-3.79v-0.11c0-2.16,1.55-3.79,3.61-3.79
		C68.94,12.28,70.44,13.87,70.44,16.05z M69.38,16.16v-0.11c0-1.65-1.03-2.8-2.5-2.8s-2.55,1.18-2.55,2.81v0.11
		c0,1.62,1.06,2.8,2.54,2.8C68.35,18.97,69.38,17.81,69.38,16.16z M74.94,12.27c-0.98,0-1.76,0.4-2.27,0.92v-0.81h-1.05v7.5h1.05
		v-4.49c0-1.05,0.76-2.12,2.21-2.12c1.22,0,1.78,0.65,1.78,2.03v4.57h1.05V15.3C77.72,13.34,76.74,12.27,74.94,12.27z M47.07,18.97
		c-1.46,0-2.54-1.18-2.54-2.8v-0.11c0-1.63,1.07-2.81,2.55-2.81c1.03,0,1.83,0.55,2.23,1.44h1.12c-0.48-1.46-1.75-2.42-3.36-2.42
		c-2.05,0-3.61,1.63-3.61,3.79v0.11c0,2.12,1.57,3.79,3.59,3.79c1.74,0,3.12-1.18,3.49-2.87h-1.07
		C49.15,18.24,48.25,18.97,47.07,18.97z M62.48,12.27c-0.98,0-1.76,0.4-2.27,0.92v-0.81h-1.05v7.5h1.05v-4.49
		c0-1.05,0.76-2.12,2.21-2.12c0.28,0,0.52,0.04,0.73,0.11v-1.04C62.94,12.28,62.71,12.27,62.48,12.27z M25.6,15.52
		c-1.66-0.27-1.96-0.58-1.96-1.18c0-0.65,0.67-1.09,1.65-1.09c1.02,0,1.59,0.37,1.76,1.17l0.01,0.05h1.1l-0.02-0.14
		c-0.22-1.32-1.23-2.04-2.82-2.04c-1.58,0-2.74,0.87-2.74,2.07c0,1.57,1.33,1.92,2.81,2.17c1.39,0.24,1.82,0.44,1.82,1.26
		c0,0.76-0.68,1.23-1.75,1.23c-1.45,0-1.9-0.77-2.02-1.44h-1.12c0.13,1.5,1.33,2.42,3.13,2.42c1.68,0,2.86-0.92,2.86-2.24
		C28.29,16.11,27.02,15.77,25.6,15.52z M84.03,12.37l-2.28,6.16l-2.64-6.16h-1.09l3.16,7.46l-0.99,2.93h1.1l3.81-10.39H84.03z
		 M34.39,12.37l-2.28,6.16l-2.64-6.16h-1.09l3.16,7.46l-0.99,2.93h1.1l3.81-10.39H34.39z"/>
	<g>
		<path class="st7" d="M86.6,10.86h-0.33V9.3H85.7V8.98h1.49V9.3H86.6L86.6,10.86L86.6,10.86z"/>
		<path class="st7" d="M89.37,8.91v1.95h-0.33V9.92l-0.68,1.03l-0.68-1.03v0.94h-0.31V8.91l1,1.48L89.37,8.91z"/>
	</g>
</g>
</svg>
