<?xml version="1.0" encoding="utf-8"?>
<!-- Generator: Adobe Illustrator 24.0.0, SVG Export Plug-In . SVG Version: 6.00 Build 0)  -->
<svg version="1.1" id="Layer_1" xmlns="http://www.w3.org/2000/svg" xmlns:xlink="http://www.w3.org/1999/xlink" x="0px" y="0px"
	 viewBox="0 0 120 75" style="enable-background:new 0 0 120 75;" xml:space="preserve">
<style type="text/css">
	.st0{fill:url(#SVGID_1_);}
	.st1{fill:url(#SVGID_2_);}
	.st2{fill:#30B457;}
	.st3{fill:#FFFFFF;}
	.st4{fill:#B2B2B2;}
	.st5{fill:none;}
</style>
<linearGradient id="SVGID_1_" gradientUnits="userSpaceOnUse" x1="60.05" y1="0.2" x2="60.05" y2="75.21">
	<stop  offset="0" style="stop-color:#002D15"/>
	<stop  offset="0.2389" style="stop-color:#08411C"/>
	<stop  offset="0.5303" style="stop-color:#2C9A39"/>
	<stop  offset="1" style="stop-color:#005220"/>
</linearGradient>
<path class="st0" d="M115.14,75.21H4.97c-2.72,0-4.92-2.2-4.92-4.92V5.12c0-2.72,2.2-4.92,4.92-4.92h110.16
	c2.72,0,4.92,2.2,4.92,4.92v65.16C120.06,73,117.85,75.21,115.14,75.21z"/>
<linearGradient id="SVGID_2_" gradientUnits="userSpaceOnUse" x1="13.06" y1="38.505" x2="29.0501" y2="38.505">
	<stop  offset="0" style="stop-color:#575757"/>
	<stop  offset="0.5192" style="stop-color:#FFFFFF"/>
	<stop  offset="1" style="stop-color:#A8A8A8"/>
</linearGradient>
<path class="st1" d="M27.13,44.45H14.98c-1.06,0-1.92-0.86-1.92-1.92v-8.05c0-1.06,0.86-1.92,1.92-1.92h12.15
	c1.06,0,1.92,0.86,1.92,1.92v8.05C29.06,43.59,28.19,44.45,27.13,44.45z"/>
<path class="st2" d="M12.95,21.69h16.2V7.19h-16.2V21.69z M23.59,18.55h-3.78v-6.79h1.9v5.6h1.83c1.26,0,1.79-0.87,1.79-3.11
	c0-2.26-0.6-2.92-1.88-2.92h-4.16v7.24h-1.87v-7.25h-2.75V10.1h9.37c2.26,0,3.34,1.17,3.34,4.11
	C27.37,18.07,25.76,18.55,23.59,18.55"/>
<g>
	<g>
		<path class="st3" d="M100.93,67.99h-1.74l1.08-6.67h1.74L100.93,67.99z M97.73,61.33l-1.65,4.59l-0.2-0.99l0,0l-0.58-3
			c0,0-0.07-0.6-0.82-0.6h-2.74l-0.03,0.11c0,0,0.84,0.17,1.82,0.76l1.51,5.79h1.81l2.76-6.67L97.73,61.33L97.73,61.33z
			 M111.38,67.99h1.59l-1.39-6.67h-1.4c-0.64,0-0.8,0.5-0.8,0.5l-2.59,6.17h1.81l0.36-0.99h2.21L111.38,67.99L111.38,67.99z
			 M109.47,65.64l0.91-2.49l0.51,2.49H109.47z M106.94,62.93l0.25-1.43c0,0-0.76-0.29-1.56-0.29c-0.86,0-2.91,0.38-2.91,2.21
			c0,1.72,2.4,1.74,2.4,2.65c0,0.9-2.15,0.74-2.86,0.17l-0.26,1.5c0,0,0.78,0.38,1.96,0.38s2.97-0.61,2.97-2.28
			c0-1.73-2.42-1.89-2.42-2.65C104.51,62.42,106.2,62.52,106.94,62.93L106.94,62.93z"/>
	</g>
	<path class="st4" d="M95.88,64.92l-0.58-3c0,0-0.07-0.6-0.82-0.6h-2.74l-0.03,0.11c0,0,1.31,0.27,2.58,1.29
		C95.49,63.71,95.88,64.92,95.88,64.92z"/>
	<path class="st5" d="M89.71,52.02h25.28V77.3H89.71V52.02z"/>
</g>
</svg>
