<?xml version="1.0" encoding="utf-8"?>
<!-- Generator: Adobe Illustrator 24.0.0, SVG Export Plug-In . SVG Version: 6.00 Build 0)  -->
<svg version="1.1" id="Layer_1" xmlns="http://www.w3.org/2000/svg" xmlns:xlink="http://www.w3.org/1999/xlink" x="0px" y="0px"
	 viewBox="0 0 120 75" style="enable-background:new 0 0 120 75;" xml:space="preserve">
<style type="text/css">
	.st0{fill:url(#SVGID_1_);}
	.st1{fill:#3B5363;}
	.st2{fill:url(#SVGID_2_);}
	.st3{fill:#F99F1C;}
	.st4{fill:#ED1C24;}
	.st5{opacity:0.43;fill:#F99F1C;enable-background:new    ;}
	.st6{fill:#858688;}
	.st7{fill:#F2F2F2;}
</style>
<radialGradient id="SVGID_1_" cx="60.05" cy="37.705" r="50.0331" gradientUnits="userSpaceOnUse">
	<stop  offset="2.028925e-03" style="stop-color:#304862"/>
	<stop  offset="0.6826" style="stop-color:#0B2945"/>
	<stop  offset="0.9978" style="stop-color:#001E37"/>
</radialGradient>
<path class="st0" d="M115.14,75.21H4.97c-2.72,0-4.92-2.2-4.92-4.92V5.12c0-2.72,2.2-4.92,4.92-4.92h110.16
	c2.72,0,4.92,2.2,4.92,4.92v65.16C120.06,73,117.85,75.21,115.14,75.21z"/>
<g>
	<g>
		<path class="st1" d="M65.83,61.23c0,0,0.28-0.09,0.79-0.26c0.26-0.09,0.58-0.19,0.95-0.31c0.35-0.14,0.76-0.31,1.22-0.49
			c0.46-0.17,0.95-0.42,1.49-0.68c0.55-0.24,1.11-0.56,1.72-0.91c1.21-0.68,2.51-1.56,3.84-2.63c1.33-1.07,2.66-2.38,3.93-3.87
			c1.27-1.5,2.42-3.23,3.42-5.13c0.99-1.9,1.83-3.97,2.37-6.17c0.16-0.5,0.23-1.11,0.35-1.66c0.1-0.57,0.24-1.14,0.31-1.7l0.16-1.7
			l0.08-0.85l0-0.86l-0.02-1.72c-0.04-0.57-0.11-1.14-0.17-1.71c-0.07-1.15-0.36-2.25-0.57-3.36c-0.09-0.56-0.31-1.09-0.45-1.63
			c-0.17-0.53-0.29-1.08-0.51-1.59c-0.44-1.02-0.77-2.07-1.31-3.01c-0.25-0.48-0.49-0.95-0.73-1.42c-0.27-0.46-0.56-0.89-0.83-1.33
			c-0.52-0.9-1.16-1.69-1.77-2.47c-1.23-1.55-2.56-2.86-3.87-3.99c-0.31-0.3-0.65-0.55-0.98-0.79c-0.33-0.25-0.66-0.48-0.97-0.72
			C73.66,9.78,73,9.43,72.41,9.06c-1.17-0.77-2.32-1.22-3.21-1.68c-0.92-0.41-1.68-0.64-2.18-0.84c-0.51-0.19-0.78-0.29-0.78-0.29
			l0.22-0.7c0,0,0.28,0.1,0.79,0.29c0.51,0.21,1.29,0.44,2.23,0.86c0.92,0.47,2.09,0.93,3.29,1.72c0.61,0.38,1.29,0.74,1.92,1.24
			c0.32,0.24,0.66,0.49,1,0.74c0.34,0.25,0.69,0.51,1.01,0.81c1.34,1.15,2.71,2.5,3.97,4.09c0.62,0.8,1.27,1.61,1.81,2.53
			c0.28,0.45,0.58,0.9,0.86,1.36c0.25,0.48,0.5,0.97,0.75,1.46c0.55,0.96,0.89,2.04,1.34,3.08c0.22,0.52,0.34,1.09,0.52,1.63
			c0.15,0.55,0.37,1.09,0.46,1.67c0.22,1.14,0.51,2.27,0.59,3.45c0.06,0.58,0.14,1.17,0.17,1.75l0.02,1.77l0.01,0.88l-0.06,0.89
			l-0.14,1.77c-0.06,0.59-0.19,1.15-0.28,1.72c-0.11,0.58-0.16,1.12-0.33,1.72c-0.51,2.27-1.33,4.42-2.32,6.41
			c-0.99,1.98-2.15,3.81-3.44,5.39c-1.29,1.57-2.64,2.96-4.01,4.11c-1.37,1.14-2.71,2.09-3.96,2.82c-0.62,0.37-1.21,0.72-1.78,0.98
			c-0.56,0.28-1.07,0.55-1.56,0.74c-0.49,0.2-0.92,0.39-1.3,0.55c-0.37,0.13-0.69,0.24-0.95,0.33c-0.51,0.18-0.79,0.28-0.79,0.28
			L65.83,61.23z"/>
		<path class="st1" d="M78.54,59.64c-0.57-0.01-2.38-0.11-4.08-1.45c0.46-0.34,1.97-1.35,4.13-1.31c0.57,0.01,2.38,0.11,4.08,1.45
			C82.21,58.67,80.71,59.68,78.54,59.64z"/>
		<path class="st1" d="M74.35,53.86c-0.17,0.55-0.63,2.3,0.12,4.33c0.46-0.34,1.89-1.45,2.52-3.52c0.17-0.55,0.63-2.3-0.12-4.33
			C76.4,50.67,74.98,51.79,74.35,53.86z"/>
		<path class="st1" d="M85.33,51.93c-0.55,0.17-2.3,0.63-4.33-0.12c0.34-0.46,1.45-1.89,3.52-2.52c0.55-0.17,2.3-0.63,4.33,0.12
			C88.52,49.87,87.4,51.29,85.33,51.93z"/>
		<path class="st1" d="M79.55,47.73c0.01,0.57,0.11,2.38,1.45,4.08c0.34-0.46,1.35-1.97,1.31-4.13c-0.01-0.57-0.11-2.38-1.45-4.08
			C80.52,44.06,79.52,45.56,79.55,47.73z"/>
		<path class="st1" d="M89.37,42.54c-0.47,0.33-1.99,1.31-4.16,1.23c0.18-0.55,0.8-2.24,2.57-3.49c0.47-0.33,1.99-1.31,4.16-1.23
			C91.76,39.6,91.14,41.3,89.37,42.54z"/>
		<path class="st1" d="M82.57,40.34c0.19,0.54,0.84,2.23,2.64,3.44c0.18-0.54,0.67-2.29-0.03-4.33c-0.19-0.54-0.84-2.23-2.64-3.44
			C82.36,36.55,81.87,38.29,82.57,40.34z"/>
		<path class="st1" d="M90.43,32.41c-0.34,0.46-1.49,1.86-3.57,2.45c0-0.57,0.07-2.38,1.37-4.11c0.34-0.46,1.49-1.86,3.57-2.45
			C91.8,28.87,91.73,30.68,90.43,32.41z"/>
		<path class="st1" d="M83.28,32.41c0.34,0.46,1.49,1.86,3.57,2.45c0-0.57-0.07-2.38-1.37-4.11c-0.34-0.46-1.49-1.86-3.57-2.45
			C81.91,28.87,81.98,30.68,83.28,32.41z"/>
		<path class="st1" d="M88.38,22.52c-0.19,0.54-0.84,2.23-2.64,3.44c-0.18-0.54-0.67-2.29,0.03-4.33c0.19-0.54,0.84-2.23,2.64-3.44
			C88.58,18.73,89.08,20.47,88.38,22.52z"/>
		<path class="st1" d="M81.58,24.72c0.47,0.33,1.99,1.31,4.16,1.23c-0.18-0.55-0.8-2.24-2.57-3.49c-0.47-0.33-1.99-1.31-4.16-1.23
			C79.18,21.78,79.81,23.48,81.58,24.72z"/>
		<path class="st1" d="M83.21,13.42C83.2,14,83.1,15.8,81.76,17.51c-0.34-0.46-1.35-1.97-1.31-4.13c0.01-0.57,0.11-2.38,1.45-4.08
			C82.24,9.75,83.25,11.26,83.21,13.42z"/>
		<path class="st1" d="M77.43,17.62c0.55,0.17,2.3,0.63,4.33-0.12c-0.34-0.46-1.45-1.89-3.52-2.52c-0.55-0.17-2.3-0.63-4.33,0.12
			C74.24,15.56,75.36,16.99,77.43,17.62z"/>
		<path class="st1" d="M75.41,6.3c0.17,0.55,0.63,2.3-0.12,4.33c-0.46-0.34-1.89-1.45-2.52-3.52c-0.17-0.55-0.63-2.3,0.12-4.33
			C73.35,3.11,74.77,4.23,75.41,6.3z"/>
		<path class="st1" d="M71.21,12.08c0.57-0.01,2.38-0.11,4.08-1.45c-0.46-0.34-1.97-1.35-4.13-1.31c-0.57,0.01-2.38,0.11-4.08,1.45
			C67.54,11.11,69.04,12.12,71.21,12.08z"/>
		<path class="st1" d="M66.84,4.68c0.54,0.2,2.2,0.92,3.35,2.75c-0.55,0.16-2.31,0.6-4.33-0.18c-0.54-0.2-2.2-0.92-3.35-2.75
			C63.07,4.34,64.82,3.91,66.84,4.68z"/>
	</g>
	<g>
		<path class="st1" d="M49.05,62.61c0,0-0.27-0.1-0.79-0.28c-0.26-0.09-0.57-0.2-0.95-0.33c-0.38-0.16-0.81-0.34-1.3-0.55
			c-0.49-0.19-1-0.46-1.56-0.74c-0.57-0.27-1.15-0.61-1.78-0.98c-1.25-0.73-2.59-1.68-3.96-2.82c-1.37-1.14-2.72-2.53-4.01-4.11
			c-1.29-1.58-2.44-3.41-3.44-5.39c-0.98-1.99-1.81-4.14-2.32-6.41c-0.17-0.6-0.22-1.14-0.33-1.72c-0.09-0.57-0.22-1.13-0.28-1.72
			l-0.14-1.77l-0.06-0.89l0.01-0.88l0.02-1.77c0.04-0.59,0.12-1.17,0.17-1.75c0.08-1.17,0.37-2.31,0.59-3.45
			c0.1-0.57,0.31-1.11,0.46-1.67c0.18-0.55,0.3-1.11,0.52-1.63c0.45-1.04,0.79-2.12,1.34-3.08c0.25-0.49,0.5-0.98,0.75-1.46
			c0.27-0.47,0.57-0.91,0.85-1.36c0.54-0.92,1.19-1.73,1.81-2.53c1.26-1.59,2.63-2.94,3.97-4.09c0.32-0.31,0.66-0.57,1.01-0.81
			c0.34-0.25,0.67-0.5,1-0.74c0.63-0.51,1.31-0.87,1.92-1.24c1.2-0.79,2.37-1.25,3.29-1.72c0.94-0.42,1.72-0.65,2.23-0.86
			c0.52-0.19,0.79-0.29,0.79-0.29l0.22,0.7c0,0-0.27,0.1-0.78,0.29c-0.5,0.2-1.26,0.43-2.18,0.84c-0.89,0.46-2.04,0.9-3.21,1.68
			c-0.59,0.37-1.26,0.72-1.87,1.21c-0.32,0.23-0.64,0.47-0.97,0.72c-0.34,0.24-0.67,0.49-0.98,0.79c-1.31,1.12-2.64,2.44-3.87,3.99
			c-0.6,0.78-1.24,1.57-1.77,2.47c-0.27,0.44-0.57,0.88-0.83,1.33c-0.24,0.47-0.49,0.95-0.73,1.42c-0.54,0.94-0.87,1.99-1.31,3.01
			c-0.21,0.51-0.33,1.06-0.51,1.59c-0.15,0.54-0.36,1.07-0.45,1.63c-0.21,1.11-0.5,2.22-0.57,3.36c-0.05,0.57-0.13,1.14-0.17,1.71
			l-0.02,1.72l0,0.86l0.08,0.85l0.16,1.7c0.07,0.57,0.21,1.14,0.31,1.7c0.12,0.55,0.19,1.16,0.35,1.66
			c0.54,2.19,1.38,4.27,2.37,6.17c1,1.9,2.15,3.63,3.42,5.13c1.28,1.49,2.6,2.8,3.93,3.87c1.34,1.07,2.63,1.95,3.84,2.63
			c0.6,0.34,1.17,0.66,1.72,0.91c0.54,0.26,1.03,0.51,1.49,0.68c0.46,0.18,0.86,0.35,1.22,0.49c0.38,0.12,0.69,0.23,0.95,0.31
			c0.52,0.17,0.79,0.26,0.79,0.26L49.05,62.61z"/>
		<path class="st1" d="M36.81,59.64c0.57-0.01,2.38-0.11,4.08-1.45c-0.46-0.34-1.97-1.35-4.13-1.31c-0.57,0.01-2.38,0.11-4.08,1.45
			C33.14,58.67,34.64,59.68,36.81,59.64z"/>
		<path class="st1" d="M41.01,53.86c0.17,0.55,0.63,2.3-0.12,4.33c-0.46-0.34-1.89-1.45-2.52-3.52c-0.17-0.55-0.63-2.3,0.12-4.33
			C38.95,50.67,40.37,51.79,41.01,53.86z"/>
		<path class="st1" d="M30.02,51.93c0.55,0.17,2.3,0.63,4.33-0.12c-0.34-0.46-1.45-1.89-3.52-2.52c-0.55-0.17-2.3-0.63-4.33,0.12
			C26.83,49.87,27.95,51.29,30.02,51.93z"/>
		<path class="st1" d="M35.8,47.73c-0.01,0.57-0.11,2.38-1.45,4.08c-0.34-0.46-1.35-1.97-1.31-4.13c0.01-0.57,0.11-2.38,1.45-4.08
			C34.83,44.06,35.84,45.56,35.8,47.73z"/>
		<path class="st1" d="M25.99,42.54c0.47,0.33,1.99,1.31,4.16,1.23c-0.18-0.55-0.8-2.24-2.57-3.49c-0.47-0.33-1.99-1.31-4.16-1.23
			C23.59,39.6,24.21,41.3,25.99,42.54z"/>
		<path class="st1" d="M32.78,40.34c-0.19,0.54-0.84,2.23-2.64,3.44c-0.18-0.54-0.67-2.29,0.03-4.33c0.19-0.54,0.84-2.23,2.64-3.44
			C32.99,36.55,33.49,38.29,32.78,40.34z"/>
		<path class="st1" d="M24.92,32.41c0.34,0.46,1.49,1.86,3.57,2.45c0-0.57-0.07-2.38-1.37-4.11c-0.34-0.46-1.49-1.86-3.57-2.45
			C23.55,28.87,23.62,30.68,24.92,32.41z"/>
		<path class="st1" d="M32.07,32.41c-0.34,0.46-1.49,1.86-3.57,2.45c0-0.57,0.07-2.38,1.37-4.11c0.34-0.46,1.49-1.86,3.57-2.45
			C33.44,28.87,33.37,30.68,32.07,32.41z"/>
		<path class="st1" d="M26.98,22.52c0.19,0.54,0.84,2.23,2.64,3.44c0.18-0.54,0.67-2.29-0.03-4.33c-0.19-0.54-0.84-2.23-2.64-3.44
			C26.77,18.73,26.27,20.47,26.98,22.52z"/>
		<path class="st1" d="M33.77,24.72c-0.47,0.33-1.99,1.31-4.16,1.23c0.18-0.55,0.8-2.24,2.57-3.49c0.47-0.33,1.99-1.31,4.16-1.23
			C36.17,21.78,35.55,23.48,33.77,24.72z"/>
		<path class="st1" d="M32.14,13.42c0.01,0.57,0.11,2.38,1.45,4.08c0.34-0.46,1.35-1.97,1.31-4.13c-0.01-0.57-0.11-2.38-1.45-4.08
			C33.11,9.75,32.11,11.26,32.14,13.42z"/>
		<path class="st1" d="M37.92,17.62c-0.55,0.17-2.3,0.63-4.33-0.12c0.34-0.46,1.45-1.89,3.52-2.52c0.55-0.17,2.3-0.63,4.33,0.12
			C41.11,15.56,39.99,16.99,37.92,17.62z"/>
		<path class="st1" d="M39.95,6.3c-0.17,0.55-0.63,2.3,0.12,4.33c0.46-0.34,1.89-1.45,2.52-3.52c0.17-0.55,0.63-2.3-0.12-4.33
			C42,3.11,40.58,4.23,39.95,6.3z"/>
		<path class="st1" d="M44.15,12.08c-0.57-0.01-2.38-0.11-4.08-1.45c0.46-0.34,1.97-1.35,4.13-1.31c0.57,0.01,2.38,0.11,4.08,1.45
			C47.81,11.11,46.31,12.12,44.15,12.08z"/>
		<path class="st1" d="M48.51,4.68c-0.54,0.2-2.2,0.92-3.35,2.75c0.55,0.16,2.31,0.6,4.33-0.18c0.54-0.2,2.2-0.92,3.35-2.75
			C52.29,4.34,50.53,3.91,48.51,4.68z"/>
	</g>
</g>
<linearGradient id="SVGID_2_" gradientUnits="userSpaceOnUse" x1="13.06" y1="38.505" x2="29.0501" y2="38.505">
	<stop  offset="0" style="stop-color:#575757"/>
	<stop  offset="0.5192" style="stop-color:#FFFFFF"/>
	<stop  offset="1" style="stop-color:#A8A8A8"/>
</linearGradient>
<path class="st2" d="M27.13,44.45H14.98c-1.06,0-1.92-0.86-1.92-1.92v-8.05c0-1.06,0.86-1.92,1.92-1.92h12.15
	c1.06,0,1.92,0.86,1.92,1.92v8.05C29.06,43.59,28.19,44.45,27.13,44.45z"/>
<g>
	<circle class="st3" cx="106.05" cy="61.68" r="7.8"/>
	<circle class="st4" cx="96.31" cy="61.68" r="7.8"/>
	<ellipse class="st5" cx="101.18" cy="61.68" rx="2.93" ry="6.09"/>
</g>
<polygon class="st6" points="41.75,0.2 41.75,22.61 58.04,29.98 72.92,22.59 72.92,0.2 "/>
<g>
	<path class="st7" d="M66.99,16.07c-0.59,0-1.07,0.45-1.07,1c0,0.55,0.48,0.99,1.07,0.99c0.59,0,1.07-0.45,1.07-0.99
		C68.06,16.52,67.58,16.07,66.99,16.07L66.99,16.07z M66.99,17.88c-0.49,0-0.88-0.37-0.88-0.82c0-0.45,0.39-0.82,0.88-0.82
		s0.88,0.37,0.88,0.82C67.87,17.52,67.48,17.88,66.99,17.88 M48.73,16.2v3.2c0,1.79,1.11,2.08,2.04,2.08c1.38,0,2.01-0.89,2.01-2.1
		V16.2h-0.91v3.29c0,0.42-0.14,1.19-1.1,1.18c-0.88-0.02-1.04-0.81-1.04-1.32V16.2L48.73,16.2z M56.59,16.41
		c0,0-0.58-0.28-1.24-0.28c-0.82,0-1.86,0.41-1.86,1.55c0,0.79,0.59,1.16,0.99,1.35c0.21,0.1,0.47,0.22,0.69,0.33
		c0.11,0.06,0.55,0.2,0.55,0.67c0,0.5-0.56,0.67-0.8,0.67c-0.89,0-1.49-0.4-1.49-0.4l0.09,1c0,0,0.36,0.18,1.45,0.18
		c1.04,0,1.78-0.66,1.78-1.56c0-0.69-0.48-1.1-0.89-1.3c-0.32-0.15-0.51-0.24-0.79-0.37c-0.28-0.13-0.57-0.35-0.57-0.7
		c0-0.37,0.35-0.64,0.86-0.64c0.75,0,1.06,0.33,1.24,0.44V16.41z M64.01,16.19h-1.09l0.17,0.43l-1.7,4.45l-1.75-4.88h-1.09
		l0.17,0.43l-1.81,4.74h0.99l0.32-0.9h1.87l0.31,0.9h1.87l0.32-0.9h1.87l0.32,0.9h1.09L64.01,16.19z M58.46,19.76l0.73-2.02
		l0.65,2.02H58.46z M62.83,19.76l0.72-2.02l0.65,2.02H62.83z"/>
	<path class="st7" d="M67.2,17.1c0,0,0.21-0.07,0.21-0.27c0-0.19-0.2-0.3-0.44-0.3s-0.39,0.05-0.39,0.05v0.95h0.28v-0.35h0.09
		l0.3,0.34h0.36L67.2,17.1z M67.01,17.02h-0.13v-0.32c0,0,0.24-0.02,0.24,0.14C67.12,17,67.01,17.02,67.01,17.02 M48.67,10.38
		L48.72,12c0,0,0.4-0.29,0.86-0.29c0.45,0,0.96,0.32,0.96,0.32l4.05,2.32l0.34-1.46l-4.39-2.52c0,0-0.51-0.32-0.96-0.32
		C49.12,10.05,48.68,10.38,48.67,10.38"/>
	<path class="st7" d="M48.67,8.27l0.05,1.62c0,0,0.4-0.29,0.86-0.29c0.45,0,0.96,0.32,0.96,0.32l4.49,2.57l0.34-1.46l-4.83-2.77
		c0,0-0.51-0.32-0.96-0.32S48.68,8.27,48.67,8.27"/>
	<path class="st7" d="M48.67,6.16l0.05,1.62c0,0,0.4-0.29,0.86-0.29c0.45,0,0.96,0.32,0.96,0.32l4.93,2.82l0.34-1.46l-5.27-3.02
		c0,0-0.51-0.32-0.96-0.32C49.12,5.82,48.68,6.16,48.67,6.16"/>
	<path class="st7" d="M57.12,3.58l0.45,1.91l6.17,3.54c0,0,0.48,0.32,0.96,0.32c0.48,0,0.9-0.33,0.9-0.33L65.56,7.4
		c0,0-0.39,0.29-0.86,0.29c-0.47,0-0.96-0.32-0.96-0.32l-4.77-2.74l-0.33-1.23c0-0.05,0.05-0.08,0.07-0.08l0.81-0.25
		c0.11,0,0.17,0.09,0.17,0.17l0.04,0.09c0.03,0.02,0.15-0.04,0.16-0.05V2.8c0-0.33-0.27-0.61-0.61-0.61c0,0-0.01,0-0.01,0h-0.81
		c0,0-0.12-0.27-0.46-0.27h-1.53c-0.4,0-0.5,0.38-0.5,0.38L54.9,6.53l-4.36-2.5c0,0-0.47-0.32-0.96-0.32c-0.49,0-0.9,0.33-0.9,0.33
		l0.05,1.62c0,0,0.36-0.29,0.85-0.29c0.49,0,0.96,0.32,0.96,0.32l5.36,3.07L57.12,3.58z"/>
	<path class="st7" d="M57.69,6.01l0.45,1.92l5.6,3.21c0,0,0.5,0.32,0.96,0.32s0.9-0.33,0.9-0.33l-0.05-1.62c0,0-0.36,0.29-0.86,0.29
		s-0.96-0.32-0.96-0.32L57.69,6.01z"/>
	<path class="st7" d="M58.26,8.46l0.45,1.92l5.02,2.88c0,0,0.5,0.32,0.96,0.32s0.9-0.33,0.9-0.33l-0.05-1.62
		c0,0-0.36,0.29-0.86,0.29c-0.5,0-0.96-0.32-0.96-0.32L58.26,8.46z"/>
	<path class="st7" d="M58.84,10.9l0.45,1.91l4.45,2.55c0,0,0.5,0.32,0.96,0.32c0.46,0,0.9-0.33,0.9-0.33l-0.05-1.62
		c0,0-0.36,0.29-0.86,0.29s-0.96-0.32-0.96-0.32L58.84,10.9z"/>
</g>
</svg>
