<?xml version="1.0" encoding="utf-8"?>
<!-- Generator: Adobe Illustrator 23.1.1, SVG Export Plug-In . SVG Version: 6.00 Build 0)  -->
<svg version="1.1" id="Layer_1" xmlns="http://www.w3.org/2000/svg" xmlns:xlink="http://www.w3.org/1999/xlink" x="0px" y="0px"
	 viewBox="0 0 480.2 218.4" style="enable-background:new 0 0 480.2 218.4;" xml:space="preserve">
<style type="text/css">
	.st0{fill-rule:evenodd;clip-rule:evenodd;fill:#FFFFFF;}
	.st1{fill:#FFFFFF;}
</style>
<g>
	<path class="st0" d="M15.2,120.5l79.1-56.4l16.8,12.6L174.8,28l99.4,92.5h-11.2l-1.2-0.9c0,0-87.4-78.7-88.5-79.2
		c-1.1-0.4-2.2,4-2.4,5.6s-1.2,6.5,0.7,14c1.8,7.4-4.5,2.3-8.7,2.5c-4.2,0.2-3.3,6.5-2.1,11.2c1.3,4.8,0.9,9.9,0.4,12.6
		c-0.4,2.6-10.4-1.4-18.7-7c-8.2-5.6-2.4,3.6-6.5,4.8c-4,1.1-4.6,7.1-6.9,10.1c-2.3,3,0,8.1,0,8.1s-20-17.6-29.1-25.9
		C88.6,66,88.7,82.7,88.7,92.7c0,3.6-3.8,0.4-5.7,1.1c-2.1,0.7-2.9,5.1-6,9.9c-3.2,4.8-4.6,2.5-9.5,2.5s-13.4,0-20.5,0
		c-5.9,0-20.5,9.6-27,14.2L15.2,120.5L15.2,120.5L15.2,120.5z"/>
	<g>
		<path class="st1" d="M170,178.2c0,0.8-0.3,1.4-0.8,1.9c-0.5,0.5-1.2,1-2,1.3c-0.9,0.3-1.6,0.7-2.6,0.9c-1,0.3-1.8,0.3-2.7,0.4
			s-1.6,0.1-2.2,0.1c-2.3,0-4.5-0.4-6.5-1.2s-3.7-2-5.2-3.6c-1.5-1.6-2.6-3.4-3.4-5.6c-0.9-2.2-1.2-4.6-1.2-7.2
			c0-2.5,0.4-4.8,1.2-6.8c0.8-2,1.9-3.7,3.4-5.2c1.5-1.5,3.1-2.6,5-3.4c1.9-0.8,4-1.1,6.3-1.2c0.8,0,1.6,0.1,2.6,0.2
			c0.9,0.1,1.8,0.3,2.7,0.5c0.9,0.3,1.7,0.5,2.4,0.9c0.7,0.3,1.3,0.9,1.8,1.4c0.4,0.5,0.7,1.1,0.7,1.8v3.7h8v-6.5
			c0-1.2-0.3-2.3-1-3.4c-0.7-1-1.5-1.8-2.6-2.5c-1-0.7-2.3-1.2-3.6-1.8c-1.3-0.5-2.7-0.9-4.1-1.1c-1.4-0.3-2.7-0.5-4-0.6
			c-1.2-0.1-2.4-0.2-3.4-0.2c-2.8,0-5.4,0.4-7.8,1.2s-4.7,1.9-6.8,3.4c-2,1.5-3.7,3.1-5.3,5.2c-1.5,2-2.6,4.3-3.4,6.8
			c-0.8,2.4-1.2,5.1-1.2,8c0,2.8,0.4,5.5,1.2,8c0.8,2.5,1.9,4.8,3.4,6.8c1.5,2,3.2,3.8,5.3,5.3c2.1,1.5,4.3,2.6,6.9,3.5
			c2.5,0.9,5.3,1.2,8.2,1.2c1.1,0,2.3-0.1,3.7-0.2c1.4-0.1,2.8-0.3,4.1-0.7c1.5-0.3,2.8-0.7,4.1-1.2s2.4-1,3.6-1.8
			c1-0.7,1.8-1.5,2.4-2.4c0.6-1,1-2,1-3.1v-6.5h-8L170,178.2L170,178.2L170,178.2z"/>
		<path class="st1" d="M215.7,141.9h-5h-4.9l-14.2,41h-4.3v6.6H205v-6.6h-4.7l3-8.9h7.6h7.6l3,8.9h-4.7v6.6h17.9v-6.6h-4.3
			L215.7,141.9z M210.7,167.2h-5.5l4.5-13.5c0.2-0.7,0.3-1.2,0.4-1.6c0.1-0.5,0.2-0.9,0.3-1.2l0.2-1.2h0.1h0.1c0,0.2,0,0.3,0.1,0.5
			c0,0.2,0.1,0.4,0.1,0.7l0.7,3l4.5,13.5L210.7,167.2L210.7,167.2z"/>
		<path class="st1" d="M444.7,141.9v6.6h5.9v23.5c0,0.4,0,0.9,0.1,1.4c0,0.5,0.1,1,0.1,1.5l0.1,1.6h-0.2l-0.5-1.5
			c-0.2-0.4-0.3-0.9-0.5-1.3c-0.2-0.5-0.4-0.9-0.7-1.2l-20-30.7h-14.4v6.6h5.6v34.4h-5.6v6.6H435v-6.6h-5.9v-23.5c0-0.4,0-1,0-1.5
			c-0.1-0.5-0.1-1-0.1-1.5l-0.2-1.6h0.3l0.5,1.5c0.2,0.4,0.3,0.9,0.5,1.3s0.4,0.9,0.7,1.3l20,30.5h8.7v-40.9h5.6v-6.6H444.7
			L444.7,141.9z"/>
		<path class="st1" d="M273.8,148.5h5.9v23.5c0,0.4,0,0.9,0.1,1.4c0,0.5,0.1,1,0.1,1.5l0.1,1.6h-0.2l-0.5-1.5
			c-0.2-0.4-0.3-0.9-0.5-1.3c-0.2-0.5-0.4-0.9-0.7-1.2L258,141.9h-14.4v6.6h5.6v34.4h-5.6v6.6H264v-6.6h-6v-23.5c0-0.4,0-1,0-1.5
			c-0.1-0.5-0.1-1-0.1-1.5l-0.2-1.6h0.3l0.5,1.5c0.2,0.4,0.3,0.9,0.5,1.3c0.2,0.5,0.4,0.9,0.7,1.3l20,30.5h8.8v-40.9h5.6v-6.6h-20.4
			L273.8,148.5L273.8,148.5z"/>
		<path class="st1" d="M398.6,151c-1.5-2-3.2-3.7-5.3-5.2c-2-1.5-4.3-2.6-6.8-3.4c-2.5-0.8-5.1-1.2-8-1.2s-5.5,0.4-8,1.2
			c-2.5,0.8-4.8,1.9-6.8,3.4c-2,1.5-3.7,3.2-5.3,5.2c-1.5,2-2.6,4.3-3.4,6.7c-0.8,2.4-1.2,5-1.2,7.7c0,2.8,0.4,5.5,1.2,8
			c0.8,2.5,1.9,4.8,3.4,6.9c1.5,2.1,3.2,3.9,5.3,5.4c2.1,1.5,4.3,2.7,6.8,3.6s5.1,1.2,8,1.2s5.5-0.4,8-1.2c2.4-0.9,4.7-2,6.8-3.6
			c2-1.5,3.8-3.3,5.3-5.4c1.5-2.1,2.6-4.3,3.4-6.9c0.8-2.5,1.2-5.1,1.2-8c0-2.8-0.4-5.3-1.2-7.7C401.2,155.2,400.1,153,398.6,151z
			 M393,172.2c-0.9,2.1-1.9,3.9-3.4,5.5c-1.5,1.6-3.1,2.8-4.9,3.6c-1.9,0.9-3.9,1.3-6,1.3c-2.2,0-4.2-0.4-6-1.3
			c-1.9-0.9-3.6-2-4.9-3.6c-1.5-1.6-2.6-3.4-3.4-5.5c-0.8-2.1-1.2-4.3-1.2-6.9c0-2.3,0.4-4.5,1.2-6.6c0.9-2,1.9-3.7,3.4-5.3
			c1.5-1.5,3.1-2.6,4.9-3.5s3.9-1.2,6-1.2c2.2,0,4.2,0.4,6,1.2c1.8,0.9,3.6,2,4.9,3.5c1.5,1.5,2.6,3.2,3.4,5.3
			c0.8,2,1.2,4.2,1.2,6.6C394.2,167.9,393.7,170.2,393,172.2z"/>
		<path class="st1" d="M327.8,148.5h4.5l-7.2,12.5c-0.2,0.3-0.3,0.5-0.4,0.8c-0.1,0.3-0.3,0.5-0.3,0.7c-0.1,0.1-0.1,0.3-0.2,0.3
			c-0.1,0.1-0.1,0.3-0.1,0.3H324c-0.1-0.1-0.1-0.3-0.1-0.3c-0.1-0.1-0.1-0.3-0.2-0.3c-0.1-0.3-0.2-0.5-0.3-0.7
			c-0.1-0.3-0.3-0.5-0.4-0.8l-7.2-12.5h4.6v-6.6h-17.7v6.6h4.3l12.7,21v13.3H314v6.6h20.2v-6.6h-5.6v-13.3l12.7-21h4.3v-6.6h-17.5
			L327.8,148.5L327.8,148.5z"/>
	</g>
</g>
</svg>
