<?xml version="1.0" encoding="utf-8"?>
<!-- Generator: Adobe Illustrator 23.1.1, SVG Export Plug-In . SVG Version: 6.00 Build 0)  -->
<svg version="1.1" id="Page_1_1_" xmlns="http://www.w3.org/2000/svg" xmlns:xlink="http://www.w3.org/1999/xlink" x="0px" y="0px"
	 viewBox="0 0 531.9 125" style="enable-background:new 0 0 531.9 125;" xml:space="preserve">
<style type="text/css">
	.st0{fill:#FFFFFF;}
	.st1{fill-rule:evenodd;clip-rule:evenodd;fill:#FFFFFF;}
</style>
<g>
	<path class="st0" d="M490.7,65.7l5.1-12.4l5.1,12.4H490.7z M475.6,81.6h8.5l3.5-8.5h16.1l3.5,8.5h8.8l-16.3-38.4h-7.7L475.6,81.6z
		 M435.8,81.6h8.3V57.4l18.5,24.2h7.1V43.5h-8.3v23.5l-17.9-23.5h-7.7V81.6L435.8,81.6z M417.9,81.6h8.4V43.5h-8.4V81.6z
		 M383.8,81.6h27.4V74h-19V43.5h-8.4V81.6z M356,74.6c-1.7,0-3.2-0.3-4.7-0.9c-1.5-0.6-2.6-1.5-3.7-2.6c-1-1.1-1.8-2.4-2.4-3.8
		c-0.5-1.4-0.8-3-0.8-4.6v-0.2c0-1.6,0.3-3.2,0.8-4.6c0.5-1.4,1.4-2.7,2.4-3.8s2.2-2,3.6-2.6c1.5-0.6,2.9-0.9,4.7-0.9
		c1.7,0,3.2,0.3,4.7,0.9s2.6,1.5,3.7,2.6c1,1.1,1.8,2.4,2.4,3.8c0.5,1.5,0.8,3,0.8,4.6v0.2c0,1.6-0.3,3.2-0.8,4.6
		c-0.5,1.5-1.4,2.7-2.4,3.8c-1,1.1-2.2,2-3.6,2.6C359.3,74.2,357.8,74.6,356,74.6z M355.9,82.3c2.4,0,4.6-0.3,6.7-1
		c2.1-0.7,3.9-1.6,5.6-2.8c1.7-1.2,3.1-2.6,4.4-4.3c1.2-1.6,2.1-3.5,2.8-5.4c0.7-2,0.9-4.1,0.9-6.2v-0.2c0-2.1-0.3-4.3-0.9-6.2
		c-0.7-2-1.5-3.8-2.8-5.4c-1.2-1.6-2.6-3.1-4.3-4.3c-1.7-1.2-3.5-2.1-5.5-2.8s-4.3-1-6.7-1c-2.4,0-4.5,0.3-6.7,1
		c-2.1,0.7-3.9,1.6-5.6,2.8c-1.7,1.2-3.1,2.6-4.4,4.3c-1.2,1.6-2.1,3.5-2.8,5.4c-0.7,2-0.9,4.1-0.9,6.2v0.2c0,2.1,0.3,4.3,0.9,6.2
		c0.7,2,1.5,3.8,2.8,5.4c1.2,1.6,2.6,3.1,4.3,4.3s3.5,2.1,5.5,2.8C351.3,81.9,353.6,82.3,355.9,82.3z M306.4,62V51h8.4
		c1.4,0,2.6,0.2,3.5,0.6c1,0.4,1.8,1,2.3,1.8c0.5,0.8,0.8,1.8,0.8,3.1v0.2c0,1.1-0.3,2.1-0.8,2.8c-0.5,0.8-1.2,1.5-2.1,1.9
		c-0.9,0.5-2.1,0.7-3.5,0.7L306.4,62L306.4,62L306.4,62z M298.1,81.6h8.4V69.4h6.6l8.2,12.2h9.7L321.7,68c1.6-0.6,3.1-1.5,4.3-2.5
		c1.2-1.1,2.1-2.4,2.8-3.9c0.7-1.5,1-3.3,1-5.4V56c0-1.8-0.3-3.5-0.8-4.9c-0.5-1.5-1.4-2.7-2.5-3.8c-1.3-1.3-2.8-2.2-4.7-2.9
		c-1.8-0.7-4-1-6.4-1H298L298.1,81.6L298.1,81.6L298.1,81.6z M266.8,65.7l5.1-12.4l5.1,12.4H266.8z M251.7,81.6h8.5l3.5-8.5h16.1
		l3.5,8.5h8.8l-16.3-38.4h-7.7L251.7,81.6z M232.6,82.3c1.8,0,3.5-0.2,5-0.5c1.5-0.3,2.8-0.8,4.1-1.4c1.2-0.6,2.4-1.3,3.5-2.1
		c1.1-0.8,2.1-1.8,3.1-2.8l-5.4-5.4c-1,0.9-2,1.7-3,2.4c-1,0.7-2.1,1.2-3.2,1.5c-1.2,0.3-2.5,0.5-3.8,0.5c-1.6,0-3.1-0.3-4.4-0.9
		c-1.4-0.6-2.5-1.5-3.5-2.6c-0.9-1.1-1.8-2.4-2.3-3.8c-0.5-1.5-0.8-3-0.8-4.6v-0.2c0-1.6,0.3-3.2,0.8-4.6c0.5-1.5,1.3-2.7,2.3-3.8
		c1-1.1,2.1-2,3.5-2.6c1.4-0.6,2.8-0.9,4.4-0.9c1.3,0,2.5,0.2,3.6,0.5c1.1,0.3,2.1,0.8,3.2,1.5c1,0.7,2.1,1.5,3,2.3l5.4-6.1
		c-1.2-1.2-2.5-2.1-3.8-3.1c-1.5-0.8-3.1-1.5-4.9-2.1c-1.8-0.5-3.9-0.8-6.3-0.8s-4.5,0.3-6.6,1c-2.1,0.7-3.8,1.6-5.5,2.8
		c-1.7,1.2-3.1,2.6-4.2,4.3c-1.2,1.6-2.1,3.5-2.7,5.4c-0.6,2-0.9,4.1-0.9,6.2v0.2c0,2.1,0.3,4.3,0.9,6.2c0.6,2,1.5,3.8,2.7,5.4
		c1.2,1.6,2.6,3.1,4.2,4.2c1.6,1.2,3.4,2.1,5.4,2.8C228.3,81.9,230.4,82.3,232.6,82.3z"/>
	<g>
		<path class="st1" d="M16,37.4h41.7c-7.8,6.7-12.1,14.1-12.1,21.8c0,19.9,28.1,37.3,70,46.6H16.1L16,37.4L16,37.4z"/>
		<path class="st1" d="M190.2,43V19.2c-37.5,1.2-70,8.2-89.4,18.3c-0.3,0.1-0.4,0.3-0.7,0.4c-0.1,0.1-0.2,0.1-0.4,0.2
			c-0.4,0.2-0.7,0.4-1.1,0.6l-0.4,0.2c-0.4,0.2-0.7,0.4-1.1,0.6l-0.4,0.2c-0.4,0.2-0.7,0.4-1.1,0.6c-0.1,0.1-0.2,0.1-0.3,0.2
			c-0.4,0.2-0.6,0.4-1,0.6c-0.1,0.1-0.2,0.2-0.4,0.2c-0.4,0.2-0.6,0.4-1,0.6l-0.3,0.2c-0.3,0.2-0.6,0.4-0.9,0.6l-0.3,0.2
			c-0.3,0.2-0.5,0.4-0.8,0.6l-0.3,0.2c-0.3,0.3-0.6,0.4-0.9,0.7l-0.2,0.2c-0.3,0.3-0.5,0.4-0.8,0.7l-0.2,0.2
			c-0.3,0.3-0.5,0.4-0.8,0.7l-0.2,0.2c-0.3,0.3-0.5,0.5-0.7,0.7l-0.2,0.2c-0.3,0.3-0.4,0.4-0.7,0.7l-0.1,0.2
			c-0.3,0.3-0.4,0.5-0.6,0.8l-0.1,0.2c-0.2,0.3-0.4,0.5-0.6,0.8L84.1,50c-0.2,0.3-0.4,0.5-0.5,0.8l-0.1,0.1
			c-0.2,0.3-0.4,0.5-0.5,0.8L83,51.8c-0.2,0.3-0.3,0.5-0.4,0.8l-0.1,0.1c-0.2,0.3-0.3,0.6-0.4,0.9v-0.2c-0.1,0.3-0.3,0.6-0.4,0.9
			c-0.1,0.3-0.2,0.6-0.3,0.9v0.1c-0.1,0.3-0.2,0.6-0.3,0.9v0.1c-0.1,0.3-0.1,0.6-0.2,0.9v0.1c-0.1,0.3-0.1,0.6-0.1,0.9v0.1
			c0,0.4,0,0.6,0,1c0,0.4,0,0.6,0,1c0,0.4,0.1,0.6,0.1,1c0.1,0.3,0.1,0.6,0.2,0.9v0.1c0.1,0.3,0.2,0.6,0.2,0.9v0.1
			c0.1,0.3,0.2,0.5,0.3,0.8l0.1,0.2c0.1,0.3,0.2,0.4,0.3,0.7c0,0.1,0.1,0.2,0.1,0.3c0.1,0.2,0.2,0.4,0.3,0.6
			c0.1,0.1,0.1,0.3,0.2,0.4c0.1,0.2,0.2,0.4,0.3,0.5c0.1,0.2,0.2,0.3,0.3,0.4c0.1,0.2,0.2,0.3,0.3,0.4c0.1,0.2,0.3,0.4,0.4,0.5
			c0.1,0.1,0.2,0.3,0.3,0.4c0.2,0.3,0.4,0.4,0.5,0.7l0.1,0.2c12.5,16.2,54.3,28.5,105.5,30.1L190.2,43L190.2,43z"/>
	</g>
</g>
</svg>
