<svg xmlns="http://www.w3.org/2000/svg" width="15" height="15" viewBox="0 0 15 15">
  <defs>
    <style>
      .cls-1 {
        fill: #192530;
        fill-rule: evenodd;
      }
    </style>
  </defs>
  <path class="cls-1" d="M1.7,0.865a1.132,1.132,0,0,1-.847.848A1.132,1.132,0,0,1,0,.865,1.11,1.11,0,0,1,.85.018,1.11,1.11,0,0,1,1.7.865ZM0.865,15A1.11,1.11,0,0,1,.018,14.15,1.11,1.11,0,0,1,.865,13.3a1.11,1.11,0,0,1,.848.848A1.11,1.11,0,0,1,.865,15Zm2.45-12.53a1.11,1.11,0,0,1-.848.848,1.11,1.11,0,0,1-.847-0.848A1.133,1.133,0,0,1,2.468,1.62,1.133,1.133,0,0,1,3.316,2.468ZM2.484,13.38a1.11,1.11,0,0,1-.848-0.848,1.11,1.11,0,0,1,.848-0.848,1.11,1.11,0,0,1,.847.848A1.11,1.11,0,0,1,2.484,13.38ZM4.1,11.746A1.11,1.11,0,0,1,3.254,10.9,1.11,1.11,0,0,1,4.1,10.051a1.11,1.11,0,0,1,.848.848A1.11,1.11,0,0,1,4.1,11.746ZM4.934,4.1a1.113,1.113,0,0,1-.832.848A1.113,1.113,0,0,1,3.27,4.1,1.113,1.113,0,0,1,4.1,3.254,1.114,1.114,0,0,1,4.934,4.1ZM6.568,5.7a1.129,1.129,0,0,1-.848.863A1.129,1.129,0,0,1,4.872,5.7,1.132,1.132,0,0,1,5.72,4.857,1.132,1.132,0,0,1,6.568,5.7ZM5.72,10.128A1.11,1.11,0,0,1,4.872,9.28,1.11,1.11,0,0,1,5.72,8.432a1.11,1.11,0,0,1,.848.848A1.11,1.11,0,0,1,5.72,10.128ZM7.508,8.586A1.441,1.441,0,0,1,6.4,7.492,1.441,1.441,0,0,1,7.508,6.4,1.441,1.441,0,0,1,8.617,7.492,1.441,1.441,0,0,1,7.508,8.586ZM9.3,6.568A1.129,1.129,0,0,1,8.432,5.72,1.129,1.129,0,0,1,9.3,4.872a1.133,1.133,0,0,1,.848.848A1.132,1.132,0,0,1,9.3,6.568ZM10.128,9.28a1.11,1.11,0,0,1-.848.848A1.11,1.11,0,0,1,8.432,9.28,1.11,1.11,0,0,1,9.28,8.432,1.11,1.11,0,0,1,10.128,9.28ZM10.9,4.919a1.092,1.092,0,0,1-.848-0.832A1.091,1.091,0,0,1,10.9,3.254a1.092,1.092,0,0,1,.848.832A1.092,1.092,0,0,1,10.9,4.919Zm0.848,5.98a1.092,1.092,0,0,1-.832.848,1.093,1.093,0,0,1-.832-0.848,1.093,1.093,0,0,1,.832-0.848A1.092,1.092,0,0,1,11.746,10.9Zm0.786-7.583a1.11,1.11,0,0,1-.848-0.848,1.11,1.11,0,0,1,.848-0.848,1.133,1.133,0,0,1,.848.848A1.132,1.132,0,0,1,12.532,3.316Zm0.848,9.2a1.11,1.11,0,0,1-.848.847,1.11,1.11,0,0,1-.848-0.847,1.132,1.132,0,0,1,.848-0.848A1.132,1.132,0,0,1,13.38,12.516ZM14.135,1.7A1.132,1.132,0,0,1,13.287.85,1.132,1.132,0,0,1,14.135,0a1.11,1.11,0,0,1,.848.848A1.11,1.11,0,0,1,14.135,1.7ZM15,14.135a1.11,1.11,0,0,1-.848.848,1.11,1.11,0,0,1-.848-0.848,1.11,1.11,0,0,1,.848-0.848A1.11,1.11,0,0,1,15,14.135Z"/>
</svg>
