<?xml version="1.0" encoding="utf-8"?>
<!-- Generator: Adobe Illustrator 23.1.1, SVG Export Plug-In . SVG Version: 6.00 Build 0)  -->
<svg version="1.1" id="Page_1_1_" xmlns="http://www.w3.org/2000/svg" xmlns:xlink="http://www.w3.org/1999/xlink" x="0px" y="0px"
	 viewBox="0 0 633.9 211.6" style="enable-background:new 0 0 633.9 211.6;" xml:space="preserve">
<style type="text/css">
	.st0{fill-rule:evenodd;clip-rule:evenodd;fill:#FFFFFF;}
	.st1{fill:#FFFFFF;}
</style>
<g>
	<g>
		<path class="st0" d="M149.5,157.1C137.8,167,122.6,173,106,173s-31.7-6-43.4-15.9C75.1,163.3,90,167,106,167
			S137,163.2,149.5,157.1 M106,38.6c16.6,0,31.7,6,43.4,15.9C137,48.3,122,44.6,106,44.6s-31,3.6-43.4,9.9
			C74.3,44.6,89.4,38.6,106,38.6z"/>
		<path class="st0" d="M171.3,118.5L171.3,118.5c0,0.1,0.1,0.1,0.1,0.2c0.3-0.2,0.6-0.2,0.9-0.4c0-0.1-0.1-0.2-0.1-0.2
			C171.9,118.3,171.6,118.5,171.3,118.5 M50.5,84.3L50.5,84.3c-0.1,0-0.2-0.1-0.3-0.1c-0.1,0.2-0.2,0.5-0.2,0.7
			c0.1,0,0.2,0.1,0.2,0.1C50.4,84.9,50.4,84.6,50.5,84.3z M137.7,111.5L137.7,111.5c0.2,0.2,0.3,0.4,0.4,0.6
			c0.2-0.3,0.2-0.4,0.3-0.6C138.2,111.5,137.9,111.5,137.7,111.5z M48.4,86L48.4,86c0,0.1,0.1,0.2,0.1,0.2c0.3-0.2,0.7,0.2,0.8-0.4
			C49,85.8,48.8,85.9,48.4,86z M137.4,138.5L137.4,138.5c1.5,0.4,1.5,0.4,1.8,0.2C138.5,138.6,137.9,138.6,137.4,138.5z M88.5,108.8
			L88.5,108.8c-0.1-0.3-0.2-0.6-0.2-0.8c-0.1,0-0.2,0.1-0.3,0.1c0.1,0.3,0.2,0.5,0.3,0.8C88.3,108.8,88.3,108.8,88.5,108.8z
			 M104,93.6L104,93.6c-0.2,0.5,0,0.8,0.4,1.1C104.6,94.1,104.3,93.8,104,93.6z M82.9,91.7L82.9,91.7c0-0.2,0-0.4,0-0.6
			s-0.2-0.2-0.2-0.4c-0.1,0.2-0.2,0.2-0.2,0.4C82.5,91.4,82.5,91.7,82.9,91.7z M62.3,69.5L62.3,69.5c-0.5-0.4-0.7-0.4-1.1,0.3
			C61.6,69.7,62,69.5,62.3,69.5z M124.9,103.2L124.9,103.2c-0.3,0.2-0.6,0.4-1,0.8C124.8,104.2,124.8,104.1,124.9,103.2z M47.3,87.9
			L47.3,87.9c0.1,0.1,0.2,0.2,0.2,0.2c0.5-0.4,1.1-0.8,1.5-1.1c0-0.1-0.1-0.1-0.1-0.2C48.3,87.2,47.8,87.6,47.3,87.9z M80.2,104.8
			L80.2,104.8c0,0.3-0.1,0.5-0.1,0.7c0.2,0,0.4,0.1,0.6,0.1c0.1-0.2,0.2-0.5,0.2-0.7C80.7,104.9,80.5,104.8,80.2,104.8z
			 M168.6,119.6L168.6,119.6c0-0.1-0.1-0.1-0.1-0.2c-0.4,0.2-0.6,0.3-1.1,0.4c-0.1,0.1-0.2,0.2-0.2,0.3c0.2,0.1,0.2,0.2,0.4,0.2
			C168.3,120.4,168.4,120,168.6,119.6z M124.3,96.9L124.3,96.9c-0.2,0-0.4-0.1-0.6,0c-0.2,0.1-0.4,0.2-0.6,0.4
			c0.2,0.1,0.4,0.2,0.5,0.2c0.2,0.1,0.4,0.1,0.6,0.1C124.3,97.4,124.3,97.2,124.3,96.9z M116.5,98.7L116.5,98.7c0.3,0,0.6,0,0.9-0.1
			c0.2-0.1,0.2-0.3,0.3-0.4c-0.2-0.1-0.3-0.2-0.4-0.2C116.8,98.1,116.5,98.2,116.5,98.7z M74.5,62.7L74.5,62.7
			c-0.2-0.3-0.4-0.6-0.5-0.9c-0.1-0.1-0.2-0.1-0.4-0.2c-0.1,0.3-0.2,0.4-0.1,0.4c0,0.2,0.2,0.4,0.2,0.6
			C73.8,62.7,74.2,62.7,74.5,62.7z M171,119.5L171,119.5c-0.6-0.2-0.9-0.2-1,0.2c0,0.2,0.2,0.5,0.2,0.5
			C170.8,120.3,170.9,120,171,119.5z M139.2,105.7L139.2,105.7c-0.3,0.2-0.4,0.2-0.6,0.3c-0.2,0.1-0.5,0-0.5,0.1
			c-0.1,0.2,0,0.4,0.1,0.6C138.7,106.6,139.1,106.3,139.2,105.7z M102.4,100.3L102.4,100.3c-0.6-0.2-1.1-0.2-1.7-0.4
			C101.6,101.1,102,101.1,102.4,100.3z M104.3,93.5L104.3,93.5c0.1-0.1,0.2-0.1,0.2-0.2c-0.6-0.6-0.7-1.4-0.2-2.1
			c-0.4-0.2-0.6-0.2-0.9,0.1c-0.3,0.3-0.1,0.4,0.1,0.6c0.1,0.1,0.1,0.2,0.1,0.4C103.8,92.7,104.1,93.1,104.3,93.5z M92.5,100.5
			L92.5,100.5c-0.1,0-0.2,0-0.2,0c-0.2,0.5-0.4,1.1-0.6,1.6c0,0.1,0,0.3,0.1,0.4c0.1,0.1,0.3,0.1,0.4,0c0.3-0.2,0.5-0.4,0.4-0.7
			c-0.1-0.2-0.1-0.5-0.1-0.7C92.6,100.8,92.5,100.7,92.5,100.5z M110.1,98.9L110.1,98.9c0.3,0.2,0.6,0.3,0.8,0.4
			c0.2,0.1,0.4,0,0.4-0.1c0.2-0.3,0.4-0.6,0.6-0.9c0-0.1-0.1-0.1-0.1-0.2c-0.4,0.1-0.6-0.7-1.1-0.3
			C110.3,98.1,109.9,98.4,110.1,98.9z M91.8,75.8L91.8,75.8c-0.5-0.8-1.9-1-2.6-0.3c-0.2,0.2-0.2,0.3-0.3,0.4
			c0.2,0.1,0.4,0.2,0.6,0.2s0.6-0.2,0.7-0.2C90.8,76.2,91.2,75.8,91.8,75.8z M70.8,63.4L70.8,63.4c0.6-0.7,0.6-0.7,1.2-0.7
			c0.9,0,1.1-0.2,1.1-1.1c-0.5,0-1.1-0.1-1.7,0C70.4,61.7,70.1,62.5,70.8,63.4z M106.7,97.4L106.7,97.4c0,0.2-0.1,0.2,0,0.2
			c0.5,0.4,1,0.8,1.7,0.5c0.1-0.1,0.2,0,0.4,0.1c0.9,0.4,1,0.4,1.2-0.4c-0.2-0.4-0.4-0.6-0.6-1c-0.2-0.4-0.6-0.6-1.1-0.4
			c0,0.2,0.2,0.6,0,0.6c-0.3,0.3-0.6,0.4-1,0.6C107.1,97.7,106.9,97.5,106.7,97.4z M106,96.6L106,96.6c0.6-0.2,0.1-1.3,1.1-0.9
			c0.1-0.2,0.1-0.3,0.2-0.4c0.1-0.2,0.1-0.3,0.1-0.4c-0.7-0.7-1.5-1.1-2.6-1C104.7,95.1,105.7,95.7,106,96.6z M62.6,74.1L62.6,74.1
			c0.1-0.2,0.1-0.4,0.2-0.4c0.4-0.3,0.8-0.5,1.1-0.7c0.3-0.2,0.7-0.2,1.1-0.4c0.5-0.2,1.1-0.4,1.1-1.1c0-0.2,0.2-0.3,0.3-0.4
			c0.2-0.2,0.4-0.2,0.6-0.4c-0.2-0.1-0.3-0.2-0.4-0.1c-0.6,0.3-1.1,0.6-1.8,0.9c-1,0.5-1.9,1.1-2.8,1.5c-0.4,0.2-0.8,0.4-1.2,0.7
			c0,0.1,0.1,0.1,0.1,0.2c0.2,0,0.2,0,0.5,0C61.2,74,61.1,74,61,74.1c-0.1,0.1-0.2,0.2-0.2,0.4c0.1,0.2,0.2,0.3,0.3,0.3
			c0.2,0,0.4,0,0.5-0.2C62.1,74.3,62.4,74.1,62.6,74.1z M79.7,106.4L79.7,106.4c-0.6-0.1-0.8,0.2-1.1,0.6c-0.2,0.3-0.4,0.7-0.6,0.7
			c-0.5,0-0.4,0.3-0.6,0.6c-0.2,0.4-0.3,0.7-0.5,1c-0.6,0.6-0.9,1.8-0.4,2.3c0.2,0.2,0.5,0.2,0.5,0.2c0.4-0.4,0.6-0.9,1-1.4
			c0.2-0.2,0.1-0.6,0.2-0.8c0.2-0.4,0.6-0.9,0.9-1.3c-0.1-0.2-0.2-0.3-0.3-0.4c0.6-0.2,0.2-0.7,0.5-1.1c0.2,0,0.3,0.1,0.4,0.1
			C79.8,106.8,79.7,106.6,79.7,106.4z M122.9,102.8L122.9,102.8c0.2,0.1,0.4,0.2,0.5,0.2c0.4,0.4,0.6,0.4,1-0.1
			c0.5-0.8,1.1-1.6,1.6-2.4c0.1-0.2,0.1-0.3,0.1-0.4c-0.2,0-0.3-0.1-0.4-0.1s-0.3,0-0.4-0.1c0.1-0.2,0.1-0.3,0.2-0.4
			c0.1-0.2,0.2-0.5,0.2-0.7c-0.5,0.2-0.5,0.2-1.1,1.9c-0.5-0.3-0.5-0.7-0.4-1.2c0.1-0.3,0.2-0.6-0.3-0.6c-0.3,0-0.4-0.2-0.3-0.5
			c0-0.2-0.1-0.4-0.2-0.5c-0.2-0.1-0.4-0.2-0.6-0.1c-0.6,0.2-1,0.6-1.1,1.2c-0.1,0.2-0.2,0.3-0.3,0.5c-0.2-0.5-0.4-0.9-0.6-1.3
			c-0.7,0.5-0.4-0.4-0.8-0.6c-0.4,0.2-0.8,0.4-1.2,0.6c0,0.1,0,0.1,0,0.2c-0.1-0.1-0.2-0.2-0.3-0.2c-0.2,0.2-0.2,0.2-0.3,0.4
			c-0.2,0.1-0.2,0.2-0.4,0.2c0.3,0.2,0.6,0.4,0.7,0.6c0.2,0.3,0,0.6-0.4,0.8c0.1-0.9-0.8-0.4-1.1-1c-0.4,0.2-0.7,0.4-0.8-0.2
			l-0.1-0.1c-0.6-0.2-0.5-0.6-0.4-1.1c0-0.1,0-0.2,0-0.2c-0.3,0.1-0.6,0.2-0.9,0.3c-0.4,0.4-0.6,0.4-1,0c-0.1,0.1-0.2,0.1-0.2,0.2
			c-0.2,0.2-0.4,0.6-0.6,0c0-0.1-0.3-0.2-0.3-0.2c-0.2,0.2-0.4,0.4-0.5,0.6c0,0,0.3,0.3,0.4,0.4c0.4,0.2,0.9,0.2,1.3,0.4
			s0.7,0.4,1.1,0.5c0.5,0.1,1.1,0.1,1.6,0.2c0.1,0,0.2,0.1,0.3,0.2c0.6,0.4,1.3,0.6,1.9,1.1h0.1c0.6,0,1.1,0.3,1.7,0.8
			c0.2,0.2,0.5,0.2,0.7,0.4c0.2,0.1,0.4,0.2,0.5,0.4c0.2,0.2,0.4,0.4,0.6,0.1c0.4-0.4,0.9-0.9,1.3-1.2c0.2-0.2,0.4-0.2,0.6-0.3
			c0.1,0,0.3,0,0.3,0.1c0.1,0.1,0,0.3-0.1,0.3c-0.5,0.4-0.8,1.1-1.5,1.1C123.2,102.6,123,102.8,122.9,102.8z M149,133.6
			c0.2,0.5,0.2,1,0.4,1.5c0.3,0.7,0.2,1.3-0.6,1.6s-1.1,1.1-1.6,1.6c-0.2,0.2-0.4,0.4-0.6,0.5c-0.6,0.5-1.3,1-1.9,1.5
			c-0.4,0.3-0.6,0.6-1.1,1c-1.1,0.6-2.3,1.2-3.5,1.9c-0.4,0.2-0.7,0.5-1.1,0.6c-0.9,0.3-1.5,1.1-2.5,1.4c-0.9,0.3-1.8,0.6-2.7,0.9
			c-0.6,0.2-1.1,0.6-1.8,0.8c-0.4,0.2-0.8,0.2-1.2,0.4c-1.5,0.5-2.8,1.3-4,2.4c-0.6,0.6-1.3,1-1.9,1.5c-0.2,0.1-0.3,0.1-0.4,0.1
			s-0.2-0.1-0.2-0.1c-0.5,0.4-1.1,0-1.5,0c-0.7-0.1-1.4,0.2-1.9,0.4c-0.3,0.2-0.6,0.2-1.1,0.4c-0.2,0.1-0.5,0.2-0.6,0.3
			c-0.4,0.2-0.6,0.4-1.1,0.2s-0.8-0.5-1.2-0.6c-0.5-0.2-1-0.4-1.5-0.1c-0.3,0.2-0.6,0.4-1.1,0.2c-0.2-0.2-0.5-0.1-0.8-0.2
			c0.9-0.5,1.9-0.6,3-0.8c-0.4-0.2-0.7-0.3-1.1-0.4c-0.4,0.6-1.3,0.6-1.8-0.1c-0.2-0.3-0.5-0.5-0.9-0.6c-0.2,0-0.3-0.1-0.4-0.2
			c-0.6-0.4-1.1-0.8-1.9-0.8c-0.4,0-0.5-0.4-0.2-0.8c0.1-0.1,0.2-0.2,0.2-0.2c0.2-0.8,0.8-1.3,1.3-1.8c0.4-0.4,0.5-1,0.7-1.5
			c0.2-0.6,0.2-1.4,0.5-2c0.2-0.6,0.6-1.1,1.4-1.3c0.6-0.2,1-0.6,0.8-1.3c-0.1-0.8,0-1,0.6-1.2c0-0.3-0.2-0.6,0-0.8
			c0.5-0.5,0.9-0.6,1.5-0.3c0,0.3,0.1,0.6,0.1,1.1c0.7-0.6,0.9-1.2,1-1.9c0.1-0.6,0.1-1.2,0.2-1.9c0-0.2,0.1-0.4,0.2-0.5
			c0.3-0.5,0.3-1.1,0-1.5c-0.2-0.3-0.3-0.6-0.3-1.1c-0.2-1.1-0.2-2-0.4-3.1c-0.2-1.4-0.4-2.7-0.6-4c-0.2-0.7-0.4-1.4-0.8-2
			c-0.4-0.7-1.1-1.1-1.8-1.3c-0.3-0.1-0.6,0.2-1.1,0.3c-0.5,0.2-1,0.4-1.5,0.6c-0.2,0.1-0.4,0.2-0.6,0.3c-0.3,0.2-0.5,0.4-0.8,0.5
			c0.2,0,0.4,0.2,0.2,0.4c-0.4,0.6-0.6,1.2-1.1,1.8c-0.2,0.3-0.3,0.6-0.6,0.1c-0.2,0.3-0.3,0.5-0.4,0.7c-0.4,0.7-0.7,0.8-1.5,0.4
			c-0.3-0.2-0.6-0.3-1-0.4c-0.5-0.2-0.7-0.7-0.6-1.2c0.2-0.7,0.2-1.4,0.4-2.1c0.2-0.4,0.4-0.9,1.1-0.7c0.2,0.1,0.7,0.1,0.9-0.4
			c0-0.1,0.2-0.2,0.2-0.2c0.6-0.1,0.6-0.6,0.6-1.1c0.1-0.4,0.1-0.9,0.2-1.2c0.1-0.2,0.4-0.4,0.7-0.5c0.4-0.1,1.1-0.6,1.1-1.1
			c0.1-0.6,0.1-1.3,0.2-1.9c0.1-0.5,0.2-1.1,0.2-1.6c0.1-1.1,0.2-2.3-0.9-3.1c-0.4-0.4-0.6-1.1-0.3-1.7c0.2-0.3,0.4-0.4,0.7-0.2
			c0.2,0.2,0.4,0.3,0.6,0.4c-0.3-0.3-0.4-0.5-0.3-0.9c0-0.2-0.2-0.4-0.4-0.6c-0.3-0.4-0.6-0.7-0.4-1.2c0-0.2,0-0.4-0.2-0.4
			c-0.4-0.4-0.8-0.7-1.5-0.7c-0.3,0-0.6-0.3-1-0.4c-0.2-0.1-0.3-0.2-0.4-0.2c-0.5,0-1-0.3-1.3-0.6c-0.2-0.2-0.6-0.3-1-0.4
			c-1,0-1,0-1.3-1c-0.2-0.8-1.1-1.3-2-1.1c-0.6,0.1-1-0.1-1.3-0.4c-0.5-0.4-1.1-0.7-1.7-1.1c-0.1,0-0.2,0-0.2,0
			c-0.4,0.6-1.1,0.3-1.5,0.4c0.2,0.6-0.3,1-0.6,1.2c-0.7,0.6-0.9,1.7-0.2,2.3c0.2,0.2,0.4,0.2,0.6,0.3c0.2,0.1,0.4,0.2,0.7,0.2
			c-0.3,0.5-0.7,0.6-1.2,0.6c-1-0.1-1.7,0.2-2.4,0.7c-0.5,0.4-0.7,1-0.6,1.5c0.4,1.4,0.1,2.7-0.5,4c-0.2,0.4-0.5,0.9-0.8,1.3
			c-0.3-0.4-0.1-0.8,0.1-1.1c0.2-0.5,0.3-1.1,0.4-1.5c-0.1,0-0.2,0-0.2-0.1c-0.3,0.8-0.5,1.6-0.8,2.6c-0.4-0.4-0.6-0.6-0.4-1.1
			c0.1-0.3,0.2-0.5,0.3-0.7c0.2-0.4,0.2-0.5-0.2-0.7c0.1-0.1,0.1-0.2,0.2-0.3c0.3-0.4,0.4-0.7,0.2-1.1c-0.1-0.1,0.1-0.4,0.2-0.5
			c0.2-0.2,0.3-0.4,0.4-0.6c-0.4,0.2-0.8,0.3-1.1,0.7c-0.4,0.7-0.8,1.4-1.2,2.1c-0.2,0.3-0.4,0.4-0.6,0.2c-0.3-0.2-0.5-0.2-0.7,0.2
			c-0.2,0.3-0.3,0.4-0.6,0.4c-0.1,0-0.3,0.2-0.3,0.3c-0.1,0.4-0.1,0.9-0.1,1.3c0,0.4-0.2,0.5-0.5,0.5c-0.2,0-0.4,0.1-0.6,0.2
			c-0.4,0.2-0.5,0.4-0.4,0.8c0.3,0.6,0.2,1.1,0.1,1.7c-0.1,0.3-0.2,0.6-0.1,0.9c0.1,0.5-0.1,1-0.3,1.4c-0.2,0.5-0.4,1.1-0.7,1.5
			c-0.2,0.4-0.5,0.6-0.8,1c-0.5,0.5-0.6,0.8-0.2,1.4c0.6,1.1,0.6,2.6-0.2,3.5c-0.4,0.5-0.4,1-0.2,1.5c0.3,0.8,0.5,1.6,0.7,2.3
			c0.2,0.5,0.4,1.1,0.6,1.5c0.3-0.1,0.5-0.2,0.8-0.3c0.1,0.1,0.2,0.2,0.2,0.2c-0.3,0.2-0.5,0.3-0.8,0.4c0.1,0,0.2,0.1,0.2,0.1
			c0.3,1.1,0.6,2.3,0.8,3.5c0.2,1.4,0.1,2.8-0.3,4.2c-0.3,1.1-0.6,2.1-1,3.2c-0.1,0.2-0.2,0.4-0.3,0.5c-0.7,1-1.2,2-1.7,3.2
			c-0.5,1.4-1.7,2.1-2.9,2.7c-0.8,0.4-1.6,0.7-2.4,1.1c-0.7,0.2-1.4,0.1-2-0.4c-1.4-1-1.6-2.4-1.9-3.9c-0.1-0.4-0.2-0.7-0.5-1.1
			c-0.4-0.4-0.6-1.1-0.8-1.7c-0.2-0.6-0.2-1.1,0-1.8c0.2-0.4,0.1-0.8,0.1-1.2c-0.1-1.1,0.1-1.9,0.3-2.9c0.1-0.2-0.1-0.6-0.2-0.8
			c-0.2-0.4-0.4-0.8-0.4-1.2c-0.1-0.4,0-0.7-0.4-1c-0.1,0-0.1-0.2-0.1-0.2c0.2-0.4,0.2-0.8,0-1.3c-0.2-0.4-0.2-0.7-0.1-1.1
			c0.2-0.8,0.4-1.5,0.6-2.3c0.1-0.4,0.2-0.8,0.3-1.1c0.2-0.6,0.5-1.1,0.6-1.6c0.2-0.4,0.2-1,0.2-1.5s-0.2-1.1-0.1-1.6
			s0.3-1.1,0.4-1.5c0.2-0.4,0.4-0.9,0.9-1.1c0.6-0.3,0.6-0.7,0.3-1.3c-0.2-0.4-0.2-0.6-0.1-1.1c0.2-0.6,0.2-1.2,0.4-1.8
			c0.2-0.5,0.4-1,0.5-1.4c0.3-0.6,0.5-1.2,0.8-1.8c0.1-0.2,0-0.4-0.1-0.4c-0.3-0.3-0.6-0.5-1-0.8c-0.3,0.1-0.7,0.2-1.1,0.3
			c-0.3,0.1-1.1,1.1-1.1,1.5c0,0.5-0.3,0.8-0.6,1c-0.5,0.2-0.8,0.5-1.1,1c-0.2,0.3-0.4,0.4-0.6,0.2c-0.2-0.2-0.5-0.2-0.4-0.6
			c0.2-1.1,0.6-2.3,1.4-3.2c0.1-0.2,0.2-0.4,0.2-0.5c0-0.4,0.2-0.6,0.6-0.7c0.2-0.1,0.4-0.2,0.6-0.2c0.4-0.1,0.6-0.3,0.6-0.8
			s0.2-1.1,0.3-1.5c0-0.1,0.1-0.2,0.2-0.2c1.3-1.1,1.8-2.6,2.5-4c0.3-0.6,0.7-1.3,1.1-1.9c0.1-0.1,0.1-0.2,0.2-0.2
			c0.6-0.2,0.6-0.7,0.6-1.1c0.1-0.7,0.6-1.1,0.7-1.8c0.1,0,0.2,0.1,0.2,0.1c-0.1,0.4-0.2,0.9-0.3,1.3c0,0.5,0.1,1,0.2,1.5
			c1-0.3,1.3-1,1.6-1.8c0.1-0.3,0.4-0.4,0.6-0.2c0.2,0.2,0.4,0.2,0.7-0.1c0.2-0.2,0.4-0.2,0.7-0.2c0,0.2,0.1,0.4,0.1,0.6
			s-0.1,0.4-0.2,0.6c-0.2,0-0.3,0-0.4,0c-0.2,0.3-0.3,0.5-0.4,0.8c-0.4,0.7-0.4,0.7,0.4,1.2c-0.2-0.6,0.2-1,0.5-1.3
			c0.4-0.5,1.1-0.7,1.5-1.1c0.1-0.1,0.2-0.2,0.2-0.2c0.5-1.8,2.2-2.3,3.5-1.4c0.4-0.2,0.6-0.4,1-0.5c0,0,0,0,0.1,0
			c1.1,0.2,1.9-0.1,2.3-1.1c0.1-0.2,0.5-0.3,0.8-0.3c0.2-0.1,0.5-0.1,0.8,0c0.8,0.2,1.7,0.5,2.5,0.7c0.6,0.2,1.1,0.6,1.5,1.1
			c0.3,0.4,0.7,0.6,1.1,1.1c0.2,0.2,0.4,0.1,0.6,0.2c-0.1-0.6-0.2-1.2,0.3-1.7c0.1-0.1,0-0.2,0.1-0.2c0.1-0.4,0.2-0.6,0.6-0.4
			c0.4,0.1,0.6,0.2,0.8,0.5c0.1,0.1,0.3,0.2,0.4,0.2c0.4,0,0.9-0.1,1.3-0.1c0.9,0.2,1.7,0.4,2.6,0.4c0.3,0.1,0.6-0.1,1-0.2
			c0,0,0.1-0.3,0-0.4c-0.2-0.2-0.3-0.2-0.4-0.3c-0.5-0.2-0.7-0.6-0.7-1.1c0-0.1,0-0.3,0-0.3c-0.4-0.2-0.6-0.6-1.2-0.4
			c-0.2,0.1-0.4-0.1-0.4-0.2c0-0.1,0-0.3,0.1-0.4c0.1-0.2,0.2-0.2,0.4-0.3c-0.2-0.6-0.4-1.4-0.6-1.9c-0.1-0.3-0.3-0.6-0.5-0.9
			c-0.3-0.4-0.6-0.3-1,0.1c-0.2,0.3-0.6,0.5-0.9,0.7c-0.4,0.2-0.5,0-0.6-0.4c-0.1-0.4-0.4-0.6-0.8-0.4c-0.8,0.6-1.5,0.2-2.2-0.2
			c-0.2,0-0.5,0-0.7-0.2c-0.3-0.2-0.2-0.4,0-0.7c0.1-0.2,0.1-0.4,0-0.5c0-0.7,0-1.5,0.4-2c-1.1-0.2-2.3-0.1-3.3,0.6
			c-0.8,0.6-1.7,0.6-2.6,0.4c-0.8-0.2-1.7-0.2-2.5,0.1c-0.4,0.2-0.9,0.1-1.3,0.2c-0.3,0-0.5,0.1-0.7,0.2c-0.8,0.4-1.5,0.9-2.3,1.3
			c-0.2,0.2-0.4,0.3-0.6,0.5c-0.1,0.1-0.1,0.2-0.2,0.2c-0.8,1.1-0.5,0.9-1.6,0.2c-0.1-0.1-0.3-0.1-0.4,0c-0.6,0.4-1.1,0.3-1.5-0.3
			s-0.5-0.6-1.1-0.2c-0.7,0.4-1.5,0.4-2.3,0.1c-0.2-0.1-0.3-0.4-0.4-0.6c0-0.3-0.1-0.4-0.4-0.6c-0.2-0.2-0.4-0.4-0.5-0.6
			c-0.4-0.6-0.7-1.1-1.1-1.8c-0.2-0.2-0.4-0.4-0.6-0.6c-1.1-1-2.4-1.2-3.9-1c-0.2,0.1-0.5,0.3-0.7,0.4c-0.2,0.2-0.4,0.4-0.6,0.6
			c-0.1-0.1-0.1-0.1-0.2-0.2c0.2-0.3,0.3-0.6,0.4-1c-1.1,0.2-1.2,1.3-1.9,1.8c0-0.4-0.1-0.6-0.1-0.9s0.1-0.5,0.1-0.8
			c0.1-0.5,0.1-1,0.2-1.5c0.1,0.1,0.2,0.2,0.4,0.3c0.9-1.9,2.2-3.4,4-4.5c-0.3-0.2-0.5-0.3-0.6-0.4c0-0.1,0-0.2,0-0.2
			c0.6,0,1.1,0,1.8-0.1c0.2,0,0.5-0.2,0.7-0.2c-0.2-0.2-0.2-0.4-0.4-0.6c-0.1-0.1-0.2-0.1-0.3-0.2c-1.5-0.3-2.7,0.1-4,0.7
			c-0.7,0.4-1.4,0.8-1.8,1.6c-0.1,0.2-0.2,0.4-0.4,0.4c-0.4,0.2-0.4,0.6-0.5,1.1c-0.1,0.9,1,0.2,1.1,0.8c0,0,0.3-0.1,0.5-0.1
			c-0.2-0.2-0.3-0.4-0.3-0.4c0.1-0.2,0.2-0.4,0.4-0.5c0.1,0,0.2,0.1,0.2,0.1c-0.1,0.4-0.1,0.8-0.3,1.1c-0.4,0.4-0.4,0.6-0.3,1.1
			c-0.2-0.2-0.4-0.2-0.6-0.4c0-0.2,0.1-0.3,0.1-0.4c-0.1-0.2-0.2-0.4-0.3-0.4c-0.6-0.1-0.8-0.4-0.7-1c0-0.2,0-0.3-0.1-0.5
			c-0.2,0.2-0.4,0.2-0.6,0.4c-0.6,0.7-1.5,1.1-1.9,2.1c-0.2,0.5-0.8,0.6-1.2,0.6c-0.4-0.1-0.5,0.1-0.7,0.3c-0.7,0.9-1.6,1.5-2.8,1.6
			c-0.6,0.1-1.2,0.2-1.8,0.2c-0.7,0-1.2,0.4-1.7,0.9c-0.6,0.7-1.4,1.2-2.3,1.5c-0.6,0.2-1.3,0.5-1.9,0.8c-0.2,0.1-0.4,0.2-0.5,0.1
			c-0.7-0.3-1.5-0.6-2.2-1.1c-0.4,0.4-1.1,0.9-2,0.8c0.1-0.2,0.2-0.4,0.2-0.5c0.4-0.4,0.7-0.9,0.6-1.5c0-0.2,0.2-0.3,0.2-0.5
			c0.2-0.4,0.4-0.7,0.6-1.1c0.1-0.2-0.2-0.4-0.2-0.6c-0.1-0.2-0.3-0.2-0.4-0.2c-0.3,0.1-0.6,0.1-0.8,0.2c-0.4,0.2-0.9,0.4-1.2,0.8
			c-0.4,0.3-0.7,0.4-1.1,0c-0.4,0.4-0.8,0.7-1.3,1.1c-0.4,0.2-0.8,0.3-1.2,0.4c-0.6,0.2-1.1,0.3-1.7,0.5c-0.5,0.2-1,0.3-1.5,0.4
			c-0.7,0.2-1.7-0.4-1.9-0.8c-0.2-0.3-0.1-0.6,0.2-0.7c0.6-0.4,1.1-0.9,1.8-1.3c0.3-0.2,0.6-0.4,1-0.7c0.6-0.5,1.1-1.1,1.8-1.6
			c0.9-0.5,1.5-1.2,2.1-2s1.3-1.6,1.9-2.3c0.3-0.3,0.6-0.5,1.1-0.7c0.4-0.3,0.7-0.6,1.1-1c1.1-1.1,2.5-1.8,4-2c0.1,0,0.2,0,0.2-0.1
			c1.5-0.7,3.3-1.1,4.7-2c0.3-0.2,0.5-0.4,0.8-0.6c0.5-0.3,1-0.6,1.5-1c0.2-0.2,0.5-0.2,0.6-0.4c0.2-0.1,0.2-0.3,0.3-0.5
			c0.3-0.1,0.8-0.2,1-0.7c0.1-0.3,0.3-0.6,0.4-1c0.2-0.4,0.4-0.9,0.5-1.3c0.1-0.1,0.1-0.3,0-0.4c-0.3-0.6-0.2-1.2,0.4-1.6
			c0.7-0.4,1.5-0.6,2.2-0.9c0.3-0.2,0.6-0.3,1-0.4c0.2-0.1,0.2-0.1,0.4-0.1c0,0.2,0.1,0.3,0.1,0.4c-0.1,0.2-0.2,0.3-0.3,0.4
			c-0.2,0.4-0.4,0.6-0.4,1.1c-0.1,0.4-0.1,0.8-0.5,1c-0.1,0-0.1,0.2-0.1,0.2c0.6,0.2,1.5-0.2,1.6-0.9c0.1-0.4,0.2-0.7,0.3-1.1
			c0-0.1,0.1-0.2,0.1-0.2c0.6-0.2,0.4-0.6,0.4-1c0-0.3,0.1-0.6,0.4-0.6c0.1,0,0.2-0.2,0.2-0.2c0-0.4,0-0.8,0.1-1.1
			c0-0.3,0.2-0.5,0.2-0.8c0-0.1,0.2-0.2,0.2-0.2c0.1-0.3,0.2-0.5,0.4-0.4c0.3,0.1,0.6,0.2,0.9,0.4c0.5,0.6,0.4,1.5-0.2,2.2
			c-0.4,0.4-0.9,0.9-1.3,1.3c-0.4,0.4-0.5,1-0.2,1.5c0.3-0.6,0.6-1.1,0.9-1.8c0.6,0.6,0.6-0.3,1-0.2c0.2-0.7,0.2-1,0.2-1.2
			c0.1,0,0.2-0.1,0.2-0.1c0.2,0.2,0.2,0.3,0.4,0.5c0.2-0.1,0.2-0.2,0.5-0.4c-0.2,0.3-0.2,0.4-0.2,0.6c0.1,0,0.2,0,0.2,0
			c0.5-0.6,1.1-1.4,0.9-2.3c0-0.2-0.2-0.3-0.2-0.4c-0.2-0.2-0.6-0.4-0.7-0.6c-0.2-0.2-0.1-0.4-0.2-0.6c0-0.2,0-0.4-0.1-0.6
			c0-0.2-0.1-0.4-0.1-0.6c0.4,0.4,0.8,0.4,1.1,0c0.2-0.2,0.5-0.2,0.8-0.3c0.4,0.8,1.1,1.1,1.9,1.1c0.4,0.1,0.9,0.4,1.3,0.6
			c0.1,0.1,0.2,0.2,0.3,0.2c0.5-0.2,0.6,0.1,0.6,0.6c0.6-0.4,1-0.2,1.4,0.2c0.3,0.2,0.6,0.2,0.9,0.5c0.1,0.1,0.3,0.1,0.4,0.1
			c0.6-0.1,1.1-0.2,1.7-0.2h0.1c0.4-0.6,0.7,0,1.1,0.2c0.6,0.4,1-0.1,1.4-0.3c0.4-0.3,1.1-0.1,1.1,0.4c0.1,0.3,0.3,0.4,0.5,0.2
			c0.2-0.1,0.4-0.2,0.6-0.4c0.3-0.2,0.8,0.2,0.8,0.6c0,0.1,0,0.2,0.1,0.3c0.3,0.5,0.6,1,0.9,1.4c0.1,0.2,0.2,0.4,0.2,0.5
			c0.2,0.6,0.5,1.3,0.6,1.9c0.1,1.1,0.6,1.8,0.9,2.7c0.2,0.5,0.6,1.1,1.1,1.5c0.2,0.3,0.4,0.5,0.6,0.7s0.5,0.5,0.8,0.6
			c1.1,0.4,2.3,0.6,3.4,0.4c0.8-0.2,1.6-0.4,2.3-0.5c0.7-0.2,1.5,0,2.2,0.2c0.3,0.1,0.4,0.4,0.2,0.6c-0.2,0.2-0.3,0.4-0.4,0.5
			c-0.4,0.3-0.4,0.6,0.1,1c-0.1,0.2-0.1,0.2-0.2,0.3c-0.6,0.4-0.6,1.1-0.8,1.8c-0.1,0.2,0.1,0.4,0.2,0.6s0.2,0.4,0.4,0.6
			c0.2,0.2,0.4,0.4,0.6,0.5c0.7,0.3,1.3,0.6,1.5,1.5c0,0.1,0.1,0.2,0.2,0.2c0.6,0,0.5,0.6,0.7,0.9c0.1,0.1,0,0.3-0.1,0.4
			c-0.4,0.5-0.6,1.1-1.1,1.6c0,0,0,0,0,0.1c0.3,0.7-0.5,1.1-0.4,1.8c0,0.2,0.2,0.4,0.2,0.4c0.5,0,0.9,0.2,1.1,0.7
			c0.6-0.6,1.9-0.5,2.3,0.2c0.1,0.2,0,0.4-0.1,0.6c-0.1,0.1-0.3,0.2-0.4,0.2c-0.7-0.2-1,0-1.1,0.7c0,0.2-0.1,0.3-0.1,0.4
			c0,0.1,0.1,0.4,0.1,0.5c0.1,0,0.1,0,0.2,0c0-0.1,0.1-0.2,0.2-0.3c0.1-0.2,0.2-0.3,0.3-0.4c0,0,0.3,0.2,0.4,0.2
			c0.1,0.2,0.2,0.4,0.1,0.6c-0.2,0.4-0.5,0.6-0.8,0.9c-0.2,0.2-0.3,0.3-0.4,0.5c-0.2,0.2-0.2,0.4,0.1,0.6c0.2,0.2,0.4,0.4,0.6,0.6
			c0.3-0.6,0.8-0.6,1.3-0.6c0.3,0,0.6-0.1,0.9-0.2c0.4-0.2,0.7-0.3,1.1,0c0.3,0.2,0.5,0.5,0.3,1c-0.2,0.2-0.2,0.5-0.2,0.7
			c-0.2,0.3,0.2,0.8,0.6,0.9c0.2,0,0.4,0,0.5,0c0.4,0,0.8-0.1,1.1,0.3c0.4,0.3,1.1,0.3,1.5,0.3c0.4,0.1,0.6,0,1,0.2
			c0.2,0.2,0.6,0.1,1,0.2c0.8,0.2,1.5,0.4,2.3,0.6c1.3,0.4,2.6,0.1,4,0c0.3,0,0.5-0.2,0.8-0.3c0,0.1,0.1,0.1,0.1,0.2
			c-0.1,0.2-0.2,0.3-0.4,0.6c1.1,0,2-0.6,3.2-0.2c-0.2,0.1-0.3,0.2-0.4,0.2c0,0.1,0.1,0.2,0.1,0.2c0.5,0.1,1.1,0,1.5,0.4
			c0.1,0.1,0.3,0,0.4,0c0.2,0,0.3-0.1,0.4-0.1c0.7,0.4,1.5,0.2,2.3,0.1c0.2,0,0.4,0,0.6,0.1c0.3,0.1,0.4,0.3,0.2,0.6
			c0.2-0.1,0.4-0.2,0.5-0.3c0.2-0.2,0.3-0.4,0.4-0.4c0.3,0.1,0.5,0.3,0.7,0.4c0.2,0.2,0.2,0.4,0.3,0.6c-0.3,0.1-0.6,0.2-1,0.2v0.1
			c0.4,0,0.6,0,1.1,0c0,0.1,0,0.2,0,0.2c0.4,0.1,0.6,0.1,1,0.2c0.6,0.2,1.1,0.4,1.8-0.1c-0.1-0.1-0.1-0.2-0.2-0.3
			c0.2-0.2,0.2-0.1,0.3,1.1c1-0.6,1.9-0.1,3-0.2c0.2,0.1,0.3,0.2,0.4,0.2c0.1,0.1,0.2,0.2,0.2,0.3c0.2,0.2,0.3,0.4,0.4,0.6
			c0.2,0.4,0.4,0.7,0.5,1.1c0.1,0.6,0.5,1.1,1,1.6c0.2,0.2,0.2,0.4,0.3,0.6c0.2-0.1,0.4-0.1,0.6-0.2c0-0.2-0.1-0.3-0.1-0.4
			c0.4,0.2,0.4,0.4,0.4,1.3c0,0.5,0.2,1,0.3,1.5c0-0.2,0.1-0.3,0.2-0.6c0.2,0.2,0.3,0.3,0.3,0.4c-0.1,0.4,0.1,0.6,0.5,0.6
			c0.2,0,0.3,0.2,0.4,0.2c0.2-0.3,0.2-0.6,0.4-0.7c0.2-0.1,0.5-0.1,0.6,0.1c0.5,0.4,0.5,1.1,0,1.6c-0.4,0.4-0.4,0.4,0.2,0.7
			c0.2,0.2,0.4,0.4,0.5,0.7c0,0.2-0.3,0.4-0.6,0.6c0,0,0,0.1,0.1,0.2c0.3,0.3,0.6,0.5,1,0.9c0.2,0.2,0.2,0.4,0.2,0.6
			c1.1,0.1,1,1.1,1.5,1.8c0.1-0.2,0.1-0.3,0.2-0.4c0-0.2,0-0.3,0.1-0.4c0.1-0.1,0.3-0.1,0.3-0.1c0.1,0.1,0.2,0.2,0.1,0.4
			c0,0.2-0.1,0.3-0.2,0.4c-0.2,0.2-0.2,0.4,0.1,0.6c0.1,0.1,0.1,0.2,0.2,0.3c-0.2,0.1-0.2,0.2-0.4,0.2c-0.4-0.1-1-0.2-1.4-0.3
			c-0.1,0-0.2-0.2-0.3-0.4c0,0-0.2-0.1-0.4-0.1c0.1-0.2,0.1-0.3,0.2-0.5c-0.4-0.1-0.7-0.2-0.9,0.3c0,0.1-0.2,0.2-0.2,0.2
			c-0.2,0.1-0.4,0.2-0.4,0.3c0,0.2,0.2,0.4,0.3,0.5c0.2,0.3,0.6,0.6,0.6,0.8c0,0.8,0.3,1.7-0.5,2.3c-0.4,0.3-0.6,0.2-1,0.1
			c-0.7-0.3-1.5-0.5-2.2-0.8c-0.2-0.1-0.3-0.2-0.4-0.2c-0.3-0.2-0.6-0.2-0.8-0.4c-0.2-0.2-0.4-0.4-0.5-0.6c-0.2-0.8-0.8-1.1-1.5-0.5
			c-0.2,0.2-0.4,0.5-0.6,0.7c-0.2,0.2-0.4,0.4-0.6,0.6c-0.1-0.1-0.2-0.1-0.2-0.2c0.2-0.4,0.2-0.9,0.4-1.2c0.2-0.4,0.3-0.8-0.1-1.1
			c-0.3-0.2-0.9-0.1-1.3,0.4c-0.1,0.1-0.2,0.2-0.4,0.3c-0.2-0.4,0-0.6,0.2-0.7c0.5-0.2,0.8-0.6,0.7-1.1c0-0.2,0.2-0.4,0.3-0.8
			c-0.2,0.1-0.4,0.2-0.4,0.3c-0.1,0.5-0.3,0.5-0.7,0.4c-0.1,0-0.2,0-0.4,0.1c0.1-0.2,0.2-0.4,0.2-0.5c-0.2-0.3-1,0.1-0.6-0.7
			c-0.6,0.4-0.6,0.1-0.6-0.4s0-0.9-0.4-1.2c-0.1-0.1-0.1-0.4,0-0.6s0.2-0.3,0.4-0.6c-0.4-0.1-0.8-0.2-1.2-0.2s-0.9,0.1-1.2,0.1
			c-0.2,0-0.4,0-0.4-0.1c-0.6-0.4-0.6,0.1-0.8,0.4c0.4,0.2,0.8,0.3,1.1,0.4c0.2,0.3,0.3,0.5,0.4,0.8c0.3,0.4,0.5,0.9,0.8,1.2
			c0.1,0.1,0.2,0.2,0.4,0.2c0.5,0,0.6,0.4,0.5,0.6c-0.2,0.6,0.1,1.1,0.4,1.3c0.4,0.5,0.2,1,0.3,1.5c0,0.2,0,0.4,0,0.5
			c0.2,0.4,0.1,0.8-0.2,1.1c-0.4,0.4-0.7,0.9-0.9,1.5c0,0.2-0.2,0.4-0.4,0.4c-0.4,0-0.5,0.4-0.7,0.6c-0.5,0.4-0.6,1.1-0.6,1.7
			c-0.1,0.4-0.4,1-0.7,1.2c-0.4,0.4-0.4,1-0.4,1.5c0.1,0.6,0.2,1.1,0.2,1.7c0,1.1,0.1,2,0.1,3.1c0,0.9,0.1,1.8-0.2,2.6
			c-0.3,1.1-1.1,1.6-2,2c-0.2,0.2-0.5,0.2-0.6,0.4c-0.4,0.9-1.1,1.4-2,1.6c-1.5,0.3-1.5,1.5-1.6,2.6c-0.1,0.5,0,1.1-0.2,1.5
			c-0.2,0.7-0.6,1.4-1.4,1.8c0.6,0.5,1.3,0.4,1.9,0.6c0,0.4,0,0.9,0,1.3c0,0.4-0.2,0.6-0.6,0.6c-0.5,0.1-1.1,0.2-1.6,0.2
			c-0.6,0-1.3-0.2-1.9-0.4c-1.1-0.2-1.6,0.3-1.8,1.2c-0.1,0.5-0.2,1-0.2,1.5c0,0.2,0.1,0.4,0.2,0.4c0.4,0.2,0.9,0.4,1.3,0.6
			c0.4,0.2,0.7,0.2,1.1,0c0.2-0.2,0.4-0.2,0.6-0.4c0.6-0.3,1.1-0.2,1.5,0.4c0.2,0.2,0.2,0.4,0.4,0.6c0.2-1.5,1.1-2.2,2.3-2.7
			c0.3-0.2,0.6-0.3,1-0.5c0.4-0.3,0.8-0.4,1.3-0.3c0.1,0,0.3-0.2,0.4-0.2c0.1-0.1,0.1-0.2,0.2-0.2c0.8-0.3,1-1.2,1.6-1.7
			c0.7-0.5,1.4-1.2,2.1-1.8c0.8-0.6,1.7-1,2.7-1c1.1,0.1,2.3,0,3.4,0.4c0.6,0.2,1.4,0.4,2,0.6s1.1,0.1,1.7,0c0-0.1,0-0.1,0-0.2
			c-0.2,0-0.3,0-0.5,0s-0.4-0.1-0.4-0.2c-0.1-0.1,0-0.3,0.1-0.4c0.2-0.3,0.4-0.6,0.8-0.4c0.4-0.9,1.1-1.5,2-1.5
			c0.7,0,1.4-0.2,2.1-0.3c0.4-0.1,0.6-0.2,1.1-0.4c0.1,0,0.2-0.1,0.2-0.1c0.6,0,1.1,0.1,1.7,0.2c0.2,0,0.3,0,0.4,0
			c1.1-0.4,2.1-0.2,3.3-0.1c0.2-0.1,0.6-0.2,1.1-0.3c0.2-0.1,0.3-0.2,0.4-0.4c0-0.1-0.2-0.3-0.3-0.4c-0.4-0.3-0.9-0.4-0.6-1.1
			c0-0.1,0-0.2,0-0.2c-0.6-0.6-0.4-1.2-0.3-1.9c0-0.2,0-0.4-0.2-0.4c-0.1-0.1-0.3,0-0.4,0.1c-0.3,0.2-0.6,0.3-0.8,0.4
			c-0.2,0.2-0.6,0.4-0.8,0.3c-1.1-0.3-2.3,0.1-3.3-0.6c-0.5-0.4-0.6-0.8-0.2-1.3c0.2-0.3,0.5-0.5,0.6-0.8c0.2-0.4,0.4-0.9,0.6-1.3
			c0.1-0.2,0.2-0.4,0.4-0.5c0.2-0.2,0.4-0.4,0.6-0.6c0.1-0.1,0.2-0.2,0.4-0.2c0.8,0.2,1.1-0.4,1.7-0.8c0.4-0.4,0.8-0.8,1.2-1.1
			s0.9-0.5,1.3-0.6c1-0.1,1.9-0.3,2.7-0.6c0.1,0,0.2-0.1,0.2,0c0.9,0.4,1.6-0.2,2.4-0.4c0.3-0.1,0.6-0.2,1-0.2
			c0.8-0.1,1.7-0.1,2.5-0.2c0.6-0.2,1.1-0.4,1.7-0.6c0.5-0.1,1.1,0,1.5,0.1c0.1,0,0.2,0.2,0.2,0.2c0,0.5,0.4,0.8,0.9,0.7
			s1.1-0.2,1.5-0.2c0,0.1,0.1,0.2,0.1,0.2c-0.2,0.1-0.4,0.2-0.5,0.2c0.4,0.6,0.8-0.2,1.3-0.2c-0.2,0.3-0.4,0.5-0.5,0.7
			c0.4,0.2,0.7,0.3,1.2,0c0.5-0.4,1.1-0.5,1.9-0.8c-0.6,0.1-1.1,0.2-1.6,0.2c0-0.4,0.2-0.8,0.6-1c0.3-0.2,0.6-0.3,0.6-0.8
			c-0.5,0.7-1.2,0.5-1.9,0.5c0.2-0.5,0.4-1,0.6-1.5c-0.3,0.1-0.4,0.1-0.5,0.2c-0.2,0.1-0.4,0.2-0.6,0.2c-0.4,0-0.6,0.1-0.5,0.6
			c-0.2,0-0.4,0-0.6,0.1c0-0.2,0-0.4,0-0.6c-0.9-0.1-1.5,0.5-2.1,0.8c-0.1-0.1-0.1-0.1-0.2-0.2c0.2-0.2,0.2-0.4,0.4-0.4
			c0.4-0.2,0.9-0.4,1.3-0.5c0.4-0.2,1.1-0.4,1.4-0.3c0.7,0.4,1.1-0.2,1.6-0.3c0.2,0,0.2-0.1,0.4-0.1c-0.2,0.2-0.2,0.4-0.3,0.6
			s-0.2,0.4,0.2,0.3l0.1,0.1c-0.1,0.1-0.1,0.2-0.2,0.2c-0.2,0.2-0.4,0.3-0.2,0.5s0.4,0.2,0.6-0.1c0.7-0.6,1.6-1.2,2.6-1.6
			c0.2-0.1,0.4,0,0.5,0c0.3-0.1,0.6-0.1,0.9-0.2c0.3-0.1,0.6-0.2,0.9-0.3c0.6-0.3,1.3-0.6,1.9-0.9c1-0.3,2.2-0.4,2.7-1.6
			c0.1-0.2,0.4-0.5,0.6-0.2c0.2,0.2,0.4,0.5,0.1,0.8c-0.7,0.6-1.5,1.4-2.3,1.9c-0.4,0.3-0.8,0.4-1.2,0.5c-0.5,0-1.1-0.1-1.6-0.1
			c0,0.1,0,0.2,0,0.2c0.5,0,1.1-0.1,1.6-0.1c-0.2,0.2-0.4,0.4-0.6,0.5c-0.3,0.3-0.6,0.5-1,0.8c0.3,0.3,0.5,0.4,0.7,0.6
			c0.5-0.5,0.9-0.4,1.5,0.2c-0.2,0.2-0.4,0.4-0.6,0.6c0,0.1,0.1,0.1,0.1,0.2c0.2-0.1,0.4-0.2,0.6-0.2s0.3,0,0.4,0
			c-0.1,0.2-0.2,0.3-0.2,0.4c-0.2,0.2-0.3,0.3-0.4,0.4c-0.2,0.2-0.4,0.5-0.6,0.7c-0.1,0.1-0.3-0.1-0.4-0.1c0-0.1,0-0.2-0.1-0.2
			c-0.1,0.1-0.2,0.2-0.3,0.4c0.6,0.6,0.8,1.1,0.7,1.9c0,0.2,0.2,0.3,0.3,0.4c-0.1,0.4-0.1,0.7-0.2,1.1c-0.1,0.4-1,0.9-1.5,0.7
			c-0.4-0.2-0.5-0.1-0.8,0.2c-0.2,0.2-0.5,0.4-0.8,0.6c-0.5,0.2-1,0.6-1.1,1.1c-0.1,0.2-0.2,0.4-0.4,0.2c-0.1,0-0.2,0.1-0.2,0.1
			c-0.4,0.2-0.7,0.2-1.1,0.4c-0.2,0.1-0.4,0.2-0.5,0.4c-0.2,0.2-0.4,0.3-0.4,0c-0.2-0.6-0.7-0.6-1.1-0.5c-1.1,0.2-2.2,0.2-3.2,0.6
			c-0.4,0.2-0.9,0.1-1.2-0.2c-1.3-1.1-2.9-1.2-4.5-1.1c-0.4,0-0.6,0.1-1.1,0c-1.3-0.2-2.6,0-3.9,0.4c-0.7,0.3-1.5,0.5-2.3,0.7
			c-0.3,0.1-0.4,0.2-0.4,0.5s0,0.8,0,1.1c0,0.4,0.2,0.6,0.6,0.5c0.1,0,0.2,0,0.3,0c0.2,0.2,0.4,0.3,0.5,0.4
			C149.3,133.2,149.1,133.4,149,133.6c0-0.2,0.1-0.2,0-0.4s-0.2-0.3-0.3-0.3c-0.2,0-0.4,0.2-0.4,0.2c0,0.2,0.1,0.4,0.1,0.6
			C148.7,133.7,148.9,133.7,149,133.6z"/>
	</g>
	<g>
		<path class="st1" d="M375.8,114c0,1.6,0,3.2,0,4.6c0,1.4,0,2.7-0.1,3.9c0,1.1-0.1,2.1-0.2,2.9c-0.1,0.8-0.2,1.4-0.5,1.9
			c-0.2,0.5-0.6,0.8-1.2,0.9c-0.2,0.1-0.5,0.1-0.8,0.1c-0.3,0-0.7,0-1.1,0c-0.3,0-0.6,0.1-0.7,0.2c-0.1,0.1-0.2,0.2-0.2,0.4
			c0,0.2,0.1,0.3,0.3,0.4c0.2,0.1,0.4,0.1,0.8,0.1c0.6,0,1.2,0,1.9,0c0.7,0,1.4,0,2.1-0.1c0.7,0,1.3,0,1.9-0.1c0.6,0,1,0,1.3,0
			c0.5,0,1.3,0,2.2,0.1c0.9,0,2,0.1,3.1,0.1c1.2,0,2.3,0.1,3.6,0.1c0.3,0,0.6-0.1,0.8-0.1c0.2-0.1,0.3-0.2,0.3-0.4
			c0-0.1-0.1-0.3-0.2-0.4c-0.1-0.1-0.4-0.2-0.7-0.2c-0.3,0-0.6,0-0.9,0c-0.3,0-0.7,0-1-0.1c-0.3,0-0.6-0.1-0.9-0.1
			c-0.5-0.1-1-0.3-1.2-0.5c-0.3-0.2-0.5-0.6-0.6-0.9c-0.1-0.4-0.2-0.8-0.3-1.3c-0.1-0.8-0.1-1.7-0.2-2.9c-0.1-1.1-0.1-2.4-0.1-3.9
			c0-1.4,0-3,0-4.6V92.5l7,0.1c1.6,0,2.9,0.2,3.9,0.5c0.9,0.3,1.6,0.7,2,1.2c0.4,0.5,0.6,0.9,0.6,1.4l0.1,0.6c0,0.4,0.1,0.7,0.2,0.8
			c0.1,0.2,0.2,0.2,0.4,0.2c0.2,0,0.3-0.1,0.3-0.2c0.1-0.1,0.1-0.4,0.2-0.6c0-0.4,0-0.8,0-1.4c0-0.6,0-1.2,0-1.9c0-0.7,0-1.3,0-1.8
			c0-0.6,0-1,0-1.3c0-0.4,0-0.7-0.1-0.9c-0.1-0.2-0.2-0.3-0.4-0.3c-0.1,0-0.3,0-0.5,0.1c-0.2,0.1-0.6,0.1-1,0.2
			c-0.4,0.1-0.9,0.1-1.5,0.2c-0.6,0.1-1.4,0.1-2.2,0.1h-22.4c-0.9,0-1.9,0-2.8-0.1c-1,0-1.9-0.1-2.7-0.2c-0.7-0.1-1.2-0.2-1.5-0.4
			c-0.4-0.1-0.6-0.2-0.8-0.2c-0.2,0-0.3,0.1-0.4,0.2c-0.1,0.2-0.2,0.4-0.2,0.8c0,0.1-0.1,0.4-0.2,0.8c-0.1,0.4-0.2,0.9-0.3,1.5
			c-0.1,0.6-0.2,1.1-0.3,1.7c-0.1,0.6-0.2,1.1-0.3,1.6c-0.1,0.5-0.1,0.8-0.1,1c0,0.3,0,0.5,0.1,0.6c0.1,0.1,0.2,0.2,0.4,0.2
			c0.2,0,0.3-0.1,0.4-0.2c0.1-0.1,0.2-0.3,0.2-0.5c0.1-0.2,0.2-0.4,0.3-0.8c0.1-0.3,0.4-0.7,0.6-1c0.3-0.4,0.6-0.7,1-0.9
			s1-0.4,1.7-0.5c0.7-0.1,1.6-0.2,2.6-0.2l8.2-0.2V114z M337.4,113.1c-0.1,0-0.2,0-0.2-0.1c0-0.1,0-0.2,0-0.3l5.3-13.3
			c0-0.1,0.1-0.2,0.1-0.3c0-0.1,0.1-0.2,0.2-0.2c0.1,0,0.1,0.1,0.1,0.2c0,0.1,0.1,0.2,0.1,0.3l5.2,13.3c0,0.1,0,0.2,0,0.2
			c0,0.1-0.1,0.1-0.2,0.1H337.4z M349.3,116c0.1,0,0.2,0,0.3,0.1c0.1,0.1,0.2,0.1,0.2,0.3l4.3,10.8c0.1,0.3,0.1,0.6,0,0.8
			c-0.1,0.2-0.3,0.3-0.5,0.4c-0.3,0-0.5,0.1-0.6,0.2c-0.1,0.1-0.1,0.2-0.1,0.4c0,0.2,0.2,0.3,0.4,0.3c0.3,0.1,0.7,0.1,1.2,0.1
			c1.6,0,3,0.1,4.4,0.1c1.4,0,2.6,0,3.6,0c1.1,0,1.9,0,2.6,0c0.7,0,1.2,0,1.5-0.1c0.3,0,0.6-0.1,0.7-0.2c0.1-0.1,0.2-0.2,0.2-0.3
			c0-0.4-0.3-0.6-0.8-0.6c-0.3,0-0.6,0-1,0c-0.3,0-0.7-0.1-1.1-0.1c-0.3,0-0.5-0.1-0.9-0.3c-0.3-0.2-0.7-0.4-1.1-0.8
			c-0.4-0.4-0.8-1-1.3-1.7c-0.5-0.7-1-1.7-1.5-2.9c-0.5-1.2-1.1-2.6-1.8-4.2c-0.7-1.6-1.5-3.4-2.3-5.3c-0.8-1.9-1.7-3.8-2.5-5.8
			c-0.9-2-1.7-3.9-2.5-5.8c-0.8-1.9-1.5-3.6-2.2-5.2c-0.7-1.6-1.3-2.9-1.7-4c-0.5-1.1-0.8-1.9-1-2.3c-0.2-0.4-0.3-0.7-0.5-1
			c-0.1-0.3-0.3-0.4-0.5-0.5c-0.2-0.1-0.4-0.2-0.7-0.2c-0.3,0-0.5,0.2-0.8,0.5c-0.3,0.3-0.5,0.9-0.8,1.6l-14.4,33.3
			c-0.4,0.9-0.7,1.7-1.1,2.3c-0.4,0.7-0.9,1.2-1.4,1.6c-0.5,0.4-1.2,0.7-2,0.8c-0.3,0-0.5,0-0.8,0c-0.3,0-0.6,0-0.8,0
			c-0.2,0-0.4,0.1-0.5,0.2c-0.1,0.1-0.1,0.2-0.1,0.4c0,0.2,0.1,0.4,0.2,0.4c0.2,0.1,0.4,0.1,0.8,0.1c1,0,1.9,0,2.8-0.1
			c0.9,0,1.7-0.1,2.3-0.1c0.6,0,1.1-0.1,1.3-0.1c0.6,0,1.3,0,2,0.1c0.7,0,1.4,0.1,2.2,0.1c0.7,0,1.4,0.1,2,0.1c0.3,0,0.5,0,0.6-0.1
			c0.2-0.1,0.2-0.2,0.2-0.4c0-0.2,0-0.3-0.1-0.4c-0.1-0.1-0.3-0.2-0.7-0.2h-0.8c-0.8,0-1.4-0.1-1.7-0.4c-0.3-0.3-0.5-0.6-0.5-1.1
			c0-0.3,0.1-0.8,0.2-1.4c0.1-0.6,0.3-1.2,0.6-1.9l2.9-7.2c0.1-0.2,0.1-0.3,0.2-0.3c0.1-0.1,0.2-0.1,0.3-0.1H349.3z M298.8,114
			c0,1.6,0,3.2,0,4.6c0,1.4,0,2.7-0.1,3.9c0,1.1-0.1,2.1-0.2,2.9c-0.1,0.8-0.2,1.4-0.5,1.9c-0.2,0.5-0.6,0.8-1.2,0.9
			c-0.3,0.1-0.5,0.1-0.9,0.1c-0.3,0-0.7,0-1.1,0c-0.3,0-0.6,0.1-0.7,0.2c-0.1,0.1-0.2,0.2-0.2,0.4c0,0.2,0.1,0.3,0.3,0.4
			c0.2,0.1,0.4,0.1,0.8,0.1c0.6,0,1.2,0,1.8,0c0.7,0,1.3-0.1,2-0.1c0.7,0,1.3,0,1.8,0c0.5,0,1,0,1.3,0c0.8,0,1.7,0,2.8,0
			c1.1,0,2.2,0.1,3.6,0.1c1.3,0.1,2.9,0.1,4.5,0.1c1.7,0,3.5,0.1,5.6,0.1c0.7,0,1.2,0,1.6-0.1c0.4,0,0.7-0.2,0.9-0.4
			c0.2-0.2,0.4-0.5,0.5-1c0.1-0.3,0.2-0.7,0.3-1.2c0.1-0.5,0.2-1.1,0.2-1.7c0.1-0.6,0.1-1.2,0.2-1.7c0.1-0.5,0.1-1,0.1-1.3
			c0-0.3,0-0.6-0.1-0.8c-0.1-0.3-0.2-0.4-0.4-0.4c-0.2,0-0.3,0.1-0.4,0.2c-0.1,0.1-0.2,0.3-0.2,0.6c-0.2,1.1-0.4,1.9-0.8,2.6
			c-0.4,0.6-0.9,1.1-1.6,1.4c-0.5,0.2-1,0.4-1.7,0.5c-0.6,0.1-1.2,0.2-1.9,0.2c-0.6,0-1.2,0-1.7,0c-1.9,0-3.3-0.1-4.4-0.3
			c-1.1-0.2-1.8-0.7-2.3-1.3c-0.5-0.6-0.7-1.6-0.7-2.8c0-0.4,0-1,0-1.6c0-0.7,0-1.4,0-2.2c0-0.8,0-1.5,0-2.3c0-0.7,0-1.3,0-1.8v-4.3
			c0-0.2,0-0.3,0.1-0.4c0-0.1,0.1-0.2,0.3-0.2c0.3,0,0.7,0,1.3,0c0.6,0,1.3,0,2,0c0.7,0,1.5,0,2.2,0.1c0.7,0,1.4,0,1.9,0.1
			c0.6,0,0.9,0,1.1,0.1c0.7,0.1,1.2,0.2,1.6,0.4c0.4,0.2,0.7,0.4,0.9,0.7c0.2,0.3,0.4,0.6,0.5,1c0.1,0.3,0.1,0.7,0.1,1
			c0,0.3,0.1,0.6,0.1,0.9c0,0.1,0,0.2,0.1,0.3c0.1,0.1,0.2,0.1,0.4,0.1c0.2,0,0.3-0.1,0.4-0.2c0.1-0.1,0.1-0.3,0.2-0.5
			c0-0.2,0-0.3,0-0.5c0-0.1,0-0.3,0-0.6c0-0.3,0-0.6,0.1-1c0-0.4,0-0.7,0.1-1.1c0-0.4,0.1-0.7,0.1-0.9c0.1-0.9,0.2-1.6,0.3-2.1
			c0.1-0.5,0.1-0.9,0.1-1.2c0-0.3,0-0.4,0-0.5c0-0.2,0-0.3-0.1-0.4c-0.1-0.1-0.2-0.2-0.3-0.2c-0.1,0-0.2,0.1-0.4,0.2
			c-0.1,0.1-0.3,0.3-0.5,0.5c-0.3,0.2-0.6,0.4-1,0.5c-0.4,0.1-0.9,0.2-1.6,0.3c-0.3,0-0.7,0-1.4,0.1c-0.6,0-1.4,0-2.2,0
			c-0.8,0-1.7,0-2.5,0c-0.8,0-1.6,0-2.2,0c-0.6,0-1.1,0-1.4,0c-0.2,0-0.3-0.1-0.3-0.2c-0.1-0.1-0.1-0.2-0.1-0.4V92.8
			c0-0.2,0-0.3,0.1-0.4c0.1-0.1,0.2-0.1,0.3-0.1c0.2,0,0.7,0,1.2,0c0.6,0,1.3,0,2,0c0.8,0,1.5,0,2.3,0.1c0.8,0,1.4,0,2,0.1
			c0.6,0,1,0,1.1,0.1c0.9,0.1,1.6,0.2,2.1,0.4c0.5,0.2,0.8,0.4,1,0.7c0.2,0.3,0.4,0.6,0.5,0.9c0.1,0.2,0.2,0.4,0.2,0.7
			c0.1,0.3,0.1,0.5,0.1,0.7c0,0.2,0,0.4,0,0.5c0,0.2,0,0.4,0.1,0.5c0.1,0.1,0.2,0.2,0.4,0.2c0.1,0,0.3-0.1,0.3-0.2
			c0.1-0.1,0.1-0.2,0.2-0.4c0-0.1,0.1-0.3,0.1-0.3c0-0.2,0.1-0.4,0.1-0.7c0-0.3,0.1-0.7,0.1-1c0-0.4,0.1-0.7,0.1-1
			c0-0.3,0.1-0.6,0.1-0.7c0-0.8,0.1-1.4,0.2-1.9c0.1-0.5,0.1-0.8,0.2-1c0.1-0.2,0.1-0.4,0.1-0.5c0-0.1,0-0.3-0.1-0.3
			c-0.1-0.1-0.1-0.2-0.3-0.2c-0.1,0-0.3,0-0.4,0.1c-0.1,0.1-0.3,0.1-0.5,0.1c-0.2,0-0.5,0.1-1,0.2c-0.4,0.1-0.9,0.1-1.4,0.2
			c-0.2,0-0.6,0-1.4,0c-0.7,0-1.6,0-2.6,0c-1,0-2.1,0-3.3,0c-1.2,0-2.3,0-3.3,0c-1.1,0-2,0-2.8,0c-0.8,0-1.3,0-1.6,0
			c-0.5,0-1.2,0-2.1,0c-0.9,0-1.8,0-2.8-0.1c-1,0-2,0-3,0c-0.4,0-0.7,0-0.9,0.1c-0.2,0.1-0.3,0.2-0.3,0.4c0,0.2,0.1,0.3,0.3,0.4
			c0.2,0.1,0.4,0.1,0.7,0.1c0.4,0,0.8,0,1.2,0c0.4,0,0.7,0.1,0.9,0.1c0.6,0.2,1,0.3,1.4,0.6c0.3,0.2,0.6,0.5,0.7,0.9
			c0.2,0.4,0.3,0.8,0.3,1.4c0,0.3,0,0.7,0,1c0,0.4,0,0.8,0,1.3c0,0.5,0,1.2,0,1.9s0,1.7,0,2.9c0,1.1,0,2.5,0,4.1V114z M263.8,92.9
			c0-0.2,0-0.4,0.1-0.5c0.1-0.1,0.2-0.2,0.4-0.3c0.3-0.1,0.7-0.1,1.3-0.1c0.6,0,1.2,0,1.9,0c0.7,0,1.4,0.1,2.1,0.3
			c0.8,0.2,1.5,0.5,2.2,0.9c0.7,0.4,1.4,1,2,1.7c0.6,0.7,1.1,1.6,1.5,2.7c0.4,1.1,0.6,2.4,0.6,3.9c0,1.5-0.2,2.7-0.6,3.7
			c-0.3,1-0.8,1.9-1.3,2.6c-0.5,0.7-1.1,1.2-1.7,1.6c-0.3,0.2-0.6,0.4-0.9,0.5c-0.3,0.1-0.7,0.2-1.2,0.3c-0.5,0.1-1.1,0.1-1.8,0.1
			c-0.7,0-1.4,0-2.2-0.1c-0.7-0.1-1.4-0.2-2-0.4c-0.2-0.1-0.3-0.2-0.4-0.3c-0.1-0.1-0.1-0.3-0.1-0.6V92.9z M256.7,114
			c0,1.6,0,3.2,0,4.6c0,1.4,0,2.7-0.1,3.9c0,1.1-0.1,2.1-0.2,2.9c-0.1,0.8-0.2,1.4-0.5,1.9c-0.2,0.5-0.6,0.8-1.2,0.9
			c-0.3,0.1-0.5,0.1-0.9,0.1c-0.3,0-0.7,0-1.1,0c-0.3,0-0.6,0.1-0.7,0.2c-0.1,0.1-0.2,0.2-0.2,0.4c0,0.2,0.1,0.3,0.3,0.4
			c0.2,0.1,0.4,0.1,0.8,0.1c0.6,0,1.2,0,1.8,0c0.7,0,1.3,0,2-0.1c0.6,0,1.2,0,1.8-0.1c0.5,0,0.9,0,1.2,0c0.2,0,0.6,0,1.2,0
			c0.6,0,1.3,0,2.2,0.1c0.8,0,1.7,0,2.6,0.1c0.9,0,1.8,0,2.6,0c0.3,0,0.6-0.1,0.8-0.1c0.2-0.1,0.3-0.2,0.3-0.4
			c0-0.1-0.1-0.3-0.2-0.4c-0.1-0.1-0.3-0.2-0.5-0.2c-0.2,0-0.5,0-0.8,0c-0.3,0-0.6,0-1-0.1c-0.3,0-0.6-0.1-0.9-0.1
			c-0.6-0.1-1-0.3-1.3-0.5c-0.3-0.3-0.5-0.6-0.6-1c-0.1-0.4-0.2-0.8-0.3-1.4c-0.1-0.8-0.1-1.7-0.2-2.8c-0.1-1.1-0.1-2.4-0.1-3.9
			c0-1.4,0-3,0-4.6v-0.8c0-0.2,0-0.3,0.1-0.3c0.1-0.1,0.2-0.1,0.3-0.1l4.9,0.1c0.2,0,0.4,0,0.5,0.1c0.2,0.1,0.3,0.1,0.5,0.3
			c0.2,0.2,0.4,0.6,0.8,1.1c0.4,0.5,0.8,1.1,1.2,1.8c0.5,0.7,1,1.4,1.5,2.2c0.5,0.8,1.1,1.5,1.6,2.2c1,1.4,1.9,2.6,2.8,3.6
			c0.8,1,1.6,1.9,2.4,2.6c0.8,0.7,1.5,1.2,2.3,1.6c0.5,0.3,1,0.4,1.5,0.6c0.5,0.2,1.2,0.3,1.9,0.4c0.7,0.1,1.6,0.1,2.6,0.1h5.3
			c0.3,0,0.6,0,0.8-0.1c0.2-0.1,0.3-0.2,0.3-0.4c0-0.1-0.1-0.3-0.2-0.4c-0.1-0.1-0.3-0.2-0.5-0.2c-0.2,0-0.4,0-0.6,0
			c-0.2,0-0.4-0.1-0.7-0.1c-0.3,0-0.7-0.1-1.2-0.3c-0.5-0.2-1.2-0.5-2-1c-0.8-0.5-1.7-1.2-2.7-2.2c-1.7-1.7-3.5-3.7-5.5-6.1
			c-2-2.4-4.2-5.1-6.6-8.1c1.8-1.4,3.2-2.8,4.4-4.1c1.1-1.3,2-2.6,2.5-3.8c0.5-1.3,0.8-2.5,0.8-3.8c0-0.9-0.1-1.7-0.4-2.5
			s-0.6-1.5-1-2.1c-0.4-0.6-0.8-1.2-1.3-1.6c-0.4-0.5-0.9-0.8-1.3-1.1c-1-0.6-2.1-1.1-3.2-1.5c-1.2-0.3-2.4-0.5-3.6-0.6
			c-1.2-0.1-2.4-0.2-3.6-0.2c-0.4,0-1,0-1.8,0c-0.8,0-1.6,0-2.4,0c-0.9,0-1.7,0-2.5,0c-0.8,0-1.4,0-1.9,0c-0.3,0-0.7,0-1.2,0
			c-0.5,0-1.2,0-1.9,0c-0.7,0-1.4,0-2.2,0c-0.8,0-1.5,0-2.2,0c-0.4,0-0.7,0-0.9,0.1c-0.2,0.1-0.3,0.2-0.3,0.4c0,0.2,0.1,0.3,0.3,0.4
			c0.2,0.1,0.4,0.1,0.7,0.1c0.4,0,0.8,0,1.2,0c0.4,0,0.7,0.1,0.9,0.1c0.6,0.2,1,0.3,1.4,0.6c0.3,0.2,0.6,0.5,0.7,0.9
			c0.2,0.4,0.3,0.8,0.3,1.4c0,0.3,0,0.7,0,1c0,0.4,0,0.8,0,1.3c0,0.5,0,1.2,0,1.9s0,1.7,0,2.9c0,1.1,0,2.5,0,4.1V114z M242.7,118.4
			c0-1.6,0-3,0-4.2c0-1.3,0-2.3,0.1-3.3c0-1.1,0.2-1.9,0.6-2.5c0.4-0.6,1-0.9,1.8-1.1c0.4-0.1,0.7-0.1,0.9-0.1c0.3,0,0.5,0,0.8,0
			c0.2,0,0.4,0,0.6-0.1c0.2-0.1,0.2-0.2,0.2-0.4c0-0.3-0.1-0.4-0.3-0.5c-0.2-0.1-0.5-0.1-0.9-0.1c-0.7,0-1.5,0-2.4,0.1
			c-0.9,0-1.8,0.1-2.6,0.1c-0.9,0-1.6,0.1-2.3,0.1c-0.6,0-1.5,0-2.5-0.1c-1,0-2.1-0.1-3.2-0.1c-1.1,0-2.3-0.1-3.4-0.1
			c-0.4,0-0.8,0-1,0.1c-0.2,0.1-0.3,0.3-0.3,0.5c0,0.2,0.1,0.3,0.3,0.4c0.2,0.1,0.4,0.1,0.7,0.1c0.5,0,0.9,0,1.4,0
			c0.4,0,0.8,0.1,1.1,0.1c0.7,0.1,1.2,0.4,1.6,0.6c0.4,0.3,0.7,0.7,0.8,1.1c0.2,0.5,0.3,1.1,0.3,1.8c0,0.9,0.1,2,0.1,3.2
			c0,1.2,0,2.6,0,4.2v5.9c0,0.5-0.1,1-0.2,1.4c-0.2,0.4-0.5,0.7-1,0.9c-0.5,0.2-1.1,0.4-1.7,0.5c-0.6,0.1-1.2,0.2-1.9,0.2
			c-0.6,0-1.2,0-1.8,0c-2.7,0-5.1-0.4-7.3-1.2c-2.2-0.8-4.3-1.8-6-3.3c-1.8-1.4-3.3-3.1-4.6-5c-1.3-1.9-2.2-4.1-2.9-6.5
			c-0.7-2.4-1-4.9-1-7.6c0-2.6,0.2-4.8,0.7-6.8c0.5-1.9,1.1-3.6,2-5c0.9-1.4,1.9-2.6,3-3.6c1.1-0.9,2.2-1.6,3.3-2.1
			c1.1-0.5,2.2-0.9,3.3-1.2c1.1-0.3,2.1-0.4,3.1-0.5c1-0.1,1.9-0.1,2.8-0.1c1.8,0,3.4,0.2,4.9,0.5c1.5,0.3,2.8,0.7,4,1.2
			c1.2,0.5,2.2,1,3,1.6c0.9,0.6,1.5,1.1,2,1.6c0.5,0.6,1,1.2,1.2,1.8c0.3,0.6,0.5,1.2,0.6,1.8c0.1,0.6,0.2,1.1,0.3,1.6
			c0,0.3,0.1,0.4,0.2,0.6c0.1,0.1,0.2,0.2,0.4,0.2c0.3,0,0.4-0.1,0.5-0.3c0.1-0.2,0.2-0.5,0.2-1c0-1.9,0-3.5,0.1-4.8
			c0-1.3,0.1-2.3,0.1-3c0.1-0.7,0.1-1.3,0.2-1.7c0-0.4,0.1-0.6,0.1-0.8c0-0.2,0-0.4-0.2-0.5c-0.1-0.1-0.4-0.2-0.7-0.2
			c-0.5,0-1-0.1-1.6-0.2c-0.6-0.1-1.2-0.2-1.8-0.3c-0.6-0.1-1.1-0.2-1.5-0.3c-0.3-0.1-0.9-0.2-1.6-0.3c-0.8-0.1-1.7-0.2-2.7-0.3
			c-1-0.1-2.2-0.2-3.3-0.3c-1.2-0.1-2.3-0.1-3.4-0.1c-1.8,0-3.5,0.1-5.4,0.3c-1.8,0.2-3.7,0.6-5.6,1.1c-1.9,0.6-3.9,1.5-5.9,2.7
			c-1.4,0.9-2.8,1.9-4.1,3.2c-1.3,1.3-2.5,2.8-3.5,4.5c-1,1.7-1.8,3.6-2.4,5.8c-0.6,2.1-0.9,4.4-0.9,6.9c0,3.5,0.5,6.5,1.5,9.2
			c1,2.7,2.4,5,4.2,6.9c1.8,1.9,3.9,3.5,6.4,4.8c2.4,1.2,5.1,2.2,7.9,2.8c2.9,0.6,5.8,0.9,8.9,0.9c1.2,0,2.5,0,3.9-0.1
			c1.3-0.1,2.7-0.3,4-0.5c1.3-0.2,2.6-0.5,3.9-0.9c1.2-0.4,2.4-0.8,3.4-1.3c0.3-0.1,0.4-0.3,0.5-0.4c0.1-0.1,0.2-0.3,0.2-0.6
			c0-0.3,0-0.7,0-1.2V118.4z"/>
		<path class="st1" d="M583.1,130.2c1,0,2,0,3.1-0.1c1.1-0.1,2.2-0.3,3.2-0.6c1-0.3,2-0.8,2.9-1.4c1.3-0.9,2.4-1.9,3.2-3
			c0.8-1,1.4-2.1,1.8-3.3c0.4-1.2,0.6-2.4,0.5-3.7c0-1.6-0.3-3.1-0.9-4.6c-0.6-1.5-1.6-2.9-3-4.3c-1.4-1.4-3.3-2.7-5.7-4.1l-2.3-1.3
			c-1.2-0.7-2.2-1.3-3-1.9c-0.8-0.6-1.4-1.2-1.8-1.7c-0.4-0.6-0.7-1.1-0.8-1.7c-0.2-0.6-0.2-1.1-0.2-1.7c0-0.9,0.2-1.7,0.6-2.4
			c0.4-0.7,1-1.3,1.7-1.8c0.7-0.5,1.5-0.9,2.4-1.1c0.9-0.3,1.8-0.4,2.8-0.4c1.2,0,2.2,0.2,3,0.4c0.8,0.3,1.5,0.6,2,1
			c0.5,0.4,0.9,0.8,1.2,1.1c0.4,0.5,0.7,0.9,0.9,1.4c0.2,0.5,0.3,0.9,0.4,1.3c0.1,0.4,0.1,0.6,0.1,0.8c0,0.6,0.2,0.9,0.6,0.9
			c0.2,0,0.4-0.1,0.5-0.4c0.1-0.3,0.2-0.7,0.2-1.3c0-1.4,0-2.5,0.1-3.4c0-0.9,0.1-1.5,0.1-2c0-0.5,0.1-0.8,0.1-1
			c0-0.2-0.1-0.3-0.2-0.4c-0.1-0.1-0.3-0.2-0.6-0.3c-0.7-0.2-1.8-0.4-3.1-0.6c-1.3-0.2-2.9-0.3-4.7-0.3c-1.9,0-3.7,0.3-5.4,0.8
			c-1.7,0.5-3.1,1.2-4.4,2.2c-1.3,0.9-2.3,2.1-3,3.4c-0.7,1.3-1.1,2.8-1.1,4.4c0,1.6,0.3,3,0.8,4.4c0.5,1.4,1.5,2.7,2.7,3.9
			c1.3,1.3,3,2.5,5.1,3.8l3.2,1.9c1.2,0.7,2.2,1.4,2.9,2.1c0.7,0.7,1.3,1.3,1.6,1.9c0.4,0.6,0.6,1.2,0.7,1.8
			c0.1,0.6,0.2,1.2,0.2,1.7c0,1.3-0.3,2.4-0.9,3.4c-0.6,1-1.5,1.8-2.6,2.4c-1.1,0.6-2.5,0.9-4.1,0.9c-0.9,0-1.8-0.1-2.7-0.3
			c-0.9-0.2-1.8-0.5-2.6-0.9c-0.8-0.4-1.5-0.9-2.2-1.6c-0.6-0.7-1.1-1.5-1.4-2.5c-0.2-0.5-0.3-1-0.4-1.5c-0.1-0.5-0.1-0.9-0.1-1.3
			c0-0.2,0-0.4-0.1-0.6c-0.1-0.2-0.2-0.3-0.5-0.3c-0.2,0-0.4,0.1-0.5,0.4c-0.1,0.3-0.2,0.6-0.2,1c0,0.2,0,0.6-0.1,1.1
			c0,0.5-0.1,1.1-0.1,1.7c0,0.7-0.1,1.4-0.1,2.1c0,0.7,0,1.5,0,2.2c0,0.4,0,0.7,0.1,0.9c0.1,0.2,0.2,0.4,0.3,0.5
			c0.2,0.1,0.4,0.3,0.7,0.4c0.8,0.4,1.7,0.6,2.7,0.8c1,0.2,2,0.3,3.1,0.4C581,130.1,582.1,130.2,583.1,130.2 M542,114
			c0,1.6,0,3.2,0,4.6c0,1.4,0,2.7-0.1,3.9c0,1.1-0.1,2.1-0.2,2.9c-0.1,0.8-0.2,1.4-0.5,1.9c-0.2,0.5-0.6,0.8-1.2,0.9
			c-0.3,0.1-0.5,0.1-0.9,0.1c-0.3,0-0.7,0-1.1,0c-0.3,0-0.6,0.1-0.7,0.2c-0.1,0.1-0.2,0.2-0.2,0.4c0,0.2,0.1,0.3,0.3,0.4
			c0.2,0.1,0.4,0.1,0.8,0.1c0.6,0,1.2,0,1.8,0c0.7,0,1.3-0.1,2-0.1c0.7,0,1.3,0,1.8,0c0.5,0,1,0,1.3,0c0.8,0,1.7,0,2.8,0
			c1.1,0,2.2,0.1,3.6,0.1c1.3,0.1,2.9,0.1,4.5,0.1c1.7,0,3.5,0.1,5.6,0.1c0.7,0,1.2,0,1.6-0.1c0.4,0,0.7-0.2,0.9-0.4
			c0.2-0.2,0.4-0.5,0.5-1c0.1-0.3,0.2-0.7,0.3-1.2c0.1-0.5,0.2-1.1,0.2-1.7c0.1-0.6,0.1-1.2,0.2-1.7c0.1-0.5,0.1-1,0.1-1.3
			c0-0.3,0-0.6-0.1-0.8c-0.1-0.3-0.2-0.4-0.4-0.4c-0.2,0-0.3,0.1-0.4,0.2c-0.1,0.1-0.2,0.3-0.2,0.6c-0.2,1.1-0.4,1.9-0.8,2.6
			c-0.4,0.6-0.9,1.1-1.6,1.4c-0.5,0.2-1,0.4-1.7,0.5c-0.6,0.1-1.2,0.2-1.9,0.2c-0.6,0-1.2,0-1.7,0c-1.9,0-3.3-0.1-4.4-0.3
			c-1.1-0.2-1.8-0.7-2.3-1.3c-0.5-0.6-0.7-1.6-0.7-2.8c0-0.4,0-1,0-1.6c0-0.7,0-1.4,0-2.2c0-0.8,0-1.5,0-2.3c0-0.7,0-1.3,0-1.8v-4.3
			c0-0.2,0-0.3,0.1-0.4c0-0.1,0.1-0.2,0.3-0.2c0.3,0,0.7,0,1.3,0c0.6,0,1.3,0,2,0c0.7,0,1.5,0,2.2,0.1c0.7,0,1.4,0,1.9,0.1
			c0.6,0,0.9,0,1.1,0.1c0.7,0.1,1.2,0.2,1.6,0.4c0.4,0.2,0.7,0.4,1,0.7c0.2,0.3,0.4,0.6,0.5,1c0.1,0.3,0.1,0.7,0.1,1
			c0,0.3,0.1,0.6,0.1,0.9c0,0.1,0,0.2,0.1,0.3c0.1,0.1,0.2,0.1,0.4,0.1c0.2,0,0.3-0.1,0.4-0.2c0.1-0.1,0.1-0.3,0.2-0.5
			c0-0.2,0-0.3,0-0.5c0-0.1,0-0.3,0-0.6c0-0.3,0-0.6,0.1-1c0-0.4,0-0.7,0.1-1.1c0-0.4,0.1-0.7,0.1-0.9c0.1-0.9,0.2-1.6,0.3-2.1
			c0.1-0.5,0.1-0.9,0.1-1.2c0-0.3,0-0.4,0-0.5c0-0.2,0-0.3-0.1-0.4c-0.1-0.1-0.2-0.2-0.3-0.2c-0.1,0-0.2,0.1-0.4,0.2
			c-0.1,0.1-0.3,0.3-0.5,0.5c-0.3,0.2-0.6,0.4-1,0.5c-0.4,0.1-0.9,0.2-1.6,0.3c-0.3,0-0.7,0-1.4,0.1c-0.6,0-1.4,0-2.2,0
			c-0.8,0-1.7,0-2.5,0c-0.8,0-1.6,0-2.2,0c-0.6,0-1.1,0-1.4,0c-0.2,0-0.3-0.1-0.3-0.2c-0.1-0.1-0.1-0.2-0.1-0.4V92.8
			c0-0.2,0-0.3,0.1-0.4c0.1-0.1,0.2-0.1,0.3-0.1c0.2,0,0.7,0,1.2,0c0.6,0,1.3,0,2,0c0.8,0,1.5,0,2.3,0.1c0.8,0,1.4,0,2,0.1
			c0.6,0,0.9,0,1.1,0.1c0.9,0.1,1.6,0.2,2.1,0.4c0.5,0.2,0.8,0.4,1,0.7c0.2,0.3,0.4,0.6,0.5,0.9c0.1,0.2,0.2,0.4,0.2,0.7
			c0.1,0.3,0.1,0.5,0.1,0.7c0,0.2,0,0.4,0,0.5c0,0.2,0,0.4,0.1,0.5c0.1,0.1,0.2,0.2,0.4,0.2c0.1,0,0.3-0.1,0.3-0.2
			c0.1-0.1,0.1-0.2,0.2-0.4c0-0.1,0.1-0.3,0.1-0.3c0-0.2,0.1-0.4,0.1-0.7c0-0.3,0.1-0.7,0.1-1c0-0.4,0.1-0.7,0.1-1
			c0-0.3,0.1-0.6,0.1-0.7c0-0.8,0.1-1.4,0.2-1.9c0.1-0.5,0.1-0.8,0.2-1c0.1-0.2,0.1-0.4,0.1-0.5c0-0.1,0-0.3-0.1-0.3
			c-0.1-0.1-0.1-0.2-0.3-0.2c-0.1,0-0.3,0-0.4,0.1c-0.1,0.1-0.3,0.1-0.5,0.1c-0.2,0-0.5,0.1-1,0.2c-0.4,0.1-0.9,0.1-1.4,0.2
			c-0.2,0-0.6,0-1.4,0c-0.7,0-1.6,0-2.6,0c-1,0-2.1,0-3.3,0c-1.2,0-2.3,0-3.3,0c-1.1,0-2,0-2.8,0c-0.8,0-1.3,0-1.7,0
			c-0.5,0-1.2,0-2.1,0c-0.9,0-1.8,0-2.8-0.1c-1,0-2,0-3,0c-0.4,0-0.7,0-0.9,0.1c-0.2,0.1-0.3,0.2-0.3,0.4c0,0.2,0.1,0.3,0.3,0.4
			c0.2,0.1,0.4,0.1,0.7,0.1c0.4,0,0.8,0,1.2,0c0.4,0,0.7,0.1,0.9,0.1c0.6,0.2,1,0.3,1.4,0.6c0.3,0.2,0.6,0.5,0.7,0.9
			c0.2,0.4,0.3,0.8,0.3,1.4c0,0.3,0,0.7,0,1c0,0.4,0,0.8,0,1.3c0,0.5,0,1.2,0,1.9s0,1.7,0,2.9c0,1.1,0,2.5,0,4.1V114z M507.3,104.6
			c0-1.6,0-3,0-4.1c0-1.1,0-2.1,0-2.9c0-0.8,0-1.4,0-1.9c0-0.5,0-1,0-1.3c0-0.4,0-0.7,0-1c0-0.9,0.2-1.6,0.5-2.1
			c0.3-0.4,0.8-0.7,1.6-0.8c0.3-0.1,0.6-0.1,0.8-0.1c0.2,0,0.5,0,0.7,0c0.2,0,0.4-0.1,0.5-0.1c0.1-0.1,0.2-0.2,0.2-0.4
			c0-0.2-0.1-0.3-0.3-0.4c-0.2-0.1-0.5-0.1-0.9-0.1c-0.5,0-1,0-1.7,0c-0.7,0-1.3,0-2,0c-0.7,0-1.3,0-1.9,0c-0.6,0-1.1,0-1.4,0
			c-0.5,0-1.1,0-1.9,0c-0.8,0-1.8,0-2.8-0.1c-1,0-2,0-3,0c-0.4,0-0.7,0-0.9,0.1c-0.2,0.1-0.3,0.2-0.3,0.4c0,0.2,0.1,0.3,0.3,0.4
			c0.2,0.1,0.4,0.1,0.7,0.1c0.4,0,0.8,0,1.2,0c0.4,0,0.7,0.1,0.9,0.1c0.6,0.2,1,0.3,1.4,0.6c0.3,0.2,0.6,0.5,0.7,0.9
			c0.2,0.4,0.3,0.8,0.3,1.4c0,0.3,0,0.7,0,1c0,0.4,0,0.8,0,1.3c0,0.5,0,1.2,0,1.9s0,1.7,0,2.9c0,1.1,0,2.5,0,4.1v9.4
			c0,1.6,0,3.2,0,4.6c0,1.4,0,2.7-0.1,3.9c0,1.1-0.1,2.1-0.2,2.9c-0.1,0.8-0.2,1.4-0.5,1.9c-0.2,0.5-0.6,0.8-1.2,0.9
			c-0.3,0.1-0.5,0.1-0.9,0.1c-0.3,0-0.7,0-1.1,0c-0.3,0-0.6,0.1-0.7,0.2c-0.1,0.1-0.2,0.2-0.2,0.4c0,0.2,0.1,0.3,0.3,0.4
			c0.2,0.1,0.4,0.1,0.8,0.1c0.6,0,1.2,0,1.8,0c0.7,0,1.3,0,2-0.1c0.7,0,1.3,0,1.8-0.1c0.5,0,1,0,1.3,0c0.4,0,0.8,0,1.5,0
			c0.6,0,1.3,0,2.1,0.1c0.8,0,1.6,0,2.4,0.1c0.8,0,1.6,0,2.4,0c0.3,0,0.6-0.1,0.8-0.1c0.2-0.1,0.3-0.2,0.3-0.4
			c0-0.1-0.1-0.3-0.2-0.4c-0.1-0.1-0.3-0.2-0.5-0.2c-0.2,0-0.5,0-0.8,0c-0.3,0-0.6,0-1-0.1c-0.3,0-0.6-0.1-0.9-0.1
			c-0.7-0.1-1.2-0.4-1.5-0.9c-0.3-0.5-0.5-1.1-0.5-1.8c0-0.8-0.1-1.7-0.1-2.9c0-1.1,0-2.4,0-3.9c0-1.4,0-3,0-4.6v-4.8h0.3l0.6,0.8
			c0.2,0.3,0.6,0.8,1.3,1.6c0.7,0.8,1.4,1.7,2.4,2.8c0.9,1.1,1.9,2.2,3,3.4c1,1.2,2.1,2.3,3.1,3.5c1,1.1,1.9,2.1,2.7,2.9
			c0.8,0.8,1.4,1.4,1.8,1.8c0.8,0.7,1.5,1.3,2.3,1.8c0.7,0.5,1.5,0.9,2.3,1.1c0.8,0.3,1.7,0.5,2.6,0.5c0.6,0.1,1.2,0.1,1.7,0.1
			c0.6,0,1.3,0,2.1,0h4.8c0.5,0,0.8-0.1,1-0.1c0.2-0.1,0.3-0.2,0.3-0.4c0-0.2-0.1-0.3-0.2-0.4c-0.1-0.1-0.3-0.2-0.5-0.2
			c-0.3,0-0.8,0-1.3-0.1c-0.6-0.1-1.3-0.3-2.1-0.6c-1-0.4-1.9-0.9-2.7-1.5c-0.8-0.6-1.6-1.3-2.4-2c-0.8-0.7-1.6-1.5-2.4-2.2
			c-0.4-0.3-0.9-0.9-1.7-1.7c-0.8-0.8-1.7-1.7-2.7-2.7c-1-1-2.1-2.1-3.1-3.3c-1.1-1.1-2.1-2.2-3.1-3.3c-1-1.1-1.9-2-2.6-2.9
			c-0.8-0.8-1.3-1.5-1.6-1.9c0.4-0.4,0.9-1,1.7-1.8c0.8-0.8,1.7-1.6,2.6-2.6c1-1,2-1.9,3-2.8c1-0.9,1.9-1.8,2.7-2.5
			c0.8-0.7,1.4-1.3,1.7-1.6c1.1-1.1,2.2-1.9,3.1-2.6c0.9-0.6,1.8-1.1,2.7-1.4c0.3-0.1,0.7-0.2,1.1-0.3c0.4-0.1,0.8-0.2,1.1-0.2
			c0.4-0.1,0.7-0.1,1-0.1c0.3,0,0.4-0.1,0.6-0.1c0.1-0.1,0.2-0.2,0.2-0.4c0-0.2-0.1-0.3-0.3-0.4c-0.2-0.1-0.4-0.1-0.7-0.1
			c-0.6,0-1.3,0-2,0c-0.8,0-1.6,0-2.4,0.1c-0.8,0-1.5,0-2,0c-0.4,0-0.8,0-1.4,0c-0.5,0-1.1,0-1.6,0c-0.6,0-1.1,0-1.6,0
			c-0.5,0-0.9,0-1.2,0c-0.3,0-0.5,0-0.6,0.1c-0.2,0.1-0.2,0.2-0.2,0.4c0,0.1,0.1,0.3,0.2,0.4c0.1,0.1,0.3,0.1,0.6,0.2
			c0.3,0.1,0.4,0.2,0.6,0.4c0.1,0.2,0.2,0.4,0.2,0.7c0,0.5-0.3,1-0.8,1.7c-0.5,0.6-1.2,1.4-2,2.3c-0.3,0.4-0.9,0.9-1.6,1.7
			c-0.8,0.8-1.6,1.6-2.6,2.6c-1,1-1.9,1.9-2.9,2.9c-1,1-1.8,1.9-2.6,2.7c-0.8,0.8-1.4,1.4-1.8,1.8h-0.3V104.6z M464.9,113.1
			c-0.1,0-0.2,0-0.2-0.1c0-0.1,0-0.2,0-0.3l5.3-13.3c0-0.1,0.1-0.2,0.1-0.3c0-0.1,0.1-0.2,0.2-0.2c0.1,0,0.1,0.1,0.1,0.2
			c0,0.1,0.1,0.2,0.1,0.3l5.2,13.3c0,0.1,0,0.2,0,0.2c0,0.1-0.1,0.1-0.2,0.1H464.9z M476.8,116c0.1,0,0.2,0,0.3,0.1
			c0.1,0.1,0.2,0.1,0.2,0.3l4.3,10.8c0.1,0.3,0.1,0.6,0,0.8c-0.1,0.2-0.3,0.3-0.5,0.4c-0.3,0-0.5,0.1-0.6,0.2
			c-0.1,0.1-0.1,0.2-0.1,0.4c0,0.2,0.2,0.3,0.4,0.3c0.3,0.1,0.7,0.1,1.2,0.1c1.6,0,3,0.1,4.4,0.1c1.4,0,2.6,0,3.6,0
			c1.1,0,1.9,0,2.6,0c0.7,0,1.2,0,1.5-0.1c0.3,0,0.6-0.1,0.7-0.2c0.1-0.1,0.2-0.2,0.2-0.3c0-0.4-0.3-0.6-0.8-0.6c-0.3,0-0.6,0-1,0
			c-0.3,0-0.7-0.1-1.1-0.1c-0.3,0-0.5-0.1-0.9-0.3c-0.3-0.2-0.7-0.4-1.1-0.8c-0.4-0.4-0.8-1-1.3-1.7c-0.5-0.7-1-1.7-1.5-2.9
			c-0.5-1.2-1.1-2.6-1.8-4.2c-0.7-1.6-1.5-3.4-2.3-5.3c-0.8-1.9-1.7-3.8-2.5-5.8c-0.9-2-1.7-3.9-2.5-5.8c-0.8-1.9-1.5-3.6-2.2-5.2
			c-0.7-1.6-1.3-2.9-1.7-4c-0.5-1.1-0.8-1.9-1-2.3c-0.2-0.4-0.3-0.7-0.5-1c-0.1-0.3-0.3-0.4-0.5-0.5c-0.2-0.1-0.4-0.2-0.7-0.2
			c-0.3,0-0.5,0.2-0.8,0.5c-0.3,0.3-0.5,0.9-0.8,1.6l-14.4,33.3c-0.4,0.9-0.7,1.7-1.1,2.3c-0.4,0.7-0.9,1.2-1.4,1.6
			c-0.5,0.4-1.2,0.7-2,0.8c-0.3,0-0.5,0-0.8,0c-0.3,0-0.6,0-0.8,0c-0.2,0-0.4,0.1-0.5,0.2c-0.1,0.1-0.1,0.2-0.1,0.4
			c0,0.2,0.1,0.4,0.2,0.4c0.2,0.1,0.4,0.1,0.8,0.1c1,0,1.9,0,2.8-0.1c0.9,0,1.7-0.1,2.3-0.1c0.6,0,1.1-0.1,1.3-0.1
			c0.6,0,1.3,0,2,0.1c0.7,0,1.4,0.1,2.2,0.1c0.7,0,1.4,0.1,2,0.1c0.3,0,0.5,0,0.6-0.1c0.2-0.1,0.2-0.2,0.2-0.4c0-0.2,0-0.3-0.1-0.4
			c-0.1-0.1-0.3-0.2-0.7-0.2h-0.8c-0.8,0-1.4-0.1-1.7-0.4c-0.3-0.3-0.5-0.6-0.5-1.1c0-0.3,0.1-0.8,0.2-1.4c0.1-0.6,0.3-1.2,0.6-1.9
			l2.9-7.2c0.1-0.2,0.1-0.3,0.2-0.3c0.1-0.1,0.2-0.1,0.3-0.1H476.8z M432.3,100.3c0-1.9,0-3.5,0-4.8c0-1.3,0-2.5,0-3.4
			c0-0.9,0-1.7,0-2.3c0-0.6,0-1.1,0-1.6c0-0.4,0-0.8,0.1-1.2c0-1.1,0.2-1.9,0.6-2.5c0.3-0.6,0.9-0.9,1.7-1.1
			c0.4-0.1,0.8-0.1,1.2-0.1c0.4,0,0.8,0,1.2,0c0.4,0,0.7,0,0.8-0.1c0.2-0.1,0.3-0.2,0.3-0.4c0-0.2-0.1-0.4-0.3-0.4
			c-0.2-0.1-0.5-0.1-1-0.1c-0.6,0-1.3,0-2.2,0c-0.8,0-1.6,0-2.5,0.1c-0.8,0-1.6,0-2.3,0.1c-0.7,0-1.2,0-1.6,0c-0.4,0-1,0-1.6,0
			c-0.7,0-1.4,0-2.2-0.1c-0.8,0-1.6-0.1-2.4-0.1c-0.8,0-1.6,0-2.3,0c-0.5,0-0.8,0-1,0.1c-0.2,0.1-0.3,0.2-0.3,0.4
			c0,0.2,0.1,0.4,0.3,0.4c0.2,0.1,0.4,0.1,0.8,0.1c0.4,0,0.8,0,1.1,0c0.4,0,0.7,0.1,0.9,0.1c0.7,0.1,1.2,0.4,1.6,0.6
			c0.4,0.3,0.6,0.7,0.8,1.1c0.2,0.5,0.3,1.1,0.3,1.8c0,0.4,0,0.8,0.1,1.2c0,0.4,0,1,0,1.6c0,0.6,0,1.4,0,2.3c0,0.9,0,2,0,3.4
			c0,1.3,0,3,0,4.8v11c0,1.9,0,3.7,0,5.4c0,1.7,0,3.2-0.1,4.6c0,1.3-0.1,2.5-0.2,3.4c-0.1,0.6-0.2,1.2-0.3,1.6
			c-0.1,0.5-0.3,0.9-0.5,1.2c-0.2,0.3-0.6,0.5-1,0.6c-0.3,0.1-0.6,0.1-1,0.2c-0.4,0-0.8,0.1-1.3,0.1c-0.4,0-0.6,0-0.8,0.1
			c-0.1,0.1-0.2,0.2-0.2,0.4c0,0.2,0.1,0.4,0.3,0.5c0.2,0.1,0.5,0.1,0.9,0.1c0.6,0,1.3,0,2.1-0.1c0.8,0,1.5-0.1,2.2-0.1
			c0.8,0,1.5-0.1,2.1-0.1c0.6,0,1.1,0,1.5,0c0.9,0,1.7,0,2.5,0c0.8,0,1.6,0,2.5,0.1c0.8,0,1.7,0.1,2.7,0.1c1.4,0,2.9,0.1,4.7,0.1
			c1.7,0,3.7,0.1,5.9,0.1c0.8,0,1.5,0,1.9-0.1c0.5,0,0.9-0.1,1.1-0.3c0.3-0.1,0.5-0.3,0.6-0.5c0.1-0.2,0.2-0.5,0.3-0.8
			c0.1-0.4,0.2-0.8,0.3-1.4c0.1-0.6,0.2-1.1,0.3-1.7c0.1-0.6,0.2-1.2,0.2-1.8c0.1-0.6,0.1-1.1,0.1-1.5c0-0.4,0.1-0.7,0.1-0.8
			c0-0.4,0-0.6-0.1-0.8c-0.1-0.2-0.2-0.3-0.4-0.3c-0.2,0-0.4,0.1-0.5,0.3c-0.1,0.2-0.2,0.4-0.2,0.7c0,0.4-0.1,0.8-0.3,1.3
			c-0.2,0.5-0.4,0.9-0.6,1.4c-0.2,0.4-0.5,0.8-0.7,1.1c-0.5,0.6-1.1,1-1.9,1.2c-0.7,0.3-1.5,0.4-2.4,0.5c-0.9,0.1-1.9,0.1-3,0.1
			c-1.6,0-2.9-0.1-3.9-0.1c-1-0.1-1.8-0.3-2.3-0.5c-0.6-0.2-1-0.5-1.4-0.8c-0.4-0.4-0.7-1.1-0.9-2.2c-0.2-1.1-0.3-2.6-0.3-4.4
			c0-1.9-0.1-4.1-0.1-6.8V100.3z"/>
	</g>
</g>
</svg>
