<?xml version="1.0" encoding="utf-8"?>
<!-- Generator: Adobe Illustrator 23.1.1, SVG Export Plug-In . SVG Version: 6.00 Build 0)  -->
<svg version="1.1" id="Layer_1" xmlns="http://www.w3.org/2000/svg" xmlns:xlink="http://www.w3.org/1999/xlink" x="0px" y="0px"
	 viewBox="0 0 601.6 192.7" style="enable-background:new 0 0 601.6 192.7;" xml:space="preserve">
<style type="text/css">
	.st0{fill:#FFFFFF;}
</style>
<g>
	<path class="st0" d="M169,91.1c-1.6-6.1-5.7-9.7-11.1-11.5c0,0-16.1-6.8-47.8,5.2c-1,0.4-1.8,0.7-2.8,1.1l0,0
		c-5.2,2.2-8.2,3.9-8.2,3.9c1-6.1,5.4-36.7-10.1-47.9c-10-7.3-24.7-4.7-33.6,3.2c-5.7,5-9.8,12.3-12.5,19.9
		c-7.3,20.5-3.1,44.9,9.3,60.8c-1.1-3.3-3.8-12.7-3.9-13c-2.7-11.5-4.8-28.7,0.9-43.2c0.9-2.4,2.3-4.9,3.9-7.5
		c4-6.4,10.2-13.9,18.2-14.4c1.4-0.1,3.1,0,4.7,0.4c4.1,1,8.9,3.6,11.8,10.8c4.8,12.2,1.7,31.6-2,44.4c0,0,33.7-19.6,60-18.4
		c6.9,0.3,15.8,1.7,18.6,9c0.5,1.4,0.8,3,0.6,4.6c-0.5,6.7-5,12.7-9.7,17.3c-1.3,1.4-3,3.1-4.7,4.2c-0.4,0.3-0.6,0.5-1,0.9
		c-1.5,1.3-3.3,2.5-5,3.7c-21.6,13.5-48.8,22.1-75.2,24.5c-6.2,0.5-12.5,1-18.8,0.7c-1.7-0.1-3.6-0.2-5.3-0.4
		c-2.9-0.4-5.7-0.9-8.4-1.6c-6.2-1.5-11-3.9-11-3.9l2.2,4.1c4.1,2.2,6.5,3.1,10.9,4.2c3.7,1,7.4,1.6,11.3,2.2
		c2.6,0.3,5.2,0.4,7.9,0.4c4.4-0.1,8.8-0.3,13.2-0.6c4.8-0.4,9.8-1,14.5-1.7c5.5-0.9,10.9-2.1,16.3-3.4c5.9-1.4,11.7-3.4,17.3-5.5
		c6-2.3,11.8-5,17.4-8.1c0.6-0.4,1.3-0.7,2.1-1.1C152.9,126.6,173.9,109,169,91.1z"/>
	<g>
		<path class="st0" d="M225.4,92.1c0.2,0,0.4-0.1,0.4-0.4v-1.3c0-9.3,0-11.1-0.1-13c-0.1-2-0.6-3.1-2.7-3.5
			c-0.5-0.1-1.5-0.2-2.4-0.2c-0.7,0-1-0.1-1-0.5s0.4-0.5,1.3-0.5c3.3,0,7.2,0.2,8.9,0.2c1.4,0,5.3-0.2,7.8-0.2
			c0.8,0,1.3,0.1,1.3,0.5s-0.4,0.5-1.1,0.5c-0.5,0-1,0.1-1.7,0.2c-1.6,0.3-2.2,1.3-2.3,3.5c-0.1,1.9-0.1,3.7-0.1,13v10.9
			c0,5.6,0,10.5,0.3,13.2c0.2,1.7,0.5,3.1,2.4,3.3c0.8,0.1,2.3,0.2,3.2,0.2c0.7,0,1,0.2,1,0.5c0,0.4-0.5,0.6-1.2,0.6
			c-4,0-7.9-0.2-9.6-0.2c-1.4,0-5.3,0.2-7.7,0.2c-0.8,0-1.3-0.2-1.3-0.6c0-0.3,0.2-0.5,1-0.5c0.9,0,1.6-0.1,2.3-0.2
			c1.2-0.2,1.5-1.6,1.7-3.4c0.3-2.6,0.3-7.5,0.3-13.1v-5.4c0-0.2-0.2-0.4-0.4-0.4h-23.6c-0.2,0-0.4,0.1-0.4,0.4v5.4
			c0,5.6,0,10.5,0.3,13.2c0.2,1.7,0.5,3.1,2.4,3.3c0.8,0.1,2.3,0.2,3.2,0.2c0.7,0,1,0.2,1,0.5c0,0.4-0.5,0.6-1.2,0.6
			c-4,0-7.9-0.2-9.6-0.2c-1.4,0-5.3,0.2-7.8,0.2c-0.8,0-1.2-0.2-1.2-0.6c0-0.3,0.2-0.5,1-0.5c0.9,0,1.6-0.1,2.3-0.2
			c1.2-0.2,1.5-1.6,1.7-3.4c0.3-2.6,0.3-7.5,0.3-13.1V90.4c0-9.3,0-11.1-0.1-13c-0.1-2-0.6-3.1-2.7-3.5c-0.5-0.1-1.5-0.2-2.4-0.2
			c-0.7,0-1-0.1-1-0.5s0.4-0.5,1.3-0.5c3.3,0,7.2,0.2,8.9,0.2c1.4,0,5.3-0.2,7.8-0.2c0.8,0,1.3,0.1,1.3,0.5s-0.4,0.5-1.1,0.5
			c-0.5,0-1,0.1-1.7,0.2c-1.6,0.3-2.2,1.3-2.3,3.5c-0.1,1.9-0.1,3.7-0.1,13v1.3c0,0.3,0.2,0.4,0.4,0.4
			C202.5,92.1,225.4,92.1,225.4,92.1z"/>
		<path class="st0" d="M251.2,94.7c0-8,0-9.4-0.1-11.1s-0.6-2.4-2.4-2.9c-0.4-0.1-1.3-0.2-2.2-0.2c-0.5,0-0.9-0.2-0.9-0.5
			c0-0.4,0.4-0.5,1.2-0.5c2.9,0,6.2,0.1,7.8,0.1c1.7,0,13.7,0.1,14.7,0s1.8-0.2,2.3-0.3c0.3-0.1,0.6-0.2,0.8-0.2
			c0.3,0,0.4,0.2,0.4,0.5c0,0.4-0.3,1-0.4,3.4c-0.1,0.5-0.2,2.9-0.3,3.5c-0.1,0.2-0.2,0.8-0.6,0.8s-0.4-0.2-0.4-0.7
			c0-0.4-0.1-1.3-0.4-1.9c-0.4-0.9-0.8-1.6-3.6-1.9c-0.9-0.1-7.4-0.2-8.5-0.2c-0.2,0-0.4,0.2-0.4,0.5v12.9c0,0.3,0.1,0.5,0.4,0.5
			c1.2,0,8.3,0,9.5-0.1c1.3-0.1,2-0.3,2.6-0.8c0.4-0.4,0.6-0.7,0.8-0.7c0.2,0,0.4,0.2,0.4,0.5s-0.1,1.1-0.4,3.8
			c-0.1,1-0.2,3.2-0.2,3.5c0,0.4-0.1,1.1-0.5,1.1s-0.4-0.3-0.4-0.5c-0.1-0.5-0.1-1.2-0.2-1.9c-0.3-1-1-1.8-3-2
			c-1-0.1-7.2-0.2-8.5-0.2c-0.2,0-0.3,0.2-0.3,0.5v4.2c0,1.7-0.1,6.2,0,7.8c0.1,3.6,1.7,4.4,7.3,4.4c1.4,0,3.7-0.1,5.1-0.7
			c1.3-0.6,1.9-1.7,2.4-3.9c0.1-0.5,0.2-0.8,0.6-0.8s0.5,0.7,0.5,1.2c0,1.1-0.4,4.7-0.7,5.7c-0.4,1.3-0.8,1.3-2.9,1.3
			c-4.1,0-7.3-0.1-9.9-0.2s-4.7-0.1-6.2-0.1c-0.6,0-1.7,0.1-3.1,0.1c-1.3,0.1-2.7,0.1-3.8,0.1c-0.7,0-1-0.2-1-0.5
			c0-0.2,0.2-0.5,0.8-0.5c0.8,0,1.4-0.1,1.9-0.2c1.1-0.2,1.4-1.2,1.6-2.8c0.2-2.3,0.2-6.4,0.2-11.2L251.2,94.7L251.2,94.7z"/>
		<path class="st0" d="M289,105.9c-0.3,0-0.4,0.1-0.5,0.4l-2.9,7.1c-0.5,1.3-0.8,2.6-0.8,3.2c0,0.9,0.5,1.4,2.2,1.4h0.8
			c0.7,0,0.8,0.2,0.8,0.5c0,0.4-0.3,0.5-0.8,0.5c-1.7,0-4.3-0.2-6-0.2c-0.5,0-3.5,0.2-6.2,0.2c-0.7,0-1-0.1-1-0.5
			c0-0.3,0.2-0.5,0.6-0.5c0.5,0,1.1-0.1,1.6-0.1c2.5-0.4,3.4-1.9,4.5-4.6l14.1-32.7c0.6-1.4,1-2,1.6-2c0.8,0,1,0.5,1.6,1.6
			c1.3,2.9,10.3,24.1,13.8,32c2,4.7,3.6,5.4,4.6,5.6c0.8,0.1,1.4,0.2,2,0.2c0.5,0,0.7,0.2,0.7,0.5c0,0.4-0.3,0.5-2.4,0.5
			c-1.9,0-5.8,0-10.4-0.1c-1-0.1-1.6-0.1-1.6-0.4s0.1-0.5,0.7-0.5c0.4-0.1,0.7-0.5,0.5-1.1l-4.1-10.6c-0.1-0.3-0.3-0.4-0.5-0.4H289z
			 M300.6,103c0.2,0,0.3-0.1,0.2-0.3l-5.1-13.1c-0.1-0.2-0.1-0.5-0.2-0.5c-0.2,0-0.2,0.3-0.3,0.5l-5.2,13c-0.1,0.2,0,0.4,0.2,0.4
			C290.1,103,300.6,103,300.6,103z"/>
		<path class="st0" d="M325.6,94.7c0-8,0-9.4-0.1-11.1s-0.6-2.4-2.4-2.9c-0.4-0.1-1.3-0.2-2.2-0.2c-0.5,0-0.9-0.2-0.9-0.5
			c0-0.4,0.4-0.5,1.2-0.5c2.9,0,6.2,0.1,7.4,0.1c1.8,0,6.8-0.1,8.4-0.1c3.5,0,7.4,0.3,10.2,2.3c1.5,1,3.8,3.7,3.8,7.2
			c0,3.9-2.3,7.3-7.5,11.6c4.8,5.9,8.6,10.7,11.9,13.9c3,3,4.9,3.3,5.7,3.5c0.5,0.1,0.8,0.1,1.3,0.1c0.4,0,0.7,0.3,0.7,0.5
			c0,0.4-0.4,0.5-1,0.5H357c-3,0-4.5-0.3-5.9-1c-2.4-1.1-4.4-3.6-7.4-7.7c-2.2-2.9-4.4-6.4-5.1-7.2c-0.3-0.3-0.6-0.4-1-0.4l-4.8-0.1
			c-0.2,0-0.4,0.1-0.4,0.4v0.7c0,4.8,0.1,8.9,0.3,11.2c0.2,1.5,0.4,2.6,2,2.8c0.8,0.1,1.9,0.2,2.7,0.2c0.4,0,0.7,0.3,0.7,0.5
			c0,0.4-0.4,0.5-1.1,0.5c-3.2,0-7.6-0.2-8.4-0.2c-1,0-4.5,0.2-6.7,0.2c-0.7,0-1-0.2-1-0.5c0-0.2,0.2-0.5,0.8-0.5
			c0.8,0,1.4-0.1,1.9-0.2c1.1-0.2,1.4-1.2,1.6-2.8c0.2-2.3,0.2-6.4,0.2-11.2L325.6,94.7L325.6,94.7z M332.4,98.7
			c0,0.5,0.1,0.7,0.5,0.9c1.1,0.4,2.8,0.5,4.1,0.5c2.2,0,2.9-0.2,3.8-0.8c1.6-1.1,3.5-3.5,3.5-7.8c0-7.4-5-9.3-8.3-9.3
			c-1.3,0-2.7,0.1-3.2,0.2c-0.4,0.1-0.5,0.3-0.5,0.7v15.6L332.4,98.7L332.4,98.7z"/>
		<path class="st0" d="M372.6,82.7l-8.1,0.2c-3.2,0.1-4.4,0.4-5.2,1.6c-0.5,0.7-0.8,1.4-0.9,1.7c-0.1,0.4-0.2,0.7-0.6,0.7
			s-0.5-0.3-0.5-0.8c0-0.8,1-5.9,1.1-6.4c0.1-0.7,0.3-1,0.6-1c0.4,0,1,0.4,2.4,0.6c1.6,0.2,3.6,0.2,5.4,0.2h21.9
			c1.7,0,2.9-0.1,3.7-0.2c0.8-0.1,1.3-0.2,1.4-0.2c0.4,0,0.4,0.3,0.4,1.1c0,1.1-0.1,5-0.1,6.4c-0.1,0.5-0.2,0.8-0.5,0.8
			c-0.4,0-0.5-0.2-0.6-1l-0.1-0.5c-0.1-1.3-1.5-3-6.4-3l-6.9-0.1V104c0,4.8,0.1,8.9,0.3,11.2c0.2,1.4,0.5,2.5,2,2.7
			c0.7,0.1,1.9,0.2,2.8,0.2c0.6,0,0.8,0.3,0.8,0.5c0,0.4-0.4,0.5-1,0.5c-3.6,0-7.2-0.2-8.7-0.2c-1.2,0-4.9,0.2-7.1,0.2
			c-0.7,0-1-0.2-1-0.5c0-0.2,0.2-0.5,0.8-0.5c0.8,0,1.4-0.1,1.9-0.2c1.1-0.2,1.4-1.2,1.6-2.8c0.2-2.3,0.2-6.4,0.2-11.2V82.7H372.6z"
			/>
		<path class="st0" d="M411.6,103.9c0,6.7,0,10,1.1,11.1c0.9,0.8,3,1.1,7.2,1.1c2.9,0,5-0.1,6.4-1.4c0.7-0.7,1.2-2.2,1.3-3.2
			c0.1-0.5,0.2-0.8,0.6-0.8s0.5,0.5,0.5,1.1s-0.4,4.5-0.8,6c-0.4,1.1-0.6,1.4-3.5,1.4c-3.9,0-7-0.1-9.7-0.2s-5-0.1-7.2-0.1
			c-0.6,0-1.7,0.1-3.1,0.1c-1.3,0.1-2.7,0.1-3.8,0.1c-0.7,0-1-0.2-1-0.5c0-0.2,0.2-0.5,0.8-0.5c0.8,0,1.4-0.1,1.9-0.2
			c1.1-0.2,1.4-1.2,1.6-2.8c0.2-2.3,0.2-6.4,0.2-11.2v-9.2c0-8,0-9.4-0.1-11.1s-0.6-2.4-2.4-2.9c-0.4-0.1-1.1-0.2-1.7-0.2
			s-0.9-0.2-0.9-0.5c0-0.4,0.4-0.5,1.1-0.5c2.6,0,5.9,0.1,7.5,0.1c1.3,0,5.7-0.1,7.8-0.1c0.8,0,1.1,0.1,1.1,0.5s-0.3,0.5-1,0.5
			c-0.6,0-1.4,0.1-2,0.2c-1.4,0.2-1.9,1-2,2.9c-0.1,1.6-0.1,3.2-0.1,11.1v9.1L411.6,103.9L411.6,103.9z"/>
		<path class="st0" d="M441.9,105.9c-0.3,0-0.4,0.1-0.5,0.4l-2.9,7.1c-0.5,1.3-0.8,2.6-0.8,3.2c0,0.9,0.5,1.4,2.2,1.4h0.8
			c0.7,0,0.8,0.2,0.8,0.5c0,0.4-0.3,0.5-0.8,0.5c-1.7,0-4.3-0.2-6-0.2c-0.5,0-3.5,0.2-6.2,0.2c-0.7,0-1-0.1-1-0.5
			c0-0.3,0.2-0.5,0.6-0.5c0.5,0,1.1-0.1,1.6-0.1c2.5-0.4,3.4-1.9,4.5-4.6l14.1-32.7c0.6-1.4,1-2,1.6-2c0.8,0,1,0.5,1.6,1.6
			c1.3,2.9,10.3,24.1,13.8,32c2,4.7,3.6,5.4,4.6,5.6c0.8,0.1,1.4,0.2,2,0.2c0.5,0,0.7,0.2,0.7,0.5c0,0.4-0.3,0.5-2.4,0.5
			c-1.9,0-5.8,0-10.4-0.1c-1-0.1-1.6-0.1-1.6-0.4s0.1-0.5,0.7-0.5c0.4-0.1,0.7-0.5,0.5-1.1l-4.4-10.5c-0.1-0.3-0.3-0.4-0.5-0.4
			L441.9,105.9L441.9,105.9z M453.5,103c0.2,0,0.3-0.1,0.2-0.3l-5.1-13.1c-0.1-0.2-0.1-0.5-0.2-0.5c-0.2,0-0.2,0.3-0.3,0.5l-5.2,13
			c-0.1,0.2,0,0.4,0.2,0.4H453.5z"/>
		<path class="st0" d="M481.9,112c0.1,4.1,0.8,5.3,1.8,5.6c0.9,0.3,1.9,0.4,2.9,0.4c0.6,0,0.9,0.2,0.9,0.5c0,0.4-0.5,0.5-1.2,0.5
			c-3.5,0-6-0.2-7-0.2c-0.5,0-3.1,0.2-5.8,0.2c-0.7,0-1.2-0.1-1.2-0.5c0-0.3,0.4-0.5,0.8-0.5c0.7,0,1.7-0.1,2.5-0.2
			c1.4-0.4,1.6-1.7,1.6-6.4l0.5-31c0-1,0.4-1.7,0.9-1.7c0.7,0,1.4,0.8,2.4,1.7c0.7,0.7,8.8,9,16.7,16.7c3.7,3.6,10.9,11.1,11.7,11.8
			h0.2l-0.5-23.3c-0.1-3.2-0.5-4.1-1.8-4.6c-0.8-0.3-2-0.3-2.9-0.3c-0.7,0-0.8-0.2-0.8-0.5c0-0.4,0.5-0.5,1.3-0.5
			c2.9,0,5.7,0.1,6.9,0.1c0.6,0,2.7-0.1,5.3-0.1c0.7,0,1.2,0.1,1.2,0.5c0,0.3-0.3,0.5-0.9,0.5c-0.5,0-1,0-1.6,0.2
			c-1.4,0.4-1.9,1.3-1.9,4.3l-0.6,33c0,1.1-0.4,1.6-0.8,1.6c-0.9,0-1.6-0.5-2.3-1.1c-3.4-3.2-10.1-9.6-15.8-15.1
			c-5.9-5.6-11.7-12-12.7-12.9h-0.3L481.9,112z"/>
		<path class="st0" d="M531.5,90.4c0-9.3,0-11.1-0.1-13c-0.1-2-0.6-3.1-2.7-3.5c-0.5-0.1-1.5-0.2-2.4-0.2c-0.7,0-1-0.1-1-0.5
			s0.4-0.5,1.3-0.5c3.3,0,7.2,0.2,8.9,0.2c1.9,0,5.7-0.2,9.5-0.2c7.7,0,17.9,0,24.7,7c3.1,3.2,5.9,8.3,5.9,15.7
			c0,7.8-3.3,13.6-6.7,17.2c-2.9,2.9-9.2,7.3-20.6,7.3c-2.3,0-4.7-0.2-7.1-0.4c-2.4-0.2-4.5-0.4-6-0.4c-0.7,0-2,0-3.5,0.1
			c-1.4,0-3,0.1-4.2,0.1c-0.8,0-1.2-0.2-1.2-0.6c0-0.3,0.2-0.5,1-0.5c0.9,0,1.6-0.1,2.3-0.2c1.2-0.2,1.5-1.6,1.7-3.4
			c0.3-2.6,0.3-7.5,0.3-13.1v-11h-0.1V90.4z M539.1,97.1c0,6.6,0.1,11.3,0.1,12.4c0.1,1.5,0.2,4,0.7,4.7c0.8,1.1,3.2,2.5,8.1,2.5
			c6.2,0,10.4-1.2,14.1-4.4c3.9-3.4,5.1-9,5.1-15.4c0-7.8-3.3-12.9-5.9-15.4c-5.6-5.4-12.7-6.1-17.5-6.1c-1.2,0-3.5,0.2-4,0.4
			c-0.5,0.2-0.7,0.5-0.7,1.2c-0.1,2-0.1,7.5-0.1,12.3v7.8H539.1z"/>
	</g>
</g>
</svg>
