<?xml version="1.0" encoding="utf-8"?>
<!-- Generator: Adobe Illustrator 23.1.1, SVG Export Plug-In . SVG Version: 6.00 Build 0)  -->
<svg version="1.1" id="Layer_1" xmlns="http://www.w3.org/2000/svg" xmlns:xlink="http://www.w3.org/1999/xlink" x="0px" y="0px"
	 viewBox="0 0 568.4 213.4" style="enable-background:new 0 0 568.4 213.4;" xml:space="preserve">
<style type="text/css">
	.st0{fill:#FFFFFF;}
	.st1{fill-rule:evenodd;clip-rule:evenodd;fill:#FFFFFF;}
</style>
<g>
	<g>
		<path class="st0" d="M222.5,84.9h1c13.6,23.4,15.1,26.1,16.8,29.4h0.1c1.6-3.3,3.1-6,17-29.4h1l3.2,24.1
			c2.1,16.3,2.5,18.9,2.6,19.2v0.1h-4h-4.4v-0.1c-0.1-0.3-0.4-3.3-1.6-13.1c-0.4-3.8-0.8-7.1-0.9-10.4h-0.1c-1.7,3.8-3,6.2-4.7,9.3
			c-1.7,2.9-4.4,7.6-8,13.6h-1c-3.7-6.1-6.5-10.8-8.1-13.8c-1.6-3-3.1-5.9-4.5-9.2h-0.1c-0.2,3.4-0.6,6.8-1,10.5
			c-1.1,9.8-1.4,12.7-1.5,13.1v0.1h-4.2h-3.8v-0.1c0.1-0.4,0.4-2.9,2.8-19.2L222.5,84.9z"/>
		<path class="st0" d="M312.3,106.5c0,12.5-9.4,22.4-22.4,22.4c-12.6,0-22.2-9.8-22.2-22.1c0-12.5,9.8-22.2,22.8-22.2
			C303.1,84.7,312.3,94.2,312.3,106.5L312.3,106.5z M303.8,106.7c0-8.1-5.8-14.4-13.7-14.4c-8.1,0-14,6.3-14,14.6
			c0,8.1,5.8,14.6,14,14.6C298.3,121.4,303.8,114.9,303.8,106.7L303.8,106.7z"/>
		<path class="st0" d="M354.1,128.8h-1c-9.8-9.5-15.5-15.3-19.2-19.1c-2.7-2.7-4.6-4.5-7.7-7.9H326c0.1,2.2,0.1,3.9,0.1,8.2v18.2
			v0.1h-4h-3.6v-0.1V109V84.8h1c10.1,10,16,15.8,19.7,19.6c2.4,2.4,4.6,4.6,7.2,7.5h0.1c-0.1-2.6-0.1-4.3-0.1-9.3V85.4v-0.1h4.1h3.6
			v0.1v18.1V128.8z"/>
		<path class="st0" d="M369.8,119.8c-2.3,5.5-3.3,8-3.4,8.3v0.2h-4.1h-4.4v-0.2c0.2-0.3,1.3-2.8,8.4-19.2l10.5-24.4h1.2l10.4,24.4
			c6.9,16.4,8,18.8,8.1,19.2v0.2h-4.3h-4.9v-0.2c-0.1-0.3-1.1-2.8-3.3-8.3H369.8z M381.5,113.2V113c-3.1-8.2-4-10.5-4.5-12.2h-0.1
			c-0.5,1.7-1.3,4.1-4.6,12.2v0.2H381.5z"/>
		<path class="st0" d="M400.6,103.5V85.5v-0.1c0.8-0.1,2.1-0.2,3.4-0.2c1.2-0.1,3.5-0.1,4.7-0.1c3.2,0,6,0.3,8.4,1
			c3.2,0.9,8.2,4,8.2,11.5c0,5.2-2.8,8.5-4.6,9.9c-1,0.8-2.3,1.5-3.2,1.9v0.1c0.4,0.6,1,1.5,10,14.1c1.2,1.7,3,4.1,3.3,4.5v0.1h-4.6
			h-3.3h-1.5c-3.1-4.7-6.9-10.4-11.5-17.2h-1.3v2.2v14.9v0.1h-3.9h-4v-0.1V109V103.5z M417.2,98.3c0-4-2.7-6.3-6.7-6.3
			c-0.9,0-1.6,0.1-2.1,0.1v13c0.4,0.1,0.9,0.1,1.5,0.1c1.5,0,3-0.4,4.1-1C415.5,103.3,417.2,101.5,417.2,98.3L417.2,98.3z"/>
		<path class="st0" d="M431,106.6c0-12.7,9.4-21.9,24.8-21.9c1.7,0,2.8,0.1,3.9,0.2c1.2,0.1,2.6,0.3,3.5,0.6
			c-0.1,2.3-0.2,4.4-0.3,7.4h-0.2c-0.7-0.2-1.4-0.3-2.3-0.4c-1.2-0.2-2.8-0.4-4.4-0.4c-9.9,0-16.1,5.7-16.1,14.6
			c0,8.9,6.1,14.8,15.2,14.8c1.9,0,3.5-0.1,5.1-0.3c0.8-0.2,1.6-0.3,2.5-0.6h0.1c0.1,1.5,0.2,5.7,0.3,7.3c-0.9,0.2-2.4,0.6-3.6,0.7
			c-2,0.3-3.4,0.4-5.2,0.4C441.2,128.9,431,120.5,431,106.6L431,106.6z"/>
		<path class="st0" d="M504.7,109v19.2v0.1h-4h-4.2v-0.1v-16.6V110h-18.3v1.5v16.6v0.1h-4h-4.2v-0.1V109v-5.5V85.4v-0.1h4.2h4.1v0.1
			v16.2v1.4h18.3v-1.4V85.4v-0.1h4.3h3.9v0.1v18.1V109z"/>
	</g>
	<g>
		<path class="st1" d="M161.4,63.7c-6.7,3.2-11.9,8.1-15.8,14.4c-3.1,5.1-5.3,10.6-6.2,16.5c-0.5,3-0.6,6.1-0.9,9.2
			c-0.1,0.8,0.2,1,0.9,0.8c1.3-0.3,2.5-0.5,3.8-0.8c4.6-0.9,9-2.6,13.2-4.8c5.6-3,10.3-7,14.2-11.9c5.1-6.4,8.3-13.7,10-21.7
			c0.3-1.4,0.6-2.8,0.9-4.2c0.2-1,0-1.2-1-1.2c-0.9,0-1.8,0-2.7,0c0-0.1-5.3,0.5-7.9,0.9C166.9,61.4,164.1,62.4,161.4,63.7z"/>
		<path class="st1" d="M109.1,45.1c0.3-0.7,0.7-1.1,1.4-1.2c1.7-0.2,3.2,0.4,4.6,1.3c5.5,3.5,9.8,8.1,12.3,14.1
			c1.4,3.3,2.4,6.7,2.8,10.2c0.1,0.7,0.3,1.4,0.4,2.1c0,0,0.1,0,0.1,0c0.2-1.2,0.4-2.5,0.6-3.7c0.9-4.7,2.2-9.3,5-13.2
			c2.9-4,6.2-7.7,10.7-9.9c0.9-0.4,1.9-0.7,2.8-0.9c1.5-0.2,2.4,0.3,2.6,1.8c0.5,3.1-1.7,6.5-5.2,6.2c-0.5,0-1-0.1-1.4-0.4
			c-0.6-0.4-1.1-0.2-1.6,0.1c-3.3,2-5.9,4.7-8,7.9c-2.2,3.5-3.6,7.4-4.5,11.4c-0.5,2.4-0.7,5-1,7.4c0,0.2-0.1,0.4-0.3,0.6
			c-0.1-0.5-0.2-1-0.2-1.4c-0.1-2.8-0.6-5.6-1.3-8.3c-1.9-7.2-5.3-13.4-11.8-17.5c-0.6-0.4-1.1-0.6-1.9-0.3
			c-2.8,1.1-5.4-0.4-6.3-3.3C108.8,47.3,108.7,46.2,109.1,45.1z"/>
		<path class="st1" d="M80.8,64.6c0.6,3.4,1.6,6.6,2.9,9.8c3.1,7.6,7.6,14.1,13.9,19.4c3.9,3.3,8.2,5.8,12.9,7.6
			c3.7,1.5,7.6,2.3,11.6,3c0.7,0.1,1-0.1,0.9-0.8c-0.1-1.5-0.1-3-0.3-4.5c-0.4-2.8-0.7-5.5-1.3-8.2c-1-3.9-2.5-7.7-4.5-11.2
			c-2.9-5.2-6.7-9.6-11.6-13c-6.5-4.5-13.8-6.7-21.6-6.8c-1,0-2.1,0-3.1,0c-0.6,0-0.7,0.3-0.6,0.8C80.2,62.1,80.5,63.3,80.8,64.6z"
			/>
		<path class="st1" d="M190.6,72.5c-1.4,3.1-3.1,6.2-4.9,9.1c-3.7,5.8-8.2,11-13.5,15.4c-4.6,3.8-9.6,6.9-15.1,9.3
			c-3.5,1.5-7,2.8-10.7,3.6c-2.4,0.5-4.8,1-7.4,1.5c0.5,2.1,0.9,4.4,1.6,6.5c1.2,3.9,2.9,7.6,5.2,11c3.6,5.2,8.1,9.3,13.7,12.3
			c2.2,1.1,4.5,2,6.7,2.9c0.2,0.1,0.7-0.2,0.8-0.4c0.8-1.9,1.6-3.8,2.2-5.7c0.7-2.2,0.9-4.5,0.7-6.8c-1-8.5-5.5-13.3-8-15.4
			c-2.3-1.9-4.9-3.2-7.9-4.2c-0.9-0.3-1.8-0.4-2.7-0.6c-0.2,0-0.3-0.1-0.5-0.2c0-0.1,0-0.2,0-0.3c1-0.2,2.1-0.5,3.1-0.6
			c2-0.1,4.1-0.1,6.1,0.1c3.1,0.4,5.8,1.7,8.3,3.6c3.9,3.1,6.4,7.1,8.2,11.7c2.3,5.9,3,12.1,2.5,18.4c-0.2,2.2-0.5,4.4-1.1,6.5
			c12.2-12.1,19.8-29,19.8-47.6C197.7,91.7,195.2,81.5,190.6,72.5z"/>
		<path class="st1" d="M155,151.1c-6.4-5.3-11.7-11.7-15.6-19.1c-2.1-3.9-3.9-7.9-5.3-12.1c-0.7-2.3-1.3-4.6-1.8-6.9
			c-0.3-1.3-1-1.8-2.3-1.4c-0.2,0.1-0.4,0.3-0.4,0.5c-0.4,1.6-0.8,3.3-1.3,4.9c-0.7,2.2-1.4,4.5-2.2,6.6c-1.8,4.5-3.9,8.8-6.5,12.8
			c-4,6.2-8.9,11.5-14.8,16c-3.2,2.5-6.6,4.6-10.2,6.4c10.4,6.7,22.9,10.6,36.2,10.6c13.3,0,25.7-3.9,36.2-10.6
			C162.7,156.8,158.7,154.2,155,151.1z"/>
		<path class="st1" d="M82.9,146.3c-0.7-2.6-0.5-5.2-0.5-7.8c0-4,0.8-7.8,2-11.5c1-3.1,2.3-5.9,4.2-8.5c2.7-3.8,6.1-6.7,10.7-8
			c3.7-1.1,7.4-0.9,11.1-0.1c0.1,0,0.1,0.1,0.2,0.2c-0.2,0.1-0.4,0.2-0.5,0.3c-3.7,0.6-7.1,2.1-10.1,4.4c-3.4,2.6-5.9,5.9-7.3,9.9
			c-1.4,3.7-1.4,7.5-0.8,11.3c0.4,2.5,1.3,4.9,2.5,7.1c0.2,0.4,0.4,0.6,0.9,0.4c4.1-1.4,8-3.4,11.5-6c4.7-3.5,8.4-7.9,11.1-13.1
			c1.8-3.5,3-7.1,3.9-10.9c0.2-0.9,0.3-1.8,0.5-2.8c-1.2-0.2-2.4-0.4-3.6-0.6c-4-0.7-7.9-1.8-11.6-3.2c-4.1-1.5-7.9-3.5-11.6-5.8
			c-5.1-3.2-9.5-7.2-13.5-11.7c-4-4.5-7.4-9.5-10-14.9c-0.4-0.8-0.8-1.7-1.2-2.5c-4.6,9-7.1,19.3-7.1,30.1c0,18.7,7.7,35.6,20,47.8
			C83.5,149,83.3,147.6,82.9,146.3z"/>
	</g>
</g>
</svg>
