<?xml version="1.0" encoding="utf-8"?>
<!-- Generator: Adobe Illustrator 23.1.1, SVG Export Plug-In . SVG Version: 6.00 Build 0)  -->
<svg version="1.1" id="Layer_1" xmlns="http://www.w3.org/2000/svg" xmlns:xlink="http://www.w3.org/1999/xlink" x="0px" y="0px"
	 viewBox="0 0 490 204" style="enable-background:new 0 0 490 204;" xml:space="preserve">
<style type="text/css">
	.st0{fill:#FFFFFF;}
</style>
<g>
	<path class="st0" d="M134.9,107.5c-0.1-1.2-0.1-2.2-0.2-3c0-0.8-0.1-1.6-0.1-2.2c0-0.6,0-1.2-0.1-1.6c0-0.4,0-0.9,0-1.2V79.7
		l11.2-1.2v46.8h-9.4l-16.4-21.2l0.2,8.6v20.6l-11.2,5.5V86h9.4L134.9,107.5z"/>
	<path class="st0" d="M193.1,105.6c0,3.3-0.5,6.2-1.6,8.8c-1.1,2.5-2.6,4.7-4.5,6.5c-1.9,1.8-4.2,3.1-6.9,4
		c-2.7,0.9-5.6,1.4-8.9,1.4c-3.2,0-6.2-0.5-8.9-1.4c-2.7-0.9-5-2.3-6.9-4c-1.9-1.8-3.4-3.9-4.5-6.5c-1.1-2.5-1.6-5.5-1.6-8.8
		c0-3.2,0.5-6.1,1.6-8.7c1.1-2.5,2.6-4.7,4.5-6.5c1.9-1.8,4.2-3.1,6.9-4.1c2.7-0.9,5.6-1.4,8.9-1.4c3.2,0,6.2,0.5,8.9,1.4
		c2.7,0.9,5,2.3,6.9,4c1.9,1.8,3.4,3.9,4.5,6.5C192.6,99.5,193.1,102.4,193.1,105.6z M182,105.6c0-3.4-1-6.1-2.9-8.1
		c-1.9-2-4.5-3-7.8-3c-1.6,0-3,0.3-4.4,0.8c-1.3,0.5-2.5,1.3-3.4,2.3c-0.9,1-1.7,2.2-2.2,3.5c-0.5,1.4-0.8,2.9-0.8,4.5
		c0,1.7,0.3,3.2,0.8,4.5c0.5,1.4,1.3,2.5,2.2,3.5c1,1,2.1,1.7,3.4,2.3c1.3,0.5,2.8,0.8,4.3,0.8c1.6,0,3.1-0.3,4.4-0.8
		c1.3-0.5,2.5-1.3,3.4-2.3c0.9-1,1.7-2.2,2.2-3.5C181.7,108.8,182,107.3,182,105.6z"/>
	<path class="st0" d="M233.8,125.3h-12.3l-9.2-12.8h-3.9v12.8h-11.1V86h19.2c2.5,0,4.7,0.4,6.6,1.1c1.9,0.7,3.5,1.7,4.8,3
		c1.3,1.3,2.2,2.7,2.9,4.3c0.7,1.6,1,3.3,1,5.1c0,1.2-0.1,2.4-0.4,3.5c-0.2,1.1-0.7,2.2-1.3,3.2c-0.6,1-1.5,1.9-2.6,2.8
		c-1.1,0.9-2.5,1.7-4.1,2.4l10.2,13.3V125.3z M208.5,94.9v9.4h8.2c1.5,0,2.5-0.5,3.2-1.4c0.7-0.9,1-2,1-3.2c0-1.2-0.4-2.4-1.1-3.4
		c-0.7-1-1.8-1.5-3.3-1.5H208.5z"/>
	<path class="st0" d="M246.8,95.1h-11.5V86h34.1v9.2h-11.5v30.2h-11.1V95.1z"/>
	<path class="st0" d="M298.7,125.4v-14.9h-14.2v14.9h-11.1V86h11.1V101h14.2V86h11v39.3H298.7z"/>
	<path class="st0" d="M340.6,96.9c-1.3-1-2.8-1.7-4.3-2.1c-1.5-0.4-3.2-0.6-4.9-0.6c-0.7,0-1.3,0.1-2,0.2c-0.6,0.1-1.2,0.3-1.7,0.5
		c-0.5,0.2-0.9,0.5-1.2,0.9c-0.3,0.4-0.5,0.8-0.5,1.3c0,0.7,0.2,1.2,0.5,1.6c0.3,0.4,0.8,0.7,1.3,1c0.6,0.2,1.2,0.4,2.1,0.5
		c0.8,0.1,1.7,0.2,2.7,0.3c1.9,0.2,3.9,0.6,5.8,1.1c1.9,0.5,3.6,1.3,5.1,2.3c1.5,1,2.7,2.3,3.7,3.9c0.9,1.6,1.4,3.5,1.4,5.7
		c0,2.2-0.5,4.2-1.5,5.8c-1,1.6-2.3,2.9-3.9,4c-1.6,1-3.4,1.8-5.5,2.3c-2.1,0.5-4.2,0.8-6.4,0.8c-1.8,0-3.4-0.1-5-0.3
		c-1.6-0.2-3-0.5-4.4-1c-1.4-0.5-2.8-1.2-4.1-2.1c-1.3-0.9-2.7-2.1-4-3.5l6.1-7c1,0.9,2,1.7,3,2.3c1,0.6,2,1,3,1.3
		c1,0.3,2,0.5,2.9,0.6c0.9,0.1,1.8,0.2,2.6,0.2c1.8,0,3.3-0.3,4.5-0.9c1.1-0.6,1.7-1.5,1.7-2.6c0-2-2.2-3.2-6.6-3.6
		c-2.1-0.2-4.2-0.5-6.1-1c-1.9-0.5-3.7-1.1-5.1-2.1c-1.5-0.9-2.6-2.2-3.5-3.7c-0.9-1.6-1.3-3.6-1.3-6c0-2.1,0.5-3.8,1.4-5.4
		c0.9-1.5,2.2-2.8,3.7-3.7c1.5-1,3.3-1.7,5.3-2.1c2-0.5,4-0.7,6.1-0.7c3,0,5.6,0.4,8,1.1c2.4,0.7,4.6,1.9,6.7,3.6L340.6,96.9z"/>
	<path class="st0" d="M361.2,95.1h-11.5V86h34.1v9.2h-11.5v30.2h-11.1V95.1z"/>
	<path class="st0" d="M409.8,118.8h-17.6l-2.6,6.5h-11.8L395.4,86h11.2l17.6,39.3h-11.9L409.8,118.8z M401,97l-5.1,12.5H406L401,97z
		"/>
	<path class="st0" d="M464.5,125.3h-12.3l-9.2-12.8h-3.9v12.8h-11.1V86h19.2c2.5,0,4.7,0.4,6.6,1.1c1.9,0.7,3.5,1.7,4.8,3
		c1.3,1.3,2.2,2.7,2.9,4.3c0.7,1.6,1,3.3,1,5.1c0,1.2-0.1,2.4-0.4,3.5c-0.2,1.1-0.7,2.2-1.3,3.2c-0.6,1-1.5,1.9-2.6,2.8
		c-1.1,0.9-2.5,1.7-4.1,2.4l10.2,13.3V125.3z M439.2,94.9v9.4h8.2c1.5,0,2.5-0.5,3.2-1.4c0.7-0.9,1-2,1-3.2c0-1.2-0.4-2.4-1.1-3.4
		c-0.7-1-1.8-1.5-3.3-1.5H439.2z"/>
	<polygon class="st0" points="245.3,64.7 141.4,66.6 121.6,21.3 102.8,63.4 25.5,63.1 86.7,98.4 60.2,182.7 123.8,134.5 79,157.3 
		100,93.1 68.8,74.3 110.2,74.3 121.2,47.1 134.3,76.9 	"/>
</g>
</svg>
