<?xml version="1.0" encoding="utf-8"?>
<!-- Generator: Adobe Illustrator 23.1.1, SVG Export Plug-In . SVG Version: 6.00 Build 0)  -->
<svg version="1.1" id="Layer_1" xmlns="http://www.w3.org/2000/svg" xmlns:xlink="http://www.w3.org/1999/xlink" x="0px" y="0px"
	 viewBox="0 0 518.3 181.1" style="enable-background:new 0 0 518.3 181.1;" xml:space="preserve">
<style type="text/css">
	.st0{fill-rule:evenodd;clip-rule:evenodd;fill:#FFFFFF;}
	.st1{fill:#A7A9AC;}
	.st2{fill:#BCBEC0;}
	.st3{fill:#FFFFFF;}
</style>
<g>
	<g>
		<path class="st0" d="M88.9,143.5c-7.9-4.5-14.6-9.8-20.3-16.2c-8.9-9.9-14.9-20.8-18.3-33.4c-1-3.6-1.7-7-2.2-10.3
			c-0.8-6-0.8-12.3-0.8-18.9c0,0,0-10.1,0-12c14.1-1.8,27.5-6.3,39.9-13.4l0.1,0c0.5-0.3,1.6-0.9,1.6-0.9s0.3-15.9,0-15.9
			s-0.5,0-0.8,0c-2.3,2-5,3.5-7.6,5C69.1,33.9,57,37.9,44,39.3c-2.8,0.3-5.6,0.4-8.4,0.6c-1.8,0.1-1.9,0.2-1.9,2.1
			c0,7.6,0,15.1,0,22.7c0,6.9,0,13.8,1,20.7c0.5,4.1,1.4,8.1,2.5,12.2c4,14.7,11.2,27.6,21.3,38.9c8.4,9.3,18.3,16.6,29.7,22.1
			c0.3,0.1,0.6,0.2,0.8,0.1C89.1,158.7,88.9,143.5,88.9,143.5z"/>
		<path class="st0" d="M88.1,143.5c7.9-4.5,14.6-9.8,20.3-16.2c8.9-9.9,14.9-20.8,18.3-33.4c1-3.6,1.7-7,2.2-10.3
			c0.8-6,0.8-12.3,0.8-18.9c0,0,0-10.1,0-12c-14.1-1.8-27.5-6.3-39.9-13.4l-0.1,0c-0.5-0.3-1.6-0.9-1.6-0.9s-0.3-15.9,0-15.9
			s0.5,0,0.8,0c2.3,2,5,3.5,7.6,5c11.4,6.5,23.5,10.4,36.5,11.9c2.8,0.3,5.6,0.4,8.4,0.6c1.8,0.1,1.9,0.2,1.9,2.1
			c0,7.6,0,15.1,0,22.7c0,6.9,0,13.8-1,20.7c-0.5,4.1-1.4,8.1-2.5,12.2c-4,14.7-11.2,27.6-21.3,38.9c-8.4,9.3-18.3,16.6-29.7,22.1
			c-0.3,0.1-0.6,0.2-0.8,0.1C87.9,158.7,88.1,143.5,88.1,143.5z"/>
		<polygon class="st1" points="88.4,128.8 76.5,123.1 76.6,73.5 88.5,79.2 		"/>
		<polygon class="st2" points="91.4,58.9 80.3,53.3 88.3,51.8 100.5,57.5 		"/>
		<path class="st3" d="M88.3,78.7l-8.7,1.1v-6.9c2.1-0.5,3.9-1.2,5.4-2.1c1.5-0.9,2.8-2,3.8-3.2c1-1.2,1.7-2.5,2.2-4.1
			c0.4-1.3,0.7-2.8,0.9-4.3L100,58l-0.1,64.9l-11.7,5.3L88.3,78.7z"/>
		<path class="st3" d="M99.5,58.5l-0.1,64.6L89,127.7l0.1-48.5v-1.1l-1.5,0.1l-7.5,1v-6c2-0.5,3.7-1.2,5.2-2c1.6-1,2.9-2.1,3.9-3.3
			c1-1.2,1.8-2.6,2.3-4.2c0.4-1.3,0.7-2.6,0.9-4L99.5,58.5 M100.5,57.5l-9.1,1.4c-0.1,1.6-0.4,3.1-0.9,4.6s-1.1,2.7-2.1,3.9
			c-1,1.1-2.2,2.2-3.7,3.1c-1.5,0.9-3.4,1.6-5.6,2.1v7.8l9-1.1L88,128.8l12.4-5.1L100.5,57.5L100.5,57.5z"/>
		<polygon class="st2" points="79.1,80.3 67.9,74.7 67.9,66.8 79.1,72.5 		"/>
		<path class="st1" d="M79.1,72.5l-11.2-5.7c2.3-0.5,4.1-1.2,5.6-2.1c1.5-0.9,2.7-1.9,3.7-3.1c1-1.1,1.7-2.4,2.1-3.9
			c0.5-1.4,0.8-3,0.9-4.6L91.4,59c-0.1,1.6-0.4,3.1-0.9,4.6c-0.5,1.4-1.1,2.7-2.1,3.9c-1,1.1-2.2,2.2-3.7,3.1
			C83.3,71.3,81.4,72,79.1,72.5z"/>
	</g>
	<g>
		<path class="st3" d="M173.4,109.9c-3.8-2.5-6.7-6.1-8.6-10.7c-2-4.6-2.9-10-2.9-16c0-6.2,1.1-11.6,3.5-16.3
			c2.3-4.7,5.6-8.3,9.7-10.9c4.1-2.5,8.7-3.8,13.8-3.8c8.4,0,14.8,2.6,19.3,8c4.5,5.3,6.7,12.6,6.7,22c0,6.3-1.2,11.8-3.6,16.6
			c-2.4,4.8-5.7,8.5-9.9,11.1c-4.2,2.6-8.9,3.9-14,3.9C181.8,113.7,177.2,112.5,173.4,109.9z M176,63.1c-3,4.6-4.6,11.2-4.6,20
			c0,8.1,1.5,14.5,4.4,19.2c2.9,4.7,7,7.1,12.3,7.1c5.2,0,9.3-2.3,12.3-7c3.1-4.7,4.6-11.4,4.6-20.2c0-8.1-1.4-14.5-4.4-19.1
			s-7-6.8-12.4-6.8C183.2,56.3,179,58.6,176,63.1z"/>
		<path class="st3" d="M262,101.4c-1.9,3.8-4.6,6.8-8.1,9c-3.5,2.2-7.6,3.3-12.3,3.3c-1.3,0-2.7-0.1-4.2-0.3
			c-1.5-0.2-2.7-0.5-3.6-0.8l0.2,6.8v8.2l8.4,0.9v4h-22.5v-4l5.8-0.9V74.2l-5.9-1.4v-4.4l11.5-1.4h0.1l1.7,1.4v4.8
			c1.6-1.8,3.6-3.3,6-4.6c2.4-1.2,5.1-1.9,8-1.9c3.2,0,6.1,0.8,8.8,2.3c2.7,1.6,4.8,4,6.4,7.3s2.4,7.4,2.4,12.5
			C264.9,93.4,264,97.6,262,101.4z M238.2,73.7c-1.8,0.9-3.2,1.8-4.1,2.8V107c0.4,0.7,1.3,1.2,2.9,1.7c1.5,0.5,3.2,0.8,5.1,0.8
			c4.2,0,7.5-1.6,10.1-4.9c2.5-3.3,3.8-8.2,3.8-14.9c0-5.8-1.1-10.2-3.4-13c-2.3-2.9-5.1-4.3-8.6-4.3
			C241.9,72.4,240,72.8,238.2,73.7z"/>
		<path class="st3" d="M278.9,111.6c-1.5-1.4-2.3-3.8-2.3-7.2v-31h-5.8v-3.6c0.3,0,1-0.2,2.3-0.6c1.2-0.3,2.1-0.6,2.5-0.9
			c0.9-0.5,1.5-1.4,2-2.9c0.4-1,1-2.7,1.5-4.9c0.6-2.3,1-3.6,1.1-4h4.8l0.1,11.6h13.5v5.3h-13.5v24.8c0,3.1,0.1,5.2,0.3,6.5
			c0.2,1.2,0.6,2.1,1.2,2.4s1.7,0.6,3.2,0.6c1.4,0,3.1-0.2,4.8-0.6c1.8-0.4,3.1-0.8,4.1-1.2l1.2,3.6c-1.3,1-3.4,1.9-6.3,2.8
			s-5.5,1.4-7.9,1.4C282.7,113.7,280.4,113,278.9,111.6z"/>
		<path class="st3" d="M311.1,74.2l-6.1-1.4v-4.3l12.6-1.5h0.1l1.9,1.4v39.9l6.5,0.7v4h-21.4v-4l6.6-0.7L311.1,74.2L311.1,74.2z
			 M310.5,58.4c-0.9-1-1.3-2.2-1.3-3.7c0-1.7,0.5-3.2,1.6-4.3c1.1-1.1,2.5-1.7,4.3-1.7c1.8,0,3.2,0.5,4,1.4c0.9,1,1.3,2.2,1.3,3.7
			c0,1.8-0.5,3.3-1.6,4.4c-1.1,1.1-2.5,1.6-4.4,1.6h-0.1C312.7,59.9,311.4,59.4,310.5,58.4z"/>
		<path class="st3" d="M334.8,77.6c2-3.5,4.6-6.3,7.9-8.1c3.3-1.9,6.8-2.8,10.5-2.8c6.8,0,11.9,2.2,15.3,6.5c3.4,4.3,5.1,10,5.1,17
			c0,4.9-1,9.1-3,12.7c-2,3.5-4.6,6.3-7.9,8.1c-3.3,1.8-6.8,2.7-10.5,2.7c-6.8,0-11.9-2.2-15.3-6.5s-5.1-10-5.1-17
			C331.8,85.4,332.8,81.2,334.8,77.6z M361.3,104.5c2-3.1,3-7.6,3-13.7c0-6-0.9-10.7-2.7-14.2c-1.8-3.5-4.8-5.3-8.8-5.3
			c-3.7,0-6.6,1.5-8.6,4.6c-2,3.1-3,7.6-3,13.7c0,6,1,10.7,2.8,14.2c1.9,3.5,4.8,5.3,8.8,5.3C356.5,109.1,359.3,107.6,361.3,104.5z"
			/>
		<path class="st3" d="M385.8,74.2l-5.8-1.4v-4.4l11.5-1.4h0.2l1.7,1.4v3.4l-0.1,2c2-1.7,4.5-3.3,7.7-4.7c3.2-1.4,6.2-2.1,9.1-2.1
			c3.4,0,6,0.7,7.9,2c1.9,1.3,3.2,3.3,3.9,5.9s1.1,6.3,1.1,10.8v22.7l5.7,0.6v4h-19.2v-4l5-0.7V85.5c0-3.2-0.2-5.7-0.7-7.5
			c-0.4-1.8-1.2-3.2-2.4-4c-1.2-0.9-2.9-1.3-5.2-1.3c-2,0-4,0.5-6.2,1.4c-2.2,1-4.2,2.1-5.9,3.4v30.7l5.5,0.7v4h-19.1v-4l5.1-0.7
			L385.8,74.2L385.8,74.2z"/>
		<path class="st3" d="M461.2,60.5c-1.4,0.5-3.6,1.2-6.7,1.9c-3.1,0.8-5.5,1.2-7.4,1.5l-1-5.7c3.4-0.8,7-2,10.6-3.7
			c3.6-1.8,6.7-3.7,9.1-5.8h0.1l6.2,1v57.2l12.6,0.9v5H448v-5l13.1-0.9L461.2,60.5L461.2,60.5z"/>
	</g>
</g>
</svg>
