<?xml version="1.0" encoding="utf-8"?>
<!-- Generator: Adobe Illustrator 23.1.1, SVG Export Plug-In . SVG Version: 6.00 Build 0)  -->
<svg version="1.1" id="Layer_1" xmlns="http://www.w3.org/2000/svg" xmlns:xlink="http://www.w3.org/1999/xlink" x="0px" y="0px"
	 viewBox="0 0 629.3 199" style="enable-background:new 0 0 629.3 199;" xml:space="preserve">
<style type="text/css">
	.st0{fill-rule:evenodd;clip-rule:evenodd;fill:#FFFFFF;}
	.st1{fill:#FFFFFF;}
</style>
<g>
	<g>
		<path class="st0" d="M148.8-312.7c-11.7,9.9-26.9,15.9-43.5,15.9s-31.7-6-43.4-15.9c12.5,6.2,27.4,9.9,43.4,9.9
			S136.3-306.6,148.8-312.7 M105.3-431.2c16.6,0,31.7,6,43.4,15.9c-12.4-6.2-27.4-9.9-43.4-9.9s-31,3.6-43.4,9.9
			C73.6-425.2,88.7-431.2,105.3-431.2z"/>
		<path class="st0" d="M170.6-351.3L170.6-351.3c0,0.1,0.1,0.1,0.1,0.2c0.3-0.2,0.6-0.2,0.9-0.4c0-0.1-0.1-0.2-0.1-0.2
			C171.2-351.5,170.9-351.3,170.6-351.3 M49.8-385.5L49.8-385.5c-0.1,0-0.2-0.1-0.3-0.1c-0.1,0.2-0.2,0.5-0.2,0.7
			c0.1,0,0.2,0.1,0.2,0.1C49.7-384.9,49.7-385.2,49.8-385.5z M137-358.3L137-358.3c0.2,0.2,0.3,0.4,0.4,0.6c0.2-0.3,0.2-0.4,0.3-0.6
			C137.5-358.3,137.2-358.3,137-358.3z M47.7-383.8L47.7-383.8c0,0.1,0.1,0.2,0.1,0.2c0.3-0.2,0.7,0.2,0.8-0.4
			C48.3-384,48.1-383.9,47.7-383.8z M136.7-331.3L136.7-331.3c1.5,0.4,1.5,0.4,1.8,0.2C137.8-331.2,137.2-331.2,136.7-331.3z
			 M87.8-361L87.8-361c-0.1-0.3-0.2-0.6-0.2-0.8c-0.1,0-0.2,0.1-0.3,0.1c0.1,0.3,0.2,0.5,0.3,0.8C87.6-361,87.6-361,87.8-361z
			 M103.3-376.2L103.3-376.2c-0.2,0.5,0,0.8,0.4,1.1C103.9-375.7,103.6-376,103.3-376.2z M82.2-378.1L82.2-378.1c0-0.2,0-0.4,0-0.6
			c0-0.2-0.2-0.2-0.2-0.4c-0.1,0.2-0.2,0.2-0.2,0.4C81.8-378.4,81.8-378.1,82.2-378.1z M61.6-400.3L61.6-400.3
			c-0.5-0.4-0.7-0.4-1.1,0.3C60.9-400.1,61.3-400.3,61.6-400.3z M124.2-366.6L124.2-366.6c-0.3,0.2-0.6,0.4-1,0.8
			C124.1-365.6,124.1-365.7,124.2-366.6z M46.6-381.9L46.6-381.9c0.1,0.1,0.2,0.2,0.2,0.2c0.5-0.4,1.1-0.8,1.5-1.1
			c0-0.1-0.1-0.1-0.1-0.2C47.6-382.6,47.1-382.2,46.6-381.9z M79.5-365L79.5-365c0,0.3-0.1,0.5-0.1,0.7c0.2,0,0.4,0.1,0.6,0.1
			c0.1-0.2,0.2-0.5,0.2-0.7C80-364.9,79.8-365,79.5-365z M167.9-350.2L167.9-350.2c0-0.1-0.1-0.1-0.1-0.2c-0.4,0.2-0.6,0.3-1.1,0.4
			c-0.1,0.1-0.2,0.2-0.2,0.3c0.2,0.1,0.2,0.2,0.4,0.2C167.6-349.4,167.7-349.8,167.9-350.2z M123.6-372.9L123.6-372.9
			c-0.2,0-0.4-0.1-0.6,0s-0.4,0.2-0.6,0.4c0.2,0.1,0.4,0.2,0.5,0.2c0.2,0.1,0.4,0.1,0.6,0.1C123.6-372.4,123.6-372.6,123.6-372.9z
			 M115.8-371.1L115.8-371.1c0.3,0,0.6,0,0.9-0.1c0.2-0.1,0.2-0.3,0.3-0.4c-0.2-0.1-0.3-0.2-0.4-0.2
			C116.1-371.7,115.8-371.6,115.8-371.1z M73.8-407.1L73.8-407.1c-0.2-0.3-0.4-0.6-0.5-0.9c-0.1-0.1-0.2-0.1-0.4-0.2
			c-0.1,0.3-0.2,0.4-0.1,0.4c0,0.2,0.2,0.4,0.2,0.6C73.1-407.1,73.5-407.1,73.8-407.1z M170.3-350.3L170.3-350.3
			c-0.6-0.2-0.9-0.2-1,0.2c0,0.2,0.2,0.5,0.2,0.5C170.1-349.5,170.2-349.8,170.3-350.3z M138.5-364.1L138.5-364.1
			c-0.3,0.2-0.4,0.2-0.6,0.3c-0.2,0.1-0.5,0-0.5,0.1c-0.1,0.2,0,0.4,0.1,0.6C138-363.2,138.4-363.5,138.5-364.1z M101.7-369.5
			L101.7-369.5c-0.6-0.2-1.1-0.2-1.7-0.4C100.9-368.7,101.3-368.7,101.7-369.5z M103.6-376.3L103.6-376.3c0.1-0.1,0.2-0.1,0.2-0.2
			c-0.6-0.6-0.7-1.4-0.2-2.1c-0.4-0.2-0.6-0.2-0.9,0.1c-0.3,0.3-0.1,0.4,0.1,0.6c0.1,0.1,0.1,0.2,0.1,0.4
			C103.1-377.1,103.4-376.7,103.6-376.3z M91.8-369.3L91.8-369.3c-0.1,0-0.2,0-0.2,0c-0.2,0.5-0.4,1.1-0.6,1.6c0,0.1,0,0.3,0.1,0.4
			c0.1,0.1,0.3,0.1,0.4,0c0.3-0.2,0.5-0.4,0.4-0.7c-0.1-0.2-0.1-0.5-0.1-0.7C91.9-369,91.8-369.1,91.8-369.3z M109.4-370.9
			L109.4-370.9c0.3,0.2,0.6,0.3,0.8,0.4c0.2,0.1,0.4,0,0.4-0.1c0.2-0.3,0.4-0.6,0.6-0.9c0-0.1-0.1-0.1-0.1-0.2
			c-0.4,0.1-0.6-0.7-1.1-0.3C109.6-371.7,109.2-371.4,109.4-370.9z M91.1-394L91.1-394c-0.5-0.8-1.9-1-2.6-0.3
			c-0.2,0.2-0.2,0.3-0.3,0.4c0.2,0.1,0.4,0.2,0.6,0.2s0.6-0.2,0.7-0.2C90.1-393.6,90.5-394,91.1-394z M70.1-406.4L70.1-406.4
			c0.6-0.7,0.6-0.7,1.2-0.7c0.9,0,1.1-0.2,1.1-1.1c-0.5,0-1.1-0.1-1.7,0C69.7-408.1,69.4-407.3,70.1-406.4z M106-372.4L106-372.4
			c0,0.2-0.1,0.2,0,0.2c0.5,0.4,1,0.8,1.7,0.5c0.1-0.1,0.2,0,0.4,0.1c0.9,0.4,1,0.4,1.2-0.4c-0.2-0.4-0.4-0.6-0.6-1
			s-0.6-0.6-1.1-0.4c0,0.2,0.2,0.6,0,0.6c-0.3,0.3-0.6,0.4-1,0.6C106.4-372.1,106.2-372.3,106-372.4z M105.3-373.2L105.3-373.2
			c0.6-0.2,0.1-1.3,1.1-0.9c0.1-0.2,0.1-0.3,0.2-0.4c0.1-0.2,0.1-0.3,0.1-0.4c-0.7-0.7-1.5-1.1-2.6-1
			C104-374.7,105-374.1,105.3-373.2z M61.9-395.7L61.9-395.7c0.1-0.2,0.1-0.4,0.2-0.4c0.4-0.3,0.8-0.5,1.1-0.7
			c0.3-0.2,0.7-0.2,1.1-0.4c0.5-0.2,1.1-0.4,1.1-1.1c0-0.2,0.2-0.3,0.3-0.4c0.2-0.2,0.4-0.2,0.6-0.4c-0.2-0.1-0.3-0.2-0.4-0.1
			c-0.6,0.3-1.1,0.6-1.8,0.9c-1,0.5-1.9,1.1-2.8,1.5c-0.4,0.2-0.8,0.4-1.2,0.7c0,0.1,0.1,0.1,0.1,0.2c0.2,0,0.2,0,0.5,0
			c-0.2,0.1-0.3,0.1-0.4,0.2c-0.1,0.1-0.2,0.2-0.2,0.4c0.1,0.2,0.2,0.3,0.3,0.3c0.2,0,0.4,0,0.5-0.2
			C61.4-395.5,61.7-395.7,61.9-395.7z M79-363.4L79-363.4c-0.6-0.1-0.8,0.2-1.1,0.6c-0.2,0.3-0.4,0.7-0.6,0.7
			c-0.5,0-0.4,0.3-0.6,0.6c-0.2,0.4-0.3,0.7-0.5,1c-0.6,0.6-0.9,1.8-0.4,2.3c0.2,0.2,0.5,0.2,0.5,0.2c0.4-0.4,0.6-0.9,1-1.4
			c0.2-0.2,0.1-0.6,0.2-0.8c0.2-0.4,0.6-0.9,0.9-1.3c-0.1-0.2-0.2-0.3-0.3-0.4c0.6-0.2,0.2-0.7,0.5-1.1c0.2,0,0.3,0.1,0.4,0.1
			C79.1-363,79-363.2,79-363.4z M122.2-367L122.2-367c0.2,0.1,0.4,0.2,0.5,0.2c0.4,0.4,0.6,0.4,1-0.1c0.5-0.8,1.1-1.6,1.6-2.4
			c0.1-0.2,0.1-0.3,0.1-0.4c-0.2,0-0.3-0.1-0.4-0.1c-0.1,0-0.3,0-0.4-0.1c0.1-0.2,0.1-0.3,0.2-0.4c0.1-0.2,0.2-0.5,0.2-0.7
			c-0.5,0.2-0.5,0.2-1.1,1.9c-0.5-0.3-0.5-0.7-0.4-1.2c0.1-0.3,0.2-0.6-0.3-0.6c-0.3,0-0.4-0.2-0.3-0.5c0-0.2-0.1-0.4-0.2-0.5
			c-0.2-0.1-0.4-0.2-0.6-0.1c-0.6,0.2-1,0.6-1.1,1.2c-0.1,0.2-0.2,0.3-0.3,0.5c-0.2-0.5-0.4-0.9-0.6-1.3c-0.7,0.5-0.4-0.4-0.8-0.6
			c-0.4,0.2-0.8,0.4-1.2,0.6c0,0.1,0,0.1,0,0.2c-0.1-0.1-0.2-0.2-0.3-0.2c-0.2,0.2-0.2,0.2-0.3,0.4c-0.2,0.1-0.2,0.2-0.4,0.2
			c0.3,0.2,0.6,0.4,0.7,0.6c0.2,0.3,0,0.6-0.4,0.8c0.1-0.9-0.8-0.4-1.1-1c-0.4,0.2-0.7,0.4-0.8-0.2l-0.1-0.1
			c-0.6-0.2-0.5-0.6-0.4-1.1c0-0.1,0-0.2,0-0.2c-0.3,0.1-0.6,0.2-0.9,0.3c-0.4,0.4-0.6,0.4-1,0c-0.1,0.1-0.2,0.1-0.2,0.2
			c-0.2,0.2-0.4,0.6-0.6,0c0-0.1-0.3-0.2-0.3-0.2c-0.2,0.2-0.4,0.4-0.5,0.6c0,0,0.3,0.3,0.4,0.4c0.4,0.2,0.9,0.2,1.3,0.4
			c0.4,0.2,0.7,0.4,1.1,0.5c0.5,0.1,1.1,0.1,1.6,0.2c0.1,0,0.2,0.1,0.3,0.2c0.6,0.4,1.3,0.6,1.9,1.1h0.1c0.6,0,1.1,0.3,1.7,0.8
			c0.2,0.2,0.5,0.2,0.7,0.4c0.2,0.1,0.4,0.2,0.5,0.4c0.2,0.2,0.4,0.4,0.6,0.1c0.4-0.4,0.9-0.9,1.3-1.2c0.2-0.2,0.4-0.2,0.6-0.3
			c0.1,0,0.3,0,0.3,0.1c0.1,0.1,0,0.3-0.1,0.3c-0.5,0.4-0.8,1.1-1.5,1.1C122.5-367.2,122.3-367,122.2-367z M148.3-336.2
			c0.2,0.5,0.2,1,0.4,1.5c0.3,0.7,0.2,1.3-0.6,1.6c-0.8,0.3-1.1,1.1-1.6,1.6c-0.2,0.2-0.4,0.4-0.6,0.5c-0.6,0.5-1.3,1-1.9,1.5
			c-0.4,0.3-0.6,0.6-1.1,1c-1.1,0.6-2.3,1.2-3.5,1.9c-0.4,0.2-0.7,0.5-1.1,0.6c-0.9,0.3-1.5,1.1-2.5,1.4c-0.9,0.3-1.8,0.6-2.7,0.9
			c-0.6,0.2-1.1,0.6-1.8,0.8c-0.4,0.2-0.8,0.2-1.2,0.4c-1.5,0.5-2.8,1.3-4,2.4c-0.6,0.6-1.3,1-1.9,1.5c-0.2,0.1-0.3,0.1-0.4,0.1
			c-0.1,0-0.2-0.1-0.2-0.1c-0.5,0.4-1.1,0-1.5,0c-0.7-0.1-1.4,0.2-1.9,0.4c-0.3,0.2-0.6,0.2-1.1,0.4c-0.2,0.1-0.5,0.2-0.6,0.3
			c-0.4,0.2-0.6,0.4-1.1,0.2c-0.5-0.2-0.8-0.5-1.2-0.6c-0.5-0.2-1-0.4-1.5-0.1c-0.3,0.2-0.6,0.4-1.1,0.2c-0.2-0.2-0.5-0.1-0.8-0.2
			c0.9-0.5,1.9-0.6,3-0.8c-0.4-0.2-0.7-0.3-1.1-0.4c-0.4,0.6-1.3,0.6-1.8-0.1c-0.2-0.3-0.5-0.5-0.9-0.6c-0.2,0-0.3-0.1-0.4-0.2
			c-0.6-0.4-1.1-0.8-1.9-0.8c-0.4,0-0.5-0.4-0.2-0.8c0.1-0.1,0.2-0.2,0.2-0.2c0.2-0.8,0.8-1.3,1.3-1.8c0.4-0.4,0.5-1,0.7-1.5
			c0.2-0.6,0.2-1.4,0.5-2c0.2-0.6,0.6-1.1,1.4-1.3c0.6-0.2,1-0.6,0.8-1.3c-0.1-0.8,0-1,0.6-1.2c0-0.3-0.2-0.6,0-0.8
			c0.5-0.5,0.9-0.6,1.5-0.3c0,0.3,0.1,0.6,0.1,1.1c0.7-0.6,0.9-1.2,1-1.9c0.1-0.6,0.1-1.2,0.2-1.9c0-0.2,0.1-0.4,0.2-0.5
			c0.3-0.5,0.3-1.1,0-1.5c-0.2-0.3-0.3-0.6-0.3-1.1c-0.2-1.1-0.2-2-0.4-3.1c-0.2-1.4-0.4-2.7-0.6-4c-0.2-0.7-0.4-1.4-0.8-2
			c-0.4-0.7-1.1-1.1-1.8-1.3c-0.3-0.1-0.6,0.2-1.1,0.3c-0.5,0.2-1,0.4-1.5,0.6c-0.2,0.1-0.4,0.2-0.6,0.3c-0.3,0.2-0.5,0.4-0.8,0.5
			c0.2,0,0.4,0.2,0.2,0.4c-0.4,0.6-0.6,1.2-1.1,1.8c-0.2,0.3-0.3,0.6-0.6,0.1c-0.2,0.3-0.3,0.5-0.4,0.7c-0.4,0.7-0.7,0.8-1.5,0.4
			c-0.3-0.2-0.6-0.3-1-0.4c-0.5-0.2-0.7-0.7-0.6-1.2c0.2-0.7,0.2-1.4,0.4-2.1c0.2-0.4,0.4-0.9,1.1-0.7c0.2,0.1,0.7,0.1,0.9-0.4
			c0-0.1,0.2-0.2,0.2-0.2c0.6-0.1,0.6-0.6,0.6-1.1c0.1-0.4,0.1-0.9,0.2-1.2c0.1-0.2,0.4-0.4,0.7-0.5c0.4-0.1,1.1-0.6,1.1-1.1
			c0.1-0.6,0.1-1.3,0.2-1.9c0.1-0.5,0.2-1.1,0.2-1.6c0.1-1.1,0.2-2.3-0.9-3.1c-0.4-0.4-0.6-1.1-0.3-1.7c0.2-0.3,0.4-0.4,0.7-0.2
			c0.2,0.2,0.4,0.3,0.6,0.4c-0.3-0.3-0.4-0.5-0.3-0.9c0-0.2-0.2-0.4-0.4-0.6c-0.3-0.4-0.6-0.7-0.4-1.2c0-0.2,0-0.4-0.2-0.4
			c-0.4-0.4-0.8-0.7-1.5-0.7c-0.3,0-0.6-0.3-1-0.4c-0.2-0.1-0.3-0.2-0.4-0.2c-0.5,0-1-0.3-1.3-0.6c-0.2-0.2-0.6-0.3-1-0.4
			c-1,0-1,0-1.3-1c-0.2-0.8-1.1-1.3-2-1.1c-0.6,0.1-1-0.1-1.3-0.4c-0.5-0.4-1.1-0.7-1.7-1.1c-0.1,0-0.2,0-0.2,0
			c-0.4,0.6-1.1,0.3-1.5,0.4c0.2,0.6-0.3,1-0.6,1.2c-0.7,0.6-0.9,1.7-0.2,2.3c0.2,0.2,0.4,0.2,0.6,0.3s0.4,0.2,0.7,0.2
			c-0.3,0.5-0.7,0.6-1.2,0.6c-1-0.1-1.7,0.2-2.4,0.7c-0.5,0.4-0.7,1-0.6,1.5c0.4,1.4,0.1,2.7-0.5,4c-0.2,0.4-0.5,0.9-0.8,1.3
			c-0.3-0.4-0.1-0.8,0.1-1.1c0.2-0.5,0.3-1.1,0.4-1.5c-0.1,0-0.2,0-0.2-0.1c-0.3,0.8-0.5,1.6-0.8,2.6c-0.4-0.4-0.6-0.6-0.4-1.1
			c0.1-0.3,0.2-0.5,0.3-0.7c0.2-0.4,0.2-0.5-0.2-0.7c0.1-0.1,0.1-0.2,0.2-0.3c0.3-0.4,0.4-0.7,0.2-1.1c-0.1-0.1,0.1-0.4,0.2-0.5
			c0.2-0.2,0.3-0.4,0.4-0.6c-0.4,0.2-0.8,0.3-1.1,0.7c-0.4,0.7-0.8,1.4-1.2,2.1c-0.2,0.3-0.4,0.4-0.6,0.2c-0.3-0.2-0.5-0.2-0.7,0.2
			c-0.2,0.3-0.3,0.4-0.6,0.4c-0.1,0-0.3,0.2-0.3,0.3c-0.1,0.4-0.1,0.9-0.1,1.3s-0.2,0.5-0.5,0.5c-0.2,0-0.4,0.1-0.6,0.2
			c-0.4,0.2-0.5,0.4-0.4,0.8c0.3,0.6,0.2,1.1,0.1,1.7c-0.1,0.3-0.2,0.6-0.1,0.9c0.1,0.5-0.1,1-0.3,1.4c-0.2,0.5-0.4,1.1-0.7,1.5
			c-0.2,0.4-0.5,0.6-0.8,1c-0.5,0.5-0.6,0.8-0.2,1.4c0.6,1.1,0.6,2.6-0.2,3.5c-0.4,0.5-0.4,1-0.2,1.5c0.3,0.8,0.5,1.6,0.7,2.3
			c0.2,0.5,0.4,1.1,0.6,1.5c0.3-0.1,0.5-0.2,0.8-0.3c0.1,0.1,0.2,0.2,0.2,0.2c-0.3,0.2-0.5,0.3-0.8,0.4c0.1,0,0.2,0.1,0.2,0.1
			c0.3,1.1,0.6,2.3,0.8,3.5c0.2,1.4,0.1,2.8-0.3,4.2c-0.3,1.1-0.6,2.1-1,3.2c-0.1,0.2-0.2,0.4-0.3,0.5c-0.7,1-1.2,2-1.7,3.2
			c-0.5,1.4-1.7,2.1-2.9,2.7c-0.8,0.4-1.6,0.7-2.4,1.1c-0.7,0.2-1.4,0.1-2-0.4c-1.4-1-1.6-2.4-1.9-3.9c-0.1-0.4-0.2-0.7-0.5-1.1
			c-0.4-0.4-0.6-1.1-0.8-1.7c-0.2-0.6-0.2-1.1,0-1.8c0.2-0.4,0.1-0.8,0.1-1.2c-0.1-1.1,0.1-1.9,0.3-2.9c0.1-0.2-0.1-0.6-0.2-0.8
			c-0.2-0.4-0.4-0.8-0.4-1.2c-0.1-0.4,0-0.7-0.4-1c-0.1,0-0.1-0.2-0.1-0.2c0.2-0.4,0.2-0.8,0-1.3c-0.2-0.4-0.2-0.7-0.1-1.1
			c0.2-0.8,0.4-1.5,0.6-2.3c0.1-0.4,0.2-0.8,0.3-1.1c0.2-0.6,0.5-1.1,0.6-1.6c0.2-0.4,0.2-1,0.2-1.5s-0.2-1.1-0.1-1.6
			c0.1-0.5,0.3-1.1,0.4-1.5c0.2-0.4,0.4-0.9,0.9-1.1c0.6-0.3,0.6-0.7,0.3-1.3c-0.2-0.4-0.2-0.6-0.1-1.1c0.2-0.6,0.2-1.2,0.4-1.8
			c0.2-0.5,0.4-1,0.5-1.4c0.3-0.6,0.5-1.2,0.8-1.8c0.1-0.2,0-0.4-0.1-0.4c-0.3-0.3-0.6-0.5-1-0.8c-0.3,0.1-0.7,0.2-1.1,0.3
			c-0.3,0.1-1.1,1.1-1.1,1.5c0,0.5-0.3,0.8-0.6,1c-0.5,0.2-0.8,0.5-1.1,1c-0.2,0.3-0.4,0.4-0.6,0.2c-0.2-0.2-0.5-0.2-0.4-0.6
			c0.2-1.1,0.6-2.3,1.4-3.2c0.1-0.2,0.2-0.4,0.2-0.5c0-0.4,0.2-0.6,0.6-0.7c0.2-0.1,0.4-0.2,0.6-0.2c0.4-0.1,0.6-0.3,0.6-0.8
			s0.2-1.1,0.3-1.5c0-0.1,0.1-0.2,0.2-0.2c1.3-1.1,1.8-2.6,2.5-4c0.3-0.6,0.7-1.3,1.1-1.9c0.1-0.1,0.1-0.2,0.2-0.2
			c0.6-0.2,0.6-0.7,0.6-1.1c0.1-0.7,0.6-1.1,0.7-1.8c0.1,0,0.2,0.1,0.2,0.1c-0.1,0.4-0.2,0.9-0.3,1.3c0,0.5,0.1,1,0.2,1.5
			c1-0.3,1.3-1,1.6-1.8c0.1-0.3,0.4-0.4,0.6-0.2c0.2,0.2,0.4,0.2,0.7-0.1c0.2-0.2,0.4-0.2,0.7-0.2c0,0.2,0.1,0.4,0.1,0.6
			c0,0.2-0.1,0.4-0.2,0.6c-0.2,0-0.3,0-0.4,0c-0.2,0.3-0.3,0.5-0.4,0.8c-0.4,0.7-0.4,0.7,0.4,1.2c-0.2-0.6,0.2-1,0.5-1.3
			c0.4-0.5,1.1-0.7,1.5-1.1c0.1-0.1,0.2-0.2,0.2-0.2c0.5-1.8,2.2-2.3,3.5-1.4c0.4-0.2,0.6-0.4,1-0.5c0,0,0,0,0.1,0
			c1.1,0.2,1.9-0.1,2.3-1.1c0.1-0.2,0.5-0.3,0.8-0.3c0.2-0.1,0.5-0.1,0.8,0c0.8,0.2,1.7,0.5,2.5,0.7c0.6,0.2,1.1,0.6,1.5,1.1
			c0.3,0.4,0.7,0.6,1.1,1.1c0.2,0.2,0.4,0.1,0.6,0.2c-0.1-0.6-0.2-1.2,0.3-1.7c0.1-0.1,0-0.2,0.1-0.2c0.1-0.4,0.2-0.6,0.6-0.4
			c0.4,0.1,0.6,0.2,0.8,0.5c0.1,0.1,0.3,0.2,0.4,0.2c0.4,0,0.9-0.1,1.3-0.1c0.9,0.2,1.7,0.4,2.6,0.4c0.3,0.1,0.6-0.1,1-0.2
			c0,0,0.1-0.3,0-0.4c-0.2-0.2-0.3-0.2-0.4-0.3c-0.5-0.2-0.7-0.6-0.7-1.1c0-0.1,0-0.3,0-0.3c-0.4-0.2-0.6-0.6-1.2-0.4
			c-0.2,0.1-0.4-0.1-0.4-0.2c0-0.1,0-0.3,0.1-0.4c0.1-0.2,0.2-0.2,0.4-0.3c-0.2-0.6-0.4-1.4-0.6-1.9c-0.1-0.3-0.3-0.6-0.5-0.9
			c-0.3-0.4-0.6-0.3-1,0.1c-0.2,0.3-0.6,0.5-0.9,0.7c-0.4,0.2-0.5,0-0.6-0.4c-0.1-0.4-0.4-0.6-0.8-0.4c-0.8,0.6-1.5,0.2-2.2-0.2
			c-0.2,0-0.5,0-0.7-0.2c-0.3-0.2-0.2-0.4,0-0.7c0.1-0.2,0.1-0.4,0-0.5c0-0.7,0-1.5,0.4-2c-1.1-0.2-2.3-0.1-3.3,0.6
			c-0.8,0.6-1.7,0.6-2.6,0.4c-0.8-0.2-1.7-0.2-2.5,0.1c-0.4,0.2-0.9,0.1-1.3,0.2c-0.3,0-0.5,0.1-0.7,0.2c-0.8,0.4-1.5,0.9-2.3,1.3
			c-0.2,0.2-0.4,0.3-0.6,0.5c-0.1,0.1-0.1,0.2-0.2,0.2c-0.8,1.1-0.5,0.9-1.6,0.2c-0.1-0.1-0.3-0.1-0.4,0c-0.6,0.4-1.1,0.3-1.5-0.3
			c-0.4-0.6-0.5-0.6-1.1-0.2c-0.7,0.4-1.5,0.4-2.3,0.1c-0.2-0.1-0.3-0.4-0.4-0.6c0-0.3-0.1-0.4-0.4-0.6c-0.2-0.2-0.4-0.4-0.5-0.6
			c-0.4-0.6-0.7-1.1-1.1-1.8c-0.2-0.2-0.4-0.4-0.6-0.6c-1.1-1-2.4-1.2-3.9-1c-0.2,0.1-0.5,0.3-0.7,0.4c-0.2,0.2-0.4,0.4-0.6,0.6
			c-0.1-0.1-0.1-0.1-0.2-0.2c0.2-0.3,0.3-0.6,0.4-1c-1.1,0.2-1.2,1.3-1.9,1.8c0-0.4-0.1-0.6-0.1-0.9c0-0.3,0.1-0.5,0.1-0.8
			c0.1-0.5,0.1-1,0.2-1.5c0.1,0.1,0.2,0.2,0.4,0.3c0.9-1.9,2.2-3.4,4-4.5c-0.3-0.2-0.5-0.3-0.6-0.4c0-0.1,0-0.2,0-0.2
			c0.6,0,1.1,0,1.8-0.1c0.2,0,0.5-0.2,0.7-0.2c-0.2-0.2-0.2-0.4-0.4-0.6c-0.1-0.1-0.2-0.1-0.3-0.2c-1.5-0.3-2.7,0.1-4,0.7
			c-0.7,0.4-1.4,0.8-1.8,1.6c-0.1,0.2-0.2,0.4-0.4,0.4c-0.4,0.2-0.4,0.6-0.5,1.1c-0.1,0.9,1,0.2,1.1,0.8c0,0,0.3-0.1,0.5-0.1
			c-0.2-0.2-0.3-0.4-0.3-0.4c0.1-0.2,0.2-0.4,0.4-0.5c0.1,0,0.2,0.1,0.2,0.1c-0.1,0.4-0.1,0.8-0.3,1.1c-0.4,0.4-0.4,0.6-0.3,1.1
			c-0.2-0.2-0.4-0.2-0.6-0.4c0-0.2,0.1-0.3,0.1-0.4c-0.1-0.2-0.2-0.4-0.3-0.4c-0.6-0.1-0.8-0.4-0.7-1c0-0.2,0-0.3-0.1-0.5
			c-0.2,0.2-0.4,0.2-0.6,0.4c-0.6,0.7-1.5,1.1-1.9,2.1c-0.2,0.5-0.8,0.6-1.2,0.6c-0.4-0.1-0.5,0.1-0.7,0.3c-0.7,0.9-1.6,1.5-2.8,1.6
			c-0.6,0.1-1.2,0.2-1.8,0.2c-0.7,0-1.2,0.4-1.7,0.9c-0.6,0.7-1.4,1.2-2.3,1.5c-0.6,0.2-1.3,0.5-1.9,0.8c-0.2,0.1-0.4,0.2-0.5,0.1
			c-0.7-0.3-1.5-0.6-2.2-1.1c-0.4,0.4-1.1,0.9-2,0.8c0.1-0.2,0.2-0.4,0.2-0.5c0.4-0.4,0.7-0.9,0.6-1.5c0-0.2,0.2-0.3,0.2-0.5
			c0.2-0.4,0.4-0.7,0.6-1.1c0.1-0.2-0.2-0.4-0.2-0.6c-0.1-0.2-0.3-0.2-0.4-0.2c-0.3,0.1-0.6,0.1-0.8,0.2c-0.4,0.2-0.9,0.4-1.2,0.8
			c-0.4,0.3-0.7,0.4-1.1,0c-0.4,0.4-0.8,0.7-1.3,1.1c-0.4,0.2-0.8,0.3-1.2,0.4c-0.6,0.2-1.1,0.3-1.7,0.5c-0.5,0.2-1,0.3-1.5,0.4
			c-0.7,0.2-1.7-0.4-1.9-0.8c-0.2-0.3-0.1-0.6,0.2-0.7c0.6-0.4,1.1-0.9,1.8-1.3c0.3-0.2,0.6-0.4,1-0.7c0.6-0.5,1.1-1.1,1.8-1.6
			c0.9-0.5,1.5-1.2,2.1-2c0.6-0.8,1.3-1.6,1.9-2.3c0.3-0.3,0.6-0.5,1.1-0.7c0.4-0.3,0.7-0.6,1.1-1c1.1-1.1,2.5-1.8,4-2
			c0.1,0,0.2,0,0.2-0.1c1.5-0.7,3.3-1.1,4.7-2c0.3-0.2,0.5-0.4,0.8-0.6c0.5-0.3,1-0.6,1.5-1c0.2-0.2,0.5-0.2,0.6-0.4
			c0.2-0.1,0.2-0.3,0.3-0.5c0.3-0.1,0.8-0.2,1-0.7c0.1-0.3,0.3-0.6,0.4-1c0.2-0.4,0.4-0.9,0.5-1.3c0.1-0.1,0.1-0.3,0-0.4
			c-0.3-0.6-0.2-1.2,0.4-1.6c0.7-0.4,1.5-0.6,2.2-0.9c0.3-0.2,0.6-0.3,1-0.4c0.2-0.1,0.2-0.1,0.4-0.1c0,0.2,0.1,0.3,0.1,0.4
			c-0.1,0.2-0.2,0.3-0.3,0.4c-0.2,0.4-0.4,0.6-0.4,1.1c-0.1,0.4-0.1,0.8-0.5,1c-0.1,0-0.1,0.2-0.1,0.2c0.6,0.2,1.5-0.2,1.6-0.9
			c0.1-0.4,0.2-0.7,0.3-1.1c0-0.1,0.1-0.2,0.1-0.2c0.6-0.2,0.4-0.6,0.4-1c0-0.3,0.1-0.6,0.4-0.6c0.1,0,0.2-0.2,0.2-0.2
			c0-0.4,0-0.8,0.1-1.1c0-0.3,0.2-0.5,0.2-0.8c0-0.1,0.2-0.2,0.2-0.2c0.1-0.3,0.2-0.5,0.4-0.4c0.3,0.1,0.6,0.2,0.9,0.4
			c0.5,0.6,0.4,1.5-0.2,2.2c-0.4,0.4-0.9,0.9-1.3,1.3c-0.4,0.4-0.5,1-0.2,1.5c0.3-0.6,0.6-1.1,0.9-1.8c0.6,0.6,0.6-0.3,1-0.2
			c0.2-0.7,0.2-1,0.2-1.2c0.1,0,0.2-0.1,0.2-0.1c0.2,0.2,0.2,0.3,0.4,0.5c0.2-0.1,0.2-0.2,0.5-0.4c-0.2,0.3-0.2,0.4-0.2,0.6
			c0.1,0,0.2,0,0.2,0c0.5-0.6,1.1-1.4,0.9-2.3c0-0.2-0.2-0.3-0.2-0.4c-0.2-0.2-0.6-0.4-0.7-0.6c-0.2-0.2-0.1-0.4-0.2-0.6
			c0-0.2,0-0.4-0.1-0.6c0-0.2-0.1-0.4-0.1-0.6c0.4,0.4,0.8,0.4,1.1,0c0.2-0.2,0.5-0.2,0.8-0.3c0.4,0.8,1.1,1.1,1.9,1.1
			c0.4,0.1,0.9,0.4,1.3,0.6c0.1,0.1,0.2,0.2,0.3,0.2c0.5-0.2,0.6,0.1,0.6,0.6c0.6-0.4,1-0.2,1.4,0.2c0.3,0.2,0.6,0.2,0.9,0.5
			c0.1,0.1,0.3,0.1,0.4,0.1c0.6-0.1,1.1-0.2,1.7-0.2h0.1c0.4-0.6,0.7,0,1.1,0.2c0.6,0.4,1-0.1,1.4-0.3c0.4-0.3,1.1-0.1,1.1,0.4
			c0.1,0.3,0.3,0.4,0.5,0.2c0.2-0.1,0.4-0.2,0.6-0.4c0.3-0.2,0.8,0.2,0.8,0.6c0,0.1,0,0.2,0.1,0.3c0.3,0.5,0.6,1,0.9,1.4
			c0.1,0.2,0.2,0.4,0.2,0.5c0.2,0.6,0.5,1.3,0.6,1.9c0.1,1.1,0.6,1.8,0.9,2.7c0.2,0.5,0.6,1.1,1.1,1.5c0.2,0.3,0.4,0.5,0.6,0.7
			c0.2,0.2,0.5,0.5,0.8,0.6c1.1,0.4,2.3,0.6,3.4,0.4c0.8-0.2,1.6-0.4,2.3-0.5c0.7-0.2,1.5,0,2.2,0.2c0.3,0.1,0.4,0.4,0.2,0.6
			c-0.2,0.2-0.3,0.4-0.4,0.5c-0.4,0.3-0.4,0.6,0.1,1c-0.1,0.2-0.1,0.2-0.2,0.3c-0.6,0.4-0.6,1.1-0.8,1.8c-0.1,0.2,0.1,0.4,0.2,0.6
			c0.1,0.2,0.2,0.4,0.4,0.6c0.2,0.2,0.4,0.4,0.6,0.5c0.7,0.3,1.3,0.6,1.5,1.5c0,0.1,0.1,0.2,0.2,0.2c0.6,0,0.5,0.6,0.7,0.9
			c0.1,0.1,0,0.3-0.1,0.4c-0.4,0.5-0.6,1.1-1.1,1.6c0,0,0,0,0,0.1c0.3,0.7-0.5,1.1-0.4,1.8c0,0.2,0.2,0.4,0.2,0.4
			c0.5,0,0.9,0.2,1.1,0.7c0.6-0.6,1.9-0.5,2.3,0.2c0.1,0.2,0,0.4-0.1,0.6c-0.1,0.1-0.3,0.2-0.4,0.2c-0.7-0.2-1,0-1.1,0.7
			c0,0.2-0.1,0.3-0.1,0.4c0,0.1,0.1,0.4,0.1,0.5c0.1,0,0.1,0,0.2,0c0-0.1,0.1-0.2,0.2-0.3c0.1-0.2,0.2-0.3,0.3-0.4
			c0,0,0.3,0.2,0.4,0.2c0.1,0.2,0.2,0.4,0.1,0.6c-0.2,0.4-0.5,0.6-0.8,0.9c-0.2,0.2-0.3,0.3-0.4,0.5c-0.2,0.2-0.2,0.4,0.1,0.6
			c0.2,0.2,0.4,0.4,0.6,0.6c0.3-0.6,0.8-0.6,1.3-0.6c0.3,0,0.6-0.1,0.9-0.2c0.4-0.2,0.7-0.3,1.1,0c0.3,0.2,0.5,0.5,0.3,1
			c-0.2,0.2-0.2,0.5-0.2,0.7c-0.2,0.3,0.2,0.8,0.6,0.9c0.2,0,0.4,0,0.5,0c0.4,0,0.8-0.1,1.1,0.3c0.4,0.3,1.1,0.3,1.5,0.3
			c0.4,0.1,0.6,0,1,0.2c0.2,0.2,0.6,0.1,1,0.2c0.8,0.2,1.5,0.4,2.3,0.6c1.3,0.4,2.6,0.1,4,0c0.3,0,0.5-0.2,0.8-0.3
			c0,0.1,0.1,0.1,0.1,0.2c-0.1,0.2-0.2,0.3-0.4,0.6c1.1,0,2-0.6,3.2-0.2c-0.2,0.1-0.3,0.2-0.4,0.2c0,0.1,0.1,0.2,0.1,0.2
			c0.5,0.1,1.1,0,1.5,0.4c0.1,0.1,0.3,0,0.4,0c0.2,0,0.3-0.1,0.4-0.1c0.7,0.4,1.5,0.2,2.3,0.1c0.2,0,0.4,0,0.6,0.1
			c0.3,0.1,0.4,0.3,0.2,0.6c0.2-0.1,0.4-0.2,0.5-0.3c0.2-0.2,0.3-0.4,0.4-0.4c0.3,0.1,0.5,0.3,0.7,0.4c0.2,0.2,0.2,0.4,0.3,0.6
			c-0.3,0.1-0.6,0.2-1,0.2v0.1c0.4,0,0.6,0,1.1,0c0,0.1,0,0.2,0,0.2c0.4,0.1,0.6,0.1,1,0.2c0.6,0.2,1.1,0.4,1.8-0.1
			c-0.1-0.1-0.1-0.2-0.2-0.3c0.2-0.2,0.2-0.1,0.3,1.1c1-0.6,1.9-0.1,3-0.2c0.2,0.1,0.3,0.2,0.4,0.2c0.1,0.1,0.2,0.2,0.2,0.3
			c0.2,0.2,0.3,0.4,0.4,0.6c0.2,0.4,0.4,0.7,0.5,1.1c0.1,0.6,0.5,1.1,1,1.6c0.2,0.2,0.2,0.4,0.3,0.6c0.2-0.1,0.4-0.1,0.6-0.2
			c0-0.2-0.1-0.3-0.1-0.4c0.4,0.2,0.4,0.4,0.4,1.3c0,0.5,0.2,1,0.3,1.5c0-0.2,0.1-0.3,0.2-0.6c0.2,0.2,0.3,0.3,0.3,0.4
			c-0.1,0.4,0.1,0.6,0.5,0.6c0.2,0,0.3,0.2,0.4,0.2c0.2-0.3,0.2-0.6,0.4-0.7c0.2-0.1,0.5-0.1,0.6,0.1c0.5,0.4,0.5,1.1,0,1.6
			c-0.4,0.4-0.4,0.4,0.2,0.7c0.2,0.2,0.4,0.4,0.5,0.7c0,0.2-0.3,0.4-0.6,0.6c0,0,0,0.1,0.1,0.2c0.3,0.3,0.6,0.5,1,0.9
			c0.2,0.2,0.2,0.4,0.2,0.6c1.1,0.1,1,1.1,1.5,1.8c0.1-0.2,0.1-0.3,0.2-0.4c0-0.2,0-0.3,0.1-0.4c0.1-0.1,0.3-0.1,0.3-0.1
			c0.1,0.1,0.2,0.2,0.1,0.4c0,0.2-0.1,0.3-0.2,0.4c-0.2,0.2-0.2,0.4,0.1,0.6c0.1,0.1,0.1,0.2,0.2,0.3c-0.2,0.1-0.2,0.2-0.4,0.2
			c-0.4-0.1-1-0.2-1.4-0.3c-0.1,0-0.2-0.2-0.3-0.4c0,0-0.2-0.1-0.4-0.1c0.1-0.2,0.1-0.3,0.2-0.5c-0.4-0.1-0.7-0.2-0.9,0.3
			c0,0.1-0.2,0.2-0.2,0.2c-0.2,0.1-0.4,0.2-0.4,0.3c0,0.2,0.2,0.4,0.3,0.5c0.2,0.3,0.6,0.6,0.6,0.8c0,0.8,0.3,1.7-0.5,2.3
			c-0.4,0.3-0.6,0.2-1,0.1c-0.7-0.3-1.5-0.5-2.2-0.8c-0.2-0.1-0.3-0.2-0.4-0.2c-0.3-0.2-0.6-0.2-0.8-0.4c-0.2-0.2-0.4-0.4-0.5-0.6
			c-0.2-0.8-0.8-1.1-1.5-0.5c-0.2,0.2-0.4,0.5-0.6,0.7c-0.2,0.2-0.4,0.4-0.6,0.6c-0.1-0.1-0.2-0.1-0.2-0.2c0.2-0.4,0.2-0.9,0.4-1.2
			c0.2-0.4,0.3-0.8-0.1-1.1c-0.3-0.2-0.9-0.1-1.3,0.4c-0.1,0.1-0.2,0.2-0.4,0.3c-0.2-0.4,0-0.6,0.2-0.7c0.5-0.2,0.8-0.6,0.7-1.1
			c0-0.2,0.2-0.4,0.3-0.8c-0.2,0.1-0.4,0.2-0.4,0.3c-0.1,0.5-0.3,0.5-0.7,0.4c-0.1,0-0.2,0-0.4,0.1c0.1-0.2,0.2-0.4,0.2-0.5
			c-0.2-0.3-1,0.1-0.6-0.7c-0.6,0.4-0.6,0.1-0.6-0.4s0-0.9-0.4-1.2c-0.1-0.1-0.1-0.4,0-0.6c0.1-0.2,0.2-0.3,0.4-0.6
			c-0.4-0.1-0.8-0.2-1.2-0.2s-0.9,0.1-1.2,0.1c-0.2,0-0.4,0-0.4-0.1c-0.6-0.4-0.6,0.1-0.8,0.4c0.4,0.2,0.8,0.3,1.1,0.4
			c0.2,0.3,0.3,0.5,0.4,0.8c0.3,0.4,0.5,0.9,0.8,1.2c0.1,0.1,0.2,0.2,0.4,0.2c0.5,0,0.6,0.4,0.5,0.6c-0.2,0.6,0.1,1.1,0.4,1.3
			c0.4,0.5,0.2,1,0.3,1.5c0,0.2,0,0.4,0,0.5c0.2,0.4,0.1,0.8-0.2,1.1c-0.4,0.4-0.7,0.9-0.9,1.5c0,0.2-0.2,0.4-0.4,0.4
			c-0.4,0-0.5,0.4-0.7,0.6c-0.5,0.4-0.6,1.1-0.6,1.7c-0.1,0.4-0.4,1-0.7,1.2c-0.4,0.4-0.4,1-0.4,1.5c0.1,0.6,0.2,1.1,0.2,1.7
			c0,1.1,0.1,2,0.1,3.1c0,0.9,0.1,1.8-0.2,2.6c-0.3,1.1-1.1,1.6-2,2c-0.2,0.2-0.5,0.2-0.6,0.4c-0.4,0.9-1.1,1.4-2,1.6
			c-1.5,0.3-1.5,1.5-1.6,2.6c-0.1,0.5,0,1.1-0.2,1.5c-0.2,0.7-0.6,1.4-1.4,1.8c0.6,0.5,1.3,0.4,1.9,0.6c0,0.4,0,0.9,0,1.3
			s-0.2,0.6-0.6,0.6c-0.5,0.1-1.1,0.2-1.6,0.2c-0.6,0-1.3-0.2-1.9-0.4c-1.1-0.2-1.6,0.3-1.8,1.2c-0.1,0.5-0.2,1-0.2,1.5
			c0,0.2,0.1,0.4,0.2,0.4c0.4,0.2,0.9,0.4,1.3,0.6c0.4,0.2,0.7,0.2,1.1,0c0.2-0.2,0.4-0.2,0.6-0.4c0.6-0.3,1.1-0.2,1.5,0.4
			c0.2,0.2,0.2,0.4,0.4,0.6c0.2-1.5,1.1-2.2,2.3-2.7c0.3-0.2,0.6-0.3,1-0.5c0.4-0.3,0.8-0.4,1.3-0.3c0.1,0,0.3-0.2,0.4-0.2
			c0.1-0.1,0.1-0.2,0.2-0.2c0.8-0.3,1-1.2,1.6-1.7c0.7-0.5,1.4-1.2,2.1-1.8c0.8-0.6,1.7-1,2.7-1c1.1,0.1,2.3,0,3.4,0.4
			c0.6,0.2,1.4,0.4,2,0.6s1.1,0.1,1.7,0c0-0.1,0-0.1,0-0.2c-0.2,0-0.3,0-0.5,0s-0.4-0.1-0.4-0.2c-0.1-0.1,0-0.3,0.1-0.4
			c0.2-0.3,0.4-0.6,0.8-0.4c0.4-0.9,1.1-1.5,2-1.5c0.7,0,1.4-0.2,2.1-0.3c0.4-0.1,0.6-0.2,1.1-0.4c0.1,0,0.2-0.1,0.2-0.1
			c0.6,0,1.1,0.1,1.7,0.2c0.2,0,0.3,0,0.4,0c1.1-0.4,2.1-0.2,3.3-0.1c0.2-0.1,0.6-0.2,1.1-0.3c0.2-0.1,0.3-0.2,0.4-0.4
			c0-0.1-0.2-0.3-0.3-0.4c-0.4-0.3-0.9-0.4-0.6-1.1c0-0.1,0-0.2,0-0.2c-0.6-0.6-0.4-1.2-0.3-1.9c0-0.2,0-0.4-0.2-0.4
			c-0.1-0.1-0.3,0-0.4,0.1c-0.3,0.2-0.6,0.3-0.8,0.4c-0.2,0.2-0.6,0.4-0.8,0.3c-1.1-0.3-2.3,0.1-3.3-0.6c-0.5-0.4-0.6-0.8-0.2-1.3
			c0.2-0.3,0.5-0.5,0.6-0.8c0.2-0.4,0.4-0.9,0.6-1.3c0.1-0.2,0.2-0.4,0.4-0.5c0.2-0.2,0.4-0.4,0.6-0.6c0.1-0.1,0.2-0.2,0.4-0.2
			c0.8,0.2,1.1-0.4,1.7-0.8c0.4-0.4,0.8-0.8,1.2-1.1c0.4-0.3,0.9-0.5,1.3-0.6c1-0.1,1.9-0.3,2.7-0.6c0.1,0,0.2-0.1,0.2,0
			c0.9,0.4,1.6-0.2,2.4-0.4c0.3-0.1,0.6-0.2,1-0.2c0.8-0.1,1.7-0.1,2.5-0.2c0.6-0.2,1.1-0.4,1.7-0.6c0.5-0.1,1.1,0,1.5,0.1
			c0.1,0,0.2,0.2,0.2,0.2c0,0.5,0.4,0.8,0.9,0.7s1.1-0.2,1.5-0.2c0,0.1,0.1,0.2,0.1,0.2c-0.2,0.1-0.4,0.2-0.5,0.2
			c0.4,0.6,0.8-0.2,1.3-0.2c-0.2,0.3-0.4,0.5-0.5,0.7c0.4,0.2,0.7,0.3,1.2,0c0.5-0.4,1.1-0.5,1.9-0.8c-0.6,0.1-1.1,0.2-1.6,0.2
			c0-0.4,0.2-0.8,0.6-1c0.3-0.2,0.6-0.3,0.6-0.8c-0.5,0.7-1.2,0.5-1.9,0.5c0.2-0.5,0.4-1,0.6-1.5c-0.3,0.1-0.4,0.1-0.5,0.2
			c-0.2,0.1-0.4,0.2-0.6,0.2c-0.4,0-0.6,0.1-0.5,0.6c-0.2,0-0.4,0-0.6,0.1c0-0.2,0-0.4,0-0.6c-0.9-0.1-1.5,0.5-2.1,0.8
			c-0.1-0.1-0.1-0.1-0.2-0.2c0.2-0.2,0.2-0.4,0.4-0.4c0.4-0.2,0.9-0.4,1.3-0.5c0.4-0.2,1.1-0.4,1.4-0.3c0.7,0.4,1.1-0.2,1.6-0.3
			c0.2,0,0.2-0.1,0.4-0.1c-0.2,0.2-0.2,0.4-0.3,0.6c-0.1,0.2-0.2,0.4,0.2,0.3l0.1,0.1c-0.1,0.1-0.1,0.2-0.2,0.2
			c-0.2,0.2-0.4,0.3-0.2,0.5c0.2,0.2,0.4,0.2,0.6-0.1c0.7-0.6,1.6-1.2,2.6-1.6c0.2-0.1,0.4,0,0.5,0c0.3-0.1,0.6-0.1,0.9-0.2
			c0.3-0.1,0.6-0.2,0.9-0.3c0.6-0.3,1.3-0.6,1.9-0.9c1-0.3,2.2-0.4,2.7-1.6c0.1-0.2,0.4-0.5,0.6-0.2c0.2,0.2,0.4,0.5,0.1,0.8
			c-0.7,0.6-1.5,1.4-2.3,1.9c-0.4,0.3-0.8,0.4-1.2,0.5c-0.5,0-1.1-0.1-1.6-0.1c0,0.1,0,0.2,0,0.2c0.5,0,1.1-0.1,1.6-0.1
			c-0.2,0.2-0.4,0.4-0.6,0.5c-0.3,0.3-0.6,0.5-1,0.8c0.3,0.3,0.5,0.4,0.7,0.6c0.5-0.5,0.9-0.4,1.5,0.2c-0.2,0.2-0.4,0.4-0.6,0.6
			c0,0.1,0.1,0.1,0.1,0.2c0.2-0.1,0.4-0.2,0.6-0.2s0.3,0,0.4,0c-0.1,0.2-0.2,0.3-0.2,0.4c-0.2,0.2-0.3,0.3-0.4,0.4
			c-0.2,0.2-0.4,0.5-0.6,0.7c-0.1,0.1-0.3-0.1-0.4-0.1c0-0.1,0-0.2-0.1-0.2c-0.1,0.1-0.2,0.2-0.3,0.4c0.6,0.6,0.8,1.1,0.7,1.9
			c0,0.2,0.2,0.3,0.3,0.4c-0.1,0.4-0.1,0.7-0.2,1.1c-0.1,0.4-1,0.9-1.5,0.7c-0.4-0.2-0.5-0.1-0.8,0.2c-0.2,0.2-0.5,0.4-0.8,0.6
			c-0.5,0.2-1,0.6-1.1,1.1c-0.1,0.2-0.2,0.4-0.4,0.2c-0.1,0-0.2,0.1-0.2,0.1c-0.4,0.2-0.7,0.2-1.1,0.4c-0.2,0.1-0.4,0.2-0.5,0.4
			c-0.2,0.2-0.4,0.3-0.4,0c-0.2-0.6-0.7-0.6-1.1-0.5c-1.1,0.2-2.2,0.2-3.2,0.6c-0.4,0.2-0.9,0.1-1.2-0.2c-1.3-1.1-2.9-1.2-4.5-1.1
			c-0.4,0-0.6,0.1-1.1,0c-1.3-0.2-2.6,0-3.9,0.4c-0.7,0.3-1.5,0.5-2.3,0.7c-0.3,0.1-0.4,0.2-0.4,0.5c0,0.3,0,0.8,0,1.1
			c0,0.4,0.2,0.6,0.6,0.5c0.1,0,0.2,0,0.3,0c0.2,0.2,0.4,0.3,0.5,0.4C148.6-336.6,148.4-336.4,148.3-336.2c0-0.2,0.1-0.2,0-0.4
			c-0.1-0.2-0.2-0.3-0.3-0.3c-0.2,0-0.4,0.2-0.4,0.2c0,0.2,0.1,0.4,0.1,0.6C148-336.1,148.2-336.1,148.3-336.2z"/>
	</g>
	<g>
		<path class="st1" d="M374.2-356.2c0,1.7,0,3.2,0,4.6s0,2.7-0.1,3.8c0,1.1-0.1,2.1-0.2,2.9c-0.1,0.7-0.2,1.4-0.5,1.9
			c-0.2,0.5-0.7,0.7-1.1,0.9c-0.2,0.1-0.5,0.1-0.8,0.2c-0.4,0-0.7,0-1.1,0s-0.6,0.1-0.7,0.2s-0.2,0.3-0.2,0.4c0,0.2,0.1,0.3,0.3,0.4
			c0.2,0.1,0.5,0.2,0.7,0.2c0.6,0,1.2,0,1.9,0c0.7,0,1.4,0,2.1-0.1c0.7,0,1.3,0,1.9-0.1c0.6,0,1,0,1.3,0c0.6,0,1.2,0,2.1,0.1
			c0.9,0,2,0.1,3.1,0.1s2.3,0.1,3.5,0.1c0.3,0,0.6-0.1,0.7-0.2c0.2-0.1,0.3-0.2,0.3-0.4c0-0.1-0.1-0.3-0.2-0.4
			c-0.2-0.1-0.4-0.2-0.7-0.2s-0.6,0-0.9,0s-0.7,0-1-0.1c-0.4,0-0.7-0.1-0.8-0.1c-0.6-0.1-0.9-0.3-1.2-0.5c-0.3-0.3-0.5-0.6-0.7-0.9
			c-0.1-0.4-0.2-0.8-0.3-1.3c-0.1-0.7-0.2-1.8-0.2-2.9c-0.1-1.1-0.1-2.4-0.1-3.8s0-3,0-4.6v-21.4l6.9,0.1c1.7,0,2.9,0.2,3.8,0.5
			c0.9,0.3,1.6,0.7,2,1.1c0.4,0.5,0.7,0.9,0.7,1.4l0.1,0.6c0,0.4,0.1,0.7,0.2,0.8c0.1,0.2,0.3,0.3,0.5,0.2c0.2,0,0.3-0.1,0.4-0.2
			c0.1-0.2,0.1-0.4,0.2-0.7c0-0.4,0-0.8,0-1.4c0-0.6,0-1.2,0-1.9c0-0.7,0-1.3,0-1.9c0-0.6,0-1,0-1.3c0-0.4,0-0.7-0.1-0.8
			c-0.1-0.2-0.2-0.3-0.4-0.3c-0.1,0-0.3,0-0.5,0.1c-0.3,0.1-0.6,0.1-1,0.2c-0.4,0.1-0.9,0.1-1.5,0.2c-0.7,0.1-1.3,0.1-2.2,0.1H368
			c-0.9,0-1.9,0-2.8-0.1c-0.9,0-1.9-0.1-2.7-0.2c-0.7-0.1-1.2-0.3-1.6-0.4c-0.4-0.2-0.7-0.2-0.8-0.3c-0.2,0-0.3,0.1-0.4,0.3
			c-0.1,0.2-0.2,0.4-0.3,0.7c0,0.1-0.1,0.4-0.2,0.7c-0.1,0.4-0.2,0.8-0.3,1.4c-0.1,0.6-0.2,1.1-0.4,1.7c-0.1,0.6-0.2,1.1-0.3,1.6
			s-0.1,0.7-0.1,0.9c0,0.3,0,0.5,0.1,0.7c0.1,0.2,0.2,0.2,0.4,0.2s0.3-0.1,0.4-0.2c0.1-0.1,0.2-0.3,0.2-0.5c0.1-0.2,0.2-0.5,0.3-0.7
			c0.2-0.3,0.4-0.7,0.7-1c0.3-0.4,0.6-0.7,1-0.9c0.5-0.2,0.9-0.4,1.7-0.5c0.7-0.1,1.6-0.2,2.6-0.2l8.1-0.1v21.4L374.2-356.2
			L374.2-356.2z M335.9-357.1c-0.1,0-0.2,0-0.2-0.1c0-0.1,0-0.2,0-0.3l5.3-13.3c0-0.1,0.1-0.2,0.1-0.3s0.1-0.2,0.2-0.2
			s0.1,0.1,0.2,0.2c0,0.1,0.1,0.2,0.1,0.3l5.2,13.4c0,0.1,0,0.2,0,0.2c0,0.1-0.1,0.1-0.3,0.1C346.5-357.1,335.9-357.1,335.9-357.1z
			 M347.7-354.2c0.1,0,0.3,0,0.4,0.1s0.2,0.2,0.2,0.3l4.3,10.7c0.1,0.3,0.1,0.6,0,0.8c-0.1,0.2-0.3,0.4-0.5,0.4
			c-0.3,0-0.5,0.1-0.6,0.2s-0.2,0.2-0.1,0.4c0,0.2,0.2,0.3,0.5,0.4c0.3,0.1,0.7,0.1,1.2,0.1c1.6,0,3,0.1,4.4,0.1s2.5,0,3.6,0
			c1,0,2,0,2.6,0c0.7,0,1.2,0,1.5-0.1c0.4,0,0.6-0.1,0.7-0.2s0.2-0.2,0.2-0.4c0-0.4-0.3-0.6-0.7-0.6c-0.3,0-0.7,0-0.9,0
			c-0.4,0-0.7-0.1-1.1-0.2c-0.3,0-0.6-0.1-0.8-0.3c-0.3-0.2-0.7-0.5-1-0.8c-0.4-0.4-0.8-0.9-1.3-1.7c-0.5-0.7-0.9-1.7-1.5-2.9
			c-0.5-1.1-1.1-2.5-1.8-4.2c-0.7-1.6-1.5-3.4-2.2-5.2c-0.8-1.9-1.7-3.8-2.5-5.8s-1.7-3.9-2.5-5.8s-1.6-3.5-2.2-5.1
			c-0.7-1.6-1.2-2.9-1.8-4c-0.5-1.1-0.8-1.9-1-2.3s-0.4-0.7-0.5-0.9c-0.2-0.3-0.3-0.5-0.5-0.6s-0.4-0.2-0.7-0.2
			c-0.3,0-0.6,0.2-0.7,0.5c-0.3,0.4-0.6,0.8-0.8,1.6l-14.9,33.3c-0.4,0.9-0.7,1.7-1.1,2.3c-0.4,0.7-0.8,1.2-1.4,1.6
			s-1.2,0.7-2.1,0.7c-0.3,0-0.6,0-0.8,0s-0.6,0-0.8,0c-0.2,0-0.4,0.1-0.5,0.2s-0.2,0.3-0.2,0.4c0,0.2,0.1,0.4,0.3,0.5
			c0.2,0.1,0.4,0.1,0.7,0.1c0.9,0,1.9,0,2.8-0.1c0.9,0,1.7-0.1,2.3-0.1c0.7,0,1-0.1,1.2-0.1c0.6,0,1.2,0,2,0.1
			c0.7,0,1.4,0.1,2.1,0.1s1.4,0.1,2,0.1c0.3,0,0.5,0,0.7-0.1s0.2-0.2,0.2-0.5c0-0.2,0-0.3-0.2-0.4c-0.1-0.1-0.4-0.2-0.7-0.2h-0.8
			c-0.8,0-1.4-0.1-1.8-0.4c-0.3-0.3-0.5-0.7-0.5-1.1c0-0.3,0.1-0.7,0.2-1.4c0.1-0.6,0.4-1.2,0.7-1.9l2.9-7.2
			c0.1-0.2,0.1-0.3,0.2-0.3c0.1-0.1,0.2-0.1,0.3-0.1L347.7-354.2L347.7-354.2z M297.3-356.2c0,1.7,0,3.2,0,4.6s0,2.7-0.1,3.8
			c0,1.1-0.1,2.1-0.2,2.9c-0.1,0.7-0.2,1.4-0.5,1.9c-0.2,0.5-0.7,0.7-1.1,0.9c-0.3,0.1-0.6,0.1-0.8,0.2c-0.3,0-0.7,0-1.1,0
			s-0.6,0.1-0.7,0.2s-0.2,0.3-0.2,0.4c0,0.2,0.1,0.3,0.3,0.4c0.2,0.1,0.5,0.2,0.7,0.2c0.6,0,1.2,0,1.9,0c0.7,0,1.3-0.1,2-0.1
			s1.3,0,1.9,0s0.9,0,1.3,0c0.8,0,1.8,0,2.8,0s2.2,0.1,3.5,0.1c1.3,0.1,2.8,0.1,4.5,0.1s3.5,0.1,5.6,0.1c0.7,0,1.2,0,1.6-0.1
			c0.4,0,0.7-0.2,0.8-0.4c0.2-0.2,0.4-0.6,0.5-0.9c0.1-0.3,0.2-0.7,0.3-1.2c0.1-0.6,0.2-1.1,0.3-1.7c0.1-0.7,0.1-1.2,0.2-1.7
			c0.1-0.6,0.1-0.9,0.1-1.3c0-0.3,0-0.6-0.1-0.8c-0.1-0.3-0.2-0.4-0.4-0.4s-0.3,0.1-0.4,0.2c-0.1,0.1-0.2,0.4-0.2,0.7
			c-0.2,1.1-0.5,2-0.8,2.5c-0.4,0.7-0.8,1.1-1.6,1.4c-0.5,0.2-1,0.4-1.7,0.5c-0.7,0.1-1.2,0.2-1.9,0.2c-0.7,0-1.2,0-1.7,0
			c-1.9,0-3.4-0.1-4.4-0.4c-1-0.3-1.9-0.7-2.3-1.3c-0.5-0.7-0.7-1.6-0.7-2.8c0-0.4,0-0.9,0-1.7c0-0.7,0-1.4,0-2.2c0-0.7,0-1.6,0-2.2
			c0-0.7,0-1.3,0-1.8v-4.2c0-0.2,0-0.3,0.1-0.4c0-0.1,0.1-0.2,0.3-0.2c0.3,0,0.7,0,1.3,0s1.2,0,2.1,0c0.7,0,1.5,0,2.2,0.1
			c0.7,0,1.4,0,2,0.1c0.6,0,0.9,0,1.1,0.1c0.7,0.1,1.2,0.2,1.7,0.4c0.4,0.2,0.7,0.5,0.9,0.7c0.2,0.3,0.4,0.7,0.5,0.9
			c0.1,0.4,0.1,0.7,0.1,1c0,0.3,0.1,0.7,0.1,0.9c0,0.1,0,0.2,0.1,0.3c0.1,0.1,0.2,0.1,0.4,0.1s0.3-0.1,0.4-0.2
			c0.1-0.1,0.1-0.3,0.2-0.5c0-0.2,0-0.4,0-0.5c0-0.1,0-0.3,0-0.6c0-0.3,0-0.6,0.1-0.9c0-0.4,0-0.7,0.1-1.1c0-0.4,0.1-0.7,0.1-0.9
			c0.1-0.8,0.2-1.6,0.3-2.1c0.1-0.6,0.1-0.9,0.2-1.2c0-0.3,0-0.5,0-0.6c0-0.2,0-0.3-0.1-0.4c-0.1-0.1-0.2-0.2-0.3-0.2
			s-0.3,0.1-0.4,0.2c-0.1,0.1-0.3,0.3-0.5,0.5c-0.3,0.3-0.7,0.5-1,0.6c-0.4,0.1-0.9,0.2-1.6,0.3c-0.3,0-0.7,0-1.4,0.1
			c-0.7,0-1.4,0-2.2,0c-0.8,0-1.7,0-2.5,0s-1.6,0-2.2,0s-1.1,0-1.4,0c-0.2,0-0.3-0.1-0.3-0.2c-0.1-0.1-0.1-0.3-0.1-0.4v-13.2
			c0-0.2,0-0.3,0.1-0.4c0.1-0.1,0.2-0.1,0.3-0.1c0.3,0,0.7,0,1.2,0s1.2,0,2.1,0c0.7,0,1.5,0,2.2,0.1c0.7,0,1.4,0,2,0.1
			c0.6,0,0.9,0,1.1,0.1c0.9,0.1,1.6,0.2,2.1,0.4c0.5,0.2,0.8,0.4,1,0.7s0.4,0.6,0.6,0.8c0.1,0.2,0.2,0.5,0.3,0.7
			c0.1,0.3,0.1,0.5,0.1,0.7c0,0.2,0,0.4,0,0.6c0,0.2,0,0.4,0.1,0.5c0.1,0.1,0.2,0.2,0.4,0.2s0.3-0.1,0.4-0.2
			c0.1-0.1,0.2-0.2,0.2-0.4c0-0.1,0.1-0.3,0.1-0.4c0-0.2,0.1-0.4,0.1-0.7s0.1-0.7,0.1-1c0-0.4,0.1-0.7,0.1-1c0-0.3,0.1-0.6,0.1-0.7
			c0-0.8,0.1-1.4,0.2-1.9s0.1-0.8,0.2-1c0.1-0.2,0.1-0.4,0.1-0.6c0-0.1,0-0.3-0.1-0.4c-0.1-0.1-0.2-0.2-0.3-0.2
			c-0.1,0-0.3,0-0.4,0.1c-0.2,0.1-0.3,0.1-0.5,0.2c-0.2,0-0.6,0.1-0.9,0.2c-0.4,0.1-0.8,0.1-1.4,0.2c-0.2,0-0.7,0-1.4,0
			s-1.6,0-2.6,0s-2.1,0-3.3,0c-1.1,0-2.2,0-3.4,0c-1,0-2,0-2.8,0c-0.7,0-1.3,0-1.7,0c-0.6,0-1.2,0-2.1,0c-0.8,0-1.8,0-2.8-0.1
			c-1,0-2.1,0-3,0c-0.4,0-0.7,0-0.9,0.1s-0.3,0.2-0.3,0.4c0,0.2,0.1,0.3,0.3,0.4c0.2,0.1,0.4,0.2,0.7,0.2c0.4,0,0.8,0,1.2,0
			c0.4,0,0.7,0.1,0.9,0.2c0.6,0.2,1,0.4,1.4,0.6c0.4,0.2,0.6,0.5,0.7,0.8s0.3,0.8,0.3,1.4c0,0.3,0,0.7,0,1c0,0.4,0,0.8,0,1.3
			c0,0.6,0,1.1,0,2c0,0.7,0,1.7,0,2.9c0,1.1,0,2.5,0,4.1L297.3-356.2L297.3-356.2z M262.4-377.3c0-0.2,0-0.4,0.1-0.5
			c0.1-0.1,0.2-0.2,0.4-0.3c0.3-0.1,0.7-0.1,1.3-0.2c0.6,0,1.2,0,2,0c0.7,0,1.4,0.1,2.1,0.3s1.5,0.5,2.2,0.9c0.7,0.4,1.4,1,2.1,1.7
			c0.6,0.7,1.1,1.6,1.5,2.7c0.4,1.1,0.6,2.3,0.6,3.8s-0.2,2.7-0.6,3.7s-0.7,1.9-1.3,2.5c-0.6,0.7-1.1,1.2-1.7,1.6
			c-0.3,0.2-0.7,0.4-0.9,0.6c-0.3,0.1-0.7,0.2-1.1,0.3c-0.5,0.1-1,0.1-1.8,0.1c-0.7,0-1.4,0-2.1-0.1c-0.7-0.1-1.4-0.2-2.1-0.4
			c-0.2-0.1-0.3-0.2-0.4-0.4c-0.1-0.1-0.1-0.4-0.1-0.6v-15.7H262.4z M255.4-356.2c0,1.7,0,3.2,0,4.6s0,2.7-0.1,3.8
			c0,1.1-0.1,2.1-0.2,2.9c-0.1,0.7-0.2,1.4-0.5,1.9c-0.2,0.5-0.7,0.7-1.1,0.9c-0.3,0.1-0.6,0.1-0.8,0.2c-0.3,0-0.7,0-1.1,0
			s-0.6,0.1-0.7,0.2s-0.2,0.3-0.2,0.4c0,0.2,0.1,0.3,0.3,0.4s0.5,0.2,0.7,0.2c0.6,0,1.1,0,1.9,0c0.7,0,1.3,0,2-0.1
			c0.7,0,1.2,0,1.8-0.1c0.6,0,0.9,0,1.2,0c0.2,0,0.7,0,1.2,0s1.3,0,2.1,0.1c0.8,0,1.7,0,2.6,0.1c0.9,0,1.8,0,2.5,0
			c0.4,0,0.7-0.1,0.8-0.2c0.2-0.1,0.3-0.2,0.3-0.4c0-0.1-0.1-0.3-0.2-0.4c-0.1-0.1-0.3-0.2-0.5-0.2s-0.5,0-0.8,0s-0.7,0-0.9-0.1
			c-0.3,0-0.7-0.1-0.9-0.1c-0.6-0.1-0.9-0.3-1.3-0.5c-0.3-0.3-0.5-0.6-0.6-0.9c-0.1-0.4-0.2-0.8-0.3-1.4c-0.1-0.7-0.2-1.7-0.2-2.8
			c-0.1-1.1-0.1-2.4-0.1-3.8c0-1.4,0-3,0-4.7v-0.7c0-0.2,0-0.3,0.1-0.4s0.2-0.1,0.3-0.1l4.9,0.1c0.2,0,0.4,0,0.6,0.1
			s0.3,0.2,0.5,0.3c0.2,0.2,0.5,0.6,0.7,1c0.4,0.5,0.7,1.1,1.2,1.8c0.5,0.7,0.9,1.4,1.5,2.1c0.6,0.7,1.1,1.5,1.7,2.2
			c1,1.4,2,2.6,2.8,3.5c0.8,1,1.7,1.9,2.4,2.6c0.7,0.7,1.6,1.2,2.3,1.7c0.5,0.3,0.9,0.5,1.5,0.6c0.6,0.2,1.2,0.3,1.9,0.4
			c0.7,0.1,1.6,0.1,2.6,0.1h5.2c0.4,0,0.6,0,0.7-0.1s0.3-0.2,0.3-0.5c0-0.1-0.1-0.3-0.2-0.4s-0.3-0.2-0.5-0.2s-0.4,0-0.6,0
			s-0.5-0.1-0.7-0.1c-0.3,0-0.7-0.2-1.2-0.3c-0.6-0.2-1.2-0.5-2-0.9s-1.7-1.2-2.7-2.2c-1.7-1.7-3.5-3.6-5.4-6.1c-2-2.3-4.2-5-6.6-8
			c1.8-1.4,3.3-2.8,4.4-4.1s2-2.6,2.5-3.8c0.6-1.2,0.7-2.5,0.7-3.8c0-0.9-0.1-1.8-0.4-2.5s-0.6-1.5-0.9-2.1
			c-0.4-0.7-0.8-1.1-1.3-1.7c-0.5-0.5-0.8-0.8-1.2-1.1c-1-0.7-2.1-1.1-3.3-1.4c-1.1-0.3-2.3-0.6-3.5-0.7s-2.4-0.2-3.6-0.2
			c-0.5,0-1,0-1.8,0s-1.6,0-2.4,0s-1.7,0-2.4,0s-1.4,0-1.9,0c-0.3,0-0.7,0-1.2,0s-1.1,0-1.9,0c-0.7,0-1.4,0-2.1,0s-1.5,0-2.2,0
			c-0.4,0-0.7,0-0.9,0.1c-0.2,0.1-0.3,0.2-0.3,0.4c0,0.2,0.1,0.3,0.3,0.4s0.4,0.2,0.7,0.2c0.4,0,0.8,0,1.2,0s0.7,0.1,0.9,0.2
			c0.6,0.2,1,0.4,1.4,0.6c0.4,0.2,0.6,0.5,0.7,0.8c0.2,0.4,0.3,0.8,0.3,1.4c0,0.3,0,0.7,0,1c0,0.4,0,0.8,0,1.3c0,0.6,0,1.1,0,2
			c0,0.7,0,1.7,0,2.9c0,1.1,0,2.5,0,4.1V-356.2L255.4-356.2z M241.4-351.8c0-1.6,0-3,0-4.2c0-1.2,0-2.3,0.1-3.3c0-1.1,0.2-2,0.6-2.5
			c0.4-0.6,0.9-0.9,1.8-1c0.4-0.1,0.7-0.1,0.9-0.2c0.3,0,0.5,0,0.7,0s0.4,0,0.6-0.1c0.2-0.1,0.2-0.2,0.3-0.4c0-0.3-0.1-0.4-0.3-0.5
			c-0.2-0.1-0.6-0.1-0.9-0.1c-0.7,0-1.5,0-2.3,0.1c-0.8,0-1.8,0.1-2.6,0.1s-1.7,0.1-2.3,0.1c-0.7,0-1.5,0-2.4-0.1
			c-1,0-2.1-0.1-3.3-0.1c-1.1,0-2.2-0.1-3.4-0.1c-0.5,0-0.7,0-0.9,0.1c-0.2,0.1-0.4,0.3-0.4,0.5c0,0.2,0.1,0.3,0.3,0.4
			c0.2,0.1,0.4,0.1,0.7,0.1c0.5,0,0.9,0,1.4,0s0.8,0.1,1,0.2c0.7,0.2,1.2,0.4,1.6,0.7c0.4,0.3,0.7,0.7,0.8,1.1
			c0.2,0.5,0.3,1,0.3,1.8c0,0.9,0.1,2,0.1,3.2s0,2.6,0,4.2v5.9c0,0.6-0.1,1-0.3,1.4s-0.5,0.7-0.9,0.9c-0.5,0.2-1,0.4-1.7,0.5
			s-1.2,0.2-1.9,0.2s-1.2,0-1.8,0c-2.6,0-5-0.4-7.3-1.1c-2.2-0.7-4.3-1.9-6.1-3.3c-1.8-1.4-3.3-3.1-4.6-5c-1.2-2-2.2-4.1-2.9-6.4
			c-0.7-2.3-1-4.9-1-7.6c0-2.5,0.3-4.8,0.7-6.7c0.5-2,1.1-3.6,2-5c0.8-1.4,1.9-2.6,3.1-3.5c1.1-0.9,2.2-1.6,3.3-2.1
			c1.1-0.6,2.1-0.9,3.3-1.1c1-0.3,2.1-0.4,3.1-0.5c1-0.1,1.9-0.1,2.8-0.1c1.8,0,3.4,0.2,4.9,0.5c1.5,0.3,2.8,0.7,4,1.2
			s2.2,1,3.1,1.6c0.8,0.6,1.5,1.1,2,1.6c0.6,0.6,0.9,1.2,1.2,1.8c0.3,0.7,0.5,1.2,0.7,1.8c0.1,0.6,0.2,1.1,0.3,1.6
			c0,0.3,0.1,0.5,0.2,0.6c0.1,0.2,0.3,0.2,0.5,0.2c0.3,0,0.5-0.1,0.6-0.3c0.1-0.2,0.2-0.6,0.2-1c0-2,0-3.5,0.1-4.8
			c0-1.3,0.1-2.2,0.2-3c0.1-0.8,0.1-1.3,0.2-1.7c0-0.4,0.1-0.7,0.1-0.7c0-0.2,0-0.4-0.2-0.6c-0.1-0.1-0.4-0.2-0.7-0.2
			c-0.5,0-1-0.1-1.6-0.2s-1.2-0.2-1.8-0.3c-0.6-0.1-1.1-0.2-1.6-0.3c-0.3-0.1-0.8-0.2-1.7-0.3c-0.7-0.1-1.7-0.2-2.7-0.4
			c-1-0.1-2.1-0.2-3.3-0.3c-1.1-0.1-2.2-0.1-3.4-0.1c-1.8,0-3.5,0.1-5.3,0.3c-1.9,0.2-3.6,0.6-5.6,1.1c-1.9,0.6-3.8,1.5-5.9,2.7
			c-1.4,0.8-2.8,2-4.1,3.3c-1.3,1.3-2.4,2.8-3.5,4.5c-1,1.7-1.8,3.6-2.4,5.8c-0.6,2.1-0.8,4.4-0.9,6.9c0,3.5,0.6,6.5,1.5,9.2
			c1,2.7,2.4,4.9,4.2,6.9s3.9,3.5,6.3,4.8c2.4,1.2,5,2.1,7.9,2.8c2.8,0.6,5.8,0.9,8.9,0.9c1.2,0,2.5,0,3.8-0.2
			c1.3-0.1,2.6-0.3,4-0.5c1.3-0.2,2.6-0.5,3.8-0.8c1.2-0.3,2.3-0.8,3.4-1.3c0.3-0.1,0.5-0.3,0.6-0.4s0.2-0.4,0.2-0.6
			c0-0.3,0-0.7,0-1.2L241.4-351.8L241.4-351.8z"/>
		<path class="st1" d="M581-340c1,0,2.1,0,3.1-0.2c1.1-0.1,2.1-0.3,3.2-0.7c1-0.3,2.1-0.7,2.9-1.4c1.3-0.9,2.4-2,3.2-3
			s1.4-2.1,1.8-3.3c0.4-1.1,0.6-2.4,0.6-3.7c0-1.6-0.3-3.1-0.8-4.6c-0.6-1.5-1.6-2.9-3-4.3s-3.3-2.7-5.7-4l-2.2-1.2
			c-1.2-0.7-2.2-1.3-3-2c-0.7-0.6-1.3-1.2-1.8-1.8c-0.4-0.6-0.7-1.1-0.8-1.7c-0.2-0.6-0.2-1.1-0.2-1.7c0-0.9,0.2-1.7,0.7-2.4
			c0.4-0.7,0.9-1.3,1.7-1.8c0.7-0.5,1.5-0.8,2.4-1.1c0.9-0.3,1.9-0.4,2.8-0.4c1.2,0,2.1,0.2,3,0.5c0.8,0.3,1.5,0.6,2,0.9
			c0.5,0.4,0.9,0.7,1.1,1.1c0.4,0.5,0.7,0.9,0.9,1.4s0.4,0.9,0.5,1.3c0.1,0.4,0.1,0.7,0.1,0.8c0,0.7,0.2,0.9,0.6,0.9
			c0.2,0,0.4-0.2,0.5-0.5c0.1-0.3,0.2-0.7,0.2-1.2c0-1.4,0-2.5,0.1-3.4c0-0.8,0.1-1.5,0.1-2s0.1-0.8,0.1-1c0-0.2-0.1-0.4-0.2-0.5
			s-0.3-0.2-0.6-0.3c-0.7-0.2-1.8-0.4-3.1-0.6c-1.3-0.2-2.9-0.3-4.7-0.3c-2,0-3.7,0.3-5.4,0.7c-1.7,0.5-3.2,1.2-4.4,2.1
			c-1.3,0.9-2.2,2.1-3,3.4c-0.7,1.3-1.1,2.8-1.1,4.4c0,1.6,0.3,3,0.7,4.4c0.6,1.4,1.5,2.6,2.7,3.9c1.2,1.2,3,2.5,5.1,3.7l3.2,1.9
			c1.2,0.7,2.1,1.4,2.9,2.1c0.7,0.7,1.3,1.3,1.7,1.9c0.4,0.7,0.6,1.2,0.7,1.8c0.1,0.6,0.2,1.1,0.2,1.8c0,1.2-0.3,2.4-0.9,3.5
			c-0.7,1-1.5,1.9-2.6,2.4c-1.1,0.6-2.5,0.9-4.1,0.9c-0.8,0-1.8-0.1-2.6-0.3c-0.9-0.2-1.8-0.5-2.6-0.8c-0.8-0.4-1.5-0.9-2.1-1.6
			c-0.7-0.7-1.1-1.5-1.4-2.5c-0.2-0.5-0.3-0.9-0.4-1.5c-0.1-0.5-0.1-0.9-0.1-1.3c0-0.2,0-0.4-0.1-0.6c-0.1-0.2-0.2-0.3-0.5-0.3
			c-0.2,0-0.4,0.1-0.5,0.4c-0.1,0.3-0.2,0.6-0.2,1c0,0.2,0,0.6-0.1,1c0,0.5-0.1,1-0.1,1.7c0,0.7-0.1,1.4-0.1,2.1c0,0.7,0,1.5,0,2.2
			c0,0.4,0,0.7,0.1,0.9c0.1,0.2,0.2,0.4,0.3,0.6c0.2,0.1,0.4,0.3,0.7,0.4c0.8,0.4,1.7,0.7,2.7,0.8c0.9,0.2,2,0.4,3.1,0.4
			C578.8-340.1,579.9-340,581-340 M540-356.2c0,1.7,0,3.2,0,4.6s0,2.7-0.1,3.8c0,1.1-0.1,2.1-0.2,2.9c-0.1,0.7-0.2,1.4-0.5,1.9
			c-0.2,0.5-0.7,0.7-1.1,0.9c-0.3,0.1-0.6,0.1-0.8,0.2c-0.3,0-0.7,0-1.1,0c-0.4,0-0.6,0.1-0.7,0.2s-0.2,0.3-0.2,0.4
			c0,0.2,0.1,0.3,0.3,0.4c0.2,0.1,0.5,0.2,0.7,0.2c0.6,0,1.2,0,1.9,0s1.3-0.1,2-0.1s1.3,0,1.9,0c0.6,0,0.9,0,1.3,0
			c0.8,0,1.8,0,2.8,0s2.2,0.1,3.5,0.1c1.3,0.1,2.8,0.1,4.5,0.1s3.5,0.1,5.6,0.1c0.7,0,1.2,0,1.6-0.1c0.4,0,0.7-0.2,0.8-0.4
			c0.2-0.2,0.4-0.6,0.5-0.9c0.1-0.3,0.2-0.7,0.3-1.2c0.1-0.6,0.2-1.1,0.3-1.7c0.1-0.7,0.1-1.2,0.2-1.7c0.1-0.6,0.1-0.9,0.1-1.3
			c0-0.3,0-0.6-0.1-0.8c-0.1-0.3-0.2-0.4-0.4-0.4s-0.3,0.1-0.4,0.2c-0.1,0.1-0.2,0.4-0.2,0.7c-0.2,1.1-0.5,2-0.8,2.5
			c-0.4,0.7-0.8,1.1-1.6,1.4c-0.5,0.2-1,0.4-1.7,0.5c-0.7,0.1-1.2,0.2-1.9,0.2s-1.2,0-1.7,0c-1.9,0-3.4-0.1-4.4-0.4
			c-1-0.3-1.9-0.7-2.3-1.3c-0.5-0.7-0.7-1.6-0.7-2.8c0-0.4,0-0.9,0-1.7c0-0.7,0-1.4,0-2.2c0-0.7,0-1.6,0-2.2c0-0.7,0-1.3,0-1.8v-4.2
			c0-0.2,0-0.3,0.1-0.4c0-0.1,0.1-0.2,0.3-0.2c0.3,0,0.7,0,1.3,0s1.2,0,2.1,0c0.7,0,1.5,0,2.2,0.1c0.7,0,1.4,0,2,0.1
			c0.6,0,0.9,0,1.1,0.1c0.7,0.1,1.2,0.2,1.7,0.4c0.4,0.2,0.7,0.5,0.9,0.7c0.2,0.3,0.4,0.7,0.5,0.9c0.1,0.4,0.1,0.7,0.1,1
			c0,0.3,0.1,0.7,0.1,0.9c0,0.1,0,0.2,0.1,0.3c0.1,0.1,0.2,0.1,0.4,0.1s0.3-0.1,0.4-0.2c0.1-0.1,0.1-0.3,0.2-0.5c0-0.2,0-0.4,0-0.5
			c0-0.1,0-0.3,0-0.6c0-0.3,0-0.6,0.1-0.9c0-0.4,0-0.7,0.1-1.1c0-0.4,0.1-0.7,0.1-0.9c0.1-0.8,0.2-1.6,0.3-2.1
			c0.1-0.6,0.1-0.9,0.2-1.2c0-0.3,0-0.5,0-0.6c0-0.2,0-0.3-0.1-0.4c-0.1-0.1-0.2-0.2-0.3-0.2s-0.3,0.1-0.4,0.2
			c-0.1,0.1-0.3,0.3-0.5,0.5c-0.3,0.3-0.7,0.5-1,0.6c-0.4,0.1-0.9,0.2-1.6,0.3c-0.3,0-0.7,0-1.4,0.1c-0.7,0-1.4,0-2.2,0
			s-1.7,0-2.5,0s-1.6,0-2.2,0c-0.7,0-1.1,0-1.4,0c-0.2,0-0.3-0.1-0.3-0.2c-0.1-0.1-0.1-0.3-0.1-0.4v-13.2c0-0.2,0-0.3,0.1-0.4
			c0.1-0.1,0.2-0.1,0.3-0.1c0.3,0,0.7,0,1.2,0c0.6,0,1.2,0,2.1,0c0.7,0,1.5,0,2.2,0.1c0.7,0,1.4,0,2,0.1c0.6,0,0.9,0,1.1,0.1
			c0.9,0.1,1.6,0.2,2.1,0.4c0.5,0.2,0.8,0.4,1,0.7s0.4,0.6,0.6,0.8c0.1,0.2,0.2,0.5,0.3,0.7c0.1,0.3,0.1,0.5,0.1,0.7
			c0,0.2,0,0.4,0,0.6c0,0.2,0,0.4,0.1,0.5c0.1,0.1,0.2,0.2,0.4,0.2s0.3-0.1,0.4-0.2c0.1-0.1,0.2-0.2,0.2-0.4c0-0.1,0.1-0.3,0.1-0.4
			c0-0.2,0.1-0.4,0.1-0.7s0.1-0.7,0.1-1c0-0.4,0.1-0.7,0.1-1c0-0.3,0.1-0.6,0.1-0.7c0-0.8,0.1-1.4,0.2-1.9c0.1-0.5,0.1-0.8,0.2-1
			c0.1-0.2,0.1-0.4,0.1-0.6c0-0.1,0-0.3-0.1-0.4c-0.1-0.1-0.2-0.2-0.3-0.2s-0.3,0-0.4,0.1c-0.2,0.1-0.3,0.1-0.5,0.2
			c-0.2,0-0.6,0.1-0.9,0.2c-0.4,0.1-0.8,0.1-1.4,0.2c-0.2,0-0.7,0-1.3,0c-0.7,0-1.6,0-2.6,0s-2.1,0-3.3,0s-2.2,0-3.4,0
			c-1,0-2,0-2.8,0c-0.7,0-1.3,0-1.7,0c-0.6,0-1.2,0-2.1,0c-0.8,0-1.8,0-2.8-0.1c-1,0-2.1,0-3,0c-0.4,0-0.7,0-0.9,0.1
			s-0.7,0.1-0.7,0.3s0.1,0.3,0.3,0.4s0.4,0.2,0.7,0.2c0.4,0,0.8,0,1.2,0s0.7,0.1,0.9,0.2c0.6,0.2,1,0.4,1.4,0.6
			c0.4,0.2,0.6,0.5,0.7,0.8c0.2,0.4,0.3,0.8,0.3,1.4c0,0.3,0,0.7,0,1c0,0.4,0,0.8,0,1.3c0,0.6,0,1.1,0,2c0,0.7,0,1.7,0,2.9
			c0,1.1,0,2.5,0,4.1v9.5L540-356.2L540-356.2z M505.3-365.5c0-1.6,0-3,0-4.1c0-1.1,0-2.1,0-2.9c0-0.7,0-1.4,0-2c0-0.5,0-0.9,0-1.3
			c0-0.4,0-0.7,0-1c0-0.9,0.2-1.6,0.5-2.1s0.8-0.7,1.6-0.8c0.4-0.1,0.6-0.1,0.8-0.2c0.2,0,0.5,0,0.7,0s0.4-0.1,0.6-0.2
			c0.1-0.1,0.2-0.2,0.2-0.4c0-0.2-0.1-0.3-0.3-0.4s-0.5-0.1-0.9-0.1s-1,0-1.7,0s-1.3,0-2.1,0c-0.7,0-1.3,0-2,0c-0.6,0-1,0-1.4,0
			c-0.5,0-1.1,0-2,0c-0.8,0-1.8,0-2.8-0.1c-1,0-2,0-3,0c-0.4,0-0.7,0-0.9,0.1c-0.2,0.1-0.3,0.2-0.3,0.4c0,0.2,0.1,0.3,0.3,0.4
			c0.2,0.1,0.4,0.2,0.7,0.2c0.4,0,0.8,0,1.2,0c0.4,0,0.7,0.1,0.9,0.2c0.6,0.2,1,0.4,1.4,0.6c0.4,0.2,0.6,0.5,0.7,0.8
			s0.3,0.8,0.3,1.4c0,0.3,0,0.7,0,1c0,0.4,0,0.8,0,1.3c0,0.6,0,1.1,0,2c0,0.7,0,1.7,0,2.9c0,1.1,0,2.5,0,4.1v9.3c0,1.7,0,3.2,0,4.6
			s0,2.7-0.1,3.8c0,1.1-0.1,2.1-0.2,2.9c-0.1,0.7-0.2,1.4-0.5,1.9c-0.2,0.5-0.7,0.7-1.1,0.9c-0.3,0.1-0.6,0.1-0.8,0.2
			c-0.3,0-0.7,0-1.1,0s-0.6,0.1-0.7,0.2s-0.2,0.3-0.2,0.4c0,0.2,0.1,0.3,0.3,0.4c0.2,0.1,0.5,0.2,0.7,0.2c0.6,0,1.1,0,1.9,0
			c0.7,0,1.3,0,2-0.1c0.7,0,1.2,0,1.8-0.1c0.6,0,0.9,0,1.3,0s0.8,0,1.5,0s1.3,0,2.1,0.1c0.7,0,1.6,0,2.4,0.1c0.8,0,1.7,0,2.4,0
			c0.3,0,0.6-0.1,0.7-0.2c0.2-0.1,0.3-0.2,0.3-0.4c0-0.1-0.1-0.3-0.2-0.4c-0.1-0.1-0.3-0.2-0.6-0.2s-0.5,0-0.8,0s-0.7,0-0.9-0.1
			c-0.3,0-0.7-0.1-0.8-0.1c-0.7-0.1-1.1-0.5-1.5-0.9c-0.3-0.5-0.5-1.1-0.6-1.9c0-0.7-0.1-1.8-0.1-2.9c0-1.1,0-2.4,0-3.8
			c0-1.4,0-3,0-4.6v-4.9h0.3l0.6,0.7c0.2,0.3,0.7,0.8,1.3,1.6c0.7,0.7,1.4,1.7,2.3,2.8c0.9,1.1,1.9,2.2,3,3.4c1,1.2,2.1,2.3,3.1,3.5
			c1,1.1,1.9,2.1,2.7,2.9c0.7,0.8,1.4,1.4,1.8,1.8c0.7,0.7,1.5,1.3,2.2,1.8s1.5,0.8,2.2,1.1c0.7,0.3,1.7,0.5,2.6,0.6
			c0.6,0.1,1.1,0.1,1.8,0.1c0.6,0,1.3,0,2.1,0h4.9c0.5,0,0.8-0.1,1-0.2s0.3-0.2,0.3-0.4c0-0.2-0.1-0.3-0.2-0.4
			c-0.1-0.1-0.3-0.2-0.6-0.2s-0.7,0-1.3-0.1s-1.2-0.3-2.1-0.6c-0.9-0.4-1.9-0.9-2.7-1.5s-1.7-1.2-2.4-2c-0.7-0.7-1.6-1.5-2.3-2.1
			c-0.4-0.4-0.9-0.9-1.7-1.7c-0.7-0.7-1.7-1.7-2.7-2.7s-2.1-2.1-3.2-3.3c-1.1-1.1-2.1-2.2-3.1-3.3c-1-1-1.9-2.1-2.6-2.9
			c-0.7-0.8-1.3-1.5-1.6-1.9c0.4-0.4,0.9-1,1.7-1.8c0.7-0.7,1.7-1.7,2.6-2.6c1-0.9,2-1.9,3-2.8s1.9-1.8,2.6-2.5
			c0.7-0.7,1.4-1.3,1.7-1.6c1.1-1.1,2.1-2,3.1-2.5c0.9-0.7,1.9-1.1,2.7-1.4c0.4-0.1,0.7-0.3,1.1-0.4c0.4-0.1,0.7-0.2,1.1-0.2
			c0.4-0.1,0.7-0.1,0.9-0.1s0.5-0.1,0.6-0.2c0.2-0.1,0.2-0.2,0.2-0.4c0-0.2-0.1-0.3-0.3-0.4c-0.2-0.1-0.4-0.1-0.7-0.1
			c-0.6,0-1.2,0-2.1,0c-0.7,0-1.6,0-2.3,0.1c-0.7,0-1.5,0-2.1,0c-0.4,0-0.8,0-1.4,0c-0.6,0-1,0-1.6,0s-1,0-1.6,0c-0.5,0-0.8,0-1.2,0
			c-0.3,0-0.5,0-0.7,0.1c-0.2,0.1-0.2,0.2-0.2,0.4c0,0.2,0.1,0.3,0.2,0.4c0.1,0.1,0.3,0.2,0.6,0.2c0.3,0.1,0.5,0.2,0.6,0.4
			c0.1,0.2,0.2,0.4,0.2,0.7c0,0.5-0.3,1-0.7,1.7c-0.5,0.7-1.1,1.4-2,2.2c-0.4,0.4-0.8,0.9-1.7,1.7c-0.7,0.7-1.6,1.7-2.6,2.6
			c-0.9,0.9-2,2-2.9,2.9c-0.9,0.9-1.9,1.9-2.6,2.6c-0.7,0.7-1.4,1.4-1.8,1.8h-0.3v-2L505.3-365.5L505.3-365.5z M463.1-357.1
			c-0.1,0-0.2,0-0.2-0.1c0-0.1,0-0.2,0-0.3l5.3-13.3c0-0.1,0.1-0.2,0.1-0.3s0.1-0.2,0.2-0.2s0.1,0.1,0.2,0.2c0,0.1,0.1,0.2,0.1,0.3
			l5.2,13.4c0,0.1,0,0.2,0,0.2c0,0.1-0.1,0.1-0.3,0.1C473.7-357.1,463.1-357.1,463.1-357.1z M474.8-354.2c0.1,0,0.3,0,0.4,0.1
			s0.2,0.2,0.2,0.3l4.3,10.7c0.1,0.3,0.1,0.6,0,0.8c-0.1,0.2-0.3,0.4-0.5,0.4c-0.3,0-0.5,0.1-0.6,0.2s-0.2,0.2-0.1,0.4
			c0,0.2,0.2,0.3,0.5,0.4c0.3,0.1,0.7,0.1,1.2,0.1c1.6,0,3,0.1,4.4,0.1s2.5,0,3.6,0c1,0,2,0,2.6,0c0.7,0,1.2,0,1.5-0.1
			c0.4,0,0.6-0.1,0.7-0.2s0.2-0.2,0.2-0.4c0-0.4-0.3-0.6-0.7-0.6c-0.3,0-0.7,0-0.9,0c-0.4,0-0.7-0.1-1.1-0.2c-0.3,0-0.6-0.1-0.8-0.3
			c-0.3-0.2-0.7-0.5-1-0.8c-0.4-0.4-0.8-0.9-1.3-1.7c-0.5-0.7-0.9-1.7-1.5-2.9c-0.5-1.1-1.1-2.5-1.8-4.2c-0.7-1.6-1.5-3.4-2.2-5.2
			c-0.8-1.9-1.7-3.8-2.5-5.8s-1.7-3.9-2.5-5.8s-1.6-3.5-2.2-5.1c-0.7-1.6-1.2-2.9-1.8-4c-0.5-1.1-0.8-1.9-1-2.3s-0.4-0.7-0.5-0.9
			c-0.2-0.3-0.3-0.5-0.5-0.6s-0.4-0.2-0.7-0.2c-0.3,0-0.6,0.2-0.7,0.5c-0.3,0.4-0.6,0.8-0.8,1.6l-14.4,33.1
			c-0.4,0.9-0.7,1.7-1.1,2.3c-0.4,0.7-0.8,1.2-1.4,1.6s-1.2,0.7-2.1,0.7c-0.3,0-0.6,0-0.8,0s-0.6,0-0.8,0c-0.2,0-0.4,0.1-0.5,0.2
			s-0.2,0.3-0.2,0.4c0,0.2,0.1,0.4,0.3,0.5c0.2,0.1,0.4,0.1,0.7,0.1c0.9,0,1.9,0,2.8-0.1c0.9,0,1.7-0.1,2.3-0.1s1-0.1,1.3-0.1
			c0.6,0,1.2,0,2,0.1c0.7,0,1.4,0.1,2.1,0.1s1.4,0.1,2,0.1c0.3,0,0.5,0,0.7-0.1s0.2-0.2,0.2-0.5c0-0.2,0-0.3-0.2-0.4
			c-0.1-0.1-0.4-0.2-0.7-0.2h-0.8c-0.8,0-1.4-0.1-1.8-0.4c-0.3-0.3-0.5-0.7-0.5-1.1c0-0.3,0.1-0.7,0.2-1.4c0.1-0.6,0.4-1.2,0.7-1.9
			l2.9-7.2c0.1-0.2,0.1-0.3,0.2-0.3c-0.1,0-0.1,0,0,0h13L474.8-354.2L474.8-354.2z M430.5-369.9c0-1.9,0-3.5,0-4.9
			c0-1.3,0-2.4,0-3.4s0-1.7,0-2.2c0-0.6,0-1.1,0-1.6s0-0.8,0.1-1.2c0-1.1,0.3-2,0.6-2.5c0.4-0.6,0.9-0.9,1.8-1
			c0.4-0.1,0.8-0.1,1.2-0.2c0.5,0,0.8,0,1.2,0s0.7,0,0.8-0.1c0.2-0.1,0.3-0.3,0.3-0.5c0-0.2-0.1-0.4-0.4-0.5
			c-0.2-0.1-0.6-0.1-0.9-0.1c-0.7,0-1.3,0-2.1,0c-0.8,0-1.6,0-2.4,0.1c-0.8,0-1.6,0-2.2,0.1c-0.7,0-1.2,0-1.6,0c-0.5,0-0.9,0-1.7,0
			c-0.7,0-1.4,0-2.1-0.1c-0.7,0-1.6-0.1-2.4-0.1s-1.6,0-2.3,0c-0.5,0-0.8,0-1,0.1c-0.2,0.1-0.4,0.2-0.4,0.5c0,0.2,0.1,0.4,0.3,0.5
			c0.2,0.1,0.5,0.1,0.7,0.1c0.4,0,0.7,0,1.1,0s0.7,0.1,0.9,0.2c0.7,0.1,1.2,0.4,1.6,0.7s0.7,0.7,0.8,1.1c0.2,0.5,0.3,1,0.3,1.8
			c0,0.4,0,0.8,0.1,1.2c0,0.5,0,0.9,0,1.6c0,0.6,0,1.4,0,2.2c0,0.9,0,2.1,0,3.4c0,1.3,0,3,0,4.9v11c0,2,0,3.7,0,5.4
			c0,1.7,0,3.2-0.1,4.6c0,1.3-0.1,2.4-0.2,3.4c-0.1,0.6-0.2,1.1-0.3,1.7c-0.1,0.5-0.3,0.8-0.6,1.2c-0.2,0.3-0.6,0.6-0.9,0.6
			c-0.3,0.1-0.6,0.1-0.9,0.2c-0.4,0-0.8,0.1-1.3,0.1c-0.4,0-0.7,0-0.7,0.1c-0.2,0.1-0.2,0.2-0.2,0.4c0,0.2,0.1,0.4,0.3,0.5
			c0.2,0.1,0.6,0.2,0.9,0.2c0.7,0,1.3,0,2.1-0.1c0.7,0,1.5-0.1,2.2-0.1s1.5-0.1,2.1-0.1c0.7,0,1.1,0,1.5,0c0.8,0,1.7,0,2.5,0
			s1.7,0,2.5,0.1c0.8,0,1.8,0.1,2.6,0.1c1.4,0,2.9,0.1,4.7,0.1c1.7,0,3.6,0.1,5.9,0.1c0.8,0,1.4,0,2-0.1c0.5,0,0.8-0.1,1.1-0.3
			c0.3-0.1,0.5-0.3,0.6-0.5c0.1-0.2,0.2-0.5,0.3-0.8c0.1-0.4,0.2-0.8,0.3-1.4c0.1-0.6,0.2-1.1,0.3-1.8c0.1-0.7,0.2-1.2,0.2-1.8
			c0.1-0.6,0.1-1,0.1-1.5c0-0.4,0.1-0.7,0.1-0.8c0-0.4,0-0.7-0.1-0.8c-0.1-0.2-0.2-0.3-0.4-0.3c-0.3,0-0.4,0.1-0.5,0.3
			c-0.1,0.2-0.2,0.4-0.2,0.7c0,0.4-0.2,0.8-0.3,1.3c-0.2,0.5-0.4,0.9-0.6,1.3c-0.2,0.5-0.5,0.7-0.7,1c-0.6,0.6-1.1,0.9-1.9,1.2
			c-0.7,0.3-1.5,0.4-2.4,0.5c-0.9,0.1-2,0.1-3,0.1c-1.6,0-2.9-0.1-3.9-0.2c-0.9-0.1-1.8-0.3-2.3-0.5c-0.6-0.2-1-0.5-1.4-0.7
			c-0.5-0.4-0.7-1.1-0.9-2.2c-0.2-1.1-0.3-2.6-0.4-4.5c0-1.9-0.1-4.1-0.1-6.8L430.5-369.9L430.5-369.9z"/>
	</g>
</g>
<g>
	<g>
		<path class="st0" d="M83.8,14.3c-1.8,4.4-10,3.9-5.3,13.1c-2.7-1.4-10-3.1-11,4.2c-0.3,4.6,3.5,5.2,4.1,7.9
			c-0.3,2.2-1.7,2.4-3.9,0.2c-0.9,5,5,6.8,7.4,2c0.8-1.6-0.4-4.5,2.3-4.7c8.1,7.2-7.3,17.7-13,8.1l0,0c0.5-0.7,0.8-1.6,0.8-2.5
			c0-2.2-1.8-4.1-4.1-4.1S57,40.3,57,42.6c0,1.6,0.9,3,2.2,3.6l-0.4,0.1c-1.7,2.1-3.9,3.2-6.5,2.8c-4-1.5-5.7-4.9-5-10
			c2.1,6,4.7,7.5,7.8,5.7c-5.2-4.6,2.5-18.8-8.8-12.7c4.6-9.5-4.8-9.5-7.1-14.2l5.1,23.3l0,0.1c-3.3,1.9-2.1,6.7,1.1,7.4l1.2,1.8
			c-1.5,1.1-0.2,2.4,1,2.1l1.2,4.3l29.9-3.1l-30.2,4.6c-1.2,0.9-0.8,2.8,1,2.7l0.2,3h33.9h0h33.9l0,0l0,0l0.2-3
			c1.8,0.1,2.2-1.8,1-2.7l-30.2-4.6l29.9,3.1l1.2-4.3c1.2,0.3,2.6-0.9,1-2.1l1.2-1.8c3.2-0.8,4.4-5.5,1.1-7.4l0-0.1l5.1-23.3
			c-2.4,4.7-11.7,4.7-7.1,14.2c-11.2-6.1-3.6,8.1-8.8,12.7c3,1.8,5.7,0.3,7.8-5.7c0.6,5.1-1,8.5-5,10c-2.7,0.4-4.8-0.6-6.5-2.8
			l-0.4-0.1c1.3-0.7,2.2-2,2.2-3.6c0-2.2-1.8-4.1-4.1-4.1c-2.2,0-4.1,1.8-4.1,4.1c0,0.9,0.3,1.8,0.8,2.5l0,0
			c-5.8,9.6-21.1-0.9-13-8.1c2.7,0.3,1.5,3.2,2.3,4.7c2.4,4.8,8.3,3,7.4-2c-2.2,2.2-3.6,2-3.9-0.2c0.6-2.7,4.4-3.3,4.1-7.9
			c-1-7.3-8.4-5.6-11-4.2C93.8,18.2,85.6,18.7,83.8,14.3z"/>
		<path class="st0" d="M34.4,67.5h98.8v90.8l-49.4,26.4l-49.4-26.4V67.5L34.4,67.5z M37.9,71.1v85.1l45.8,24.5l45.8-24.5V71.1H37.9z
			"/>
		<path class="st0" d="M41.1,74.3v18.7c0-0.3,0.3-0.4,1-0.4c2.4,0,5.3,0.1,6.2,0.1c1.5,0,5-0.1,6.4-0.1c2.9,0,5.9,0.3,8.3,1.9
			c1.3,0.9,3.1,3.2,3.1,6.2c0,3.4-1.4,6.4-6,10.2c4,5.1,7.2,9.1,9.8,11.9c1.8,1.9,3.3,2.6,4.2,2.9c0-1.4,0-2.8,0-4.4v-8
			c0-6.9,0-8.2-0.1-9.6c-0.1-1.5-0.5-2.3-1.9-2.6c-0.4-0.1-0.9-0.1-1.5-0.1c-0.5,0-0.8-0.1-0.8-0.4c0-0.3,0.3-0.4,1-0.4
			c2.1,0,5,0.1,6.2,0.1c1.1,0,4.4-0.1,6.2-0.1c0.6,0,1,0.1,1,0.4c0,0.3-0.3,0.4-0.8,0.4c-0.5,0-1.2,0-1.8,0.1
			c-1.2,0.2-1.6,1-1.7,2.6c-0.1,1.4-0.1,2.7-0.1,9.6v8c0,5.8,0,8.9,1,9.7c0.8,0.7,1.9,1,5.5,1c2.4,0,4.2,0,5.3-1.3
			c0,0,0.1-0.1,0.1-0.2c0.1-7.2,3.8-12.2,7.9-14.7c4.3-2.6,8.4-2.9,12.2-2.9c3.1,0,7.1,0.5,8,0.7c1,0.2,2.5,0.5,3.6,0.5
			c0.5,0,0.6,0.2,0.6,0.5c0,0.5-0.3,1.8-0.3,7.4c0,0.7-0.1,1-0.5,1c-0.3,0-0.4-0.2-0.5-0.6c-0.1-1-0.4-2.5-1.5-3.8
			c-1.4-1.5-5-3.5-10.1-3.5c-2.5,0-5.8,0.2-9,2.8c-2.5,2.1-4.2,5.5-4.2,11.1c0,9.7,6.2,17,15.8,17c1.2,0,2.8,0,3.9-0.5
			c0.7-0.3,0.9-0.9,0.9-1.7v-4.3c0-2.3,0-4,0-5.3c0-1.5-0.5-2.3-1.9-2.6c-0.4-0.1-1.1-0.1-1.8-0.1c-0.4,0-0.7-0.1-0.7-0.4
			c0-0.4,0.3-0.5,1-0.5c2.4,0,5.2,0.1,6.6,0.1c1.3,0,3.4-0.1,4.9-0.1V74.3H41.1L41.1,74.3z M92.1,134.3c1.8,9.9,10.7,14.1,20.6,14.1
			c3.5,0,8-0.5,10.9-2c0.5-0.3,0.6-0.4,0.6-1.6v-5c0-2.3,0-4.1,0-5.4c0-1.6,0.5-2.4,1.7-2.6l0.5-0.1v22.6l-42.7,22.8l-42.7-22.8V93
			c0,0.3,0.3,0.4,0.8,0.4c0.6,0,1.4,0,1.8,0.1c1.5,0.3,1.9,1,1.9,2.6c0.1,1.5,0.1,2.7,0.1,9.6v8c0,4.2,0,7.7-0.2,9.7
			c-0.2,1.3-0.4,2.3-1.3,2.5c-0.4,0.1-1,0.2-1.6,0.2c-0.5,0-0.7,0.1-0.7,0.4c0,0.3,0.3,0.5,0.9,0.5c1.8,0,4.7-0.1,5.5-0.1
			c0.7,0,4,0.1,6.7,0.1c0.6,0,0.9-0.1,0.9-0.5c0-0.2-0.2-0.4-0.5-0.4c-0.5,0-1.5-0.1-2.2-0.2c-1.4-0.2-1.6-1.2-1.8-2.5
			c-0.2-1.9-0.2-5.5-0.2-9.7V113c0-0.3,0.1-0.4,0.4-0.4l3.9,0.1c0.3,0,0.6,0,0.8,0.3c0.6,0.7,2.7,3.8,4.5,6.3
			c2.5,3.5,4.3,5.6,6.2,6.7c1.2,0.6,2.3,0.9,4.8,0.9h2.5c0,1.7-0.1,3.1-0.2,4.1c-0.2,1.3-0.4,2.3-1.3,2.5c-0.4,0.1-1,0.2-1.6,0.2
			c-0.5,0-0.7,0.1-0.7,0.4c0,0.3,0.3,0.5,0.9,0.5c0.9,0,2.1-0.1,3.1-0.1c1.1,0,2.1,0,2.6,0c1.9,0,3.5,0,5.5,0.1c2,0,4.4,0.1,7.7,0.1
			C91.1,134.5,91.7,134.5,92.1,134.3L92.1,134.3z M51.1,95.5c0-0.4,0.1-0.5,0.4-0.6c0.5-0.1,1.3-0.2,2.4-0.2c2.7,0,6.9,1.9,6.9,8.3
			c0,3.7-1.3,5.8-2.7,6.8c-0.8,0.6-1.4,0.8-3.2,0.8c-1.1,0-2.5-0.1-3.4-0.5c-0.3-0.1-0.4-0.3-0.4-0.8V95.5z"/>
	</g>
	<g>
		<path class="st1" d="M156.8,94.4c0-9.3,0-11-0.1-12.9c-0.1-2.1-0.6-3-2.6-3.5c-0.5-0.1-1.5-0.2-2.4-0.2c-0.7,0-1-0.1-1-0.5
			s0.4-0.5,1.3-0.5c3.2,0,7.1,0.2,8.4,0.2c2.1,0,6.7-0.2,8.6-0.2c3.8,0,7.9,0.4,11.2,2.6c1.7,1.2,4.1,4.3,4.1,8.4
			c0,4.5-1.9,8.7-8,13.7c5.4,6.8,9.6,12.3,13.2,16c3.4,3.5,5.9,4,6.8,4.1c0.7,0.1,1.2,0.2,1.7,0.2s0.7,0.2,0.7,0.5
			c0,0.5-0.4,0.6-1.2,0.6h-5.8c-3.4,0-4.9-0.3-6.5-1.2c-2.6-1.4-4.9-4.3-8.4-9c-2.4-3.4-5.2-7.5-6-8.4c-0.3-0.4-0.7-0.4-1.1-0.4
			l-5.3-0.1c-0.3,0-0.5,0.1-0.5,0.5v0.9c0,5.7,0,10.5,0.3,13.1c0.2,1.8,0.5,3.1,2.4,3.4c0.9,0.1,2.3,0.2,3,0.2
			c0.5,0,0.7,0.2,0.7,0.5c0,0.4-0.4,0.6-1.2,0.6c-3.5,0-8-0.2-9-0.2c-1.2,0-5,0.2-7.4,0.2c-0.8,0-1.2-0.2-1.2-0.6
			c0-0.3,0.2-0.5,1-0.5c0.9,0,1.6-0.1,2.2-0.2c1.2-0.2,1.5-1.6,1.8-3.4c0.3-2.6,0.3-7.4,0.3-13V94.4z M164,99.2
			c0,0.7,0.1,0.9,0.5,1.1c1.3,0.4,3.1,0.6,4.6,0.6c2.4,0,3.2-0.2,4.3-1c1.8-1.3,3.6-4.1,3.6-9.1c0-8.7-5.7-11.2-9.3-11.2
			c-1.5,0-2.6,0.1-3.2,0.2c-0.4,0.1-0.5,0.4-0.5,0.9V99.2z"/>
		<path class="st1" d="M195.9,99.7c0-10.4,6.9-23.9,25.2-23.9c15.2,0,24.6,8.8,24.6,22.8c0,14-9.8,25-25.2,25
			C203,123.7,195.9,110.5,195.9,99.7z M237.2,100.9c0-13.7-7.9-22.1-17.9-22.1c-7,0-15,3.9-15,19.1c0,12.7,7,22.7,18.7,22.7
			C227.3,120.6,237.2,118.5,237.2,100.9z"/>
		<path class="st1" d="M265.9,107c0-3.3-0.6-4.6-1.4-6.4c-0.4-1-8.6-14.4-10.7-17.6c-1.5-2.3-3-3.8-4.2-4.5
			c-0.8-0.4-1.8-0.8-2.6-0.8c-0.5,0-0.9-0.1-0.9-0.5c0-0.4,0.4-0.5,1.2-0.5c1.1,0,5.7,0.2,7.7,0.2c1.3,0,3.8-0.2,6.5-0.2
			c0.6,0,0.9,0.2,0.9,0.5c0,0.4-0.4,0.4-1.3,0.7c-0.5,0.1-0.9,0.6-0.9,1.1s0.3,1.2,0.7,2.1c0.9,1.8,9.4,16.5,10.4,18.2
			c0.6-1.5,8.3-14.9,9.1-16.8c0.6-1.3,0.9-2.4,0.9-3.2c0-0.6-0.2-1.3-1.3-1.5c-0.5-0.1-1.1-0.2-1.1-0.6c0-0.4,0.3-0.5,1-0.5
			c2,0,4,0.2,5.7,0.2c1.3,0,5.4-0.2,6.5-0.2c0.7,0,1.1,0.1,1.1,0.5c0,0.4-0.5,0.6-1.2,0.6c-0.6,0-1.8,0.2-2.7,0.7
			c-1.3,0.6-2,1.3-3.3,3c-2,2.4-10.6,16.8-11.6,19.4c-0.9,2.2-0.9,4.1-0.9,6.1v5c0,1,0,3.5,0.2,6.1c0.1,1.8,0.7,3.1,2.5,3.4
			c0.9,0.1,2.2,0.2,3.1,0.2c0.7,0,1,0.2,1,0.5c0,0.4-0.5,0.6-1.3,0.6c-3.8,0-7.7-0.2-9.3-0.2c-1.5,0-5.4,0.2-7.6,0.2
			c-0.9,0-1.3-0.1-1.3-0.6c0-0.3,0.3-0.5,1-0.5c0.9,0,1.6-0.1,2.1-0.2c1.2-0.2,1.8-1.6,1.9-3.4c0.2-2.6,0.2-5.1,0.2-6.1V107z"/>
		<path class="st1" d="M301.2,106.9c-0.3,0-0.4,0.1-0.5,0.5l-3.3,8.7c-0.6,1.5-0.9,3-0.9,3.7c0,1.1,0.5,1.9,2.4,1.9h0.9
			c0.7,0,0.9,0.1,0.9,0.5c0,0.5-0.4,0.6-1,0.6c-2,0-4.6-0.2-6.5-0.2c-0.7,0-4,0.2-7.2,0.2c-0.8,0-1.2-0.1-1.2-0.6
			c0-0.4,0.2-0.5,0.7-0.5c0.5,0,1.4-0.1,1.9-0.1c2.8-0.4,4-2.4,5.2-5.5l15.3-38.3c0.7-1.8,1.1-2.4,1.7-2.4c0.5,0,0.9,0.5,1.5,2
			c1.5,3.4,11.2,28.2,15.1,37.5c2.3,5.5,4.1,6.3,5.4,6.6c0.9,0.2,1.8,0.2,2.6,0.2c0.5,0,0.8,0.1,0.8,0.5c0,0.5-0.5,0.6-2.8,0.6
			c-2.2,0-6.6,0-11.5-0.1c-1.1-0.1-1.8-0.1-1.8-0.5c0-0.4,0.2-0.5,0.9-0.5c0.4-0.1,0.9-0.7,0.5-1.4l-4.9-12.9
			c-0.1-0.3-0.3-0.4-0.6-0.4H301.2z M313.6,103.8c0.3,0,0.4-0.2,0.3-0.4l-5.5-15.1c-0.1-0.2-0.1-0.5-0.3-0.5c-0.2,0-0.3,0.3-0.4,0.5
			l-5.6,15c-0.1,0.2,0,0.4,0.2,0.4H313.6z"/>
		<path class="st1" d="M349,105.1c0,7.8,0,12,1.3,13.1c1,0.9,2.6,1.3,7.4,1.3c3.2,0,5.6-0.1,7.1-1.7c0.7-0.8,1.5-2.5,1.6-3.7
			c0.1-0.5,0.2-0.9,0.7-0.9c0.4,0,0.5,0.3,0.5,1c0,0.7-0.4,5.2-0.9,7c-0.4,1.3-0.7,1.6-3.8,1.6c-4.4,0-7.6-0.1-10.3-0.2
			c-2.7-0.1-4.9-0.2-7.4-0.2c-0.7,0-2,0-3.5,0.1c-1.4,0-3,0.1-4.2,0.1c-0.8,0-1.2-0.2-1.2-0.6c0-0.3,0.2-0.5,1-0.5
			c0.9,0,1.6-0.1,2.2-0.2c1.2-0.2,1.5-1.6,1.8-3.4c0.3-2.6,0.3-7.4,0.3-13V94.4c0-9.3,0-11-0.1-12.9c-0.1-2.1-0.6-3-2.6-3.5
			c-0.5-0.1-1.2-0.2-2-0.2c-0.7,0-1-0.1-1-0.5s0.4-0.5,1.3-0.5c2.9,0,6.7,0.2,8.4,0.2c1.5,0,5.9-0.2,8.3-0.2c0.9,0,1.3,0.1,1.3,0.5
			s-0.4,0.5-1.1,0.5c-0.7,0-1.6,0.1-2.4,0.2c-1.6,0.3-2.1,1.3-2.3,3.5c-0.1,2-0.1,3.7-0.1,12.9V105.1z"/>
		<path class="st1" d="M404.2,105.1c0,7.8,0,12,1.3,13.1c1,0.9,2.6,1.3,7.4,1.3c3.2,0,5.6-0.1,7.1-1.7c0.7-0.8,1.5-2.5,1.6-3.7
			c0.1-0.5,0.2-0.9,0.7-0.9c0.4,0,0.5,0.3,0.5,1c0,0.7-0.4,5.2-0.9,7c-0.4,1.3-0.7,1.6-3.8,1.6c-4.4,0-7.6-0.1-10.3-0.2
			c-2.7-0.1-4.9-0.2-7.4-0.2c-0.7,0-2,0-3.5,0.1c-1.4,0-3,0.1-4.2,0.1c-0.8,0-1.2-0.2-1.2-0.6c0-0.3,0.2-0.5,1-0.5
			c0.9,0,1.6-0.1,2.2-0.2c1.2-0.2,1.5-1.6,1.8-3.4c0.3-2.6,0.3-7.4,0.3-13V94.4c0-9.3,0-11-0.1-12.9c-0.1-2.1-0.6-3-2.6-3.5
			c-0.5-0.1-1.2-0.2-2-0.2c-0.7,0-1-0.1-1-0.5s0.4-0.5,1.3-0.5c2.9,0,6.7,0.2,8.4,0.2c1.5,0,5.9-0.2,8.3-0.2c0.9,0,1.3,0.1,1.3,0.5
			s-0.4,0.5-1.1,0.5c-0.7,0-1.6,0.1-2.4,0.2c-1.6,0.3-2.1,1.3-2.3,3.5c-0.1,2-0.1,3.7-0.1,12.9V105.1z"/>
		<path class="st1" d="M433.5,94.4c0-9.3,0-11-0.1-12.9c-0.1-2.1-0.6-3-2.6-3.5c-0.5-0.1-1.5-0.2-2.4-0.2c-0.7,0-1-0.1-1-0.5
			s0.4-0.5,1.3-0.5c1.6,0,3.4,0.1,4.9,0.1c1.6,0.1,3,0.1,3.8,0.1c2,0,14.1,0,15.2-0.1c1.2-0.1,2.1-0.2,2.6-0.4
			c0.3-0.1,0.7-0.2,1-0.2c0.3,0,0.4,0.2,0.4,0.5c0,0.4-0.3,1.2-0.5,4c-0.1,0.6-0.2,3.3-0.3,4c-0.1,0.3-0.2,0.7-0.6,0.7
			c-0.4,0-0.5-0.3-0.5-0.9c0-0.4-0.1-1.5-0.4-2.2c-0.4-1.1-1-1.8-4.1-2.2c-1-0.1-7.4-0.2-8.7-0.2c-0.3,0-0.4,0.2-0.4,0.6V96
			c0,0.4,0.1,0.7,0.4,0.7c1.3,0,8.4,0,9.8-0.1c1.5-0.1,2.4-0.3,2.9-0.9c0.4-0.5,0.7-0.8,1-0.8c0.2,0,0.4,0.1,0.4,0.5
			s-0.2,1.3-0.5,4.5c-0.1,1.2-0.2,3.7-0.2,4.1c0,0.5,0,1.2-0.5,1.2c-0.4,0-0.5-0.2-0.5-0.5c-0.1-0.6-0.1-1.4-0.2-2.2
			c-0.3-1.2-1.2-2.1-3.4-2.4c-1.2-0.1-7.2-0.2-8.7-0.2c-0.3,0-0.4,0.2-0.4,0.6v4.8c0,2.1-0.1,7.7,0,9.5c0.1,4.2,1.1,5.1,7.3,5.1
			c1.6,0,4.1,0,5.7-0.7c1.6-0.7,2.3-2,2.7-4.5c0.1-0.7,0.2-0.9,0.7-0.9c0.5,0,0.5,0.5,0.5,1.1c0,1.4-0.5,5.5-0.8,6.8
			c-0.4,1.6-1,1.6-3.3,1.6c-4.6,0-7.9-0.1-10.6-0.2c-2.6-0.1-4.5-0.2-6.3-0.2c-0.7,0-2,0-3.5,0.1c-1.4,0-3,0.1-4.2,0.1
			c-0.8,0-1.2-0.2-1.2-0.6c0-0.3,0.2-0.5,1-0.5c0.9,0,1.6-0.1,2.2-0.2c1.2-0.2,1.5-1.6,1.8-3.4c0.3-2.6,0.3-7.4,0.3-13V94.4z"/>
		<path class="st1" d="M509,118.7c0,1.6-0.1,1.8-0.8,2.2c-4,2.1-9.9,2.7-14.7,2.7c-14.9,0-28.2-7.1-28.2-23.9
			c0-9.8,5.1-16.6,10.6-19.9c5.9-3.5,11.3-4,16.4-4c4.2,0,9.6,0.7,10.8,1c1.3,0.2,3.4,0.6,4.8,0.7c0.7,0.1,0.9,0.3,0.9,0.7
			c0,0.7-0.4,2.4-0.4,10c0,1-0.2,1.3-0.7,1.3c-0.4,0-0.5-0.3-0.6-0.8c-0.2-1.4-0.5-3.4-2.1-5.1c-1.8-2-6.7-4.8-13.6-4.8
			c-3.4,0-7.8,0.2-12.1,3.8c-3.4,2.9-5.6,7.4-5.6,14.9c0,13.1,8.4,22.9,21.2,22.9c1.6,0,3.7,0,5.2-0.7c0.9-0.4,1.2-1.2,1.2-2.3v-5.7
			c0-3,0-5.4-0.1-7.2c-0.1-2.1-0.6-3-2.6-3.5c-0.5-0.1-1.5-0.2-2.4-0.2c-0.5,0-0.9-0.1-0.9-0.5c0-0.5,0.4-0.6,1.3-0.6
			c3.2,0,7,0.2,8.8,0.2c1.9,0,5.1-0.2,7.1-0.2c0.8,0,1.2,0.1,1.2,0.6c0,0.4-0.4,0.5-0.8,0.5c-0.5,0-0.9,0.1-1.6,0.2
			c-1.6,0.3-2.3,1.3-2.3,3.5c-0.1,1.8-0.1,4.3-0.1,7.3V118.7z"/>
		<path class="st1" d="M528.5,106.9c-0.3,0-0.4,0.1-0.5,0.5l-3.3,8.7c-0.6,1.5-0.9,3-0.9,3.7c0,1.1,0.5,1.9,2.4,1.9h0.9
			c0.7,0,0.9,0.1,0.9,0.5c0,0.5-0.4,0.6-1,0.6c-2,0-4.6-0.2-6.5-0.2c-0.7,0-4,0.2-7.2,0.2c-0.8,0-1.2-0.1-1.2-0.6
			c0-0.4,0.2-0.5,0.7-0.5c0.5,0,1.4-0.1,1.9-0.1c2.8-0.4,4-2.4,5.2-5.5l15.3-38.3c0.7-1.8,1.1-2.4,1.7-2.4c0.5,0,0.9,0.5,1.5,2
			c1.5,3.4,11.2,28.2,15.1,37.5c2.3,5.5,4.1,6.3,5.4,6.6c0.9,0.2,1.8,0.2,2.6,0.2c0.5,0,0.8,0.1,0.8,0.5c0,0.5-0.5,0.6-2.8,0.6
			c-2.2,0-6.6,0-11.5-0.1c-1.1-0.1-1.8-0.1-1.8-0.5c0-0.4,0.2-0.5,0.9-0.5c0.4-0.1,0.9-0.7,0.5-1.4l-4.9-12.9
			c-0.1-0.3-0.3-0.4-0.6-0.4H528.5z M540.9,103.8c0.3,0,0.4-0.2,0.3-0.4l-5.5-15.1c-0.1-0.2-0.1-0.5-0.3-0.5c-0.2,0-0.3,0.3-0.4,0.5
			l-5.6,15c-0.1,0.2,0,0.4,0.2,0.4H540.9z"/>
		<path class="st1" d="M576.3,105.1c0,7.8,0,12,1.3,13.1c1,0.9,2.6,1.3,7.4,1.3c3.2,0,5.6-0.1,7.1-1.7c0.7-0.8,1.5-2.5,1.6-3.7
			c0.1-0.5,0.2-0.9,0.7-0.9c0.4,0,0.5,0.3,0.5,1c0,0.7-0.4,5.2-0.9,7c-0.4,1.3-0.7,1.6-3.8,1.6c-4.4,0-7.6-0.1-10.3-0.2
			c-2.7-0.1-4.9-0.2-7.4-0.2c-0.7,0-2,0-3.5,0.1c-1.4,0-3,0.1-4.2,0.1c-0.8,0-1.2-0.2-1.2-0.6c0-0.3,0.2-0.5,1-0.5
			c0.9,0,1.6-0.1,2.2-0.2c1.2-0.2,1.5-1.6,1.8-3.4c0.3-2.6,0.3-7.4,0.3-13V94.4c0-9.3,0-11-0.1-12.9c-0.1-2.1-0.6-3-2.6-3.5
			c-0.5-0.1-1.2-0.2-2-0.2c-0.7,0-1-0.1-1-0.5s0.4-0.5,1.3-0.5c2.9,0,6.7,0.2,8.4,0.2c1.5,0,5.9-0.2,8.3-0.2c0.9,0,1.3,0.1,1.3,0.5
			s-0.4,0.5-1.1,0.5c-0.7,0-1.6,0.1-2.4,0.2c-1.6,0.3-2.1,1.3-2.3,3.5c-0.1,2-0.1,3.7-0.1,12.9V105.1z"/>
	</g>
</g>
</svg>
