<?xml version="1.0" encoding="utf-8"?>
<!-- Generator: Adobe Illustrator 24.0.0, SVG Export Plug-In . SVG Version: 6.00 Build 0)  -->
<svg version="1.1" id="Layer_1" xmlns="http://www.w3.org/2000/svg" xmlns:xlink="http://www.w3.org/1999/xlink" x="0px" y="0px"
	 viewBox="0 0 120 75" style="enable-background:new 0 0 120 75;" xml:space="preserve">
<style type="text/css">
	.st0{fill:url(#SVGID_1_);}
	.st1{fill-rule:evenodd;clip-rule:evenodd;fill:#964152;}
	.st2{fill-rule:evenodd;clip-rule:evenodd;fill:#FFFFFF;}
	.st3{fill-rule:evenodd;clip-rule:evenodd;fill:none;}
	.st4{font-family:'CenturyGothic';}
	.st5{font-size:6px;}
</style>
<linearGradient id="SVGID_1_" gradientUnits="userSpaceOnUse" x1="9.999752e-03" y1="37.525" x2="120.01" y2="37.525">
	<stop  offset="1.014140e-03" style="stop-color:#E0DFE4"/>
	<stop  offset="0.5282" style="stop-color:#FFFDFF"/>
	<stop  offset="1" style="stop-color:#B3B2B6"/>
</linearGradient>
<path class="st0" d="M115.1,75.03H4.93c-2.72,0-4.92-2.2-4.92-4.92V4.94c0-2.72,2.2-4.92,4.92-4.92h110.16
	c2.72,0,4.92,2.2,4.92,4.92V70.1C120.02,72.82,117.81,75.03,115.1,75.03z"/>
<g>
	<polygon class="st1" points="13.42,42.47 106.58,42.47 106.58,23.56 13.42,23.56 13.42,42.47 	"/>
	<polygon class="st2" points="19.12,27.81 25.29,27.81 25.29,31.11 29.3,27.69 35.86,27.69 30.67,32.29 37.04,38.66 29.49,38.66 
		25.29,34.57 25.29,38.66 19.12,38.66 19.12,27.81 	"/>
	<path class="st2" d="M53.08,33c0,6.64-6.76,5.98-8.33,5.98c-1.53,0-8.29,0.47-8.29-5.7c0-6.53,5.98-5.98,8.49-5.98
		C47.03,27.3,53.08,26.63,53.08,33L53.08,33z M42.31,33c0,2.24,0.51,3.81,2.56,3.81c2.04,0,2.44-1.85,2.44-3.93
		c0-2.04-0.39-3.42-2.56-3.42C42.7,29.46,42.31,30.84,42.31,33L42.31,33z"/>
	<polygon class="st2" points="55.32,38.78 55.32,27.61 61.49,27.61 61.49,31.5 65.5,31.5 65.5,27.61 71.68,27.61 71.68,38.78 
		65.5,38.78 65.5,34.57 61.38,34.57 61.38,38.78 55.32,38.78 	"/>
	<path class="st2" d="M74.31,27.61v11.16h12.62v-3.54c-0.39,0.39-0.79,0.59-1.3,0.59c-0.47,0-5.15,0-5.15,0v-8.22H74.31L74.31,27.61
		z"/>
	<path class="st2" d="M83.78,32.01v-0.98c-0.86-0.31-1.1-0.94-1.1-1.73c0-0.47,0.43-1.65,2-1.69c1.45-0.04,2.28,0.75,2.32,1.97
		C87.05,30.64,86.22,31.5,83.78,32.01L83.78,32.01z"/>
	<path class="st2" d="M101.2,28.4v2.67c-1.85-1.26-5.82-1.77-5.82-0.12c0,1.3,3.14,0.9,5.07,1.85c1.45,0.67,2.16,1.45,2.16,2.71
		c0,0.94-1.1,4.09-7.27,3.77c-4.84-0.24-6.01-0.86-6.53-1.18v-3.07c0,0,1.53,1.45,4.36,1.61c2.4,0.16,2.4-0.59,2.4-0.86
		c0-0.31-0.28-0.67-3.77-1.38c-3.18-0.63-3.26-2.59-3.26-3.3c0-0.67,0.55-3.73,7.51-3.73C97.42,27.38,100.65,27.69,101.2,28.4
		L101.2,28.4z"/>
</g>
<rect x="13.42" y="46.65" class="st3" width="93.17" height="15.82"/>
<text transform="matrix(1 0 0 1 31.5991 51.0636)" class="st4 st5">expect great things</text>
</svg>
