<?xml version="1.0" encoding="utf-8"?>
<!-- Generator: Adobe Illustrator 24.0.0, SVG Export Plug-In . SVG Version: 6.00 Build 0)  -->
<svg version="1.1" id="Layer_1" xmlns="http://www.w3.org/2000/svg" xmlns:xlink="http://www.w3.org/1999/xlink" x="0px" y="0px"
	 viewBox="0 0 120 75" style="enable-background:new 0 0 120 75;" xml:space="preserve">
<style type="text/css">
	.st0{fill:#00A1B1;}
	.st1{fill:#FFFFFF;}
	.st2{fill:none;}
	.st3{font-family:'Cabin-Regular';}
	.st4{font-size:6px;}
</style>
<path class="st0" d="M115.14,75.21H4.97c-2.72,0-4.92-2.2-4.92-4.92V5.12c0-2.72,2.2-4.92,4.92-4.92h110.16
	c2.72,0,4.92,2.2,4.92,4.92v65.16C120.06,73,117.85,75.21,115.14,75.21z"/>
<g id="Page-1">
	<g id="logo">
		<g id="Group" transform="translate(109.000000, 34.000000)">
			<g>
				<path id="Shape" class="st1" d="M-96.7-1.99c-0.24,0.54-0.6,0.94-1.06,1.24s-0.98,0.46-1.58,0.46c-0.82,0-1.52-0.26-2.1-0.8
					c-0.58-0.54-0.86-1.22-0.86-2.02c0-0.78,0.28-1.46,0.86-2c0.58-0.54,1.26-0.82,2.06-0.82c0.6,0,1.14,0.14,1.62,0.44
					c0.48,0.3,0.84,0.7,1.04,1.22h-0.82c-0.2-0.3-0.46-0.52-0.78-0.7c-0.32-0.18-0.68-0.26-1.06-0.26c-0.62,0-1.14,0.2-1.56,0.6
					c-0.42,0.4-0.64,0.9-0.64,1.5s0.2,1.12,0.62,1.52c0.42,0.42,0.92,0.62,1.52,0.62c0.42,0,0.78-0.08,1.08-0.26
					c0.3-0.18,0.58-0.44,0.82-0.8L-96.7-1.99z"/>
				<path id="Shape_1_" class="st1" d="M-90.68-3.16c0,0.78-0.28,1.44-0.82,2.02c-0.54,0.56-1.2,0.84-1.98,0.84s-1.44-0.28-2-0.82
					c-0.56-0.54-0.84-1.2-0.84-1.98s0.28-1.46,0.82-2.02s1.22-0.84,2.02-0.84c0.76,0,1.4,0.28,1.96,0.82
					C-90.96-4.56-90.68-3.9-90.68-3.16 M-95.6-3.08c0,0.58,0.2,1.08,0.62,1.48c0.4,0.4,0.9,0.62,1.5,0.62s1.08-0.2,1.48-0.64
					c0.4-0.42,0.6-0.94,0.6-1.52c0-0.3-0.06-0.58-0.16-0.82c-0.1-0.24-0.32-0.52-0.62-0.82c-0.32-0.3-0.74-0.46-1.3-0.46
					c-0.6,0-1.1,0.2-1.5,0.62C-95.4-4.2-95.6-3.68-95.6-3.08"/>
				<path id="Shape_2_" class="st1" d="M-89.94-5.88h0.7v0.68c0.14-0.24,0.32-0.42,0.58-0.54c0.26-0.12,0.54-0.18,0.86-0.18
					c0.36,0,0.68,0.06,0.98,0.2c0.28,0.14,0.54,0.34,0.78,0.62l0.14,0.2l0.1-0.2c0.18-0.26,0.44-0.46,0.74-0.6
					c0.32-0.14,0.64-0.22,0.96-0.22c0.28,0,0.58,0.06,0.86,0.2c0.28,0.14,0.54,0.32,0.78,0.56c0.24,0.24,0.4,0.48,0.46,0.74
					c0.06,0.26,0.1,0.58,0.1,0.94v3.08h-0.74v-3.02c0-0.26-0.02-0.48-0.04-0.66c-0.04-0.18-0.16-0.42-0.36-0.72
					c-0.2-0.3-0.56-0.44-1.08-0.44c-0.5,0-0.86,0.14-1.06,0.42c-0.2,0.28-0.3,0.5-0.34,0.7c-0.02,0.2-0.04,0.42-0.04,0.7v3.02h-0.74
					v-3.1c0-0.24-0.02-0.44-0.04-0.6c-0.04-0.16-0.16-0.38-0.36-0.68s-0.56-0.44-1.06-0.44c-0.24,0-0.46,0.04-0.66,0.14
					c-0.2,0.1-0.38,0.24-0.52,0.42c-0.1,0.16-0.18,0.32-0.2,0.5c-0.04,0.18-0.04,0.4-0.04,0.64v3.1h-0.74v-5.46H-89.94z"/>
				<path id="Shape_3_" class="st1" d="M-80.43-2.86c0,0.5,0.22,0.94,0.64,1.3c0.42,0.38,0.88,0.56,1.4,0.56
					c0.4,0,0.8-0.1,1.16-0.32c0.36-0.22,0.62-0.5,0.78-0.86h0.76c-0.2,0.56-0.54,1-1.02,1.36c-0.5,0.36-1.02,0.52-1.6,0.52
					c-0.78,0-1.46-0.28-2-0.82c-0.56-0.54-0.84-1.22-0.84-2s0.28-1.44,0.82-2c0.54-0.54,1.22-0.82,2-0.82c0.42,0,0.82,0.1,1.2,0.28
					s0.7,0.42,0.94,0.74c0.26,0.32,0.44,0.64,0.52,0.96c0.1,0.32,0.14,0.7,0.14,1.12h-4.9V-2.86z M-76.27-3.52
					c-0.1-0.48-0.34-0.88-0.72-1.22c-0.4-0.34-0.84-0.5-1.34-0.5c-0.52,0-0.96,0.16-1.36,0.48s-0.64,0.74-0.74,1.24H-76.27z"/>
				<path id="Shape_4_" class="st1" d="M-74.67-5.82h0.7v0.78c0.42-0.6,0.98-0.9,1.68-0.9c0.36,0,0.72,0.08,1.06,0.22
					c0.34,0.16,0.6,0.36,0.82,0.64c0.22,0.28,0.36,0.54,0.42,0.82c0.06,0.28,0.1,0.6,0.1,1v2.84h-0.74v-2.84
					c0-0.36-0.02-0.62-0.08-0.8c-0.06-0.18-0.18-0.42-0.4-0.72s-0.62-0.46-1.22-0.46c-0.26,0-0.52,0.06-0.74,0.18
					c-0.24,0.12-0.42,0.26-0.56,0.46c-0.14,0.18-0.22,0.38-0.26,0.6c-0.04,0.22-0.04,0.46-0.04,0.76v2.84h-0.74V-5.82z"/>
				<rect id="Rectangle-path" x="-68.61" y="-5.88" class="st1" width="0.74" height="5.48"/>
				<polygon id="Shape_5_" class="st1" points="-65.88,-5.16 -67,-5.16 -67,-5.82 -65.88,-5.82 -65.88,-7.72 -65.14,-7.72 
					-65.14,-5.82 -63.9,-5.82 -63.9,-5.16 -65.14,-5.16 -65.14,-0.41 -65.88,-0.41 				"/>
				<polygon id="Shape_6_" class="st1" points="-58.12,-5.82 -61.26,1.49 -62.02,1.49 -61.16,-0.57 -63.24,-5.82 -62.46,-5.82 
					-60.74,-1.51 -58.92,-5.82 				"/>
				<path id="Shape_7_" class="st1" d="M-67.76-7.02c0,0.26-0.22,0.48-0.48,0.48c-0.26,0-0.48-0.22-0.48-0.48s0.22-0.48,0.48-0.48
					C-67.99-7.5-67.76-7.28-67.76-7.02"/>
			</g>
			<g id="Shape_8_" transform="translate(223.000000, 9.000000)">
				<path class="st1" d="M-280.06-14.6c0,0.02-0.02,0.02-0.02,0.02h-0.02c-0.02,0-0.02,0-0.04,0s-0.02-0.02-0.04-0.02
					c-0.02,0-0.04-0.02-0.06-0.02s-0.04,0-0.06,0c-0.04,0-0.08,0-0.1,0.02c-0.02,0.02-0.04,0.04-0.04,0.08c0,0.02,0,0.04,0.02,0.04
					c0.02,0.02,0.02,0.02,0.04,0.04c0.02,0,0.04,0.02,0.06,0.02s0.06,0.02,0.08,0.02s0.06,0.02,0.08,0.04
					c0.02,0.02,0.04,0.02,0.06,0.04c0.02,0.02,0.04,0.04,0.04,0.08c0.02,0.02,0.02,0.06,0.02,0.1c0,0.04,0,0.08-0.02,0.12
					c-0.02,0.04-0.04,0.08-0.06,0.1c-0.02,0.02-0.06,0.06-0.1,0.06c-0.04,0.02-0.1,0.02-0.14,0.02c-0.04,0-0.06,0-0.1,0
					c-0.04,0-0.06-0.02-0.08-0.02c-0.02-0.02-0.06-0.02-0.08-0.04s-0.04-0.04-0.06-0.06l0.06-0.1l0.02-0.02h0.02
					c0.02,0,0.02,0,0.04,0.02c0.02,0,0.02,0.02,0.04,0.02s0.04,0.02,0.06,0.02s0.04,0.02,0.08,0.02c0.04,0,0.08,0,0.1-0.02
					c0.02-0.02,0.04-0.04,0.04-0.08c0-0.02,0-0.04-0.02-0.06c-0.02-0.02-0.02-0.02-0.04-0.04c-0.02,0-0.04-0.02-0.06-0.02
					s-0.06-0.02-0.08-0.02s-0.06-0.02-0.08-0.04s-0.04-0.02-0.06-0.04c-0.02-0.02-0.04-0.04-0.04-0.08
					c-0.02-0.04-0.02-0.06-0.02-0.12c0-0.04,0-0.08,0.02-0.1c0.02-0.04,0.04-0.06,0.06-0.1c0.02-0.02,0.06-0.04,0.1-0.06
					c0.04-0.02,0.08-0.02,0.14-0.02c0.02,0,0.06,0,0.08,0s0.06,0.02,0.08,0.02s0.04,0.02,0.08,0.04c0.02,0.02,0.04,0.02,0.06,0.04
					L-280.06-14.6z"/>
				<path class="st1" d="M-278.78-14.8v0.96h-0.2v-0.56c0-0.02,0-0.02,0-0.04c0-0.02,0-0.04,0-0.04l-0.26,0.5
					c0,0.02-0.02,0.02-0.04,0.04c-0.02,0-0.02,0.02-0.04,0.02h-0.04c-0.02,0-0.04,0-0.04-0.02c-0.02,0-0.02-0.02-0.04-0.04
					l-0.26-0.5c0,0.02,0,0.04,0,0.04c0,0.02,0,0.02,0,0.04v0.56h-0.2v-0.96h0.16h0.02h0.02h0.02c0,0,0,0.02,0.02,0.02l0.24,0.48
					c0,0.02,0.02,0.04,0.02,0.06c0,0.02,0.02,0.04,0.02,0.06c0-0.02,0.02-0.04,0.02-0.06c0-0.02,0.02-0.04,0.02-0.06l0.24-0.48
					c0,0,0-0.02,0.02-0.02c0,0,0,0,0.02,0h0.02h0.02H-278.78z"/>
			</g>
		</g>
	</g>
</g>
<rect x="6.61" y="39.05" class="st2" width="137.82" height="12.94"/>
<text transform="matrix(1 0 0 1 6.6128 43.5471)" class="st1 st3 st4">COMENITY CAPITAL BANK</text>
</svg>
