<?xml version="1.0" encoding="utf-8"?>
<!-- Generator: Adobe Illustrator 24.0.0, SVG Export Plug-In . SVG Version: 6.00 Build 0)  -->
<svg version="1.1" id="Layer_1" xmlns="http://www.w3.org/2000/svg" xmlns:xlink="http://www.w3.org/1999/xlink" x="0px" y="0px"
	 viewBox="0 0 120 75" style="enable-background:new 0 0 120 75;" xml:space="preserve">
<style type="text/css">
	.st0{fill:url(#SVGID_1_);}
	.st1{fill:url(#SVGID_2_);}
	.st2{fill:url(#SVGID_3_);}
	.st3{fill:#FFFFFF;}
	.st4{fill-rule:evenodd;clip-rule:evenodd;fill:#FFFFFF;}
	.st5{fill:#B2B2B2;}
	.st6{fill:none;}
</style>
<linearGradient id="SVGID_1_" gradientUnits="userSpaceOnUse" x1="9.999752e-03" y1="37.525" x2="120.01" y2="37.525">
	<stop  offset="0" style="stop-color:#000024"/>
	<stop  offset="0.9476" style="stop-color:#030326"/>
</linearGradient>
<path class="st0" d="M115.1,75.03H4.93c-2.72,0-4.92-2.2-4.92-4.92V4.94c0-2.72,2.2-4.92,4.92-4.92h110.16
	c2.72,0,4.92,2.2,4.92,4.92V70.1C120.02,72.82,117.81,75.03,115.1,75.03z"/>
<g>
	<linearGradient id="SVGID_2_" gradientUnits="userSpaceOnUse" x1="9.5212" y1="41.1088" x2="114.7891" y2="41.1088">
		<stop  offset="0" style="stop-color:#000024"/>
		<stop  offset="0.5243" style="stop-color:#00A8D4"/>
		<stop  offset="0.9476" style="stop-color:#030326"/>
	</linearGradient>
	<path class="st1" d="M9.52,38.23c10.31-4.48,26.13-8.3,44.16-10.19c32.5-3.4,59.84,0.76,61.07,9.3
		c0.92,6.41-13.13,13.46-33.95,18.02c16.17-4.7,26.43-10.83,25.53-16.31c-1.4-8.47-28.93-12.17-61.5-8.27
		C31.35,32.4,19.12,35.06,9.52,38.23z"/>
</g>
<linearGradient id="SVGID_3_" gradientUnits="userSpaceOnUse" x1="14.32" y1="38.7675" x2="30.3101" y2="38.7675">
	<stop  offset="0" style="stop-color:#575757"/>
	<stop  offset="0.5192" style="stop-color:#FFFFFF"/>
	<stop  offset="1" style="stop-color:#A8A8A8"/>
</linearGradient>
<path class="st2" d="M28.39,44.71H16.24c-1.06,0-1.92-0.86-1.92-1.92v-8.05c0-1.06,0.86-1.92,1.92-1.92h12.15
	c1.06,0,1.92,0.86,1.92,1.92v8.05C30.32,43.85,29.45,44.71,28.39,44.71z"/>
<g id="Foreground">
	<g>
		<g>
			<path class="st3" d="M56.61,12.39c0,0.39,0.32,0.71,0.71,0.71s0.71-0.32,0.71-0.71c0-0.39-0.32-0.71-0.71-0.71
				S56.61,12,56.61,12.39z M56.49,12.39c0-0.45,0.37-0.82,0.82-0.82c0.45,0,0.82,0.37,0.82,0.82s-0.37,0.82-0.82,0.82
				C56.86,13.21,56.49,12.85,56.49,12.39z"/>
			<path class="st4" d="M57,12.84c0.04,0,0.07-0.01,0.11-0.01s0.07,0,0.11,0.01v-0.43h0.01c0.03,0.05,0.07,0.11,0.09,0.15l0.17,0.28
				c0.04,0,0.09-0.01,0.13-0.01c0.04,0,0.09,0,0.13,0.01l-0.06-0.08c-0.09-0.12-0.17-0.25-0.25-0.38c0.13-0.03,0.22-0.11,0.22-0.24
				c0-0.09-0.04-0.15-0.12-0.19c-0.06-0.03-0.16-0.03-0.23-0.03H57L57,12.84L57,12.84z M57.21,11.99c0.09,0,0.19-0.01,0.22,0.1
				c0.01,0.03,0.01,0.05,0.01,0.07c0,0.14-0.07,0.2-0.22,0.19V11.99z"/>
		</g>
		<g>
			<g>
				<path class="st3" d="M29.2,9.12c2.53-1.1,6.41-2.03,10.83-2.5C47.99,5.79,54.7,6.81,55,8.9c0.23,1.57-3.22,3.3-8.32,4.42
					c3.97-1.15,6.48-2.66,6.26-4c-0.34-2.08-7.09-2.98-15.08-2.03C34.55,7.69,31.56,8.34,29.2,9.12z"/>
			</g>
			<g>
				<path class="st4" d="M19.56,17.08c-0.51,0.37-1.25,0.64-1.84,0.64c-1.47,0-2.04-1.02-1.73-2.48c0.27-1.25,1.2-2.61,2.78-2.61
					c0.62,0,1.16,0.32,1.41,0.78h0.13c0.14-0.3,0.26-0.59,0.41-0.88c-0.49-0.27-1.22-0.42-1.85-0.42c-2.07,0-4.01,1.01-4.49,3.24
					c-0.38,1.75,0.92,2.87,2.96,2.87c0.64,0,1.34-0.1,1.96-0.37l0.37-0.73L19.56,17.08z"/>
				<path class="st4" d="M19.95,18.12c0.22-0.02,0.45-0.04,0.67-0.04c0.22,0,0.43,0.03,0.65,0.04l0.33-1.54
					c0.06-0.27,0.13-0.74,0.27-0.99c0.19-0.37,0.58-0.56,1-0.56c0.15,0,0.35,0.03,0.46,0.11l0.1-0.07c0.05-0.37,0.16-0.76,0.3-1.16
					c-0.93,0-1.46,0.51-1.8,1.13l0.23-1.06c-0.22,0.02-0.45,0.04-0.67,0.04s-0.43-0.03-0.65-0.04L19.95,18.12z"/>
				<path class="st4" d="M24.84,15.65c0.12-0.45,0.38-1.35,1.07-1.35c0.57,0,0.43,0.9,0.33,1.35H24.84z M27.47,16.06
					c0.37-1.22,0.01-2.15-1.49-2.15c-1.38,0-2.36,0.85-2.62,2.04c-0.3,1.39,0.32,2.24,1.9,2.24c0.47,0,1.01-0.14,1.44-0.38
					l0.31-0.48l-0.1-0.08c-0.34,0.22-0.81,0.38-1.2,0.38c-1.01,0-1.2-0.71-0.98-1.58C24.75,16.06,27.47,16.06,27.47,16.06z"/>
				<path class="st4" d="M33.27,11.65c-0.22,0.02-0.45,0.04-0.67,0.04c-0.22,0-0.43-0.03-0.65-0.04l-0.63,2.88
					c-0.18-0.44-0.6-0.61-1.16-0.61c-1.26,0-2.07,1.06-2.3,2.15c-0.24,1.1,0,2.14,1.41,2.14c0.63,0,1.17-0.32,1.48-0.83l-0.16,0.75
					c0.21-0.02,0.43-0.04,0.65-0.04c0.21,0,0.41,0.03,0.62,0.04L33.27,11.65z M30.54,14.46c0.76,0,0.62,1.03,0.52,1.52
					c-0.12,0.54-0.46,1.65-1.28,1.65c-0.77,0-0.61-1.06-0.5-1.56C29.39,15.55,29.72,14.46,30.54,14.46z"/>
				<path class="st4" d="M32.6,18.12c0.22-0.02,0.45-0.04,0.67-0.04c0.22,0,0.43,0.03,0.65,0.04l0.9-4.13
					c-0.22,0.02-0.45,0.04-0.67,0.04S33.71,14,33.5,13.99L32.6,18.12z M33.74,12.43c-0.08,0.36,0.19,0.67,0.6,0.67
					c0.41,0,0.83-0.31,0.91-0.67s-0.21-0.67-0.62-0.67C34.22,11.76,33.82,12.07,33.74,12.43z"/>
				<path class="st4" d="M37.28,14.53h0.81c0.01-0.2,0.05-0.35,0.12-0.54H37.4l0.32-1.49c-0.5,0.2-0.97,0.37-1.43,0.53l-0.21,0.96
					h-0.65c-0.01,0.2-0.05,0.35-0.12,0.54h0.65l-0.5,2.28c-0.17,0.79-0.08,1.38,0.91,1.38c0.3,0,0.65-0.08,1.03-0.2l0.07-0.33
					c-0.89,0.2-0.86-0.12-0.73-0.71L37.28,14.53z"/>
				<path class="st4" d="M46.44,14.86c0.31-1.45-0.17-3.34-3.15-3.34c-2.61,0-4.46,1.51-4.86,3.37c-0.46,2.13,0.83,3.35,3.15,3.35
					C44.14,18.24,46.05,16.69,46.44,14.86z M43.1,12.09c1.57,0,1.9,1.39,1.64,2.6c-0.34,1.56-1.37,3-2.99,3
					c-1.57,0-1.91-1.29-1.64-2.51C40.56,13.07,41.65,12.09,43.1,12.09z"/>
				<path class="st4" d="M46.14,18.12c0.24-0.02,0.49-0.05,0.73-0.05c0.24,0,0.48,0.03,0.71,0.05l0.47-2.16
					c0.13-0.59,0.37-1.69,1.28-1.69c0.73,0,0.72,0.64,0.53,1.51l-0.51,2.33c0.25-0.02,0.49-0.05,0.73-0.05
					c0.24,0,0.48,0.03,0.71,0.05l0.6-2.75c0.24-1.12,0.07-1.88-1.25-1.88c-0.65,0-1.27,0.34-1.78,0.78l0.15-0.69
					c-0.23,0.02-0.47,0.05-0.7,0.05c-0.24,0-0.47-0.03-0.69-0.05L46.14,18.12z"/>
				<path class="st4" d="M53.47,15.4c0.13-0.5,0.42-1.49,1.18-1.49c0.63,0,0.48,0.99,0.37,1.49H53.47z M56.37,15.85
					c0.41-1.34,0.01-2.36-1.63-2.36c-1.52,0-2.6,0.94-2.89,2.25c-0.33,1.53,0.35,2.46,2.09,2.46c0.51,0,1.11-0.16,1.59-0.42
					l0.34-0.52l-0.11-0.08c-0.38,0.24-0.89,0.42-1.32,0.42c-1.11,0-1.32-0.78-1.08-1.74H56.37z"/>
			</g>
			<g>
				<path class="st4" d="M24.19,21.51h0.48c0.23,0,0.51,0,0.74-0.13c0.22-0.13,0.37-0.33,0.41-0.57c0.08-0.39-0.25-0.51-0.51-0.53
					c0.31-0.07,0.59-0.28,0.65-0.6c0.07-0.35-0.17-0.47-0.66-0.47h-0.66L24.19,21.51z M24.9,19.34h0.25c0.35,0,0.56,0.09,0.49,0.41
					c-0.04,0.18-0.16,0.33-0.34,0.41c-0.2,0.08-0.38,0.07-0.58,0.07L24.9,19.34z M24.71,20.35h0.19c0.41,0,0.68,0.11,0.6,0.51
					c-0.06,0.31-0.34,0.52-0.67,0.52h-0.32L24.71,20.35z"/>
				<path class="st4" d="M31.85,19.16h-0.08l-1.51,2.36c0.04,0,0.08-0.01,0.12-0.01c0.04,0,0.08,0.01,0.12,0.01
					c0.16-0.32,0.33-0.61,0.51-0.91h0.86c0.08,0.31,0.13,0.63,0.18,0.91c0.06,0,0.12-0.01,0.18-0.01c0.06,0,0.11,0.01,0.17,0.01
					L31.85,19.16z M31.85,20.46h-0.74l0.53-0.86L31.85,20.46z"/>
				<g>
					<path class="st4" d="M45.51,19.21c-0.05,0-0.09,0.01-0.13,0.01c-0.05,0-0.09-0.01-0.13-0.01l-1,0.86
						c-0.06,0.05-0.14,0.12-0.21,0.17c-0.04,0.03-0.09,0.04-0.09,0.02l0.2-1.04c-0.05,0-0.1,0.01-0.15,0.01
						c-0.05,0-0.1-0.01-0.15-0.01l-0.45,2.3c0.05,0,0.1-0.01,0.15-0.01c0.05,0,0.09,0.01,0.15,0.01l0.23-1.18
						c0-0.01,0.04,0,0.06,0.01l0.57,0.86c0.07,0.1,0.12,0.2,0.17,0.31c0.06,0,0.13-0.01,0.19-0.01c0.06,0,0.12,0.01,0.18,0.01
						l0-0.02l-0.21-0.34c-0.21-0.31-0.43-0.62-0.64-0.93l0.34-0.29L45.51,19.21z"/>
				</g>
				<g>
					<path class="st4" d="M39.11,19.21c-0.03,0-0.07,0.01-0.1,0.01c-0.03,0-0.06-0.01-0.09-0.01l-0.34,1.74h-0.03l-1.26-1.74h-0.13
						l-0.45,2.3c0.03,0,0.06-0.01,0.1-0.01c0.03,0,0.06,0.01,0.09,0.01l0.35-1.82h0.03l1.14,1.61c0.06,0.08,0.11,0.16,0.14,0.21h0.1
						L39.11,19.21z"/>
				</g>
			</g>
		</g>
	</g>
</g>
<g>
	<g>
		<path class="st3" d="M97.61,67.24h-1.74l1.08-6.67h1.74L97.61,67.24z M94.41,60.58l-1.65,4.59l-0.2-0.99l0,0l-0.58-3
			c0,0-0.07-0.6-0.82-0.6h-2.74l-0.03,0.11c0,0,0.84,0.17,1.82,0.76l1.51,5.79h1.81l2.76-6.67L94.41,60.58L94.41,60.58z
			 M108.06,67.24h1.59l-1.39-6.67h-1.4c-0.64,0-0.8,0.5-0.8,0.5l-2.59,6.17h1.81l0.36-0.99h2.21L108.06,67.24L108.06,67.24z
			 M106.15,64.89l0.91-2.49l0.51,2.49H106.15z M103.62,62.18l0.25-1.43c0,0-0.76-0.29-1.56-0.29c-0.86,0-2.91,0.38-2.91,2.21
			c0,1.72,2.4,1.74,2.4,2.65c0,0.9-2.15,0.74-2.86,0.17l-0.26,1.5c0,0,0.78,0.38,1.96,0.38s2.97-0.61,2.97-2.28
			c0-1.73-2.42-1.89-2.42-2.65C101.19,61.67,102.88,61.77,103.62,62.18L103.62,62.18z"/>
	</g>
	<path class="st5" d="M92.56,64.17l-0.58-3c0,0-0.07-0.6-0.82-0.6h-2.74l-0.03,0.11c0,0,1.31,0.27,2.58,1.29
		C92.17,62.96,92.56,64.17,92.56,64.17z"/>
	<path class="st6" d="M86.39,51.27h25.28v25.28H86.39V51.27z"/>
</g>
</svg>
