<?xml version="1.0" encoding="utf-8"?>
<!-- Generator: Adobe Illustrator 24.0.0, SVG Export Plug-In . SVG Version: 6.00 Build 0)  -->
<svg version="1.1" id="Layer_1" xmlns="http://www.w3.org/2000/svg" xmlns:xlink="http://www.w3.org/1999/xlink" x="0px" y="0px"
	 viewBox="0 0 120 75" style="enable-background:new 0 0 120 75;" xml:space="preserve">
<style type="text/css">
	.st0{fill:url(#SVGID_1_);}
	.st1{fill:url(#SVGID_2_);}
	.st2{fill-rule:evenodd;clip-rule:evenodd;fill:#FFFFFF;}
	.st3{clip-path:url(#SVGID_4_);}
	.st4{fill-rule:evenodd;clip-rule:evenodd;fill:none;stroke:url(#SVGID_5_);stroke-width:4;stroke-miterlimit:10;}
	.st5{fill-rule:evenodd;clip-rule:evenodd;fill:none;stroke:url(#SVGID_6_);stroke-width:4;stroke-miterlimit:10;}
	.st6{fill:#F99F1C;}
	.st7{fill:#ED1C24;}
	.st8{opacity:0.43;fill:#F99F1C;enable-background:new    ;}
</style>
<linearGradient id="SVGID_1_" gradientUnits="userSpaceOnUse" x1="9.999752e-03" y1="37.525" x2="120.01" y2="37.525">
	<stop  offset="1.014140e-03" style="stop-color:#000000"/>
	<stop  offset="0.5282" style="stop-color:#000000"/>
	<stop  offset="1" style="stop-color:#000900"/>
</linearGradient>
<path class="st0" d="M115.1,75.03H4.93c-2.72,0-4.92-2.2-4.92-4.92V4.94c0-2.72,2.2-4.92,4.92-4.92h110.16
	c2.72,0,4.92,2.2,4.92,4.92V70.1C120.02,72.82,117.81,75.03,115.1,75.03z"/>
<linearGradient id="SVGID_2_" gradientUnits="userSpaceOnUse" x1="14.32" y1="38.7675" x2="30.3101" y2="38.7675">
	<stop  offset="0" style="stop-color:#575757"/>
	<stop  offset="0.5192" style="stop-color:#FFFFFF"/>
	<stop  offset="1" style="stop-color:#A8A8A8"/>
</linearGradient>
<path class="st1" d="M28.39,44.71H16.24c-1.06,0-1.92-0.86-1.92-1.92v-8.05c0-1.06,0.86-1.92,1.92-1.92h12.15
	c1.06,0,1.92,0.86,1.92,1.92v8.05C30.32,43.85,29.45,44.71,28.39,44.71z"/>
<g>
	<path class="st2" d="M7.81,8.94v6l5.07,1.73l5.08-1.73v-6H7.81z M12.87,14.75h-1.55v-0.54c-0.32,0.43-0.76,0.66-1.38,0.66
		c-0.75,0-1.47-0.47-1.47-1.44v-2.9h1.62v2.24c0,0.47,0.06,0.82,0.54,0.82c0.26,0,0.63-0.13,0.63-0.82v-2.24h1.62V14.75z
		 M15.3,14.87c-1,0-2.08-0.4-2.12-1.5h1.53c0.03,0.16,0.09,0.28,0.22,0.39c0.07,0.05,0.23,0.11,0.42,0.11c0.2,0,0.55-0.07,0.55-0.32
		c0-0.25-0.16-0.31-0.9-0.44c-1.22-0.22-1.72-0.62-1.72-1.33c0-1.06,1.15-1.33,1.99-1.33c0.92,0,2.02,0.25,2.05,1.33h-1.46
		c-0.03-0.14-0.07-0.24-0.19-0.31c-0.1-0.1-0.23-0.14-0.37-0.14c-0.2,0-0.47,0.05-0.47,0.32c0,0.13,0.1,0.19,0.19,0.23
		c0.27,0.12,0.88,0.14,1.42,0.33c0.51,0.17,0.98,0.47,0.98,1.16C17.43,14.55,16.33,14.87,15.3,14.87z"/>
	<path class="st2" d="M18.51,8.97h1.6V11h0.02c0.25-0.34,0.68-0.56,1.15-0.56c1.41,0,1.8,1.19,1.8,2.18c0,1.06-0.58,2.24-1.77,2.24
		c-0.78,0-1.03-0.31-1.25-0.57h-0.01v0.45h-1.56L18.51,8.97L18.51,8.97L18.51,8.97z M20.77,11.62c-0.57,0-0.7,0.53-0.7,1.03
		s0.13,1.06,0.7,1.06c0.58,0,0.71-0.56,0.71-1.06S21.35,11.62,20.77,11.62L20.77,11.62z M27.57,13.81c0,0.33,0.02,0.68,0.19,0.94
		h-1.63c-0.04-0.11-0.07-0.29-0.06-0.4h-0.01c-0.34,0.4-0.84,0.52-1.37,0.52c-0.81,0-1.47-0.4-1.47-1.28c0-1.32,1.56-1.28,2.37-1.44
		c0.21-0.04,0.44-0.09,0.44-0.37c0-0.28-0.26-0.4-0.53-0.4c-0.5,0-0.59,0.25-0.59,0.44h-1.5c0.04-1.19,1.16-1.38,2.16-1.38
		c2.02,0,1.99,0.83,1.99,1.65L27.57,13.81L27.57,13.81z M26.04,12.86c-0.2,0.1-0.41,0.17-0.63,0.2c-0.37,0.08-0.56,0.18-0.56,0.46
		c0,0.19,0.21,0.38,0.5,0.38c0.37,0,0.65-0.2,0.69-0.65L26.04,12.86L26.04,12.86L26.04,12.86z M28.15,10.54h1.54v0.53h0.02
		c0.31-0.42,0.72-0.63,1.38-0.63c0.75,0,1.44,0.46,1.44,1.42v2.88h-1.6v-2.2c0-0.5-0.06-0.83-0.52-0.83c-0.29,0-0.65,0.14-0.65,0.81
		v2.22h-1.6L28.15,10.54L28.15,10.54z M33.11,8.97h1.6v2.8l1.02-1.23h1.82l-1.5,1.59l1.72,2.62h-1.94L35,13.24l-0.29,0.31v1.2h-1.6
		V8.97z M38.52,14.18c0.06,0.06,0.07,0.13,0.07,0.23c0,0.08-0.01,0.15-0.07,0.21c-0.08,0.08-0.14,0.1-0.24,0.1
		c-0.07,0-0.15-0.01-0.2-0.1c-0.08-0.06-0.1-0.13-0.1-0.21c0-0.1,0.01-0.17,0.1-0.23c0.06-0.06,0.13-0.09,0.2-0.09
		C38.37,14.09,38.43,14.12,38.52,14.18z M38.55,14.14c-0.07-0.06-0.18-0.1-0.27-0.1c-0.09,0-0.19,0.04-0.25,0.1
		c-0.07,0.07-0.11,0.17-0.11,0.26c0,0.09,0.04,0.19,0.11,0.25c0.06,0.08,0.15,0.12,0.25,0.12c0.1,0,0.2-0.04,0.27-0.12
		c0.06-0.06,0.1-0.15,0.1-0.25C38.65,14.31,38.61,14.22,38.55,14.14z M38.34,14.39h-0.13v-0.14h0.06c0.04,0,0.07,0,0.1,0.02
		c0.01,0,0.01,0.02,0.01,0.06C38.37,14.35,38.36,14.37,38.34,14.39L38.34,14.39z M38.14,14.6h0.07v-0.14h0.06
		c0.04,0,0.06,0,0.07,0.01c0.02,0,0.04,0.04,0.04,0.08v0.05h0.08c-0.02,0-0.02-0.01-0.02-0.01v-0.06c0-0.02,0-0.04-0.01-0.06
		c-0.02-0.04-0.05-0.04-0.06-0.04c0.01-0.02,0.04-0.02,0.06-0.04c0.01,0,0.04-0.05,0.04-0.08c0-0.04-0.02-0.07-0.08-0.1
		c-0.01,0-0.05-0.01-0.1-0.01h-0.14V14.6L38.14,14.6z"/>
</g>
<g>
	<defs>
		<path id="SVGID_3_" d="M115.4,75.33H5.23c-2.72,0-4.92-2.2-4.92-4.92V5.24c0-2.72,2.2-4.92,4.92-4.92h110.16
			c2.72,0,4.92,2.2,4.92,4.92V70.4C120.32,73.12,118.11,75.33,115.4,75.33z"/>
	</defs>
	<clipPath id="SVGID_4_">
		<use xlink:href="#SVGID_3_"  style="overflow:visible;"/>
	</clipPath>
	<g class="st3">
		<linearGradient id="SVGID_5_" gradientUnits="userSpaceOnUse" x1="-13.8693" y1="3.2083" x2="46.7007" y2="3.2083">
			<stop  offset="0.0107" style="stop-color:#2A2A2C"/>
			<stop  offset="0.4975" style="stop-color:#636363"/>
			<stop  offset="1" style="stop-color:#28282A"/>
		</linearGradient>
		<polygon class="st4" points="44.7,-8.61 44.7,24.8 -11.87,24.8 -11.87,-8.61 16.45,-18.27 		"/>
		<linearGradient id="SVGID_6_" gradientUnits="userSpaceOnUse" x1="42.7007" y1="46.3916" x2="103.2707" y2="46.3916">
			<stop  offset="0.0107" style="stop-color:#2A2A2C"/>
			<stop  offset="0.4975" style="stop-color:#636363"/>
			<stop  offset="1" style="stop-color:#28282A"/>
		</linearGradient>
		<polygon class="st5" points="101.27,24.8 101.27,58.22 72.95,67.87 44.7,58.22 44.7,24.8 		"/>
	</g>
</g>
<g>
	<circle class="st6" cx="105.31" cy="63.15" r="7.8"/>
	<circle class="st7" cx="95.57" cy="63.15" r="7.8"/>
	<ellipse class="st8" cx="100.44" cy="63.15" rx="2.93" ry="6.09"/>
</g>
</svg>
