<?xml version="1.0" encoding="utf-8"?>
<!-- Generator: Adobe Illustrator 24.0.0, SVG Export Plug-In . SVG Version: 6.00 Build 0)  -->
<svg version="1.1" id="Layer_1" xmlns="http://www.w3.org/2000/svg" xmlns:xlink="http://www.w3.org/1999/xlink" x="0px" y="0px"
	 viewBox="0 0 120 75" style="enable-background:new 0 0 120 75;" xml:space="preserve">
<style type="text/css">
	.st0{fill:url(#SVGID_1_);}
	.st1{fill:url(#SVGID_2_);}
	.st2{fill:url(#SVGID_3_);}
	.st3{fill:url(#SVGID_4_);}
	.st4{fill:url(#SVGID_5_);}
	.st5{fill:#FFFFFF;}
	.st6{fill:#CF4037;}
	.st7{fill:#F99F1C;}
	.st8{fill:#ED1C24;}
	.st9{opacity:0.43;fill:#F99F1C;enable-background:new    ;}
</style>
<radialGradient id="SVGID_1_" cx="60.05" cy="37.705" r="50.0331" gradientUnits="userSpaceOnUse">
	<stop  offset="0" style="stop-color:#0294CF"/>
	<stop  offset="0.6826" style="stop-color:#004F8A"/>
	<stop  offset="0.9305" style="stop-color:#003A74"/>
</radialGradient>
<path class="st0" d="M115.14,75.21H4.97c-2.72,0-4.92-2.2-4.92-4.92V5.12c0-2.72,2.2-4.92,4.92-4.92h110.16
	c2.72,0,4.92,2.2,4.92,4.92v65.16C120.06,73,117.85,75.21,115.14,75.21z"/>
<radialGradient id="SVGID_2_" cx="59.7628" cy="56.4922" r="44.5039" gradientUnits="userSpaceOnUse">
	<stop  offset="0" style="stop-color:#009C74"/>
	<stop  offset="0.4189" style="stop-color:#007F50"/>
	<stop  offset="1" style="stop-color:#006B33"/>
</radialGradient>
<path class="st1" d="M114.85,75.5H4.68c-2.72,0-4.92-2.2-4.92-4.92V37.49h120v33.08C119.77,73.29,117.56,75.5,114.85,75.5z"/>
<linearGradient id="SVGID_3_" gradientUnits="userSpaceOnUse" x1="0" y1="35.5287" x2="120.05" y2="35.5287">
	<stop  offset="0.116" style="stop-color:#005C97"/>
	<stop  offset="0.3043" style="stop-color:#0294CF"/>
	<stop  offset="0.6836" style="stop-color:#004F8A"/>
	<stop  offset="0.9305" style="stop-color:#003A74"/>
</linearGradient>
<rect y="33.35" class="st2" width="120.05" height="4.35"/>
<linearGradient id="SVGID_4_" gradientUnits="userSpaceOnUse" x1="0" y1="39.8413" x2="120.05" y2="39.8413">
	<stop  offset="0.0215" style="stop-color:#008557"/>
	<stop  offset="0.3301" style="stop-color:#009C74"/>
	<stop  offset="0.6395" style="stop-color:#007F50"/>
	<stop  offset="1" style="stop-color:#006B33"/>
</linearGradient>
<rect y="37.66" class="st3" width="120.05" height="4.35"/>
<linearGradient id="SVGID_5_" gradientUnits="userSpaceOnUse" x1="13.06" y1="38.505" x2="29.0501" y2="38.505">
	<stop  offset="0" style="stop-color:#575757"/>
	<stop  offset="0.5192" style="stop-color:#FFFFFF"/>
	<stop  offset="1" style="stop-color:#A8A8A8"/>
</linearGradient>
<path class="st4" d="M27.13,44.45H14.98c-1.06,0-1.92-0.86-1.92-1.92v-8.05c0-1.06,0.86-1.92,1.92-1.92h12.15
	c1.06,0,1.92,0.86,1.92,1.92v8.05C29.06,43.59,28.19,44.45,27.13,44.45z"/>
<g>
	<path class="st5" d="M18,10.75h-1.52v7.4H18V10.75z M19.37,10.75v1.38h1.31v4.17c0,0.58,0.11,1.05,0.44,1.42
		c0.33,0.33,0.73,0.51,1.23,0.54c0.54,0,0.98-0.11,1.34-0.36l0.36-1.31v-0.11l-0.07,0.04c-0.4,0.25-0.76,0.4-1.12,0.4
		c-0.47,0-0.69-0.29-0.69-0.83v-3.95h1.52v-1.38h-1.52V8.46l-1.49,0.76v1.52H19.37z M26.7,10.75h-1.52v7.4h1.52V10.75z M12.99,10.64
		c-1.09,0-2,0.29-2.72,0.98c-0.8,0.69-1.16,1.63-1.16,2.83c0,1.16,0.36,2.14,1.16,2.83c0.73,0.69,1.63,1.02,2.72,1.02
		c1.02,0,1.89-0.44,2.61-1.27v-0.04l-0.83-1.02l-0.04,0.04c-0.54,0.54-1.12,0.83-1.81,0.83c-0.65,0-1.2-0.22-1.63-0.69
		c-0.44-0.44-0.65-0.98-0.65-1.71c0-0.69,0.22-1.27,0.65-1.7c0.44-0.47,0.98-0.65,1.63-0.65c0.69,0,1.27,0.25,1.81,0.8l0.04,0.04
		l0.83-1.02v-0.04C14.88,11.04,14.01,10.64,12.99,10.64L12.99,10.64z"/>
	<path class="st6" d="M17.23,9.55c1.2-1.27,2.65-1.89,4.35-1.89c1.67,0,3.12,0.62,4.28,1.89h1.78l-0.04-0.11
		c-0.69-0.98-1.6-1.7-2.68-2.28c-1.05-0.58-2.18-0.83-3.34-0.83c-1.2,0-2.32,0.25-3.37,0.83c-1.09,0.58-1.96,1.31-2.65,2.28
		l-0.07,0.11H17.23z"/>
</g>
<g>
	<circle class="st7" cx="106.05" cy="61.68" r="7.8"/>
	<circle class="st8" cx="96.31" cy="61.68" r="7.8"/>
	<ellipse class="st9" cx="101.18" cy="61.68" rx="2.93" ry="6.09"/>
</g>
</svg>
