<?xml version="1.0" encoding="utf-8"?>
<!-- Generator: Adobe Illustrator 24.0.0, SVG Export Plug-In . SVG Version: 6.00 Build 0)  -->
<svg version="1.1" id="Layer_1" xmlns="http://www.w3.org/2000/svg" xmlns:xlink="http://www.w3.org/1999/xlink" x="0px" y="0px"
	 viewBox="0 0 120 75" style="enable-background:new 0 0 120 75;" xml:space="preserve">
<style type="text/css">
	.st0{fill:url(#SVGID_1_);}
	.st1{fill:url(#SVGID_2_);}
</style>
<linearGradient id="SVGID_1_" gradientUnits="userSpaceOnUse" x1="60.05" y1="-0.21" x2="60.05" y2="74.8" gradientTransform="matrix(1 0 0 -1 0 75)">
	<stop  offset="0" style="stop-color:#98999B"/>
	<stop  offset="0.2012" style="stop-color:#A9ACB1"/>
	<stop  offset="0.522" style="stop-color:#A1A4A9"/>
	<stop  offset="0.6966" style="stop-color:#AAADB2"/>
	<stop  offset="0.8862" style="stop-color:#A6A9AE"/>
	<stop  offset="1" style="stop-color:#98999B"/>
</linearGradient>
<path class="st0" d="M115.14,75.21H4.97c-2.72,0-4.92-2.2-4.92-4.92V5.12c0-2.72,2.2-4.92,4.92-4.92h110.16
	c2.72,0,4.92,2.2,4.92,4.92v65.16C120.06,73,117.85,75.21,115.14,75.21z"/>
<linearGradient id="SVGID_2_" gradientUnits="userSpaceOnUse" x1="9.2848" y1="37.705" x2="25.2749" y2="37.705">
	<stop  offset="5.334684e-03" style="stop-color:#DDA741"/>
	<stop  offset="0.4663" style="stop-color:#DAB450"/>
	<stop  offset="1" style="stop-color:#DDC57B"/>
</linearGradient>
<path class="st1" d="M23.35,43.65H11.2c-1.06,0-1.92-0.86-1.92-1.92v-8.05c0-1.06,0.86-1.92,1.92-1.92h12.15
	c1.06,0,1.92,0.86,1.92,1.92v8.05C25.28,42.79,24.41,43.65,23.35,43.65z"/>
</svg>
