<?xml version="1.0" encoding="utf-8"?>
<!-- Generator: Adobe Illustrator 24.0.0, SVG Export Plug-In . SVG Version: 6.00 Build 0)  -->
<svg version="1.1" id="Layer_1" xmlns="http://www.w3.org/2000/svg" xmlns:xlink="http://www.w3.org/1999/xlink" x="0px" y="0px"
	 viewBox="0 0 120 75" style="enable-background:new 0 0 120 75;" xml:space="preserve">
<style type="text/css">
	.st0{fill:url(#SVGID_1_);}
	.st1{opacity:0.2;clip-path:url(#SVGID_3_);}
	.st2{fill:none;stroke:#FFFFFF;stroke-width:0.25;stroke-miterlimit:10;}
	.st3{fill:url(#SVGID_4_);}
	.st4{fill:#FFFFFF;}
	.st5{fill:#B2B2B2;}
	.st6{fill:none;}
</style>
<linearGradient id="SVGID_1_" gradientUnits="userSpaceOnUse" x1="60.0564" y1="75.2053" x2="60.0564" y2="0.2053">
	<stop  offset="0" style="stop-color:#0D2B9D"/>
	<stop  offset="1" style="stop-color:#30007B"/>
</linearGradient>
<path class="st0" d="M115.14,75.21H4.97c-2.72,0-4.92-2.2-4.92-4.92V5.12c0-2.72,2.2-4.92,4.92-4.92h110.16
	c2.72,0,4.92,2.2,4.92,4.92v65.16C120.06,73,117.85,75.21,115.14,75.21z"/>
<g>
	<defs>
		<path id="SVGID_2_" d="M115.22,75.08H5.05c-2.72,0-4.92-2.2-4.92-4.92V5c0-2.72,2.2-4.92,4.92-4.92h110.16
			c2.72,0,4.92,2.2,4.92,4.92v65.16C120.14,72.88,117.93,75.08,115.22,75.08z"/>
	</defs>
	<clipPath id="SVGID_3_">
		<use xlink:href="#SVGID_2_"  style="overflow:visible;"/>
	</clipPath>
	<g class="st1">
		<line class="st2" x1="0.52" y1="-8.78" x2="-6" y2="-2.26"/>
		<line class="st2" x1="125" y1="80.45" x2="122.41" y2="83.04"/>
		<line class="st2" x1="125" y1="74.17" x2="116.12" y2="83.04"/>
		<line class="st2" x1="125" y1="64.74" x2="106.7" y2="83.04"/>
		<line class="st2" x1="125" y1="61.59" x2="103.55" y2="83.04"/>
		<line class="st2" x1="125" y1="55.31" x2="97.27" y2="83.04"/>
		<line class="st2" x1="125" y1="49.02" x2="90.98" y2="83.04"/>
		<line class="st2" x1="125" y1="39.59" x2="81.55" y2="83.04"/>
		<line class="st2" x1="125" y1="36.45" x2="78.41" y2="83.04"/>
		<line class="st2" x1="125" y1="30.17" x2="72.12" y2="83.04"/>
		<polyline class="st2" points="65.84,83.04 75.01,73.87 96.24,52.64 125,23.88 		"/>
		<polyline class="st2" points="125,17.6 98.82,43.78 66.15,76.45 59.55,83.04 		"/>
		<polyline class="st2" points="125,8.17 99.24,33.92 56.29,76.87 50.12,83.04 		"/>
		<polyline class="st2" points="125,5.02 98.92,31.11 53.48,76.55 46.98,83.04 		"/>
		<polyline class="st2" points="125,-1.26 97.78,25.96 48.33,75.41 40.7,83.04 		"/>
		<polyline class="st2" points="125,-7.55 96.12,21.33 43.7,73.75 34.41,83.04 		"/>
		<polyline class="st2" points="119.95,-8.78 94.01,17.15 39.53,71.64 28.13,83.04 		"/>
		<polyline class="st2" points="18.7,83.04 33.98,67.76 90.13,11.61 110.52,-8.78 		"/>
		<polyline class="st2" points="15.55,83.04 32.31,66.29 88.66,9.94 107.38,-8.78 		"/>
		<polyline class="st2" points="9.27,83.04 29.23,63.08 85.45,6.86 101.09,-8.78 		"/>
		<polyline class="st2" points="2.98,83.04 26.51,59.52 81.89,4.13 94.81,-8.78 		"/>
		<polyline class="st2" points="-3.3,83.04 24.15,55.58 77.96,1.78 88.52,-8.78 		"/>
		<polyline class="st2" points="-6,76.31 21.4,48.91 71.28,-0.97 79.09,-8.78 		"/>
		<polyline class="st2" points="-6,73.17 20.73,46.44 68.81,-1.65 75.95,-8.78 		"/>
		<polyline class="st2" points="-6,66.88 19.82,41.06 63.43,-2.55 69.66,-8.78 		"/>
		<polyline class="st2" points="-6,57.45 20.04,31.41 53.79,-2.33 60.23,-8.78 		"/>
		<polyline class="st2" points="-6,54.31 20.8,27.51 49.88,-1.57 57.09,-8.78 		"/>
		<line class="st2" x1="47.66" y1="-8.78" x2="-6" y2="44.88"/>
		<line class="st2" x1="44.52" y1="-8.78" x2="-6" y2="41.74"/>
		<line class="st2" x1="38.23" y1="-8.78" x2="-6" y2="35.45"/>
		<line class="st2" x1="28.81" y1="-8.78" x2="-6" y2="26.02"/>
		<line class="st2" x1="25.66" y1="-8.78" x2="-6" y2="22.88"/>
		<line class="st2" x1="16.24" y1="-8.78" x2="-6" y2="13.45"/>
		<line class="st2" x1="13.09" y1="-8.78" x2="-6" y2="10.31"/>
		<line class="st2" x1="3.66" y1="-8.78" x2="-6" y2="0.88"/>
		<line class="st2" x1="-5.77" y1="-8.78" x2="-6" y2="-8.55"/>
		<line class="st2" x1="125" y1="71.02" x2="112.98" y2="83.04"/>
		<line class="st2" x1="125" y1="67.88" x2="109.84" y2="83.04"/>
		<line class="st2" x1="125" y1="58.45" x2="100.41" y2="83.04"/>
		<line class="st2" x1="125" y1="52.16" x2="94.13" y2="83.04"/>
		<line class="st2" x1="125" y1="45.88" x2="87.84" y2="83.04"/>
		<line class="st2" x1="125" y1="42.74" x2="84.7" y2="83.04"/>
		<line class="st2" x1="125" y1="33.31" x2="75.27" y2="83.04"/>
		<polyline class="st2" points="68.98,83.04 81.92,70.1 92.47,59.55 125,27.02 		"/>
		<polyline class="st2" points="125,20.74 97.92,47.82 70.19,75.55 62.7,83.04 		"/>
		<polyline class="st2" points="125,14.45 99.25,40.2 62.57,76.88 56.41,83.04 		"/>
		<polyline class="st2" points="125,11.31 99.37,36.94 59.31,77 53.27,83.04 		"/>
		<polyline class="st2" points="125,1.88 98.42,28.46 50.83,76.05 43.84,83.04 		"/>
		<polyline class="st2" points="125,-4.41 97.01,23.59 45.96,74.64 37.55,83.04 		"/>
		<polyline class="st2" points="123.09,-8.78 95.12,19.19 41.56,72.75 31.27,83.04 		"/>
		<polyline class="st2" points="24.98,83.04 37.58,70.44 92.81,15.21 116.81,-8.78 		"/>
		<polyline class="st2" points="21.84,83.04 35.74,69.14 91.52,13.37 113.66,-8.78 		"/>
		<polyline class="st2" points="12.41,83.04 30.73,64.73 87.1,8.35 104.23,-8.78 		"/>
		<polyline class="st2" points="6.13,83.04 27.82,61.34 83.71,5.45 97.95,-8.78 		"/>
		<polyline class="st2" points="-0.16,83.04 25.28,57.6 79.97,2.91 91.66,-8.78 		"/>
		<polyline class="st2" points="-6,82.6 23.12,53.47 75.84,0.75 85.38,-8.78 		"/>
		<polyline class="st2" points="-6,79.45 22.2,51.25 73.62,-0.17 82.24,-8.78 		"/>
		<polyline class="st2" points="-6,70.02 20.19,43.83 66.2,-2.18 72.81,-8.78 		"/>
		<polyline class="st2" points="-6,63.74 19.64,38.09 60.47,-2.73 66.52,-8.78 		"/>
		<polyline class="st2" points="-6,60.6 19.69,34.9 57.27,-2.68 63.38,-8.78 		"/>
		<polyline class="st2" points="-6,51.17 22.23,22.94 45.31,-0.14 53.95,-8.78 		"/>
		<polyline class="st2" points="-6,48.02 25.16,16.87 25.16,16.87 39.24,2.78 39.24,2.78 50.81,-8.78 		"/>
		<line class="st2" x1="41.38" y1="-8.78" x2="-6" y2="38.59"/>
		<line class="st2" x1="35.09" y1="-8.78" x2="-6" y2="32.31"/>
		<line class="st2" x1="31.95" y1="-8.78" x2="-6" y2="29.17"/>
		<line class="st2" x1="22.52" y1="-8.78" x2="-6" y2="19.74"/>
		<line class="st2" x1="19.38" y1="-8.78" x2="-6" y2="16.6"/>
		<line class="st2" x1="9.95" y1="-8.78" x2="-6" y2="7.17"/>
		<line class="st2" x1="6.81" y1="-8.78" x2="-6" y2="4.02"/>
		<line class="st2" x1="-2.62" y1="-8.78" x2="-6" y2="-5.4"/>
		<line class="st2" x1="125" y1="77.31" x2="119.27" y2="83.04"/>
	</g>
</g>
<linearGradient id="SVGID_4_" gradientUnits="userSpaceOnUse" x1="13.0564" y1="38.4967" x2="29.0564" y2="38.4967">
	<stop  offset="0" style="stop-color:#575757"/>
	<stop  offset="0.5192" style="stop-color:#FFFFFF"/>
	<stop  offset="1" style="stop-color:#A8A8A8"/>
</linearGradient>
<path class="st3" d="M27.13,44.45H14.98c-1.06,0-1.92-0.86-1.92-1.92v-8.05c0-1.06,0.86-1.92,1.92-1.92h12.15
	c1.06,0,1.92,0.86,1.92,1.92v8.05C29.06,43.59,28.19,44.45,27.13,44.45z"/>
<g>
	<g>
		<path class="st4" d="M102.1,69.97h-1.74l1.08-6.67h1.74L102.1,69.97z M98.9,63.31l-1.65,4.59l-0.2-0.99l0,0l-0.58-3
			c0,0-0.07-0.6-0.82-0.6h-2.74l-0.03,0.11c0,0,0.84,0.17,1.82,0.76l1.51,5.79h1.81l2.76-6.67H98.9L98.9,63.31z M112.55,69.97h1.59
			l-1.39-6.67h-1.4c-0.64,0-0.8,0.5-0.8,0.5l-2.59,6.17h1.81l0.36-0.99h2.21L112.55,69.97L112.55,69.97z M110.64,67.62l0.91-2.49
			l0.51,2.49H110.64z M108.11,64.91l0.25-1.43c0,0-0.76-0.29-1.56-0.29c-0.86,0-2.91,0.38-2.91,2.21c0,1.72,2.4,1.74,2.4,2.65
			c0,0.9-2.15,0.74-2.86,0.17l-0.26,1.5c0,0,0.78,0.38,1.96,0.38c1.18,0,2.97-0.61,2.97-2.28c0-1.73-2.42-1.89-2.42-2.65
			C105.68,64.4,107.37,64.5,108.11,64.91L108.11,64.91z"/>
	</g>
	<path class="st5" d="M97.05,66.9l-0.58-3c0,0-0.07-0.6-0.82-0.6h-2.74l-0.03,0.11c0,0,1.31,0.27,2.58,1.29
		C96.66,65.69,97.05,66.9,97.05,66.9z"/>
	<path class="st6" d="M90.88,54h25.28v25.28H90.88V54z"/>
</g>
<g>
	<path class="st4" d="M89.86,10c-0.27,0-0.49,0.22-0.5,0.49v3.46h9.15L94.35,10L89.86,10 M98.85,15.01c0-0.27-0.22-0.49-0.49-0.49
		c0,0,0,0,0,0h-3.46v9.15l3.96-4.17L98.85,15.01 M93.84,24c0.27,0,0.49-0.22,0.49-0.49v-3.46h-9.15L89.35,24L93.84,24 M84.85,18.99
		c0,0.27,0.22,0.49,0.49,0.49l0,0h3.46v-9.15l-3.96,4.17L84.85,18.99"/>
	<path class="st4" d="M42.89,11.67v4.23H37v-4.23l-2.14,0v10.66H37v-4.58h5.89v4.58h2.15V11.67H42.89 M71.43,11.67v10.66l9.41,0
		l-1.19-1.88h-6.07v-2.7h5.87v-1.81h-5.87V13.5h6.06l1.17-1.83H71.43 M26.88,11.67c-2.23,0-3.36,1.36-3.36,3.33v3.98
		c0,2.28,1.45,3.35,3.35,3.35l6.73,0l-1.25-1.95h-5.07c-1.08,0-1.54-0.39-1.54-1.59v-3.61c0-1.16,0.39-1.62,1.57-1.62h5.09l1.2-1.89
		L26.88,11.67 M62.01,11.67c-1.29,0-2.61,0.77-2.61,2.77v0.51c0,2.08,1.27,2.87,2.54,2.87h4.46c0.46,0,0.84,0.08,0.84,0.86l0,0.91
		c-0.01,0.7-0.36,0.86-0.86,0.86h-5.87l-1.2,1.88h7.21c1.74,0,2.92-0.86,2.92-2.86v-0.73c0-1.93-1.1-2.84-2.8-2.84h-4.26
		c-0.47,0-0.8-0.13-0.8-0.83l0-0.74c0-0.6,0.23-0.81,0.78-0.81l5.59,0l1.17-1.84L62.01,11.67 M51.27,11.67l-5.05,10.66h2.39
		l0.98-2.2h5.49l0.98,2.2h2.4L53.4,11.67L51.27,11.67 M52.33,13.88l1.94,4.43H50.4L52.33,13.88z"/>
</g>
</svg>
