<?xml version="1.0" encoding="utf-8"?>
<!-- Generator: Adobe Illustrator 24.0.0, SVG Export Plug-In . SVG Version: 6.00 Build 0)  -->
<svg version="1.1" id="Layer_1" xmlns="http://www.w3.org/2000/svg" xmlns:xlink="http://www.w3.org/1999/xlink" x="0px" y="0px"
	 viewBox="0 0 120 75" style="enable-background:new 0 0 120 75;" xml:space="preserve">
<style type="text/css">
	.st0{fill:url(#SVGID_1_);}
	.st1{fill:url(#SVGID_2_);}
	.st2{fill-rule:evenodd;clip-rule:evenodd;fill:#AC3A30;}
	.st3{fill-rule:evenodd;clip-rule:evenodd;fill:#FFF22D;}
	.st4{fill:#DDDDDD;}
	.st5{fill:#FFFFFF;}
	.st6{fill:#B2B2B2;}
	.st7{fill:none;}
</style>
<linearGradient id="SVGID_1_" gradientUnits="userSpaceOnUse" x1="9.999752e-03" y1="37.525" x2="120.01" y2="37.525">
	<stop  offset="0" style="stop-color:#4B5054"/>
	<stop  offset="0.5398" style="stop-color:#929292"/>
	<stop  offset="0.9978" style="stop-color:#5A5A5A"/>
</linearGradient>
<path class="st0" d="M115.1,75.03H4.93c-2.72,0-4.92-2.2-4.92-4.92V4.94c0-2.72,2.2-4.92,4.92-4.92h110.16
	c2.72,0,4.92,2.2,4.92,4.92V70.1C120.02,72.82,117.81,75.03,115.1,75.03z"/>
<linearGradient id="SVGID_2_" gradientUnits="userSpaceOnUse" x1="14.32" y1="38.7675" x2="30.3101" y2="38.7675">
	<stop  offset="0" style="stop-color:#575757"/>
	<stop  offset="0.5192" style="stop-color:#FFFFFF"/>
	<stop  offset="1" style="stop-color:#A8A8A8"/>
</linearGradient>
<path class="st1" d="M28.39,44.71H16.24c-1.06,0-1.92-0.86-1.92-1.92v-8.05c0-1.06,0.86-1.92,1.92-1.92h12.15
	c1.06,0,1.92,0.86,1.92,1.92v8.05C30.32,43.85,29.45,44.71,28.39,44.71z"/>
<g>
	<path class="st2" d="M11.25,5.69h22.83v22.83H11.25V5.69z"/>
	<path class="st3" d="M16.47,19.15c0-0.26-0.03-0.49-0.13-0.68c-0.13-0.16-0.36-0.2-0.72-0.2h-0.82v0.98h0.26
		c0.39,0,0.46-0.1,0.46-0.59h0.33v1.63h-0.33c0-0.55-0.07-0.68-0.46-0.68h-0.26v0.85c0,0.29,0.03,0.29,0.33,0.29h0.36v0.39H13.5
		v-0.39h0.2c0.26,0,0.36-0.03,0.36-0.29v-1.92c0-0.26-0.1-0.29-0.36-0.29h-0.2v-0.36h3.33v1.27L16.47,19.15L16.47,19.15L16.47,19.15
		z M23.97,20.23h-0.29c0,0.36,0,0.52-0.2,0.52c-0.1,0-0.2-0.1-0.2-0.29V20.3c-0.03-0.46-0.13-0.65-0.68-0.82
		c0.62-0.06,0.98-0.36,0.98-0.81c0-0.55-0.39-0.78-1.21-0.78h-2.25v0.36h0.26c0.29,0,0.33,0.03,0.33,0.29v1.92
		c0,0.23-0.13,0.29-0.33,0.29h-0.23c-0.2,0-0.29-0.07-0.39-0.29l-1.04-2.58h-0.78l-1.11,2.58c-0.1,0.23-0.16,0.29-0.42,0.29h-0.13
		v0.39h1.7v-0.39h-0.36c-0.16,0-0.26,0-0.26-0.1c0-0.03,0.03-0.1,0.07-0.16l0.16-0.39h1.24l0.16,0.36c0.03,0.06,0.03,0.13,0.03,0.16
		c0,0.13-0.1,0.13-0.26,0.13H18.4v0.39h3.68v-0.39h-0.29c-0.29,0-0.33,0-0.33-0.29v-0.85h0.33c0.55,0,0.72,0.1,0.75,0.65v0.36
		c0.03,0.46,0.33,0.59,0.78,0.59c0.39,0,0.65-0.23,0.65-0.85V20.23L23.97,20.23z M17.71,19.71l0.52-1.24l0.49,1.24H17.71
		L17.71,19.71z M22.15,19.22l-0.68,0.03v-1.01h0.68c0.46,0,0.68,0.13,0.68,0.49v0.03C22.83,19.09,22.6,19.22,22.15,19.22
		L22.15,19.22z M26.87,18.93c-0.16-0.49-0.49-0.72-1.01-0.72c-0.52,0-0.95,0.42-0.95,1.27c0,0.85,0.33,1.27,0.95,1.3
		c0.42,0,0.82-0.23,0.82-0.59V20c0-0.23-0.03-0.23-0.36-0.23h-0.16v-0.36h1.53v0.36h-0.13c-0.23,0-0.26,0-0.26,0.26v1.08H27
		l-0.16-0.26c-0.29,0.23-0.72,0.36-1.11,0.36c-0.46,0-0.82-0.16-1.11-0.49c-0.33-0.33-0.52-0.75-0.52-1.24
		c0-0.52,0.16-0.91,0.49-1.24c0.29-0.29,0.72-0.42,1.17-0.42c0.36,0,0.78,0.1,1.01,0.36l0.16-0.36h0.26v1.11H26.87L26.87,18.93z
		 M29.84,21.18c-1.08,0-1.92-0.65-1.92-1.7c0-1.01,0.85-1.66,1.92-1.66s1.89,0.65,1.89,1.7C31.73,20.52,30.92,21.18,29.84,21.18z
		 M30.95,19.51c0-1.17-0.78-1.3-1.11-1.3c-0.62,0-1.11,0.46-1.11,1.3c0,0.85,0.49,1.3,1.11,1.3C30.17,20.82,30.95,20.65,30.95,19.51
		z M24.72,15.63c-0.1,0.2-0.33,0.23-0.72,0.23h-0.82v-2.18c0-0.26,0.07-0.29,0.39-0.29h0.23v-0.39h-1.96v0.39h0.16
		c0.29,0,0.46,0,0.46,0.29v1.92c0,0.26-0.13,0.29-0.42,0.29h-0.16v0.36h3.36v-1.3h-0.39C24.85,15.24,24.82,15.44,24.72,15.63
		L24.72,15.63z M20.45,15.86h-1.04v-1.11h0.23c0.39,0,0.46,0.07,0.49,0.62h0.36v-1.63h-0.36c-0.03,0.49-0.1,0.62-0.49,0.62h-0.23
		v-0.98h0.88c0.65,0,0.85,0.13,0.88,0.88h0.36v-1.27H16.7v0.39h0.23c0.2,0,0.26,0.03,0.26,0.13c0,0.07,0,0.13-0.03,0.26l-0.62,1.63
		H16.5c-0.29-0.82-0.68-1.76-0.68-1.76c-0.03-0.07-0.03-0.1-0.03-0.13c0-0.1,0.07-0.13,0.23-0.13h0.26v-0.39h-1.73v0.39h0.23
		c0.26,0,0.36,0.13,0.39,0.39l-0.65,1.63h-0.03c-0.29-0.88-0.68-1.79-0.68-1.79c-0.03-0.03,0-0.07,0-0.1
		c-0.03-0.1,0.07-0.13,0.26-0.13h0.13v-0.39h-1.63v0.39h0.07c0.23,0,0.42,0.13,0.52,0.42l0.98,2.45h0.59l0.72-1.79l0.75,1.79h0.59
		l0.91-2.48c0.13-0.29,0.2-0.39,0.49-0.39h0.03c0.29,0,0.46,0,0.46,0.29v1.92c0,0.26-0.16,0.29-0.46,0.29H18v0.36h3.59v-1.3H21.2
		C21.17,15.6,21.04,15.86,20.45,15.86L20.45,15.86z M28.34,14.95c0,0.29-0.03,0.49-0.13,0.68c-0.1,0.2-0.33,0.23-0.72,0.23h-0.78
		v-2.18c0-0.26,0.07-0.29,0.36-0.29h0.26v-0.39h-1.99v0.39h0.23c0.26,0,0.39,0,0.39,0.29v1.92c0,0.26-0.1,0.29-0.39,0.29H25.5v0.36
		h3.23v-1.3L28.34,14.95L28.34,14.95z M32.06,15.31c0,0.75-0.59,1.01-1.44,1.01c-0.52,0-1.04-0.29-1.14-0.39l-0.13,0.33h-0.33v-1.3
		h0.39c0.1,0.62,0.52,0.88,1.11,0.91c0.52,0.03,0.88-0.1,0.91-0.46c0.07-0.42-0.39-0.39-0.78-0.46l-0.55-0.1
		c-0.82-0.16-1.11-0.39-1.11-0.95c-0.03-0.59,0.52-0.98,1.24-0.98c0.36,0,0.82,0.07,1.14,0.33l0.16-0.26h0.29v1.14h-0.36
		c-0.07-0.62-0.72-0.82-1.24-0.82c-0.39,0.03-0.62,0.23-0.62,0.49c0,0.26,0.23,0.29,0.52,0.36l0.68,0.1
		C31.54,14.39,32.06,14.52,32.06,15.31L32.06,15.31z"/>
</g>
<g id="CPKBat_1_">
	<g>
		<path class="st4" d="M95.06,43.18c0.19-0.15,0.41-0.28,0.58-0.45c0.72-0.71,1.69-0.67,2.58-0.87c0.43-0.1,0.7-0.24,0.54-0.74
			c-0.77,0.22-1.53,0.44-2.26,0.64c-0.08-0.26-0.14-0.42-0.15-0.47c0.86-0.65,1.7-1.28,2.55-1.92c0.06-0.04,0.12-0.12,0.19-0.12
			c1.3-0.04,2.51-1.06,3.91-0.3c0.39,0.21,0.96,0.41,1.53-0.09c-0.89-0.33-1.69-0.62-2.5-0.92c0.01-0.05,0.03-0.11,0.04-0.16
			c0.4,0.07,0.8,0.14,1.2,0.21c0.91,0.1,1.82,0.21,2.73,0.31c0.2-0.12,0.47-0.19,0.57-0.36c0.35-0.56,0.77-0.96,1.42-1.21
			c0.56-0.21,1.06-0.56,1.68-0.36c0.19,0.06,0.34,0.22,0.52,0.34c-0.45-0.18-0.56,0.08-0.45,0.42c0.15,0.46,0.39,0.89,0.59,1.33
			c0.07-0.02,0.14-0.05,0.21-0.07c-0.11-0.55-0.22-1.11-0.33-1.66c0.34,0.38,0.53,0.35,1.35-0.26c0.69,0.77,1.4,1.55,2.26,2.51
			c-0.61,0.12-1.06,0.25-1.52,0.28c-0.92,0.07-1.28,0.3-1.1,1.17c0.18,0.88-0.27,1.43-0.62,2.07c-0.04,0.06-0.06,0.13-0.12,0.25
			c0.26,0.22,0.54,0.46,0.94,0.8c-0.37,0.25-0.7,0.47-1.12,0.75c0.37,0.4,0.74,0.8,1.22,1.32c-0.97,0.07-1.09-0.9-1.68-1.15
			c-1.3,0.93-1.9,1.03-2.9,0.34c0.74,0,1.35,0,1.95,0c0.01-0.05,0.01-0.1,0.02-0.16c-0.15-0.07-0.3-0.14-0.51-0.24
			c0.37-0.42,0.7-0.87,0.08-1.27c-0.61-0.4-1.44-0.25-1.77,0.26c-0.15,0.23-0.33,0.44-0.48,0.66c-0.15,0.22-0.3,0.45-0.43,0.65
			c0.28,0.42,0.56,0.84,0.84,1.26c-0.07,0.05-0.15,0.11-0.22,0.16c-0.25-0.28-0.49-0.57-0.8-0.92c-0.19,0.78,0.07,1.14,0.78,1.15
			c2.3,0.01,4.6-0.02,6.91-0.03c0.16,0,0.33,0,0.57,0c-0.62,0.31-70.68,0.49-72.41,0.14c1.12,0,2.23,0,3.46,0
			c-2.78-1.83-3.12-3.45-1.45-6.35c-0.36-0.09-0.71-0.18-1.07-0.27c-0.3-0.08-0.61-0.16-0.97-0.25c1.29-2.05,3.37-3.5,4.93-5.41
			c-0.07-0.03-0.13-0.05-0.2-0.08c0.06-0.29,0.13-0.57,0.19-0.86c0.28,0.07,0.55,0.13,0.83,0.2c-0.01,0.06-0.02,0.11-0.03,0.17
			c-0.14,0.05-0.29,0.1-0.43,0.15c0,0.07-0.01,0.14-0.01,0.21c0.4,0.07,0.79,0.14,1.19,0.22c0.06-0.08,0.13-0.16,0.19-0.24
			c-0.19-0.23-0.38-0.46-0.56-0.7c-0.06-0.08-0.1-0.18-0.15-0.28c0.13-0.07,0.27-0.19,0.4-0.2c0.83-0.04,1.67-0.03,2.5-0.1
			c0.23-0.02,0.5-0.2,0.64-0.39c0.27-0.35,0.53-0.43,0.96-0.28c0.48,0.17,1,0.31,1.5,0.34c1.3,0.07,1.3,0.04,1.4,1.31
			c0.25,0.03,0.51,0.06,0.79,0.1c-0.13,0.07-0.24,0.13-0.36,0.19c-0.01,0.08-0.02,0.16-0.02,0.25c0.64,0.12,1.28,0.25,1.92,0.37
			c0.02-0.07,0.03-0.15,0.05-0.22c-0.1-0.04-0.2-0.08-0.3-0.12c0.05-0.04,0.11-0.08,0.16-0.12c0.23,0.35,0.46,0.71,0.77,1.18
			c0.33-0.68,0.63-1.28,0.94-1.91c0.18-0.17,0.41-0.37,0.62-0.6c0.55-0.58,0.73-0.59,1.07-0.03c0.06,0.45,0.12,0.89,0.18,1.34
			c0.08,0,0.17,0.01,0.25,0.01c0.18-0.43,0.21-1.08,0.92-0.78c0.18,0.08,0.26,0.37,0.39,0.57c-0.05,0.04-0.1,0.08-0.15,0.11
			c0.22,0,0.44,0,0.78,0c-0.11,0.09-0.16,0.13-0.21,0.16c-0.06,0.04-0.12,0.07-0.18,0.1c0.37,1.15,1.3,0.9,2.2,1.05
			c2.27,0.36,4.65,0.42,6.69,1.72c0.08,0.05,0.17,0.1,0.25,0.17c0.72,0.61,1.26,0.28,1.97-0.15c0.65-0.4,1.52-0.57,2.3-0.59
			c0.45-0.01,0.9,0.49,1.36,0.75c0.22,0.13,0.45,0.3,0.69,0.33c1.05,0.12,2.11,0.19,2.95,0.27c-0.98,0-2.19,0-3.4,0
			c-0.01,0.09-0.02,0.17-0.03,0.26c0.85,0.33,1.8,0.03,2.87,0.3c-1.02,0-1.84,0-2.75,0c0.16,0.3,0.34,0.57,0.44,0.86
			c0.07,0.22,0.02,0.48,0.03,0.72c-0.26-0.06-0.56-0.05-0.77-0.18c-0.25-0.17-0.42-0.45-0.66-0.73c-0.03,0.34-0.05,0.64-0.08,1.02
			c-0.31-0.13-0.62-0.27-0.95-0.41c0.01,0.68,0.49,1.38,1.01,1.52c0.96,0.26,1.9,0.52,2.55,1.38c0.12,0.16,0.53,0.2,0.77,0.15
			c0.52-0.11,0.96,0.21,1.46,0.2c0.59-0.02,1.19,0,1.78-0.02c0.13,0,0.26-0.11,0.44-0.2c-0.4-0.57-0.78-1.1-1.11-1.57
			c-1.01,0.25-2.01,0.49-2.99,0.73c0.44-0.88,0.45-0.87,1.22-1.41c0.18-0.12,0.27-0.38,0.44-0.53c1.25-1.12,2.64-1.73,4.35-1.15
			c1.05,0.35,1.32,0.33,1.92-0.07c-0.35-0.16-0.67-0.3-0.94-0.42c0.68,0.03,1.4,0.09,2.11,0.08c0.12,0,0.24-0.31,0.42-0.56
			c-0.35-0.05-0.56-0.08-0.59-0.08c0.58-0.29,1.28-0.71,2.03-0.99c0.57-0.22,1.21-0.28,2.01-0.45c-0.46,1.02,0.17,1.33,0.7,1.7
			c-0.14-0.35-0.28-0.7-0.42-1.05c0.63-0.14,1.11,0.21,1.34,0.73c0.26,0.6,0.68,0.52,1.14,0.49c0.75-0.05,1.51-0.12,2.26-0.19
			c0.01,0.07,0.01,0.13,0.02,0.2c-1.07,0.08-2.14,0.17-3.27,0.26c0.03,0.37,0.08,0.69,0.07,1c0,0.17-0.06,0.47-0.14,0.49
			c-0.19,0.04-0.45,0-0.61-0.11c-0.32-0.23-0.58-0.54-0.95-0.89c-0.29,0.64-1.17,0.98-0.43,1.8c0.07,0.08-0.13,0.43-0.24,0.64
			c-0.23,0.43-0.47,0.86-0.77,1.39c1.17,0,2.19,0,3.27,0c0-0.15,0-0.34,0-0.53c0.07-0.03,0.14-0.05,0.22-0.08
			c0.17,0.38,0.34,0.75,0.51,1.13c-1.19,0-2.38,0-3.71,0c0.9,0.82,1.7,1.55,2.63,2.4c-0.33-0.06-0.54-0.04-0.66-0.13
			c-0.3-0.24-0.56-0.54-0.83-0.82c-0.75-0.78-1.37-0.94-2.31-0.57c-0.43,0.17-0.95,1.05-0.75,1.48c0.14,0.3,0.52,0.69,0.8,0.7
			c2.1,0.06,4.19,0.03,6.26,0.03c0.45-0.86,0.88-1.67,1.41-2.66c-0.41,0.07-0.57,0.1-0.73,0.12C96.42,43.85,95.61,43.99,95.06,43.18
			z M48.19,45.7c0.22-0.4,0.46-0.8,0.66-1.21c0.08-0.16,0.06-0.36,0.09-0.54c-0.17-0.01-0.35-0.03-0.52-0.03
			c-0.21-0.01-0.53,0.08-0.61-0.03c-0.33-0.42-0.69-0.24-1.09-0.21c-0.29,0.02-0.69-0.15-0.87-0.37c-0.13-0.16-0.06-0.65,0.1-0.82
			c0.27-0.28,0.65-0.5,1.09-0.13c0.59,0.49,1.25,0.44,1.89-0.06c-0.85-0.36-1.71-0.72-2.64-1.11c-0.32,0.66-0.63,1.31-0.92,1.92
			c-0.18-0.58-0.1-0.79,0.25-1.52c0.13-0.27,0.1-0.74-0.07-0.98c-0.11-0.16-0.67-0.21-0.88-0.07c-0.86,0.54-1.29,2.12-0.97,3.22
			c0.32,1.12,1.44,2.15,2.43,2.26c0.46,0.05,0.91,0.13,1.17,0.17c0.38-0.21,0.65-0.35,0.92-0.49c0.04,0.11,0.12,0.31,0.13,0.31
			c0.39-0.11,0.79-0.23,1.17-0.38c1.03-0.41,1.6-1.24,1.6-2.49c-0.43,0.11-0.82,0.21-1.22,0.32c-0.01-0.03-0.05-0.13-0.11-0.26
			C49.54,44.23,49.11,45.12,48.19,45.7z M67.62,36.53c-0.17-0.02-0.37,0-0.5-0.08c-1.33-0.79-2.85-0.74-4.3-0.97
			c-0.2-0.03-0.55,0.05-0.62,0.19c-0.14,0.26-0.16,0.6-0.15,0.91c0.01,0.25,0.09,0.51,0.2,0.74c0.31,0.67-0.18,1.61,0.6,2
			c-0.97,1.36-2.45,1.41-3.97,1.36c1.53,0.12,2.52,0.97,2.78,2.33c0.27,1.36-0.34,2.52-1.74,3.24c2.91,0,5.68,0,8.43,0
			c0.23-1.04,0.17-1.22-0.54-1.77c-0.45,0.56-0.7,1.4-1.86,1.38c0.84-0.67,1.53-1.23,1.64-2.19c-1.24-0.27-2.21-0.07-2.79,1.12
			c-0.12,0.24-0.28,0.48-0.48,0.65c-0.22,0.19-0.5,0.3-0.75,0.44c-0.05-0.06-0.1-0.12-0.15-0.18c0.58-0.68,1.16-1.35,1.74-2.03
			c-0.05-0.07-0.09-0.14-0.14-0.22c-1.01,0.8-1.9-0.17-2.87-0.15c0.36-0.17,0.75-0.26,1.09-0.18c2.1,0.54,2.75,0.17,2.46-2.03
			c-0.01-0.09-0.05-0.17-0.09-0.31c-0.71,0.39-1.19,1.38-2.21,0.74c0.36-0.53,0.7-1.01,1.01-1.51c0.36-0.58,0.78-1.01,1.52-1.03
			c0.21-0.01,0.44-0.09,0.63-0.2c0.84-0.5,1.65-0.47,2.55-0.11c0.55,0.22,1.19,0.2,1.79,0.28c0.04-0.12,0.08-0.24,0.11-0.37
			c-1.14-0.7-2.27-1.39-3.41-2.09c1.08,0.49,2.17,0.97,3.23,1.49c0.51,0.25,0.96,0.63,1.55,0.11c-1.67-1.39-4.1-2.3-5.98-2.28
			C66.8,36.07,67.21,36.3,67.62,36.53z M84.48,46.23c-0.4-1.5-0.68-1.96-1.52-2.55c-0.47,0.67-0.95,1.33-1.98,1.26
			c0.64-0.6,1.23-1.16,1.82-1.71c-0.05-0.06-0.1-0.12-0.14-0.18c-0.83,0.05-1.7-0.11-2.51,0.39c-0.13-0.13-0.36-0.36-0.58-0.59
			c-0.04,0.04-0.07,0.08-0.11,0.12c0.04,0.12,0.09,0.24,0.12,0.32c-0.38-0.04-0.73-0.12-1.08-0.12c-0.69-0.01-1.39,0.05-2.08,0.01
			c-0.5-0.03-0.74,0.15-0.96,0.59c-0.54,1.07-0.56,1.05,0.33,1.79c-0.8,0.31-1.01-0.47-1.44-0.73c-0.42-0.25-0.7-0.74-1.01-1.09
			c-0.37,0.48-0.66,0.86-1.05,1.36c0.05,0.83,0.35,1.14,1.31,1.14c0.79,0,1.58,0,2.37,0C78.81,46.23,81.65,46.23,84.48,46.23z
			 M54.69,42.94c-0.69,0-1.3,0.01-1.91,0c-0.35-0.01-0.63,0.01-0.69,0.47c-0.01,0.11-0.27,0.18-0.56,0.35
			c-0.03,1.08-0.93,1.81-2.08,2.48c2.38,0,4.59,0,6.98,0C55.11,45.43,54.56,44.38,54.69,42.94z M102.97,42.85
			c-0.05-0.06-0.11-0.13-0.16-0.19c-0.46,0.1-0.96,0.13-1.38,0.31c-0.42,0.18-0.86,0.45-1.13,0.8c-0.38,0.49-0.71,1.08-0.88,1.67
			c-0.06,0.22,0.41,0.82,0.67,0.84c1.19,0.09,2.39,0.04,3.63,0.04C103.54,45.09,101.95,44.29,102.97,42.85z M88.7,44.44
			c-0.01-0.07-0.01-0.14-0.02-0.21c-0.21-0.02-0.41-0.03-0.62-0.05c-0.01-0.07-0.03-0.14-0.04-0.21c0.31-0.09,0.63-0.17,1.16-0.32
			c-0.26-0.21-0.41-0.43-0.61-0.48c-1.08-0.29-1.82,0.56-2.71,0.9c-0.11,0.04-0.11,0.47-0.1,0.71c0.02,0.34,0.12,0.69,0.18,1.03
			c-0.08,0.03-0.16,0.05-0.24,0.08c-0.13-0.22-0.25-0.44-0.37-0.64c-0.29,0.49-0.14,1.01,0.39,1.03c1.15,0.04,2.3,0.01,3.39,0.01
			c0-0.64,0-1.2,0-1.88c-0.35,0.22-0.67,0.5-1.03,0.64c-0.37,0.15-0.79,0.17-1.19,0.24c-0.02-0.08-0.04-0.15-0.06-0.23
			C87.45,44.86,88.07,44.65,88.7,44.44z M57.55,44.13c-0.06-0.01-0.3-0.06-0.53-0.11c-0.03,0.16-0.12,0.33-0.09,0.48
			c0.13,0.76,0.88,1.27,1.63,1.16c0.09-0.01,0.26-0.01,0.26,0.02c0.13,0.6,0.56,0.33,0.85,0.25c0.97-0.28,1.66-1.42,1.49-2.68
			c-0.51,0.18-0.99,0.35-1.47,0.51c-0.27,0.09-0.55,0.17-0.82,0.24c-0.12,0.04-0.25,0.06-0.52,0.13
			C58.27,44.13,58.02,44.13,57.55,44.13z M72.15,46.28c0.14-1.12-0.87-1.28-1.5-1.74c0.04-0.07,0.07-0.14,0.11-0.2
			c0.38,0.06,0.77,0.11,1.19,0.18c0.06-0.41,0.11-0.77,0.16-1.15c-0.93-0.18-1.8-0.11-2.46,0.61c-0.24,0.26-0.46,0.76-0.37,1.03
			c0.16,0.47,0.51,1.08,0.92,1.23C70.78,46.43,71.49,46.28,72.15,46.28z M75.25,40.91c-0.03,0.21-0.05,0.35-0.07,0.48
			c-0.19,1.04,0.1,1.36,1.19,1.34c0.82-0.01,1.63,0,2.48,0C78.03,41.41,76.48,41.54,75.25,40.91z M56.28,42.85
			c-0.37,0-0.67-0.05-0.95,0.02c-0.16,0.04-0.37,0.24-0.39,0.39c-0.23,1.44,1.14,2.8,2.66,2.6C56.51,45.16,56.22,44.13,56.28,42.85z
			 M99.2,46.24c-0.51-1.18,0-2,0.68-2.81c-0.86,0.02-1.54,0.13-1.85,1.06c-0.21,0.63-0.6,1.19-0.9,1.75
			C97.72,46.24,98.37,46.24,99.2,46.24z M105.09,44.66c-0.71-0.2-0.77-0.84-0.65-1.53c-0.86-0.09-1.41,0.55-1.12,1.24
			c0.19,0.45,0.4,0.91,0.68,1.31c0.26,0.37,0.52,0.86,1.09,0.61C105.09,45.76,105.09,45.29,105.09,44.66z M98.77,42.21
			c-0.98,0.13-2.22-0.23-2.48,1.33C97.47,43.75,98.05,42.83,98.77,42.21z M53.13,36.21c-0.37,0-0.67,0-0.98,0c0,0.6,0,1.15,0,1.71
			c0.35,0,0.64,0,0.98,0C53.13,37.35,53.13,36.82,53.13,36.21z M59.33,41.29c0.27,0.43,0.65,0.78,0.72,1.17
			c0.13,0.79,0.56,0.79,1.14,0.65C61.1,42.07,60.55,41.51,59.33,41.29z M57.22,41.93c0.03,0.05,0.05,0.1,0.08,0.15
			c0.53,0.04,1.07,0.09,1.62,0.13c0,0.34,0,0.62,0,0.92c0.25,0,0.51,0,0.74,0c0-0.88-0.48-1.51-1.17-1.78
			C58.2,41.24,57.66,41.72,57.22,41.93z M54.38,36c0.09,0.84-0.19,1.6,0.34,2.3c0.21-0.3,0.34-0.62,0.35-0.94
			c0.01-0.27-0.26-0.61-0.17-0.8c0.09-0.17,0.5-0.18,0.77-0.26c0.01-0.05,0.03-0.11,0.04-0.16C55.31,36.1,54.9,36.06,54.38,36z
			 M49.01,35.72c1,0.52,1.05,0.67,0.41,1.39c0.11,0.14,0.23,0.29,0.34,0.44c0.08,0,0.17,0,0.25-0.01c0.07-0.61,0.14-1.22,0.23-1.93
			C49.72,35.66,49.36,35.69,49.01,35.72z M75.49,43.18c-0.72,0.05-1.17,0.08-1.7,0.12c0.31,0.44,0.56,0.8,0.89,1.27
			C74.96,44.08,75.18,43.71,75.49,43.18z M68.18,43.02c-0.22-0.43-0.37-0.72-0.52-1.02c-0.43,0.28-0.86,0.57-1.29,0.85
			c0.04,0.06,0.07,0.11,0.11,0.17C66.97,43.02,67.45,43.02,68.18,43.02z M106.12,43.12c-0.05-0.09-0.1-0.17-0.15-0.26
			c-0.29,0.13-0.77,0.22-0.82,0.41c-0.08,0.35,0.1,0.76,0.17,1.14c0.09-0.01,0.18-0.02,0.27-0.02
			C105.77,43.97,105.94,43.55,106.12,43.12z M84.88,44.83c0.08-0.03,0.16-0.07,0.23-0.1c-0.26-0.49-0.52-0.98-0.77-1.47
			C83.89,43.8,83.96,44,84.88,44.83z M72.2,42.87c-0.01-0.1-0.02-0.19-0.03-0.29c-0.45,0.03-0.91,0.06-1.36,0.09
			c0.01,0.07,0.02,0.13,0.02,0.2C71.29,42.87,71.75,42.87,72.2,42.87z M68.61,44.52c0.37-0.52,0.58-0.81,0.8-1.11
			c-0.32-0.03-0.66,0.04-0.83,0.24C68.47,43.79,68.59,44.13,68.61,44.52z"/>
		<path class="st4" d="M106,38.3c-0.91-0.1-1.82-0.21-2.73-0.31c0.04-0.09,0.09-0.25,0.12-0.25c0.88,0.13,1.75,0.27,2.62,0.42
			C106.01,38.17,106,38.26,106,38.3z"/>
	</g>
</g>
<g>
	<g>
		<path class="st5" d="M101.81,69.94h-1.74l1.08-6.67h1.74L101.81,69.94z M98.61,63.28l-1.65,4.59l-0.2-0.99l0,0l-0.58-3
			c0,0-0.07-0.6-0.82-0.6h-2.74l-0.03,0.11c0,0,0.84,0.17,1.82,0.76l1.51,5.79h1.81l2.76-6.67L98.61,63.28L98.61,63.28z
			 M112.26,69.94h1.59l-1.39-6.67h-1.4c-0.64,0-0.8,0.5-0.8,0.5l-2.59,6.17h1.81l0.36-0.99h2.21L112.26,69.94L112.26,69.94z
			 M110.35,67.59l0.91-2.49l0.51,2.49H110.35z M107.82,64.88l0.25-1.43c0,0-0.76-0.29-1.56-0.29c-0.86,0-2.91,0.38-2.91,2.21
			c0,1.72,2.4,1.74,2.4,2.65c0,0.9-2.15,0.74-2.86,0.17l-0.26,1.5c0,0,0.78,0.38,1.96,0.38s2.97-0.61,2.97-2.28
			c0-1.73-2.42-1.89-2.42-2.65C105.39,64.37,107.08,64.47,107.82,64.88L107.82,64.88z"/>
	</g>
	<path class="st6" d="M96.76,66.87l-0.58-3c0,0-0.07-0.6-0.82-0.6h-2.74l-0.03,0.11c0,0,1.31,0.27,2.58,1.29
		C96.37,65.66,96.76,66.87,96.76,66.87z"/>
	<path class="st7" d="M90.59,53.97h25.28v25.28H90.59V53.97z"/>
</g>
</svg>
