<?xml version="1.0" encoding="utf-8"?>
<!-- Generator: Adobe Illustrator 24.0.0, SVG Export Plug-In . SVG Version: 6.00 Build 0)  -->
<svg version="1.1" id="Layer_1" xmlns="http://www.w3.org/2000/svg" xmlns:xlink="http://www.w3.org/1999/xlink" x="0px" y="0px"
	 viewBox="0 0 120 75" style="enable-background:new 0 0 120 75;" xml:space="preserve">
<style type="text/css">
	.st0{fill:url(#SVGID_1_);}
	.st1{fill:url(#SVGID_2_);}
	.st2{fill-rule:evenodd;clip-rule:evenodd;}
	.st3{fill-rule:evenodd;clip-rule:evenodd;fill:#DB8135;}
	.st4{fill-rule:evenodd;clip-rule:evenodd;fill:#DB8137;}
	.st5{fill-rule:evenodd;clip-rule:evenodd;fill:#DC8337;}
	.st6{fill-rule:evenodd;clip-rule:evenodd;fill:#DC8539;}
	.st7{fill-rule:evenodd;clip-rule:evenodd;fill:#DC853A;}
	.st8{fill-rule:evenodd;clip-rule:evenodd;fill:#DC853C;}
	.st9{fill-rule:evenodd;clip-rule:evenodd;fill:#DD873E;}
	.st10{fill-rule:evenodd;clip-rule:evenodd;fill:#DD883F;}
	.st11{fill-rule:evenodd;clip-rule:evenodd;fill:#DD8841;}
	.st12{fill-rule:evenodd;clip-rule:evenodd;fill:#DE8A41;}
	.st13{fill-rule:evenodd;clip-rule:evenodd;fill:#DE8A43;}
	.st14{fill-rule:evenodd;clip-rule:evenodd;fill:#DE8A44;}
	.st15{fill-rule:evenodd;clip-rule:evenodd;fill:#DE8C46;}
	.st16{fill-rule:evenodd;clip-rule:evenodd;fill:#DF8E47;}
	.st17{fill-rule:evenodd;clip-rule:evenodd;fill:#DF8E48;}
	.st18{fill-rule:evenodd;clip-rule:evenodd;fill:#DF8E4A;}
	.st19{fill-rule:evenodd;clip-rule:evenodd;fill:#DF904A;}
	.st20{fill-rule:evenodd;clip-rule:evenodd;fill:#E0914C;}
	.st21{fill-rule:evenodd;clip-rule:evenodd;fill:#E0914E;}
	.st22{fill-rule:evenodd;clip-rule:evenodd;fill:#DF924F;}
	.st23{fill-rule:evenodd;clip-rule:evenodd;fill:#E09351;}
	.st24{fill-rule:evenodd;clip-rule:evenodd;fill:#E09552;}
	.st25{fill-rule:evenodd;clip-rule:evenodd;fill:#E09554;}
	.st26{fill-rule:evenodd;clip-rule:evenodd;fill:#E09555;}
	.st27{fill-rule:evenodd;clip-rule:evenodd;fill:#E19756;}
	.st28{fill-rule:evenodd;clip-rule:evenodd;fill:#E19757;}
	.st29{fill-rule:evenodd;clip-rule:evenodd;fill:#E29959;}
	.st30{fill-rule:evenodd;clip-rule:evenodd;fill:#E2995B;}
	.st31{fill-rule:evenodd;clip-rule:evenodd;fill:#E29B5B;}
	.st32{fill-rule:evenodd;clip-rule:evenodd;fill:#E29B5D;}
	.st33{fill-rule:evenodd;clip-rule:evenodd;fill:#E39D5F;}
	.st34{fill-rule:evenodd;clip-rule:evenodd;fill:#E39D61;}
	.st35{fill-rule:evenodd;clip-rule:evenodd;fill:#E39F63;}
	.st36{fill-rule:evenodd;clip-rule:evenodd;fill:#E39F64;}
	.st37{fill-rule:evenodd;clip-rule:evenodd;fill:#E4A166;}
	.st38{fill-rule:evenodd;clip-rule:evenodd;fill:#E4A367;}
	.st39{fill-rule:evenodd;clip-rule:evenodd;fill:#E4A369;}
	.st40{fill-rule:evenodd;clip-rule:evenodd;fill:#E4A36A;}
	.st41{fill-rule:evenodd;clip-rule:evenodd;fill:#E5A56C;}
	.st42{fill-rule:evenodd;clip-rule:evenodd;fill:#E5A76E;}
	.st43{fill-rule:evenodd;clip-rule:evenodd;fill:#E5A770;}
	.st44{fill-rule:evenodd;clip-rule:evenodd;fill:#E6A970;}
	.st45{fill-rule:evenodd;clip-rule:evenodd;fill:#E6A972;}
	.st46{fill-rule:evenodd;clip-rule:evenodd;fill:#E6AB74;}
	.st47{fill-rule:evenodd;clip-rule:evenodd;fill:#E6AB75;}
	.st48{fill-rule:evenodd;clip-rule:evenodd;fill:#E7AD77;}
	.st49{fill-rule:evenodd;clip-rule:evenodd;fill:#E8AF79;}
	.st50{fill-rule:evenodd;clip-rule:evenodd;fill:#E8AF7B;}
	.st51{fill-rule:evenodd;clip-rule:evenodd;fill:#E8B17B;}
	.st52{fill-rule:evenodd;clip-rule:evenodd;fill:#E8B17D;}
	.st53{fill-rule:evenodd;clip-rule:evenodd;fill:#E8B17E;}
	.st54{fill-rule:evenodd;clip-rule:evenodd;fill:#E9B381;}
	.st55{fill-rule:evenodd;clip-rule:evenodd;fill:#E9B583;}
	.st56{fill-rule:evenodd;clip-rule:evenodd;fill:#E9B584;}
	.st57{fill-rule:evenodd;clip-rule:evenodd;fill:#EAB786;}
	.st58{fill-rule:evenodd;clip-rule:evenodd;fill:#EAB788;}
	.st59{fill-rule:evenodd;clip-rule:evenodd;fill:#EBB989;}
	.st60{fill-rule:evenodd;clip-rule:evenodd;fill:#EBB98A;}
	.st61{fill-rule:evenodd;clip-rule:evenodd;fill:#EBBB8C;}
	.st62{fill-rule:evenodd;clip-rule:evenodd;fill:#ECBD8F;}
	.st63{fill-rule:evenodd;clip-rule:evenodd;fill:#ECBD90;}
	.st64{fill-rule:evenodd;clip-rule:evenodd;fill:#ECBF93;}
	.st65{fill-rule:evenodd;clip-rule:evenodd;fill:#EDC195;}
	.st66{fill-rule:evenodd;clip-rule:evenodd;fill:#EDC196;}
	.st67{fill-rule:evenodd;clip-rule:evenodd;fill:#EEC397;}
	.st68{fill-rule:evenodd;clip-rule:evenodd;fill:#EEC399;}
	.st69{fill-rule:evenodd;clip-rule:evenodd;fill:#EEC59B;}
	.st70{fill-rule:evenodd;clip-rule:evenodd;fill:#EEC69D;}
	.st71{fill-rule:evenodd;clip-rule:evenodd;fill:#EEC69F;}
	.st72{fill-rule:evenodd;clip-rule:evenodd;fill:#EFC89F;}
	.st73{fill-rule:evenodd;clip-rule:evenodd;fill:#EFC8A1;}
	.st74{fill-rule:evenodd;clip-rule:evenodd;fill:#EFCAA3;}
	.st75{fill-rule:evenodd;clip-rule:evenodd;fill:#F0CCA6;}
	.st76{fill-rule:evenodd;clip-rule:evenodd;fill:#F0CCA8;}
	.st77{fill-rule:evenodd;clip-rule:evenodd;fill:#F1CEAA;}
	.st78{fill-rule:evenodd;clip-rule:evenodd;fill:#F1D0AD;}
	.st79{fill-rule:evenodd;clip-rule:evenodd;fill:#F1D0AE;}
	.st80{fill-rule:evenodd;clip-rule:evenodd;fill:#F2D2B1;}
	.st81{fill-rule:evenodd;clip-rule:evenodd;fill:#F2D2B3;}
	.st82{fill-rule:evenodd;clip-rule:evenodd;fill:#F3D4B4;}
	.st83{fill-rule:evenodd;clip-rule:evenodd;fill:#F3D4B5;}
	.st84{fill-rule:evenodd;clip-rule:evenodd;fill:#F3D4B7;}
	.st85{fill-rule:evenodd;clip-rule:evenodd;fill:#F3D6B8;}
	.st86{fill-rule:evenodd;clip-rule:evenodd;fill:#F4D8BA;}
	.st87{fill-rule:evenodd;clip-rule:evenodd;fill:#F4D9BC;}
	.st88{fill-rule:evenodd;clip-rule:evenodd;fill:#F4D9BE;}
	.st89{fill-rule:evenodd;clip-rule:evenodd;fill:#F4DBBF;}
	.st90{fill-rule:evenodd;clip-rule:evenodd;fill:#F4DBC0;}
	.st91{fill-rule:evenodd;clip-rule:evenodd;fill:#F5DDC3;}
	.st92{fill-rule:evenodd;clip-rule:evenodd;fill:#F6DFC6;}
	.st93{fill-rule:evenodd;clip-rule:evenodd;fill:#F6DFC7;}
	.st94{fill-rule:evenodd;clip-rule:evenodd;fill:#F6E1CA;}
	.st95{fill-rule:evenodd;clip-rule:evenodd;fill:#F6E1CC;}
	.st96{fill-rule:evenodd;clip-rule:evenodd;fill:#F7E3CD;}
	.st97{fill-rule:evenodd;clip-rule:evenodd;fill:#F7E3CF;}
	.st98{fill-rule:evenodd;clip-rule:evenodd;fill:#F7E3D0;}
	.st99{fill-rule:evenodd;clip-rule:evenodd;fill:#F8E5D1;}
	.st100{fill-rule:evenodd;clip-rule:evenodd;fill:#F8E8D4;}
	.st101{fill-rule:evenodd;clip-rule:evenodd;fill:#F8E8D6;}
	.st102{fill-rule:evenodd;clip-rule:evenodd;fill:#F8E8D8;}
	.st103{fill-rule:evenodd;clip-rule:evenodd;fill:#F9EAD9;}
	.st104{fill-rule:evenodd;clip-rule:evenodd;fill:#FAECDC;}
	.st105{fill-rule:evenodd;clip-rule:evenodd;fill:#FAECDD;}
	.st106{fill-rule:evenodd;clip-rule:evenodd;fill:#FAECDF;}
	.st107{fill-rule:evenodd;clip-rule:evenodd;fill:#FAEEE0;}
	.st108{fill-rule:evenodd;clip-rule:evenodd;fill:#FBF0E3;}
	.st109{fill-rule:evenodd;clip-rule:evenodd;fill:#FBF1E5;}
	.st110{fill-rule:evenodd;clip-rule:evenodd;fill:#FBF1E7;}
	.st111{fill-rule:evenodd;clip-rule:evenodd;fill:#FCF3E8;}
	.st112{fill-rule:evenodd;clip-rule:evenodd;fill:#FCF3EA;}
	.st113{fill-rule:evenodd;clip-rule:evenodd;fill:#FCF5ED;}
	.st114{fill-rule:evenodd;clip-rule:evenodd;fill:#FCF5EF;}
	.st115{fill-rule:evenodd;clip-rule:evenodd;fill:#FDF8F1;}
	.st116{fill-rule:evenodd;clip-rule:evenodd;fill:#FDF8F3;}
	.st117{fill-rule:evenodd;clip-rule:evenodd;fill:#FDF8F5;}
	.st118{fill-rule:evenodd;clip-rule:evenodd;fill:#FEFBF6;}
	.st119{fill-rule:evenodd;clip-rule:evenodd;fill:#FFFFFB;}
	.st120{fill-rule:evenodd;clip-rule:evenodd;fill:#FFFFFF;}
</style>
<linearGradient id="SVGID_1_" gradientUnits="userSpaceOnUse" x1="7.534498e-03" y1="37.5204" x2="120.0076" y2="37.5204">
	<stop  offset="1.914379e-03" style="stop-color:#4E37BA"/>
	<stop  offset="0.5093" style="stop-color:#B8ADFF"/>
	<stop  offset="1" style="stop-color:#6450C1"/>
</linearGradient>
<path class="st0" d="M115.1,75.03H4.93c-2.72,0-4.92-2.2-4.92-4.92V4.94c0-2.72,2.2-4.92,4.92-4.92h110.16
	c2.72,0,4.92,2.2,4.92,4.92V70.1C120.02,72.82,117.81,75.03,115.1,75.03z"/>
<linearGradient id="SVGID_2_" gradientUnits="userSpaceOnUse" x1="14.319" y1="37.9811" x2="30.3091" y2="37.9811" gradientTransform="matrix(1 0 0 -1 0 75)">
	<stop  offset="0" style="stop-color:#575757"/>
	<stop  offset="0.5192" style="stop-color:#FFFFFF"/>
	<stop  offset="1" style="stop-color:#A8A8A8"/>
</linearGradient>
<path class="st1" d="M28.39,42.96H16.24c-1.06,0-1.92-0.86-1.92-1.92v-8.05c0-1.06,0.86-1.92,1.92-1.92h12.15
	c1.06,0,1.92,0.86,1.92,1.92v8.05C30.32,42.1,29.45,42.96,28.39,42.96z"/>
<g>
	<path class="st2" d="M40.86,28.46H37.4v12.05h3.42c1.84,0,3.15-0.4,4.32-1.39c1.35-1.12,2.2-2.83,2.2-4.63
		C47.33,30.93,44.68,28.46,40.86,28.46L40.86,28.46z M43.6,37.54c-0.76,0.63-1.71,0.94-3.24,0.94h-0.63v-7.96h0.63
		c1.53,0,2.43,0.27,3.24,0.94c0.81,0.72,1.3,1.84,1.3,3.01C44.9,35.65,44.41,36.82,43.6,37.54z M48.41,40.51h2.34V28.46h-2.34V40.51
		z M56.5,33.09c-1.44-0.54-1.84-0.85-1.84-1.53c0-0.76,0.76-1.3,1.75-1.3c0.72,0,1.3,0.27,1.89,0.94l1.26-1.57
		c-1.03-0.9-2.25-1.35-3.55-1.35c-2.16,0-3.78,1.48-3.78,3.46c0,1.66,0.76,2.47,2.97,3.28c0.94,0.31,1.39,0.54,1.62,0.67
		c0.49,0.32,0.72,0.76,0.72,1.26c0,0.99-0.76,1.71-1.84,1.71s-2.02-0.58-2.56-1.62l-1.48,1.48c1.08,1.57,2.38,2.29,4.18,2.29
		c2.43,0,4.14-1.62,4.14-3.96C59.96,34.93,59.16,34.08,56.5,33.09z M60.68,34.48c0,3.55,2.79,6.29,6.38,6.29
		c0.99,0,1.89-0.18,2.92-0.67v-2.79c-0.94,0.94-1.75,1.35-2.83,1.35c-2.34,0-4.05-1.75-4.05-4.18c0-2.29,1.75-4.14,3.96-4.14
		c1.12,0,1.98,0.4,2.92,1.35v-2.74c-0.99-0.54-1.84-0.76-2.88-0.76C63.56,28.19,60.68,31.02,60.68,34.48L60.68,34.48z"/>
	<path class="st3" d="M77.32,28.19c-3.55,0-6.43,2.79-6.43,6.2c0,3.69,2.74,6.38,6.43,6.38c3.6,0,6.43-2.74,6.43-6.29
		C83.74,30.98,80.96,28.19,77.32,28.19z"/>
	<path class="st3" d="M77.32,28.19c-3.55,0-6.43,2.79-6.43,6.2c0,3.69,2.74,6.38,6.43,6.38c3.6,0,6.43-2.74,6.43-6.29
		C83.74,30.98,80.96,28.19,77.32,28.19z M77.32,34.48h6.43H77.32z"/>
	<path class="st3" d="M77.32,34.48h6.43c0-3.51-2.79-6.29-6.43-6.29c-3.55,0-6.43,2.79-6.43,6.2c0,3.69,2.74,6.38,6.43,6.38
		c3.6,0,6.43-2.74,6.43-6.29H77.32L77.32,34.48z"/>
	<path class="st4" d="M77.32,34.48h6.43c0-3.51-2.79-6.29-6.43-6.29c-3.55,0-6.43,2.79-6.43,6.2c0,3.69,2.74,6.38,6.43,6.38
		c3.6,0,6.43-2.74,6.43-6.29H77.32L77.32,34.48z"/>
	<path class="st5" d="M77.32,34.48h6.43c0-3.51-2.79-6.29-6.43-6.29c-3.55,0-6.43,2.79-6.43,6.2c0,3.69,2.74,6.38,6.43,6.38
		c3.6,0,6.43-2.74,6.43-6.29H77.32L77.32,34.48z"/>
	<path class="st6" d="M77.32,34.48h6.43c0-3.51-2.79-6.29-6.43-6.29c-3.55,0-6.43,2.79-6.43,6.2c0,3.69,2.74,6.38,6.43,6.38
		c3.6,0,6.43-2.74,6.43-6.29H77.32L77.32,34.48z"/>
	<path class="st7" d="M77.32,34.48h6.43c0-3.51-2.79-6.29-6.43-6.29c-3.55,0-6.43,2.79-6.43,6.2c0,3.69,2.74,6.38,6.43,6.38
		c3.6,0,6.43-2.74,6.43-6.29H77.32L77.32,34.48z"/>
	<path class="st8" d="M77.32,34.48h6.43c0-3.51-2.79-6.29-6.43-6.29c-3.55,0-6.43,2.79-6.43,6.2c0,3.69,2.74,6.38,6.43,6.38
		c3.6,0,6.43-2.74,6.43-6.29H77.32L77.32,34.48z"/>
	<path class="st9" d="M77.32,34.48h6.43c0-3.51-2.79-6.29-6.43-6.29c-3.55,0-6.43,2.79-6.43,6.2c0,3.69,2.74,6.38,6.43,6.38
		c3.6,0,6.43-2.74,6.43-6.29H77.32L77.32,34.48z"/>
	<path class="st9" d="M77.32,34.48h6.43c0-3.51-2.79-6.29-6.43-6.29c-3.55,0-6.43,2.79-6.43,6.2c0,3.69,2.74,6.38,6.43,6.38
		c3.6,0,6.43-2.74,6.43-6.29H77.32L77.32,34.48z"/>
	<path class="st10" d="M77.32,34.48h6.43c0-3.51-2.79-6.29-6.43-6.29c-3.55,0-6.43,2.79-6.43,6.2c0,3.69,2.74,6.38,6.43,6.38
		c3.6,0,6.43-2.74,6.43-6.29H77.32L77.32,34.48z"/>
	<path class="st11" d="M77.32,34.48h6.43c0-3.51-2.79-6.29-6.43-6.29c-3.55,0-6.43,2.79-6.43,6.2c0,3.69,2.74,6.38,6.43,6.38
		c3.6,0,6.43-2.74,6.43-6.29H77.32L77.32,34.48z"/>
	<path class="st12" d="M77.32,34.48h6.43c0-3.51-2.79-6.29-6.43-6.29c-3.55,0-6.43,2.79-6.43,6.2c0,3.69,2.74,6.38,6.43,6.38
		c3.6,0,6.43-2.74,6.43-6.29H77.32L77.32,34.48z"/>
	<path class="st13" d="M77.32,34.48h6.43c0-3.51-2.79-6.29-6.43-6.29c-3.55,0-6.43,2.79-6.43,6.2c0,3.69,2.74,6.38,6.43,6.38
		c3.6,0,6.43-2.74,6.43-6.29H77.32L77.32,34.48z"/>
	<path class="st14" d="M77.32,34.48h6.43c0-3.51-2.79-6.29-6.43-6.29c-3.55,0-6.43,2.79-6.43,6.2c0,3.69,2.74,6.38,6.43,6.38
		c3.6,0,6.43-2.74,6.43-6.29H77.32L77.32,34.48z"/>
	<path class="st15" d="M77.32,34.48h6.43c0-3.51-2.79-6.29-6.43-6.29c-3.55,0-6.43,2.79-6.43,6.2c0,3.69,2.74,6.38,6.43,6.38
		c3.6,0,6.43-2.74,6.43-6.29H77.32L77.32,34.48z"/>
	<path class="st16" d="M77.32,34.48h6.43H77.32z M83.74,34.48c0-0.05,0-0.11,0-0.16v0c0-0.05,0-0.11-0.01-0.16v0
		c0-0.05-0.01-0.1-0.01-0.16c0,0,0,0,0-0.01c0-0.05-0.01-0.1-0.01-0.15c0,0,0-0.01,0-0.01c-0.01-0.05-0.01-0.1-0.02-0.15v0
		c-0.01-0.05-0.01-0.1-0.02-0.14c0,0,0-0.01,0-0.01c-0.01-0.05-0.02-0.09-0.02-0.14l0-0.02l-0.01-0.08l-0.02-0.09l-0.01-0.04
		c-0.01-0.04-0.02-0.07-0.02-0.11c0-0.02-0.01-0.03-0.01-0.05l-0.03-0.1l-0.03-0.1l-0.01-0.05c-0.01-0.03-0.02-0.07-0.03-0.1
		l-0.02-0.05c-0.8-2.57-3.19-4.4-6.14-4.4c-2.6,0-4.84,1.5-5.85,3.64c-0.37,0.82-0.57,1.71-0.58,2.61c0,0.78,0.13,1.51,0.37,2.19
		l0.02,0.06l0.01,0.02c0.25,0.67,0.61,1.3,1.06,1.85c1.16,1.38,2.92,2.22,4.97,2.22c2.92,0,5.34-1.81,6.14-4.39l0.04-0.14v0
		c0.12-0.41,0.19-0.84,0.23-1.26l0,0c0-0.05,0.01-0.11,0.01-0.16v0C83.74,34.7,83.74,34.59,83.74,34.48z"/>
	<path class="st17" d="M77.32,34.48h6.38c0-2.45-1.4-4.56-3.44-5.62c-0.88-0.43-1.87-0.67-2.95-0.67c-1.38,0-2.66,0.42-3.71,1.14
		c-1.62,1.15-2.68,3.03-2.68,5.16c0,2.34,1.28,4.4,3.18,5.51c0.93,0.5,2.02,0.78,3.2,0.78c1.5,0,2.86-0.47,3.94-1.28
		c1.48-1.17,2.44-2.99,2.44-5.01H77.32L77.32,34.48z"/>
	<path class="st18" d="M77.32,34.48h6.29c0-3.46-2.83-6.29-6.29-6.29c-0.05,0-0.11,0-0.16,0h0c-3.38,0.09-6.13,2.89-6.13,6.29
		c0,2.7,1.7,5.11,4.26,6c0.63,0.19,1.32,0.3,2.04,0.3c0.88,0,1.71-0.16,2.47-0.46c2.32-1.01,3.83-3.3,3.82-5.83L77.32,34.48
		L77.32,34.48L77.32,34.48z"/>
	<path class="st19" d="M77.32,34.48h6.25c0-3.42-2.79-6.25-6.25-6.25c-3.46,0-6.25,2.83-6.25,6.25c-0.01,3.44,2.78,6.24,6.22,6.25
		c0.01,0,0.02,0,0.03,0c3.44,0.01,6.24-2.78,6.25-6.22c0-0.01,0-0.02,0-0.03H77.32z"/>
	<path class="st20" d="M77.32,34.48h6.2c0-3.42-2.79-6.16-6.2-6.16c-3.42,0-6.2,2.74-6.2,6.16c0,3.42,2.79,6.2,6.2,6.2
		c3.42,0,6.2-2.79,6.2-6.2H77.32z"/>
	<path class="st21" d="M77.32,34.48h6.16c0-3.37-2.79-6.11-6.16-6.11c-3.37,0-6.16,2.74-6.16,6.11c0,3.42,2.79,6.16,6.16,6.16
		c3.37,0,6.16-2.74,6.16-6.16H77.32z"/>
	<path class="st22" d="M77.32,34.48h6.07c0-3.33-2.7-6.07-6.07-6.07c-3.37,0-6.07,2.74-6.07,6.07c0,3.37,2.7,6.11,6.07,6.11
		c3.37,0,6.07-2.74,6.07-6.11L77.32,34.48L77.32,34.48z"/>
	<path class="st23" d="M77.32,34.48h6.02c0-3.33-2.7-6.02-6.02-6.02c-3.33,0-6.02,2.7-6.02,6.02c0,3.33,2.7,6.02,6.02,6.02
		c3.33,0,6.02-2.7,6.02-6.02H77.32z"/>
	<path class="st24" d="M77.32,34.48h5.98c0-3.28-2.7-5.93-5.98-5.93c-3.28,0-5.98,2.65-5.98,5.93c0,3.33,2.7,5.98,5.98,5.98
		c3.28,0,5.98-2.65,5.98-5.98H77.32z"/>
	<path class="st25" d="M77.32,34.48h5.89c0-3.24-2.61-5.89-5.89-5.89c-3.28,0-5.93,2.65-5.93,5.89c0,3.28,2.65,5.93,5.93,5.93
		c3.28,0,5.89-2.65,5.89-5.93H77.32z"/>
	<path class="st26" d="M77.32,34.48h5.84c0.01-3.22-2.6-5.84-5.82-5.84c-0.01,0-0.01,0-0.02,0c-3.22-0.01-5.84,2.6-5.84,5.82
		c0,0.01,0,0.02,0,0.02c0,3.24,2.61,5.89,5.84,5.89c3.24,0,5.84-2.65,5.84-5.89H77.32z"/>
	<path class="st27" d="M77.32,34.48h5.8c0-3.19-2.61-5.8-5.8-5.8c-3.19,0-5.8,2.61-5.8,5.8c0,3.24,2.61,5.8,5.8,5.8
		c3.19,0.01,5.79-2.58,5.8-5.77c0-0.01,0-0.02,0-0.03H77.32z"/>
	<path class="st28" d="M77.32,34.48h5.75c0-3.15-2.56-5.71-5.75-5.71c-3.19,0-5.75,2.56-5.75,5.71c-0.01,3.17,2.55,5.74,5.72,5.75
		c0.01,0,0.02,0,0.04,0c3.17,0.01,5.74-2.55,5.75-5.72c0-0.01,0-0.02,0-0.04H77.32L77.32,34.48z"/>
	<path class="st29" d="M77.32,34.48h5.66c0-3.15-2.52-5.66-5.66-5.66c-3.15,0-5.71,2.52-5.71,5.66c0,3.15,2.56,5.71,5.71,5.71
		c3.15,0,5.66-2.56,5.66-5.71H77.32L77.32,34.48z"/>
	<path class="st30" d="M77.32,34.48h5.62c0-3.1-2.52-5.62-5.62-5.62c-3.1,0-5.62,2.52-5.62,5.62s2.52,5.66,5.62,5.66
		c3.1,0,5.62-2.56,5.62-5.66H77.32z"/>
	<path class="st31" d="M77.32,34.48h5.57c0-3.06-2.52-5.57-5.57-5.57c-3.06,0-5.57,2.52-5.57,5.57c0,3.1,2.52,5.57,5.57,5.57
		c3.06,0,5.57-2.47,5.57-5.57H77.32z"/>
	<path class="st32" d="M77.32,34.48h5.53c0-3.01-2.47-5.48-5.53-5.48c-3.06,0-5.53,2.47-5.53,5.48c0,3.06,2.47,5.53,5.53,5.53
		c3.06,0,5.53-2.47,5.53-5.53H77.32z"/>
	<path class="st33" d="M77.32,34.48h5.44c0.01-3-2.42-5.43-5.42-5.44c-0.01,0-0.01,0-0.02,0c-3.01,0-5.44,2.43-5.44,5.44
		c0,3.01,2.43,5.48,5.44,5.48c3.01,0,5.44-2.47,5.44-5.48H77.32L77.32,34.48z"/>
	<path class="st34" d="M77.32,34.48h5.39c0-2.97-2.43-5.39-5.39-5.39c-2.97,0-5.39,2.43-5.39,5.39c0,3.01,2.43,5.44,5.39,5.44
		c2.97,0,5.39-2.43,5.39-5.44L77.32,34.48L77.32,34.48z"/>
	<path class="st35" d="M77.32,34.48h5.35c0-2.92-2.38-5.35-5.35-5.35c-2.97,0-5.35,2.43-5.35,5.35c0,2.97,2.38,5.35,5.35,5.35
		c2.97,0,5.35-2.38,5.35-5.35H77.32z"/>
	<path class="st35" d="M77.32,34.48h5.3c0-2.92-2.38-5.26-5.3-5.26c-2.92,0-5.3,2.34-5.3,5.26s2.38,5.3,5.3,5.3
		c2.92,0,5.3-2.38,5.3-5.3H77.32z"/>
	<path class="st36" d="M77.32,34.48h5.21c0-2.88-2.34-5.21-5.21-5.21c-2.88,0-5.21,2.34-5.21,5.21c0,2.92,2.34,5.26,5.21,5.26
		c2.88,0,5.21-2.34,5.21-5.26H77.32L77.32,34.48z"/>
	<path class="st37" d="M77.32,34.48h5.17c0-2.83-2.29-5.17-5.17-5.17c-2.88,0-5.17,2.34-5.17,5.17c0,2.88,2.29,5.21,5.17,5.21
		c2.88,0,5.17-2.34,5.17-5.21H77.32L77.32,34.48z"/>
	<path class="st38" d="M77.32,34.48h5.12c0-2.83-2.29-5.12-5.12-5.12c-2.83,0-5.12,2.29-5.12,5.12s2.29,5.12,5.12,5.12
		c2.83,0,5.12-2.29,5.12-5.12H77.32z"/>
	<path class="st39" d="M77.32,34.48h5.08c0-2.79-2.29-5.03-5.08-5.03c-2.79,0-5.08,2.25-5.08,5.03c0,2.83,2.29,5.08,5.08,5.08
		c2.79,0,5.08-2.25,5.08-5.08H77.32z"/>
	<path class="st40" d="M77.32,34.48h4.99c0-2.74-2.2-4.99-4.99-4.99c-2.79,0-4.99,2.25-4.99,4.99c0,2.79,2.2,5.03,4.99,5.03
		c2.79,0,4.99-2.25,4.99-5.03H77.32z"/>
	<path class="st41" d="M77.32,34.48h4.94c0.01-2.72-2.19-4.94-4.92-4.94c-0.01,0-0.02,0-0.03,0c-2.72-0.01-4.94,2.19-4.95,4.92
		c0,0.01,0,0.02,0,0.03c0,2.74,2.2,4.99,4.95,4.99c2.74,0,4.94-2.25,4.94-4.99H77.32z"/>
	<path class="st41" d="M77.32,34.48h4.9c0-2.7-2.2-4.9-4.9-4.9c-2.7,0-4.9,2.2-4.9,4.9c0,2.7,2.2,4.9,4.9,4.9c2.7,0,4.9-2.2,4.9-4.9
		H77.32L77.32,34.48z"/>
	<path class="st42" d="M77.32,34.48h4.85c0-2.65-2.2-4.81-4.85-4.81c-2.65,0-4.86,2.16-4.86,4.81c0,2.7,2.2,4.85,4.86,4.85
		c2.65,0,4.85-2.16,4.85-4.85H77.32z"/>
	<path class="st43" d="M77.32,34.48h4.76c0-2.61-2.11-4.76-4.76-4.76c-2.65,0-4.77,2.16-4.77,4.76c0,2.65,2.11,4.81,4.77,4.81
		c2.65,0,4.76-2.16,4.76-4.81H77.32z"/>
	<path class="st44" d="M77.32,34.48h4.72c0-2.61-2.11-4.72-4.72-4.72c-2.61,0-4.72,2.11-4.72,4.72c0,2.61,2.11,4.72,4.72,4.72
		c2.61,0,4.72-2.11,4.72-4.72H77.32z"/>
	<path class="st45" d="M77.32,34.48h4.67c0-2.56-2.11-4.67-4.67-4.67c-2.56,0-4.68,2.11-4.68,4.67c0,2.61,2.11,4.67,4.68,4.67
		c2.56,0,4.67-2.07,4.67-4.67H77.32z"/>
	<path class="st46" d="M77.32,34.48h4.63c0-2.52-2.07-4.58-4.63-4.58c-2.56,0-4.63,2.07-4.63,4.58c0,2.55,2.06,4.63,4.62,4.63
		c0,0,0.01,0,0.01,0c2.55,0,4.63-2.06,4.63-4.62c0,0,0-0.01,0-0.01H77.32z"/>
	<path class="st47" d="M77.32,34.48h4.54c0.01-2.5-2.01-4.53-4.52-4.54c-0.01,0-0.02,0-0.02,0c-2.5-0.01-4.53,2.01-4.54,4.51
		c0,0.01,0,0.02,0,0.03c0,2.52,2.02,4.59,4.54,4.59c2.52,0,4.54-2.07,4.54-4.59H77.32z"/>
	<path class="st48" d="M77.32,34.48h4.49c0-2.47-2.02-4.49-4.49-4.49c-2.47,0-4.5,2.02-4.5,4.49c0,2.52,2.02,4.5,4.5,4.5
		c2.47,0.01,4.49-1.99,4.49-4.46c0-0.01,0-0.02,0-0.03H77.32z"/>
	<path class="st48" d="M77.32,34.48h4.45c0-2.43-1.98-4.45-4.45-4.45c-2.47,0-4.45,2.02-4.45,4.45c0,2.47,1.98,4.45,4.45,4.45
		c2.45,0.01,4.44-1.97,4.45-4.41c0-0.01,0-0.02,0-0.04H77.32z"/>
	<path class="st49" d="M77.32,34.48h4.41c0-2.43-1.98-4.36-4.41-4.36c-2.43,0-4.41,1.93-4.41,4.36c0,2.43,1.98,4.41,4.41,4.41
		c2.43,0,4.41-1.98,4.41-4.41H77.32z"/>
	<path class="st50" d="M77.32,34.48h4.31c0-2.38-1.93-4.32-4.31-4.32c-2.38,0-4.32,1.93-4.32,4.32c0,2.43,1.93,4.36,4.32,4.36
		c2.38,0,4.31-1.93,4.31-4.36H77.32z"/>
	<path class="st51" d="M77.32,34.48h4.27c0-2.34-1.89-4.27-4.27-4.27c-2.38,0-4.27,1.93-4.27,4.27c0,2.38,1.89,4.27,4.27,4.27
		c2.38,0,4.27-1.89,4.27-4.27H77.32z"/>
	<path class="st52" d="M77.32,34.48h4.23c0-2.33-1.89-4.22-4.22-4.23c0,0-0.01,0-0.01,0c-2.33,0-4.22,1.88-4.23,4.22
		c0,0,0,0.01,0,0.01c0,2.33,1.88,4.22,4.22,4.23c0,0,0.01,0,0.01,0c2.33,0,4.22-1.89,4.23-4.22c0,0,0-0.01,0-0.01H77.32z"/>
	<path class="st53" d="M77.32,34.48h4.18c0-2.29-1.89-4.14-4.18-4.14c-2.29,0-4.18,1.84-4.18,4.14c0,2.29,1.89,4.18,4.18,4.18
		c2.29,0,4.18-1.89,4.18-4.18H77.32z"/>
	<path class="st54" d="M77.32,34.48h4.09c0-2.25-1.84-4.09-4.09-4.09c-2.25-0.01-4.08,1.81-4.09,4.06c0,0.01,0,0.02,0,0.03
		c0,2.29,1.8,4.14,4.09,4.14c2.25,0,4.09-1.84,4.09-4.14H77.32z"/>
	<path class="st54" d="M77.32,34.48h4.05c0.01-2.22-1.79-4.04-4.01-4.05c-0.01,0-0.02,0-0.03,0c-2.23-0.01-4.04,1.79-4.05,4.01
		c0,0.01,0,0.02,0,0.03c-0.01,2.23,1.79,4.04,4.01,4.05c0.01,0,0.02,0,0.03,0c2.23,0.01,4.04-1.79,4.05-4.01c0-0.01,0-0.02,0-0.03
		H77.32L77.32,34.48z"/>
	<path class="st55" d="M77.32,34.48h4c0-2.2-1.8-4-4-4c-2.2,0-4,1.8-4,4c0,2.2,1.8,4,4,4c2.2,0,4-1.8,4-4H77.32z"/>
	<path class="st56" d="M77.32,34.48h3.96c0-2.16-1.8-3.91-3.96-3.91c-2.16,0-3.96,1.75-3.96,3.91c0,2.2,1.8,3.96,3.96,3.96
		c2.16,0,3.96-1.75,3.96-3.96H77.32z"/>
	<path class="st57" d="M77.32,34.48h3.87c0-2.11-1.71-3.87-3.87-3.87c-2.16,0-3.87,1.75-3.87,3.87c0,2.16,1.71,3.91,3.87,3.91
		c2.16,0,3.87-1.75,3.87-3.91H77.32z"/>
	<path class="st58" d="M77.32,34.48h3.82c0-2.11-1.71-3.82-3.81-3.82c0,0,0,0-0.01,0c-2.11,0-3.82,1.71-3.82,3.82
		c0,2.11,1.71,3.82,3.82,3.82c2.11,0,3.82-1.71,3.82-3.81c0,0,0,0,0-0.01H77.32L77.32,34.48z"/>
	<path class="st59" d="M77.32,34.48h3.78c0-2.07-1.71-3.78-3.78-3.78c-2.07,0-3.78,1.71-3.78,3.78c0,2.11,1.71,3.78,3.78,3.78
		c2.07,0,3.78-1.66,3.78-3.78H77.32z"/>
	<path class="st60" d="M77.32,34.48h3.73c0-2.02-1.66-3.69-3.73-3.69c-2.07,0-3.73,1.66-3.73,3.69c-0.01,2.06,1.66,3.73,3.71,3.73
		c0.01,0,0.01,0,0.02,0c2.06,0.01,3.73-1.66,3.73-3.71c0-0.01,0-0.01,0-0.02H77.32z"/>
	<path class="st61" d="M77.32,34.48h3.64c0.01-2-1.61-3.63-3.61-3.64c-0.01,0-0.02,0-0.03,0c-2.02,0-3.64,1.62-3.64,3.64
		c0,2.02,1.62,3.69,3.64,3.69c2.02,0,3.64-1.66,3.64-3.69H77.32z"/>
	<path class="st61" d="M77.32,34.48h3.6c0-1.98-1.62-3.6-3.6-3.6c-1.98,0-3.6,1.62-3.6,3.6c0,2.02,1.62,3.6,3.6,3.6
		c1.98,0,3.6-1.57,3.6-3.6H77.32L77.32,34.48z"/>
	<path class="st62" d="M77.32,34.48h3.55c0-1.93-1.57-3.55-3.55-3.55s-3.55,1.62-3.55,3.55c-0.01,1.95,1.56,3.54,3.51,3.55
		c0.01,0,0.03,0,0.04,0c1.95,0.01,3.54-1.56,3.55-3.51c0-0.01,0-0.03,0-0.04H77.32z"/>
	<path class="st63" d="M77.32,34.48h3.51c0-1.93-1.57-3.46-3.51-3.46c-1.93,0-3.51,1.53-3.51,3.46c0,1.93,1.57,3.51,3.51,3.51
		c1.93,0,3.51-1.57,3.51-3.51H77.32L77.32,34.48z"/>
	<path class="st64" d="M77.32,34.48h3.42c0-1.89-1.53-3.42-3.41-3.42c0,0,0,0,0,0c-1.89,0-3.42,1.53-3.42,3.41c0,0,0,0,0,0
		c0,1.89,1.53,3.46,3.42,3.46c1.89,0,3.42-1.57,3.42-3.46H77.32z"/>
	<path class="st64" d="M77.32,34.48h3.37c0-1.84-1.53-3.37-3.37-3.37c-1.89,0-3.37,1.53-3.37,3.37c0,1.89,1.48,3.37,3.37,3.37
		c1.84,0,3.37-1.48,3.37-3.37H77.32z"/>
	<path class="st65" d="M77.32,34.48h3.33c0-1.84-1.48-3.33-3.33-3.33c-1.84,0-3.33,1.48-3.33,3.33c0,1.84,1.48,3.33,3.33,3.33
		c1.83,0,3.32-1.48,3.33-3.31c0-0.01,0-0.01,0-0.02H77.32z"/>
	<path class="st66" d="M77.32,34.48h3.28c0-1.8-1.48-3.24-3.28-3.24s-3.28,1.44-3.28,3.24c0,1.8,1.48,3.28,3.28,3.28
		c1.8,0,3.28-1.48,3.28-3.28H77.32L77.32,34.48z"/>
	<path class="st67" d="M77.32,34.48h3.19c0-1.75-1.44-3.19-3.19-3.19c-1.75,0-3.19,1.44-3.19,3.19c0,1.8,1.44,3.24,3.19,3.24
		c1.75,0,3.19-1.44,3.19-3.24H77.32z"/>
	<path class="st68" d="M77.32,34.48h3.15c0-1.71-1.39-3.15-3.15-3.15c-1.75,0-3.15,1.44-3.15,3.15c-0.01,1.73,1.38,3.14,3.11,3.15
		c0.01,0,0.03,0,0.04,0c1.73,0.01,3.14-1.38,3.15-3.11c0-0.01,0-0.03,0-0.04H77.32z"/>
	<path class="st69" d="M77.32,34.48h3.1c0-1.71-1.39-3.1-3.1-3.1c-1.71,0-3.1,1.39-3.1,3.1c0,1.71,1.39,3.1,3.1,3.1
		c1.71,0,3.1-1.39,3.1-3.1H77.32z"/>
	<path class="st70" d="M77.32,34.48h3.06c0-1.66-1.39-3.01-3.06-3.01c-1.66,0-3.06,1.35-3.06,3.01c0,1.71,1.39,3.06,3.06,3.06
		c1.66,0,3.06-1.35,3.06-3.06H77.32L77.32,34.48z"/>
	<path class="st71" d="M77.32,34.48h2.97c0-1.62-1.3-2.97-2.97-2.97c-1.66,0-2.97,1.35-2.97,2.97c0,1.66,1.3,3.01,2.97,3.01
		c1.66,0,2.97-1.35,2.97-3.01H77.32L77.32,34.48z"/>
	<path class="st72" d="M77.32,34.48h2.92c0-1.61-1.3-2.92-2.91-2.92c0,0-0.01,0-0.01,0c-1.61,0-2.92,1.3-2.92,2.91
		c0,0,0,0.01,0,0.01c0,1.61,1.3,2.92,2.91,2.92c0,0,0.01,0,0.01,0c1.61,0,2.92-1.3,2.92-2.91c0,0,0-0.01,0-0.01H77.32z"/>
	<path class="st73" d="M77.32,34.48h2.88c0-1.57-1.3-2.88-2.88-2.88c-1.57,0-2.88,1.3-2.88,2.88c0,1.58,1.28,2.87,2.86,2.88
		c0.01,0,0.01,0,0.02,0c1.58,0,2.87-1.28,2.88-2.86c0-0.01,0-0.01,0-0.02H77.32z"/>
	<path class="st74" d="M77.32,34.48h2.83c0-1.53-1.26-2.79-2.83-2.79c-1.57,0-2.83,1.26-2.83,2.79c-0.01,1.56,1.25,2.83,2.81,2.83
		c0.01,0,0.02,0,0.02,0c1.56,0.01,2.83-1.25,2.83-2.81c0-0.01,0-0.02,0-0.02H77.32z"/>
	<path class="st74" d="M77.32,34.48h2.74c0.01-1.5-1.2-2.73-2.71-2.74c-0.01,0-0.02,0-0.04,0c-1.5-0.01-2.73,1.2-2.74,2.71
		c0,0.01,0,0.02,0,0.04c0,1.53,1.21,2.79,2.74,2.79c1.53,0,2.74-1.26,2.74-2.79H77.32z"/>
	<path class="st75" d="M77.32,34.48h2.7c0-1.48-1.21-2.7-2.7-2.7c-1.48,0-2.7,1.21-2.7,2.7c0,1.48,1.21,2.7,2.7,2.7
		c1.48,0,2.7-1.21,2.7-2.7H77.32z"/>
	<path class="st76" d="M77.32,34.48h2.65c0-1.44-1.21-2.65-2.65-2.65c-1.48,0-2.65,1.21-2.65,2.65c0,1.48,1.17,2.65,2.65,2.65
		c1.44,0,2.65-1.17,2.65-2.65H77.32z"/>
	<path class="st77" d="M77.32,34.48h2.61c0-1.44-1.17-2.56-2.61-2.56c-1.44,0-2.61,1.12-2.61,2.56c0,1.44,1.17,2.61,2.61,2.61
		c1.44,0,2.61-1.17,2.61-2.61H77.32z"/>
	<path class="st77" d="M77.32,34.48h2.52c0-1.39-1.12-2.51-2.51-2.52c0,0-0.01,0-0.01,0c-1.39,0-2.52,1.12-2.52,2.52
		c0,1.39,1.12,2.56,2.52,2.56c1.39,0,2.52-1.17,2.52-2.56H77.32L77.32,34.48z"/>
	<path class="st78" d="M77.32,34.48h2.47c0-1.35-1.12-2.47-2.47-2.47c-1.35,0-2.47,1.12-2.47,2.47c0,1.36,1.1,2.47,2.46,2.47
		c0,0,0.01,0,0.01,0c1.36,0,2.47-1.1,2.47-2.46c0,0,0-0.01,0-0.01H77.32z"/>
	<path class="st79" d="M77.32,34.48h2.43c0-1.3-1.08-2.43-2.43-2.43c-1.35,0-2.43,1.12-2.43,2.43c-0.01,1.33,1.07,2.42,2.41,2.43
		c0.01,0,0.01,0,0.02,0c1.33,0.01,2.42-1.07,2.43-2.41c0-0.01,0-0.01,0-0.02H77.32z"/>
	<path class="st80" d="M77.32,34.48h2.38c0-1.3-1.08-2.34-2.38-2.34c-1.3,0-2.38,1.03-2.38,2.34c0,1.3,1.08,2.38,2.38,2.38
		c1.3,0,2.38-1.08,2.38-2.38H77.32z"/>
	<path class="st81" d="M77.32,34.48h2.29c0-1.26-1.03-2.29-2.29-2.29c-1.26,0-2.29,1.03-2.29,2.29c0,1.3,1.03,2.34,2.29,2.34
		c1.26,0,2.29-1.03,2.29-2.34H77.32z"/>
	<path class="st82" d="M77.32,34.48h2.25c0-1.21-0.99-2.25-2.25-2.25c-1.26,0-2.25,1.03-2.25,2.25c0,1.26,0.99,2.25,2.25,2.25
		c1.26,0,2.25-0.99,2.25-2.25H77.32z"/>
	<path class="st83" d="M77.32,34.48h2.2c0-1.22-0.99-2.2-2.2-2.2c-1.21,0-2.2,0.99-2.2,2.2s0.99,2.2,2.2,2.2
		c1.22,0,2.2-0.99,2.2-2.2H77.32L77.32,34.48z"/>
	<path class="st84" d="M77.32,34.48h2.16c0-1.17-0.99-2.11-2.16-2.11c-1.17,0-2.16,0.94-2.16,2.11c0,1.21,0.99,2.16,2.16,2.16
		c1.17,0,2.16-0.94,2.16-2.16H77.32z"/>
	<path class="st85" d="M77.32,34.48h2.07c0-1.14-0.92-2.06-2.06-2.07c0,0-0.01,0-0.01,0c-1.14,0-2.06,0.92-2.07,2.06
		c0,0,0,0.01,0,0.01c0,1.17,0.9,2.11,2.07,2.11c1.17,0,2.07-0.94,2.07-2.11H77.32z"/>
	<path class="st86" d="M77.32,34.48h2.02c0-1.11-0.89-2.02-2.01-2.02c-0.01,0-0.01,0-0.02,0c-1.12,0-2.02,0.9-2.02,2.02
		c0,1.12,0.9,2.02,2.02,2.02c1.11,0,2.02-0.89,2.02-2.01c0-0.01,0-0.01,0-0.02H77.32z"/>
	<path class="st87" d="M77.32,34.48h1.98c0-1.08-0.9-1.98-1.98-1.98s-1.98,0.9-1.98,1.98c0,1.12,0.9,1.98,1.98,1.98
		s1.98-0.85,1.98-1.98H77.32z"/>
	<path class="st88" d="M77.32,34.48h1.93c0-1.03-0.85-1.89-1.93-1.89s-1.93,0.85-1.93,1.89c0,1.08,0.85,1.93,1.93,1.93
		s1.93-0.85,1.93-1.93H77.32z"/>
	<path class="st89" d="M77.32,34.48h1.84c0-1.03-0.81-1.84-1.84-1.84c-1.03,0-1.84,0.81-1.84,1.84s0.81,1.89,1.84,1.89
		c1.03,0,1.84-0.85,1.84-1.89H77.32z"/>
	<path class="st90" d="M77.32,34.48h1.8c0-0.99-0.81-1.8-1.8-1.8c-0.99,0-1.8,0.81-1.8,1.8c0,0.99,0.81,1.8,1.8,1.8
		c0.99,0,1.8-0.81,1.8-1.8H77.32z"/>
	<path class="st91" d="M77.32,34.48h1.75c0-0.94-0.81-1.75-1.75-1.75c-0.94,0-1.75,0.81-1.75,1.75c0,0.99,0.81,1.75,1.75,1.75
		c0.94,0,1.75-0.76,1.75-1.75H77.32z"/>
	<path class="st91" d="M77.32,34.48h1.71c0-0.9-0.76-1.66-1.71-1.66c-0.94,0-1.71,0.76-1.71,1.66c0,0.94,0.76,1.71,1.71,1.71
		c0.94,0,1.71-0.76,1.71-1.71H77.32z"/>
	<path class="st92" d="M77.32,34.48h1.62c0-0.9-0.72-1.62-1.62-1.62s-1.62,0.72-1.62,1.62c0,0.9,0.72,1.66,1.62,1.66
		s1.62-0.76,1.62-1.66H77.32z"/>
	<path class="st93" d="M77.32,34.48h1.57c0-0.85-0.72-1.57-1.57-1.57c-0.85,0-1.57,0.72-1.57,1.57c0,0.9,0.72,1.57,1.57,1.57
		c0.85,0,1.57-0.67,1.57-1.57H77.32z"/>
	<path class="st94" d="M77.32,34.48h1.53c0-0.81-0.67-1.53-1.53-1.53c-0.85,0-1.53,0.72-1.53,1.53c-0.01,0.84,0.67,1.52,1.5,1.53
		c0.01,0,0.02,0,0.03,0c0.84,0.01,1.52-0.67,1.53-1.5c0-0.01,0-0.02,0-0.02H77.32z"/>
	<path class="st95" d="M77.32,34.48h1.48c0-0.81-0.67-1.44-1.48-1.44c-0.81,0-1.48,0.63-1.48,1.44c0,0.81,0.67,1.48,1.48,1.48
		c0.81,0,1.48-0.67,1.48-1.48H77.32z"/>
	<path class="st96" d="M77.32,34.48h1.39c0-0.77-0.63-1.39-1.39-1.39c-0.77,0-1.39,0.63-1.39,1.39c0,0.81,0.63,1.44,1.39,1.44
		c0.76,0,1.39-0.63,1.39-1.44H77.32z"/>
	<path class="st97" d="M77.32,34.48h1.35c0-0.72-0.58-1.35-1.35-1.35c-0.76,0-1.35,0.63-1.35,1.35c0,0.76,0.58,1.35,1.35,1.35
		c0.76,0,1.35-0.58,1.35-1.35H77.32z"/>
	<path class="st98" d="M77.32,34.48h1.3c0-0.72-0.58-1.3-1.3-1.3c-0.72,0.02-1.29,0.62-1.27,1.34c0.02,0.69,0.58,1.25,1.27,1.27
		c0.72,0,1.3-0.58,1.3-1.3H77.32z"/>
	<path class="st99" d="M77.32,34.48h1.26c0-0.67-0.58-1.21-1.26-1.21c-0.67,0-1.26,0.54-1.26,1.21c0,0.69,0.56,1.26,1.25,1.26
		c0,0,0,0,0.01,0c0.69,0,1.26-0.56,1.26-1.25c0,0,0,0,0-0.01H77.32z"/>
	<path class="st100" d="M77.32,34.48h1.17c0-0.63-0.49-1.17-1.17-1.17c-0.64,0-1.16,0.51-1.17,1.15c0,0.01,0,0.01,0,0.02
		c0,0.67,0.49,1.21,1.17,1.21c0.67,0,1.17-0.54,1.17-1.21H77.32z"/>
	<path class="st101" d="M77.32,34.48h1.12c0.01-0.61-0.49-1.12-1.1-1.12c-0.01,0-0.01,0-0.02,0c-0.61-0.01-1.12,0.49-1.12,1.1
		c0,0.01,0,0.01,0,0.02c-0.01,0.61,0.49,1.12,1.1,1.12c0.01,0,0.02,0,0.02,0c0.61,0.01,1.12-0.49,1.12-1.1c0-0.01,0-0.01,0-0.02
		H77.32z"/>
	<path class="st102" d="M77.32,34.48h1.08c0-0.58-0.5-1.03-1.08-1.03c-0.58,0-1.08,0.45-1.08,1.03s0.49,1.08,1.08,1.08
		c0.58,0,1.08-0.49,1.08-1.08H77.32z"/>
	<path class="st103" d="M77.32,34.48h1.03c0-0.54-0.5-0.99-1.03-0.99c-0.54,0-1.03,0.45-1.03,0.99c0,0.58,0.49,1.03,1.03,1.03
		c0.54,0,1.03-0.45,1.03-1.03H77.32z"/>
	<path class="st104" d="M77.32,34.48h0.94c0-0.49-0.4-0.94-0.94-0.94c-0.54,0-0.94,0.45-0.94,0.94c0,0.54,0.4,0.99,0.94,0.99
		c0.54,0,0.94-0.45,0.94-0.99H77.32z"/>
	<path class="st105" d="M77.32,34.48h0.9c0-0.5-0.4-0.9-0.9-0.9c-0.5,0-0.9,0.4-0.9,0.9s0.4,0.9,0.9,0.9c0.5,0,0.9-0.4,0.9-0.9
		H77.32z"/>
	<path class="st106" d="M77.32,34.48h0.85c0-0.45-0.4-0.81-0.85-0.81c-0.45,0-0.85,0.36-0.85,0.81c0,0.49,0.4,0.85,0.85,0.85
		c0.47,0,0.85-0.38,0.85-0.85c0,0,0,0,0,0H77.32z"/>
	<path class="st107" d="M77.32,34.48h0.81c0-0.4-0.36-0.76-0.81-0.76c-0.45,0-0.81,0.36-0.81,0.76c0,0.45,0.36,0.81,0.81,0.81
		c0.45,0,0.81-0.36,0.81-0.8c0,0,0,0,0-0.01H77.32z"/>
	<path class="st108" d="M77.32,34.48h0.72c0-0.4-0.32-0.72-0.72-0.72c-0.4,0-0.72,0.31-0.72,0.72c0,0.4,0.32,0.76,0.72,0.76
		c0.4,0,0.72-0.36,0.72-0.76H77.32z"/>
	<path class="st109" d="M77.32,34.48h0.67c0-0.36-0.32-0.67-0.67-0.67c-0.36,0-0.67,0.31-0.67,0.67c0,0.4,0.32,0.67,0.67,0.67
		c0.36,0,0.67-0.27,0.67-0.67H77.32z"/>
	<path class="st110" d="M77.32,34.48h0.63c0-0.31-0.27-0.58-0.63-0.58c-0.36,0-0.63,0.27-0.63,0.58c0,0.36,0.27,0.63,0.63,0.63
		c0.36,0,0.63-0.27,0.63-0.63H77.32z"/>
	<path class="st111" d="M77.32,34.48h0.58c0-0.31-0.27-0.54-0.58-0.54c-0.32,0-0.58,0.22-0.58,0.54c0,0.32,0.27,0.58,0.58,0.58
		c0.31,0,0.58-0.27,0.58-0.58H77.32z"/>
	<path class="st112" d="M77.32,34.48h0.49c0-0.27-0.23-0.49-0.49-0.49c-0.27,0-0.5,0.23-0.5,0.49c0,0.32,0.23,0.54,0.5,0.54
		c0.27,0,0.49-0.22,0.49-0.54H77.32z"/>
	<path class="st113" d="M77.32,34.48h0.45c0-0.22-0.18-0.45-0.45-0.45c-0.27,0-0.45,0.22-0.45,0.45c0,0.27,0.18,0.45,0.45,0.45
		c0.27,0,0.45-0.18,0.45-0.45H77.32z"/>
	<path class="st114" d="M77.32,34.48h0.4c0-0.22-0.18-0.36-0.4-0.36c-0.23,0-0.4,0.13-0.4,0.36c0,0.22,0.18,0.4,0.4,0.4
		c0.22,0,0.4-0.18,0.4-0.4c0,0,0,0,0,0H77.32z"/>
	<path class="st115" d="M77.32,34.48h0.36c0-0.18-0.18-0.31-0.36-0.31c-0.18,0-0.36,0.14-0.36,0.31c0,0.18,0.18,0.36,0.36,0.36
		c0.18,0,0.36-0.18,0.36-0.36H77.32z"/>
	<path class="st116" d="M77.32,34.48h0.27c0-0.13-0.13-0.27-0.27-0.27c-0.14,0-0.27,0.13-0.27,0.27c0,0.18,0.13,0.32,0.27,0.32
		c0.13,0,0.27-0.14,0.27-0.32H77.32z"/>
	<path class="st117" d="M77.32,34.48h0.22c0-0.09-0.09-0.22-0.22-0.22c-0.14,0-0.23,0.13-0.23,0.22c0,0.13,0.09,0.22,0.23,0.22
		c0.13,0,0.22-0.09,0.22-0.22H77.32z"/>
	<path class="st118" d="M77.32,34.48h0.18c0-0.09-0.09-0.13-0.18-0.13c-0.09,0-0.18,0.04-0.18,0.13s0.09,0.18,0.18,0.18
		c0.09,0,0.18-0.09,0.18-0.18H77.32z"/>
	<path class="st119" d="M77.32,34.48h0.09c0-0.04-0.05-0.09-0.09-0.09c-0.05,0-0.14,0.04-0.14,0.09c0,0.09,0.09,0.13,0.14,0.13
		c0.04,0,0.09-0.04,0.09-0.13H77.32z"/>
	<path class="st120" d="M77.32,34.48h0.04c0,0,0-0.04-0.04-0.04c-0.05,0-0.05,0.04-0.05,0.04c0,0.04,0,0.09,0.05,0.09
		c0.04,0,0.04-0.04,0.04-0.09H77.32z"/>
	<path class="st2" d="M89.05,36.55l-3.19-8.09h-2.61l5.12,12.36h1.26l5.21-12.36h-2.56L89.05,36.55L89.05,36.55z M95.93,40.51h6.65
		v-2.02h-4.32v-3.24h4.14v-2.07h-4.14v-2.65h4.32v-2.07h-6.65V40.51z M111.88,32.01c0-2.25-1.53-3.55-4.27-3.55h-3.46v12.05h2.34
		V35.7h0.31l3.24,4.81h2.88l-3.78-5.08C110.89,35.07,111.88,33.86,111.88,32.01L111.88,32.01z M107.16,34.04h-0.67v-3.69h0.72
		c1.48,0,2.25,0.63,2.25,1.8C109.46,33.36,108.69,34.04,107.16,34.04L107.16,34.04z M37.93,44.05v1.08h1.33v0.44h-1.33v1.88h-0.48
		v-3.83h1.86v0.44L37.93,44.05L37.93,44.05z M41.5,43.61h0.48v3.83H41.5V43.61L41.5,43.61z M44.29,43.42l2.88,3.02v-2.83h0.48v3.99
		l-2.88-3.02v2.86h-0.48V43.42L44.29,43.42z M52.08,46.04h-1.37l0.68-1.55L52.08,46.04z M52.28,46.48l0.44,0.96h0.52l-1.83-4
		l-1.83,4h0.51l0.44-0.96H52.28z M55.15,43.42l2.88,3.02v-2.83h0.48v3.99l-2.88-3.02v2.86h-0.48V43.42L55.15,43.42z M63.62,44.34
		c-0.27-0.25-0.65-0.38-1.01-0.38c-0.86,0-1.51,0.72-1.51,1.57c0,0.84,0.65,1.56,1.5,1.56c0.38,0,0.74-0.14,1.02-0.4v0.57
		c-0.31,0.17-0.65,0.27-1.01,0.27c-1.1,0-2-0.87-2-1.98c0-1.13,0.91-2.02,2.04-2.02c0.34,0,0.68,0.08,0.96,0.26L63.62,44.34
		L63.62,44.34L63.62,44.34z M65.82,43.61h0.48v3.83h-0.48V43.61z M70.76,46.04H69.4l0.69-1.55L70.76,46.04L70.76,46.04z
		 M70.96,46.48l0.44,0.96h0.51l-1.83-4l-1.83,4h0.51l0.44-0.96H70.96z M74.35,47.01h1.17v0.44h-1.64v-3.83h0.48V47.01z M82.29,44.34
		c-0.14-0.24-0.32-0.36-0.62-0.36c-0.31,0-0.64,0.21-0.64,0.54c0,0.3,0.3,0.46,0.54,0.55l0.27,0.11c0.55,0.21,0.95,0.51,0.95,1.15
		c0,0.7-0.54,1.19-1.23,1.19c-0.62,0-1.1-0.46-1.18-1.07l0.48-0.1c-0.01,0.42,0.33,0.73,0.74,0.73c0.41,0,0.71-0.34,0.71-0.75
		c0-0.41-0.33-0.59-0.66-0.73l-0.26-0.11c-0.44-0.19-0.84-0.44-0.84-0.97c0-0.62,0.55-0.99,1.13-0.99c0.43,0,0.78,0.21,0.98,0.58
		L82.29,44.34L82.29,44.34z M84.96,43.61h2.06v0.44h-1.58v1.07h1.54v0.44h-1.54v1.45h1.58v0.44h-2.06V43.61L84.96,43.61z
		 M89.74,44.04h0.12c0.48,0,1.05,0.09,1.05,0.69c0,0.61-0.53,0.7-1.02,0.7h-0.15L89.74,44.04L89.74,44.04L89.74,44.04z M90.43,45.78
		c0.55-0.07,0.92-0.52,0.92-1.07c0-0.37-0.18-0.73-0.51-0.92c-0.3-0.17-0.67-0.18-1.01-0.18h-0.58v3.83h0.48v-1.62h0.2l1.13,1.62
		h0.58L90.43,45.78L90.43,45.78z M94.93,46.45l1.14-2.84h0.52l-1.66,4.04l-1.67-4.04h0.52L94.93,46.45L94.93,46.45z M98.54,43.61
		h0.48v3.83h-0.48V43.61z M104.18,44.34c-0.28-0.25-0.65-0.38-1.02-0.38c-0.86,0-1.51,0.72-1.51,1.57c0,0.84,0.65,1.56,1.5,1.56
		c0.38,0,0.74-0.14,1.03-0.4v0.57c-0.31,0.17-0.66,0.27-1.01,0.27c-1.09,0-2-0.87-2-1.98c0-1.13,0.91-2.02,2.04-2.02
		c0.34,0,0.68,0.08,0.97,0.26L104.18,44.34L104.18,44.34L104.18,44.34z M106.39,43.61h2.06v0.44h-1.58v1.07h1.54v0.44h-1.54v1.45
		h1.58v0.44h-2.06V43.61L106.39,43.61z M112.38,44.34c-0.14-0.24-0.32-0.36-0.61-0.36c-0.3,0-0.64,0.21-0.64,0.54
		c0,0.3,0.3,0.46,0.53,0.55l0.28,0.11c0.54,0.21,0.95,0.51,0.95,1.15c0,0.7-0.54,1.19-1.23,1.19c-0.62,0-1.11-0.46-1.18-1.07
		l0.48-0.1c-0.01,0.42,0.33,0.73,0.74,0.73c0.41,0,0.71-0.34,0.71-0.75c0-0.41-0.33-0.59-0.66-0.73l-0.26-0.11
		c-0.44-0.19-0.84-0.44-0.84-0.97c0-0.62,0.55-0.99,1.13-0.99c0.43,0,0.78,0.21,0.99,0.58L112.38,44.34L112.38,44.34z M113.26,29.53
		c0,0.09-0.06,0.14-0.19,0.14h-0.04v-0.28h0.05C113.2,29.4,113.26,29.44,113.26,29.53L113.26,29.53z M113.63,30.26l-0.35-0.44
		c0.15-0.04,0.24-0.15,0.24-0.3c0-0.21-0.15-0.33-0.4-0.33h-0.34v1.06h0.25v-0.41l0.3,0.41H113.63L113.63,30.26z M114.08,29.73
		c0-0.51-0.41-0.92-0.91-0.92c-0.51,0-0.92,0.41-0.93,0.91c0,0,0,0.01,0,0.01c0,0.52,0.41,0.93,0.93,0.93
		C113.67,30.65,114.08,30.23,114.08,29.73z M113.89,29.73c0,0.42-0.33,0.76-0.73,0.76c-0.41,0-0.74-0.34-0.74-0.76
		c0-0.42,0.33-0.76,0.74-0.76C113.57,28.97,113.89,29.31,113.89,29.73z"/>
</g>
</svg>
