<?xml version="1.0" encoding="utf-8"?>
<!-- Generator: Adobe Illustrator 24.0.0, SVG Export Plug-In . SVG Version: 6.00 Build 0)  -->
<svg version="1.1" id="Layer_1" xmlns="http://www.w3.org/2000/svg" xmlns:xlink="http://www.w3.org/1999/xlink" x="0px" y="0px"
	 viewBox="0 0 120 75" style="enable-background:new 0 0 120 75;" xml:space="preserve">
<style type="text/css">
	.st0{fill:url(#SVGID_1_);}
	.st1{fill:#D87726;}
	.st2{fill:url(#SVGID_2_);}
	.st3{fill:#FFFFFF;}
	.st4{fill:#F99F1C;}
	.st5{fill:#ED1C24;}
	.st6{opacity:0.43;fill:#F99F1C;enable-background:new    ;}
</style>
<linearGradient id="SVGID_1_" gradientUnits="userSpaceOnUse" x1="60.05" y1="75.21" x2="60.05" y2="0.2">
	<stop  offset="2.546460e-07" style="stop-color:#D77626"/>
	<stop  offset="0.0716" style="stop-color:#DD7B25"/>
	<stop  offset="0.3264" style="stop-color:#ED8922"/>
	<stop  offset="0.522" style="stop-color:#F38E21"/>
	<stop  offset="0.6966" style="stop-color:#EF8A22"/>
	<stop  offset="0.8862" style="stop-color:#E28024"/>
	<stop  offset="1" style="stop-color:#D67626"/>
</linearGradient>
<path class="st0" d="M115.14,75.21H4.97c-2.72,0-4.92-2.2-4.92-4.92V5.12c0-2.72,2.2-4.92,4.92-4.92h110.16
	c2.72,0,4.92,2.2,4.92,4.92v65.16C120.06,73,117.85,75.21,115.14,75.21z"/>
<path class="st1" d="M60.04,44.84c4.37-2.03,6.68-5.03,7.96-8.96c2.2-6.77,4.54-13.49,6.7-20.28c0.66-2.08,1.48-5.07-1.21-5.7
	c-1.84-0.43-4.68,0.97-6.25,2.43c-1.48,1.38-2.04,3.86-2.72,5.94c-4.96,15.16-9.84,30.35-14.76,45.53
	c-1.51,4.66-3.74,6.31-8.68,6.36c-5.43,0.05-10.86,0.01-15.8,0.01c3.49-10.28,6.99-20.54,10.44-30.81c2.54-7.56,5-15.15,7.53-22.71
	c2.03-6.05,3.92-7.43,10.24-7.44c12.97-0.02,25.94-0.02,38.92,0c5.22,0.01,6.03,1.19,4.39,6.24c-2.62,8.05-5.25,16.11-7.92,24.14
	c-1.47,4.45-3.08,5.6-7.88,5.62c-6.55,0.03-13.1-0.01-19.64-0.03C61.12,45.19,60.88,45.07,60.04,44.84z"/>
<linearGradient id="SVGID_2_" gradientUnits="userSpaceOnUse" x1="6.6128" y1="37.295" x2="22.6029" y2="37.295" gradientTransform="matrix(1 0 0 -1 0 75)">
	<stop  offset="5.334684e-03" style="stop-color:#DDA741"/>
	<stop  offset="0.4663" style="stop-color:#DAB450"/>
	<stop  offset="1" style="stop-color:#DDC57B"/>
</linearGradient>
<path class="st2" d="M20.68,43.65H8.53c-1.06,0-1.92-0.86-1.92-1.92v-8.05c0-1.06,0.86-1.92,1.92-1.92h12.15
	c1.06,0,1.92,0.86,1.92,1.92v8.05C22.61,42.79,21.74,43.65,20.68,43.65z"/>
<g id="X2OU0O_1_">
	<g>
		<path class="st3" d="M13.65,12.65c0.5-0.23,0.76-0.58,0.91-1.03c0.25-0.77,0.52-1.54,0.77-2.32c0.08-0.24,0.17-0.58-0.14-0.65
			c-0.21-0.05-0.54,0.11-0.72,0.28c-0.17,0.16-0.23,0.44-0.31,0.68c-0.57,1.74-1.13,3.47-1.69,5.21c-0.17,0.53-0.43,0.72-0.99,0.73
			c-0.62,0.01-1.24,0-1.81,0c0.4-1.18,0.8-2.35,1.19-3.53c0.29-0.87,0.57-1.73,0.86-2.6c0.23-0.69,0.45-0.85,1.17-0.85
			c1.48,0,2.97,0,4.45,0c0.6,0,0.69,0.14,0.5,0.71c-0.3,0.92-0.6,1.84-0.91,2.76c-0.17,0.51-0.35,0.64-0.9,0.64
			c-0.75,0-1.5,0-2.25,0C13.77,12.69,13.75,12.68,13.65,12.65z"/>
		<path class="st3" d="M39.65,11.09c0-0.42,0-0.84,0-1.27c-0.03-0.01-0.06-0.01-0.1-0.02c-0.07,0.25-0.13,0.49-0.2,0.74
			c-0.17,0.63-0.17,0.63-0.87,0.58c0.23-0.76,0.46-1.51,0.71-2.26c0.03-0.1,0.21-0.19,0.33-0.21c0.21-0.03,0.42-0.01,0.67-0.01
			c0,0.48,0,0.95,0,1.42c0.03,0.01,0.06,0.02,0.09,0.04c0.17-0.27,0.34-0.54,0.5-0.82c0.41-0.69,0.41-0.69,1.33-0.61
			c-0.08,0.27-0.16,0.52-0.24,0.78c-0.12,0.4-0.25,0.8-0.37,1.2c-0.17,0.55-0.18,0.55-0.84,0.45c0.15-0.43,0.3-0.86,0.45-1.29
			c-0.03-0.01-0.05-0.03-0.08-0.04c-0.21,0.34-0.44,0.67-0.64,1.02C40.24,11.08,40.06,11.24,39.65,11.09z"/>
		<path class="st3" d="M32.18,15.45c0.2-0.55,0.34-0.97,0.49-1.39c-0.02-0.02-0.05-0.03-0.07-0.05c-0.22,0.35-0.47,0.68-0.66,1.04
			c-0.16,0.29-0.35,0.37-0.69,0.26c0-0.42,0-0.85,0-1.28c-0.03-0.01-0.07-0.01-0.1-0.02c-0.07,0.26-0.14,0.52-0.21,0.77
			c-0.17,0.61-0.17,0.61-0.86,0.54c0.26-0.81,0.51-1.62,0.78-2.44c0.31,0,0.6,0,0.93,0c0,0.47,0,0.93,0,1.4
			c0.03,0.01,0.05,0.02,0.08,0.03c0.17-0.28,0.38-0.53,0.5-0.83c0.25-0.62,0.7-0.73,1.32-0.58c-0.23,0.76-0.44,1.54-0.73,2.29
			C32.9,15.34,32.51,15.35,32.18,15.45z"/>
		<path class="st3" d="M47.74,9.96c0.59,0.38,0.01,0.77,0.12,1.17c-0.28,0-0.53,0-0.8,0c0.03-0.13,0.04-0.25,0.09-0.37
			c0.08-0.2,0.16-0.39-0.14-0.46c-0.26-0.06-0.49-0.07-0.58,0.28c-0.17,0.61-0.18,0.61-0.92,0.53c0.18-0.6,0.36-1.19,0.55-1.78
			c0.22-0.69,0.22-0.69,0.96-0.69c0.21,0,0.42,0,0.63,0c0.3,0,0.63,0.01,0.72,0.37c0.09,0.35-0.08,0.62-0.37,0.82
			C47.93,9.87,47.86,9.9,47.74,9.96z M46.89,9.16c-0.05,0.22-0.09,0.37-0.16,0.65c0.31-0.09,0.54-0.14,0.76-0.23
			c0.04-0.02,0.06-0.25,0.04-0.25C47.33,9.26,47.13,9.22,46.89,9.16z"/>
		<path class="st3" d="M35.71,9.96c0.4,0.38,0.02,0.77,0.05,1.16c-0.26,0-0.51,0-0.79,0c0.03-0.15,0.05-0.27,0.09-0.38
			c0.06-0.19,0.19-0.4-0.14-0.44c-0.22-0.03-0.47-0.12-0.57,0.24c-0.19,0.66-0.2,0.66-0.95,0.57c0.25-0.78,0.49-1.55,0.75-2.31
			c0.03-0.08,0.19-0.14,0.29-0.15c0.38-0.02,0.77-0.05,1.14,0.01C35.83,8.7,36.19,8.82,36.26,9c0.07,0.19-0.14,0.49-0.25,0.73
			C35.96,9.82,35.84,9.87,35.71,9.96z M34.71,9.71c0.3,0.01,0.64,0.16,0.77-0.27c0.01-0.05-0.16-0.21-0.26-0.23
			C34.84,9.13,34.68,9.32,34.71,9.71z"/>
		<path class="st3" d="M39.3,14.19c0.5,0.38-0.04,0.75,0.07,1.15c-0.27,0-0.52,0-0.78,0c0.02-0.14,0.03-0.27,0.07-0.38
			c0.07-0.19,0.14-0.38-0.12-0.43c-0.22-0.05-0.49-0.14-0.56,0.23c0,0.01-0.02,0.02-0.02,0.04c-0.22,0.62-0.22,0.62-0.93,0.55
			c0.23-0.76,0.46-1.51,0.71-2.26c0.03-0.09,0.2-0.18,0.31-0.19c0.37-0.02,0.74-0.05,1.1,0c0.25,0.04,0.6,0.14,0.7,0.32
			c0.17,0.3-0.03,0.62-0.31,0.83C39.47,14.08,39.41,14.12,39.3,14.19z M38.3,13.93c0.29,0.01,0.63,0.16,0.77-0.25
			c0.02-0.06-0.11-0.22-0.2-0.24C38.49,13.35,38.29,13.52,38.3,13.93z"/>
		<path class="st3" d="M27.39,15.35c-0.28,0-0.48,0-0.72,0c0.01-0.14-0.01-0.27,0.03-0.39c0.06-0.19,0.13-0.37-0.13-0.44
			c-0.23-0.06-0.46-0.08-0.57,0.24c-0.22,0.62-0.24,0.62-0.94,0.59c0.24-0.77,0.47-1.53,0.73-2.29c0.03-0.09,0.2-0.17,0.31-0.18
			c0.35-0.02,0.7-0.01,1.06-0.01c0.3,0,0.63-0.01,0.74,0.34c0.1,0.34-0.06,0.63-0.35,0.84c-0.06,0.04-0.11,0.08-0.2,0.13
			C27.85,14.57,27.32,14.95,27.39,15.35z M26.32,13.94c0.3,0,0.63,0.14,0.78-0.23c0.02-0.06-0.12-0.25-0.21-0.27
			C26.52,13.34,26.34,13.52,26.32,13.94z"/>
		<ellipse class="st3" cx="35.4" cy="11.99" rx="18.42" ry="0.04"/>
		<path class="st3" d="M19.32,9.28c1.16,0.62,1.77,2.29,1.3,3.49c-0.52,1.31-2.33,2.41-3.65,2.56c0.59-0.46,1.38-0.96,2.03-1.6
			c1.22-1.19,1.53-3,0.34-4.37C19.32,9.33,19.33,9.3,19.32,9.28z"/>
		<path class="st3" d="M43.85,8.66c0.69,0,1.32,0,1.96,0c0.01,0.39-0.11,0.6-0.53,0.55c-0.18-0.02-0.37,0-0.55-0.01
			c-0.29-0.01-0.38,0.12-0.32,0.44c0.29,0,0.59,0,0.9,0c0.02,0.4-0.11,0.55-0.49,0.54c-0.28-0.01-0.68-0.17-0.77,0.38
			c0.4,0,0.79,0,1.2,0c0,0.42-0.09,0.63-0.54,0.6c-0.52-0.04-1.04-0.01-1.63-0.01C43.34,10.3,43.59,9.49,43.85,8.66z"/>
		<path class="st3" d="M36.07,11.15c0.25-0.8,0.47-1.54,0.72-2.28c0.03-0.1,0.21-0.21,0.33-0.22c0.56-0.02,1.13-0.01,1.7-0.01
			c0.02,0.46-0.19,0.62-0.63,0.56c-0.23-0.03-0.48-0.01-0.73-0.01c-0.03,0.13-0.05,0.23-0.09,0.39c0.34,0,0.64,0,0.94,0
			c0.03,0.52-0.23,0.62-0.64,0.59c-0.25-0.02-0.6-0.11-0.59,0.41c0.4,0,0.78,0,1.16,0c0.01,0.46-0.18,0.6-0.59,0.57
			C37.15,11.12,36.64,11.15,36.07,11.15z"/>
		<path class="st3" d="M30.43,12.88c0.01,0.43-0.17,0.61-0.59,0.55c-0.15-0.02-0.31,0.01-0.47-0.01c-0.3-0.02-0.41,0.12-0.35,0.44
			c0.3,0,0.59,0,0.89,0c0.01,0.41-0.15,0.57-0.55,0.54c-0.27-0.02-0.66-0.16-0.69,0.39c0.39,0,0.76,0,1.16,0
			c0,0.39-0.07,0.61-0.51,0.58c-0.52-0.04-1.04-0.01-1.64-0.01c0.26-0.82,0.51-1.6,0.76-2.39c0.02-0.05,0.13-0.1,0.2-0.1
			C29.25,12.87,29.84,12.88,30.43,12.88z"/>
		<path class="st3" d="M37.4,12.88c-0.07,0.22-0.12,0.38-0.18,0.58c-0.39,0-0.79-0.01-1.18,0.01c-0.06,0-0.1,0.21-0.17,0.37
			c0.34,0,0.64,0,0.94,0c-0.01,0.55-0.01,0.55-0.5,0.55c-0.61,0-0.61,0-0.69,0.4c0.39,0,0.78,0,1.22,0
			c-0.08,0.23-0.14,0.39-0.2,0.56c-0.67,0-1.31,0-2.01,0c0.25-0.8,0.49-1.58,0.74-2.35c0.02-0.06,0.15-0.12,0.23-0.12
			C36.18,12.87,36.76,12.88,37.4,12.88z"/>
		<path class="st3" d="M31.88,10.38c-0.32,0.79-0.32,0.79-1.04,0.75c0.26-0.82,0.51-1.64,0.78-2.48c0.46,0,0.91-0.04,1.36,0.02
			c0.22,0.03,0.53,0.18,0.6,0.35c0.09,0.2,0.03,0.54-0.09,0.73c-0.27,0.42-0.68,0.66-1.21,0.63C32.16,10.37,32.03,10.38,31.88,10.38
			z M32.08,9.79c0.34,0.07,0.65,0.07,0.77-0.3c0.02-0.06-0.12-0.24-0.22-0.27C32.15,9.1,32.13,9.45,32.08,9.79z"/>
		<path class="st3" d="M23.31,15.36c-0.29,0-0.51,0-0.8,0c0.26-0.79,0.5-1.55,0.76-2.31c0.03-0.08,0.18-0.15,0.28-0.16
			c0.34-0.02,0.69-0.05,1.02,0.01c0.24,0.04,0.58,0.16,0.66,0.34c0.09,0.21,0.04,0.6-0.11,0.78c-0.22,0.26-0.59,0.54-0.89,0.54
			C23.62,14.55,23.35,14.77,23.31,15.36z M23.75,14.02c0.37,0.05,0.68,0.05,0.77-0.34c0.02-0.06-0.14-0.22-0.24-0.25
			C23.82,13.33,23.81,13.68,23.75,14.02z"/>
		<path class="st3" d="M51.36,9.71c0.01,0.37,0.11,0.69,0,0.89c-0.12,0.21-0.44,0.4-0.69,0.44c-0.47,0.07-0.95,0.02-1.49,0.02
			c0.22-0.77,0.42-1.51,0.65-2.24c0.02-0.08,0.17-0.16,0.27-0.17c0.28-0.02,0.57-0.04,0.84,0c0.23,0.04,0.57,0.12,0.63,0.27
			C51.69,9.23,51.66,9.6,51.36,9.71z M49.84,10.74c0.28-0.02,0.57,0,0.82-0.08c0.12-0.04,0.25-0.26,0.26-0.4
			c0.01-0.08-0.21-0.24-0.34-0.26C49.98,9.9,49.82,10.06,49.84,10.74z M50.09,9.65c0.26,0,0.5,0.04,0.7-0.02
			c0.13-0.04,0.22-0.23,0.33-0.35C51,9.2,50.89,9.06,50.77,9.04C50.21,8.99,50.21,9,50.09,9.65z"/>
		<path class="st3" d="M41.08,15.3c0.25-0.76,0.49-1.5,0.74-2.23c0.03-0.08,0.14-0.19,0.21-0.19c0.38-0.02,0.76-0.03,1.14,0
			c0.37,0.03,0.51,0.53,0.26,0.86c-0.08,0.11-0.2,0.18-0.31,0.27c0.37,0.58,0.15,1.17-0.56,1.28C42.11,15.36,41.62,15.3,41.08,15.3z
			 M41.68,14.97c0.26,0,0.51,0.06,0.7-0.02c0.19-0.08,0.4-0.28,0.44-0.46c0.06-0.29-0.24-0.28-0.44-0.29
			C41.87,14.19,41.85,14.2,41.68,14.97z M42.04,13.87c0.28,0,0.5,0.05,0.69-0.02c0.13-0.04,0.22-0.23,0.33-0.36
			c-0.12-0.08-0.23-0.2-0.36-0.24c-0.15-0.04-0.33-0.01-0.49-0.01C42.15,13.47,42.11,13.64,42.04,13.87z"/>
		<path class="st3" d="M56.17,13.67c0.31-0.18,0.02-0.88,0.74-0.79c-0.19,0.56-0.37,1.09-0.55,1.62c-0.07,0.21-0.12,0.43-0.2,0.63
			c-0.04,0.09-0.19,0.21-0.21,0.2c-0.28-0.16-0.55,0.09-0.8,0.02c-0.19-0.05-0.44-0.18-0.51-0.34c-0.2-0.48,0.34-1.63,1.11-1.48
			C55.9,13.57,56.03,13.63,56.17,13.67z M56.05,14.14c-0.07-0.06-0.18-0.24-0.32-0.28c-0.27-0.07-0.6,0.3-0.65,0.68
			c-0.03,0.24-0.02,0.46,0.28,0.51C55.62,15.09,56,14.64,56.05,14.14z"/>
		<path class="st3" d="M14.03,7.58c-2.63,0.39-4.93,1.23-6.18,3.74c-0.04-0.01-0.07-0.02-0.11-0.03C7.9,10.87,8,10.42,8.22,10.04
			c0.5-0.9,1.35-1.41,2.27-1.81C11.51,7.79,12.83,7.56,14.03,7.58z"/>
		<path class="st3" d="M15.18,15.85c0.89-0.19,1.71-0.33,2.51-0.55c0.94-0.25,1.79-0.67,2.53-1.31c1.5-1.3,1.58-3.03,0.2-4.46
			c-0.16-0.17-0.33-0.33-0.54-0.54c1.32,0.81,2.03,2.23,1.65,3.43c-0.16,0.5-0.46,1-0.82,1.39C19.47,15.16,16.97,15.86,15.18,15.85z
			"/>
		<path class="st3" d="M24.46,9.85C24.37,9.92,24.3,10,24.2,10.04c-0.06,0.03-0.14,0.01-0.21,0.01c-0.7,0.01-0.73,0-0.9,0.71
			c-0.09,0.37-0.26,0.41-0.59,0.32c0.21-0.74,0.4-1.48,0.63-2.21c0.03-0.1,0.21-0.21,0.33-0.22c0.47-0.02,0.93-0.01,1.44-0.01
			c-0.03,0.14-0.06,0.27-0.09,0.43c-0.24,0-0.46,0-0.68,0c-0.59,0-0.59,0-0.7,0.65c0.32,0,0.64,0,0.96,0
			C24.42,9.77,24.44,9.81,24.46,9.85z"/>
		<path class="st3" d="M56.16,8.65c0.17,0,0.28,0,0.44,0C56.47,9.1,56.35,9.53,56.22,10c0.48-0.16,0.63-0.86,1.26-0.64
			c-0.23,0.24-0.6,0.45-0.65,0.73c-0.06,0.29,0.18,0.65,0.29,0.98c-0.52,0.06-0.52,0.06-0.78-0.8c-0.11,0.18-0.25,0.35-0.32,0.54
			c-0.09,0.24-0.19,0.37-0.52,0.24C55.71,10.26,55.93,9.47,56.16,8.65z"/>
		<path class="st3" d="M48.35,14.12c0.46-0.14,0.64-0.75,1.22-0.55c-0.05,0.04-0.08,0.09-0.13,0.12c-0.59,0.3-0.7,0.74-0.43,1.32
			c0.04,0.08,0.03,0.19,0.05,0.3c-0.72,0.12-0.39-0.52-0.71-0.83c-0.11,0.2-0.24,0.38-0.33,0.58c-0.09,0.22-0.19,0.37-0.5,0.2
			c0.25-0.75,0.48-1.5,0.75-2.25c0.04-0.1,0.22-0.14,0.34-0.21c0.04,0.03,0.07,0.05,0.11,0.08C48.6,13.29,48.48,13.69,48.35,14.12z"
			/>
		<path class="st3" d="M41.79,11.22c0.28-0.89,0.49-1.67,0.79-2.41c0.06-0.15,0.47-0.15,0.84-0.26c-0.28,0.91-0.5,1.7-0.8,2.46
			C42.56,11.14,42.14,11.14,41.79,11.22z"/>
		<path class="st3" d="M33.37,15.42c0.26-0.83,0.49-1.54,0.7-2.26c0.15-0.49,0.53-0.19,0.9-0.31c-0.28,0.86-0.5,1.66-0.81,2.42
			C34.11,15.38,33.69,15.36,33.37,15.42z"/>
		<path class="st3" d="M51.94,9.79c0.19-0.44,1.03-0.69,1.38-0.37c0.11,0.1,0.15,0.33,0.13,0.49c-0.06,0.34-0.17,0.67-0.28,1.01
			c-0.02,0.07-0.12,0.16-0.19,0.17c-0.27,0.04-0.55,0.09-0.81,0.05c-0.19-0.03-0.44-0.15-0.52-0.3c-0.1-0.21-0.03-0.49,0.25-0.58
			c0.25-0.08,0.52-0.1,0.77-0.18c0.14-0.04,0.26-0.13,0.37-0.22c0.01-0.01-0.04-0.19-0.09-0.2c-0.14-0.03-0.3-0.06-0.43-0.02
			c-0.18,0.05-0.34,0.17-0.51,0.27C51.99,9.87,51.97,9.83,51.94,9.79z M52.91,10.29c-0.35,0.05-0.71-0.09-0.82,0.33
			c-0.01,0.06,0.11,0.2,0.19,0.22C52.65,10.9,52.79,10.64,52.91,10.29z"/>
		<path class="st3" d="M43.97,14.1c0.2-0.52,0.82-0.75,1.21-0.52c0.13,0.08,0.22,0.36,0.19,0.52c-0.06,0.37-0.2,0.72-0.33,1.08
			c-0.02,0.07-0.13,0.15-0.2,0.15c-0.27,0.03-0.55,0.05-0.81,0.02c-0.15-0.01-0.37-0.1-0.41-0.21c-0.05-0.14-0.02-0.42,0.08-0.49
			c0.26-0.17,0.57-0.24,0.86-0.37c0.16-0.07,0.3-0.15,0.45-0.24c0.01,0-0.06-0.2-0.1-0.19c-0.17,0-0.34,0.02-0.5,0.07
			C44.25,13.97,44.11,14.04,43.97,14.1z M44.9,14.5c-0.32,0.02-0.51-0.02-0.64,0.06c-0.12,0.07-0.16,0.27-0.23,0.41
			c0.15,0.02,0.34,0.09,0.45,0.03C44.63,14.93,44.72,14.74,44.9,14.5z"/>
		<path class="st3" d="M46.6,15.27c0.11-0.33,0.24-0.65,0.32-0.99c0.03-0.12-0.03-0.26-0.05-0.39c-0.15,0.03-0.39,0.01-0.45,0.1
			c-0.2,0.34-0.35,0.71-0.51,1.08c-0.11,0.27-0.11,0.28-0.48,0.21c0.17-0.52,0.33-1.04,0.51-1.55c0.03-0.08,0.19-0.2,0.22-0.19
			c0.3,0.18,0.58-0.01,0.87-0.02c0.34-0.01,0.45,0.16,0.38,0.44c-0.1,0.42-0.24,0.83-0.4,1.23c-0.04,0.09-0.22,0.13-0.34,0.19
			C46.66,15.34,46.63,15.31,46.6,15.27z"/>
		<path class="st3" d="M51.67,14.15c0.25-0.57,0.97-0.82,1.35-0.54c0.11,0.08,0.15,0.31,0.13,0.46c-0.02,0.22-0.12,0.43-0.19,0.64
			c-0.07,0.2-0.14,0.39-0.2,0.56c-0.31,0.03-0.62,0.1-0.92,0.08c-0.17-0.01-0.44-0.14-0.46-0.25c-0.03-0.19,0.05-0.48,0.19-0.58
			c0.22-0.15,0.53-0.15,0.79-0.24c0.14-0.04,0.27-0.12,0.38-0.21c0.02-0.02-0.05-0.23-0.08-0.23c-0.16-0.01-0.32,0.01-0.47,0.05
			C52.04,13.95,51.9,14.04,51.67,14.15z M52.59,14.51c-0.35,0.03-0.68-0.07-0.8,0.3c-0.02,0.06,0.12,0.23,0.2,0.25
			C52.34,15.11,52.48,14.88,52.59,14.51z"/>
		<path class="st3" d="M53.49,11.05c0.15-0.53,0.29-1.05,0.44-1.56c0.02-0.07,0.16-0.17,0.19-0.15c0.32,0.2,0.62-0.03,0.92-0.02
			c0.4,0.01,0.51,0.16,0.41,0.56c-0.07,0.3-0.18,0.59-0.23,0.89c-0.06,0.3-0.21,0.4-0.53,0.3c0.09-0.34,0.19-0.68,0.26-1.03
			c0.02-0.11-0.03-0.34-0.08-0.35c-0.13-0.03-0.36-0.01-0.4,0.07c-0.19,0.32-0.36,0.66-0.45,1.01
			C53.93,11.09,53.8,11.16,53.49,11.05z"/>
		<path class="st3" d="M9.27,8.23c-0.41,0.32-0.84,0.6-1.21,0.95c-1.21,1.14-1.32,2.51-0.37,3.87c0.16,0.22,0.26,0.49,0.42,0.8
			c-0.98-0.63-1.57-1.88-1.35-2.91C7.04,9.55,8.06,8.8,9.27,8.23z"/>
		<path class="st3" d="M26.92,10.49c0.2,0.12,0.31,0.2,0.43,0.24c0.14,0.05,0.28,0.11,0.43,0.11c0.08,0,0.21-0.11,0.23-0.19
			c0.01-0.07-0.09-0.19-0.17-0.23c-0.12-0.07-0.27-0.08-0.4-0.13c-0.28-0.12-0.39-0.32-0.25-0.6c0.21-0.43,0.63-0.37,1-0.36
			c0.27,0.01,0.45,0.15,0.43,0.55c-0.17-0.07-0.31-0.13-0.45-0.17c-0.13-0.04-0.26-0.08-0.39-0.07c-0.07,0-0.15,0.11-0.18,0.19
			c-0.01,0.03,0.09,0.13,0.15,0.16c0.15,0.07,0.33,0.09,0.47,0.18c0.12,0.08,0.24,0.21,0.27,0.34c0.07,0.32-0.27,0.61-0.69,0.65
			C27.2,11.2,26.98,11.07,26.92,10.49z"/>
		<path class="st3" d="M51.34,14.17c-0.18-0.06-0.37-0.07-0.45-0.16c-0.24-0.28-0.46-0.2-0.63,0.01c-0.14,0.17-0.22,0.41-0.26,0.64
			c-0.02,0.11,0.09,0.3,0.19,0.36c0.08,0.05,0.25-0.04,0.37-0.1c0.16-0.07,0.31-0.17,0.54-0.31c-0.17,0.61-0.66,0.88-1.17,0.75
			c-0.37-0.1-0.49-0.42-0.35-0.94c0.16-0.61,0.56-0.9,1.2-0.88C51.15,13.54,51.32,13.72,51.34,14.17z"/>
		<path class="st3" d="M29.19,9.72c-0.07-0.08-0.15-0.16-0.22-0.24c0.07-0.05,0.16-0.08,0.22-0.14c0.07-0.07,0.17-0.15,0.19-0.23
			c0.05-0.28,0.2-0.34,0.48-0.25C29.84,9,29.83,9.14,29.81,9.3c0.09,0.02,0.18,0.05,0.3,0.08c-0.03,0.08-0.05,0.21-0.09,0.21
			c-0.65,0.07-0.41,0.66-0.58,1c-0.02,0.04,0.03,0.12,0.07,0.18c0.05,0.09,0.11,0.17,0.17,0.25c-0.15,0.04-0.3,0.13-0.44,0.11
			c-0.1-0.01-0.26-0.17-0.26-0.24C29.02,10.49,29.11,10.1,29.19,9.72z"/>
		<path class="st3" d="M25.49,11.11c0.15-0.55,0.27-1.05,0.43-1.54c0.03-0.1,0.18-0.17,0.29-0.22c0.03-0.01,0.12,0.1,0.22,0.18
			c0.15-0.06,0.36-0.16,0.57-0.25c0.04,0.05,0.07,0.1,0.11,0.15c-0.09,0.09-0.18,0.26-0.28,0.27c-0.43,0.04-0.59,0.33-0.69,0.68
			c-0.07,0.24-0.14,0.48-0.22,0.73C25.78,11.11,25.66,11.11,25.49,11.11z"/>
		<path class="st3" d="M53.22,15.3c0.18-0.56,0.35-1.09,0.54-1.61c0.03-0.07,0.16-0.14,0.25-0.14c0.07,0,0.13,0.11,0.19,0.18
			c0.17-0.08,0.38-0.17,0.63-0.28c0.02,0.33-0.05,0.46-0.35,0.51c-0.19,0.03-0.38,0.25-0.51,0.43c-0.13,0.19-0.19,0.43-0.24,0.66
			C53.67,15.32,53.53,15.4,53.22,15.3z"/>
		<path class="st3" d="M25.5,9.4c-0.14,0.51-0.27,1.02-0.44,1.52c-0.04,0.11-0.24,0.17-0.37,0.25c-0.03-0.03-0.07-0.06-0.1-0.09
			c0.15-0.53,0.28-1.07,0.46-1.59c0.03-0.1,0.24-0.14,0.37-0.2C25.44,9.33,25.47,9.37,25.5,9.4z"/>
		<path class="st3" d="M55.16,12.5c0-0.37,0-0.62,0-0.99c0.23,0.08,0.45,0.11,0.6,0.23c0.08,0.06,0.11,0.35,0.04,0.41
			C55.65,12.3,55.42,12.37,55.16,12.5z"/>
		<path class="st3" d="M49.91,12.4c-0.04-0.13-0.07-0.26-0.13-0.46c-0.1,0.17-0.18,0.3-0.26,0.44c-0.07-0.13-0.14-0.25-0.23-0.41
			c-0.07,0.18-0.11,0.31-0.16,0.44c-0.04-0.01-0.07-0.02-0.11-0.02c0.04-0.27,0.08-0.53,0.12-0.8c0.04-0.01,0.07-0.02,0.11-0.04
			c0.09,0.12,0.18,0.24,0.28,0.39c0.09-0.13,0.17-0.25,0.26-0.38c0.04,0,0.08,0,0.12,0c0.04,0.27,0.08,0.54,0.12,0.81
			C49.98,12.39,49.95,12.4,49.91,12.4z"/>
		<path class="st3" d="M52.07,12.38c0-0.29,0-0.57,0-0.77c0.15,0.08,0.32,0.15,0.46,0.26c0.08,0.07,0.16,0.21,0.15,0.3
			c-0.02,0.09-0.14,0.2-0.24,0.23C52.35,12.44,52.22,12.39,52.07,12.38z"/>
		<path class="st3" d="M51.14,11.97c-0.04,0.14-0.07,0.27-0.11,0.41c-0.03,0-0.06,0-0.09,0c-0.01-0.16-0.02-0.32-0.03-0.51
			c0.32,0,0.61,0,0.91,0c0,0.18,0,0.34,0,0.51c-0.02,0-0.05,0.01-0.07,0.01c-0.03-0.13-0.06-0.27-0.09-0.4
			c-0.03-0.01-0.07-0.02-0.1-0.02c-0.05,0.14-0.1,0.28-0.19,0.5c-0.06-0.21-0.1-0.35-0.14-0.49C51.21,11.98,51.18,11.98,51.14,11.97
			z"/>
		<path class="st3" d="M56.9,11.64c-0.11,0.12-0.23,0.25-0.34,0.37c0.12,0.1,0.23,0.2,0.47,0.41c-0.23-0.04-0.45-0.02-0.49-0.09
			c-0.08-0.16-0.14-0.4-0.08-0.55c0.05-0.12,0.29-0.16,0.44-0.24C56.9,11.56,56.9,11.6,56.9,11.64z"/>
		<path class="st3" d="M50.74,12.09c-0.13,0.03-0.25,0.07-0.38,0.1c0,0.02,0,0.04,0.01,0.06c0.1,0.01,0.2,0.03,0.31,0.04
			c-0.01,0.04-0.01,0.08-0.02,0.11c-0.15-0.04-0.33-0.03-0.42-0.12c-0.06-0.05-0.02-0.34,0.03-0.36c0.14-0.05,0.32-0.02,0.48-0.02
			C50.74,11.97,50.74,12.03,50.74,12.09z"/>
		<path class="st3" d="M53.31,12.42c-0.15-0.05-0.33-0.06-0.43-0.16c-0.06-0.05-0.02-0.32,0.05-0.35c0.13-0.06,0.3-0.02,0.45-0.02
			c0,0.05,0.01,0.1,0.01,0.15c-0.12,0.05-0.23,0.11-0.4,0.19c0.15,0.03,0.25,0.04,0.35,0.06C53.33,12.34,53.32,12.38,53.31,12.42z"
			/>
		<path class="st3" d="M54.56,11.59c0.05-0.01,0.12-0.02,0.19-0.02c0.05,0,0.11,0.01,0.24,0.03c-0.13,0.09-0.2,0.15-0.29,0.22
			c0.07,0.06,0.15,0.12,0.19,0.15c-0.1,0.15-0.2,0.29-0.33,0.47C54.56,12.13,54.56,11.87,54.56,11.59z"/>
		<path class="st3" d="M25.75,8.78C25.6,8.89,25.45,9,25.23,9.15C25.24,8.63,25.24,8.63,25.75,8.78z"/>
	</g>
</g>
<g>
	<circle class="st4" cx="102.45" cy="59.81" r="7.8"/>
	<circle class="st5" cx="92.71" cy="59.81" r="7.8"/>
	<ellipse class="st6" cx="97.58" cy="59.81" rx="2.93" ry="6.09"/>
</g>
</svg>
