<?xml version="1.0" encoding="utf-8"?>
<!-- Generator: Adobe Illustrator 24.0.0, SVG Export Plug-In . SVG Version: 6.00 Build 0)  -->
<svg version="1.1" id="Layer_1" xmlns="http://www.w3.org/2000/svg" xmlns:xlink="http://www.w3.org/1999/xlink" x="0px" y="0px"
	 viewBox="0 0 120 75" style="enable-background:new 0 0 120 75;" xml:space="preserve">
<style type="text/css">
	.st0{fill:url(#SVGID_1_);}
	.st1{fill:url(#SVGID_2_);}
	.st2{fill:#FFFFFF;}
	.st3{fill:#B2B2B2;}
	.st4{fill:none;}
</style>
<linearGradient id="SVGID_1_" gradientUnits="userSpaceOnUse" x1="60.05" y1="-0.21" x2="60.05" y2="74.8" gradientTransform="matrix(1 0 0 -1 0 75)">
	<stop  offset="0" style="stop-color:#030073"/>
	<stop  offset="0.5122" style="stop-color:#0071E9"/>
	<stop  offset="1" style="stop-color:#2C0163"/>
</linearGradient>
<path class="st0" d="M115.14,75.21H4.97c-2.72,0-4.92-2.2-4.92-4.92V5.12c0-2.72,2.2-4.92,4.92-4.92h110.16
	c2.72,0,4.92,2.2,4.92,4.92v65.16C120.06,73,117.85,75.21,115.14,75.21z"/>
<linearGradient id="SVGID_2_" gradientUnits="userSpaceOnUse" x1="13.06" y1="36.495" x2="29.0501" y2="36.495" gradientTransform="matrix(1 0 0 -1 0 75)">
	<stop  offset="0" style="stop-color:#575757"/>
	<stop  offset="0.5192" style="stop-color:#FFFFFF"/>
	<stop  offset="1" style="stop-color:#A8A8A8"/>
</linearGradient>
<path class="st1" d="M27.13,44.45H14.98c-1.06,0-1.92-0.86-1.92-1.92v-8.05c0-1.06,0.86-1.92,1.92-1.92h12.15
	c1.06,0,1.92,0.86,1.92,1.92v8.05C29.06,43.59,28.19,44.45,27.13,44.45z"/>
<g>
	<path class="st2" d="M57.7,11.57c-1.37,0-2.06,1.01-2.06,2.37c0,1.42,0.66,2.41,2.06,2.41c1.4,0,2.06-0.99,2.06-2.41
		C59.76,12.58,59.08,11.57,57.7,11.57 M57.7,15.43c-0.36,0-0.53-0.33-0.53-1.48c0-1.06,0.11-1.45,0.53-1.45
		c0.42,0,0.53,0.39,0.53,1.45C58.23,15.1,58.07,15.43,57.7,15.43 M60.71,11.18v0.51h-0.6v1.04h0.6v3.53h1.47v-3.53h0.8v-1.04h-0.8
		v-0.46c0-0.28,0.14-0.43,0.53-0.43c0.08,0,0.19,0.02,0.27,0.04V9.71c-0.24-0.03-0.46-0.06-0.75-0.06
		C61.26,9.66,60.71,10.07,60.71,11.18 M45,12.98c0-1.01-0.92-1.39-1.8-1.39c-0.84,0-1.66,0.36-1.82,1.26l1.28,0.26
		c0.02-0.27,0.13-0.6,0.48-0.6c0.25,0,0.38,0.18,0.38,0.45v0.39c-0.97,0.11-2.32,0.46-2.35,1.65c-0.02,0.84,0.54,1.34,1.27,1.34
		c0.43,0,0.87-0.24,1.12-0.51c0.01,0.08,0.02,0.29,0.05,0.42h1.52C45.08,16.2,45,16.04,45,15.52L45,12.98L45,12.98z M43.53,15.1
		c-0.13,0.16-0.31,0.28-0.47,0.28c-0.26,0-0.43-0.17-0.43-0.48c0-0.58,0.39-0.78,0.9-0.83L43.53,15.1z M48.61,11.59
		c-0.57,0-0.98,0.27-1.28,0.58h-0.02l-0.01-0.47h-1.44v4.57h1.47V13c0.13-0.17,0.31-0.28,0.48-0.28c0.25,0,0.34,0.14,0.34,0.4v3.14
		h1.47v-3.61C49.63,12.02,49.26,11.59,48.61,11.59 M54.58,11.69h-1.47l-1.08,1.38h-0.02V9.78h-1.47v6.47h1.47v-1.63l0.31-0.36h0.02
		l0.72,1.99h1.53l-1.24-3.16L54.58,11.69z M39.61,12.89v-0.05c0.47-0.18,1.06-0.63,1.06-1.48c0-0.89-0.75-1.58-1.9-1.58H36.2v6.48
		h2.49c1.23,0,2.12-0.62,2.12-1.73C40.82,13.7,40.31,13.12,39.61,12.89 M37.79,10.93h0.57c0.37,0,0.79,0.1,0.79,0.72
		c0,0.38-0.23,0.7-0.83,0.7h-0.54V10.93z M38.39,15.06h-0.6v-1.62h0.6c0.53,0,0.83,0.32,0.83,0.8
		C39.22,14.9,38.75,15.06,38.39,15.06 M94.32,15.52v-2.55c0-1.01-0.92-1.39-1.8-1.39c-0.84,0-1.66,0.36-1.82,1.26l1.28,0.26
		c0.02-0.27,0.13-0.6,0.48-0.6c0.25,0,0.38,0.18,0.38,0.45v0.39c-0.97,0.11-2.32,0.46-2.35,1.65c-0.02,0.84,0.54,1.34,1.27,1.34
		c0.43,0,0.87-0.24,1.12-0.51c0.01,0.08,0.02,0.29,0.04,0.42h1.52C94.4,16.2,94.32,16.04,94.32,15.52 M92.85,15.1
		c-0.13,0.16-0.31,0.28-0.47,0.28c-0.26,0-0.43-0.17-0.43-0.48c0-0.58,0.39-0.78,0.9-0.83L92.85,15.1z M78.25,11.57
		c-1.36,0-2.03,1.09-2.03,2.38c0,1.26,0.64,2.4,2.05,2.4c0.82,0.02,1.55-0.48,1.83-1.25l-0.99-0.36c-0.07,0.37-0.37,0.63-0.73,0.63
		c-0.59,0-0.7-0.67-0.68-1.08h2.47v-0.31C80.16,12.79,79.67,11.57,78.25,11.57 M78.8,13.42h-1.1c-0.02-0.43,0.13-0.92,0.55-0.92
		C78.75,12.5,78.81,13,78.8,13.42 M84.14,11.69h1.47v4.57h-1.47V11.69z M84.14,9.78h1.47v1.31h-1.47V9.78z M88.38,12.5
		c0.24,0,0.35,0.13,0.43,0.31c0.06,0.17,0.07,0.39,0.07,0.57h1.26c0-0.45-0.24-1.81-1.8-1.81c-1.39,0-2.08,1.25-2.08,2.49
		c0,1.13,0.69,2.29,2.02,2.29c1.07,0,1.71-0.58,1.82-1.69l-1.15-0.16c0,0.35-0.05,0.87-0.56,0.87c-0.38,0-0.54-0.34-0.54-1.36
		C87.83,13.1,87.89,12.5,88.38,12.5 M65.54,9.78l-1.52,6.48h1.42l0.28-1.31h1.5l0.25,1.31h1.59l-1.38-6.48H65.54L65.54,9.78z
		 M65.95,13.8l0.55-2.64h0.03L67,13.8H65.95z M82.24,12.31h-0.02l-0.01-0.62h-1.43v4.57h1.48V13.3c0.17-0.21,0.43-0.35,0.81-0.35
		c0.25,0,0.43,0.06,0.6,0.13v-1.49C83.09,11.59,82.54,11.83,82.24,12.31 M74.56,11.59c-0.62,0-1.06,0.33-1.31,0.61h-0.02
		c-0.14-0.35-0.44-0.61-0.89-0.61c-0.55,0-1.01,0.28-1.32,0.57H71l-0.01-0.46h-1.44v4.57H71V13c0.12-0.17,0.35-0.28,0.5-0.28
		c0.27,0,0.35,0.16,0.35,0.41v3.13h1.45V13c0.1-0.13,0.31-0.28,0.5-0.28c0.27,0,0.34,0.16,0.34,0.41v3.13h1.45v-3.64
		C75.58,11.99,75.17,11.59,74.56,11.59 M103.38,8.76c0.58,0.23,1.16,0.48,1.73,0.74c-1.81,0.74-3.57,1.61-5.24,2.61
		c-0.57-0.3-1.14-0.58-1.72-0.84C99.82,10.3,101.57,9.46,103.38,8.76 M101.21,8c-1.88,0.6-3.7,1.37-5.42,2.33
		c0.55,0.2,1.09,0.41,1.63,0.64c1.67-0.98,3.43-1.81,5.26-2.46C102.2,8.32,101.71,8.15,101.21,8"/>
	<path class="st2" d="M107.31,8.69c-1.48-0.72-3.02-1.32-4.6-1.8c-0.56,0.16-1.11,0.33-1.65,0.53c1.62,0.48,3.21,1.09,4.74,1.82
		C106.3,9.04,106.8,8.86,107.31,8.69 M109.73,7.97c-1.52-0.66-3.09-1.22-4.69-1.66c-0.51,0.11-1.02,0.22-1.52,0.35
		c1.59,0.46,3.13,1.05,4.63,1.75C108.68,8.25,109.2,8.1,109.73,7.97 M113.61,9.27c-3.77,1.27-7.34,3.09-10.59,5.39
		c0.81,0.5,1.59,1.02,2.36,1.57c3.06-2.43,6.44-4.43,10.04-5.94C114.83,9.93,114.23,9.59,113.61,9.27 M111,8.03
		c-3.92,1.04-7.64,2.71-11.02,4.96c0.75,0.37,1.5,0.77,2.22,1.19c3.31-2.29,6.96-4.05,10.82-5.21C112.35,8.63,111.68,8.32,111,8.03
		 M106.62,15.83c0-0.23,0.19-0.41,0.43-0.41c0.24,0,0.43,0.19,0.43,0.41c0,0.23-0.19,0.42-0.43,0.42
		C106.81,16.25,106.62,16.06,106.62,15.83 M106.7,15.83c0,0.19,0.15,0.34,0.35,0.34c0.19,0,0.34-0.15,0.34-0.34
		c0-0.18-0.15-0.33-0.34-0.33C106.86,15.5,106.7,15.65,106.7,15.83"/>
	<path class="st2" d="M107.26,16.06h-0.08l-0.14-0.21h-0.08v0.21h-0.07V15.6h0.21c0.04,0,0.08,0.01,0.12,0.02
		c0.03,0.02,0.05,0.06,0.05,0.1c0,0.09-0.07,0.12-0.15,0.13L107.26,16.06z M107.04,15.79c0.07,0,0.16,0.01,0.16-0.07
		c0-0.06-0.05-0.07-0.11-0.07h-0.12v0.14L107.04,15.79L107.04,15.79z"/>
</g>
<g>
	<g>
		<path class="st2" d="M102.1,68.54h-1.74l1.08-6.67h1.74L102.1,68.54z M98.9,61.88l-1.65,4.59l-0.2-0.99l0,0l-0.58-3
			c0,0-0.07-0.6-0.82-0.6h-2.74l-0.03,0.11c0,0,0.84,0.17,1.82,0.76l1.51,5.79h1.81l2.76-6.67L98.9,61.88L98.9,61.88z M112.55,68.54
			h1.59l-1.39-6.67h-1.4c-0.64,0-0.8,0.5-0.8,0.5l-2.59,6.17h1.81l0.36-0.99h2.21L112.55,68.54L112.55,68.54z M110.64,66.19
			l0.91-2.49l0.51,2.49H110.64z M108.11,63.48l0.25-1.43c0,0-0.76-0.29-1.56-0.29c-0.86,0-2.91,0.38-2.91,2.21
			c0,1.72,2.4,1.74,2.4,2.65c0,0.9-2.15,0.74-2.86,0.17l-0.26,1.5c0,0,0.78,0.38,1.96,0.38s2.97-0.61,2.97-2.28
			c0-1.73-2.42-1.89-2.42-2.65C105.68,62.97,107.37,63.07,108.11,63.48L108.11,63.48z"/>
	</g>
	<path class="st3" d="M97.05,65.47l-0.58-3c0,0-0.07-0.6-0.82-0.6h-2.74l-0.03,0.11c0,0,1.31,0.27,2.58,1.29
		C96.66,64.26,97.05,65.47,97.05,65.47z"/>
	<path class="st4" d="M90.88,52.57h25.28v25.28H90.88V52.57z"/>
</g>
</svg>
