<?xml version="1.0" encoding="utf-8"?>
<!-- Generator: Adobe Illustrator 24.0.0, SVG Export Plug-In . SVG Version: 6.00 Build 0)  -->
<svg version="1.1" id="Layer_1" xmlns="http://www.w3.org/2000/svg" xmlns:xlink="http://www.w3.org/1999/xlink" x="0px" y="0px"
	 viewBox="0 0 120 75" style="enable-background:new 0 0 120 75;" xml:space="preserve">
<style type="text/css">
	.st0{fill:url(#SVGID_1_);}
	.st1{fill:url(#SVGID_2_);}
	.st2{fill:#FFFFFF;}
	.st3{fill:#B2B2B2;}
	.st4{fill:none;}
	.st5{opacity:0.3;clip-path:url(#SVGID_4_);fill:#FFFFFF;}
</style>
<linearGradient id="SVGID_1_" gradientUnits="userSpaceOnUse" x1="60.05" y1="0.2" x2="60.05" y2="75.21">
	<stop  offset="0" style="stop-color:#110000"/>
	<stop  offset="0.2389" style="stop-color:#5D1718"/>
	<stop  offset="0.5303" style="stop-color:#87373A"/>
	<stop  offset="1" style="stop-color:#451B1C"/>
</linearGradient>
<path class="st0" d="M115.14,75.21H4.97c-2.72,0-4.92-2.2-4.92-4.92V5.12c0-2.72,2.2-4.92,4.92-4.92h110.16
	c2.72,0,4.92,2.2,4.92,4.92v65.16C120.06,73,117.85,75.21,115.14,75.21z"/>
<linearGradient id="SVGID_2_" gradientUnits="userSpaceOnUse" x1="13.06" y1="38.505" x2="29.0501" y2="38.505">
	<stop  offset="0" style="stop-color:#575757"/>
	<stop  offset="0.5192" style="stop-color:#FFFFFF"/>
	<stop  offset="1" style="stop-color:#A8A8A8"/>
</linearGradient>
<path class="st1" d="M27.13,44.45H14.98c-1.06,0-1.92-0.86-1.92-1.92v-8.05c0-1.06,0.86-1.92,1.92-1.92h12.15
	c1.06,0,1.92,0.86,1.92,1.92v8.05C29.06,43.59,28.19,44.45,27.13,44.45z"/>
<g>
	<g>
		<path class="st2" d="M100.93,67.99h-1.74l1.08-6.67h1.74L100.93,67.99z M97.73,61.33l-1.65,4.59l-0.2-0.99l0,0l-0.58-3
			c0,0-0.07-0.6-0.82-0.6h-2.74l-0.03,0.11c0,0,0.84,0.17,1.82,0.76l1.51,5.79h1.81l2.76-6.67L97.73,61.33L97.73,61.33z
			 M111.38,67.99h1.59l-1.39-6.67h-1.4c-0.64,0-0.8,0.5-0.8,0.5l-2.59,6.17h1.81l0.36-0.99h2.21L111.38,67.99L111.38,67.99z
			 M109.47,65.64l0.91-2.49l0.51,2.49H109.47z M106.94,62.93l0.25-1.43c0,0-0.76-0.29-1.56-0.29c-0.86,0-2.91,0.38-2.91,2.21
			c0,1.72,2.4,1.74,2.4,2.65c0,0.9-2.15,0.74-2.86,0.17l-0.26,1.5c0,0,0.78,0.38,1.96,0.38s2.97-0.61,2.97-2.28
			c0-1.73-2.42-1.89-2.42-2.65C104.51,62.42,106.2,62.52,106.94,62.93L106.94,62.93z"/>
	</g>
	<path class="st3" d="M95.88,64.92l-0.58-3c0,0-0.07-0.6-0.82-0.6h-2.74l-0.03,0.11c0,0,1.31,0.27,2.58,1.29
		C95.49,63.71,95.88,64.92,95.88,64.92z"/>
	<path class="st4" d="M89.71,52.02h25.28V77.3H89.71V52.02z"/>
</g>
<g>
	<path class="st2" d="M18.24,14.45c0-2.93-2.38-5.31-5.31-5.31c-2.93,0-5.31,2.38-5.31,5.31c0,2.93,2.38,5.31,5.31,5.31
		c0.3,0,0.6-0.02,0.89-0.07v-8.1h-1.22c-0.41,1.1-1.46,1.09-1.46,1.09v1.12h0.95v4.28c-1.65-0.38-2.88-1.86-2.88-3.63
		c0-2.05,1.66-3.72,3.72-3.72c2.05,0,3.72,1.66,3.72,3.72c0,1.55-0.94,2.87-2.29,3.43v1.68C16.6,18.94,18.24,16.89,18.24,14.45
		 M21.78,16.81v-4.72h2.39v0.63h-1.7v1.42h1.7v0.63h-1.7v2.04H21.78z M25.34,12.87h-0.66v-0.78h0.66V12.87z M25.34,16.81h-0.66
		v-3.53h0.66V16.81z M26.08,16.81v-3.53h0.62v0.32h0.01c0.28-0.4,0.73-0.41,0.9-0.42v0.68c-0.1,0-0.32,0.04-0.48,0.13
		c-0.21,0.11-0.39,0.38-0.39,0.89v1.93H26.08z M29.4,14.22c-0.04-0.29-0.21-0.43-0.45-0.43c-0.24,0-0.41,0.15-0.41,0.38
		c0,0.29,0.25,0.37,0.55,0.46c0.27,0.08,1.07,0.31,1.07,1.15c0,0.63-0.43,1.13-1.19,1.13c-0.45,0-1.25-0.28-1.25-1.25h0.66
		c0.02,0.4,0.23,0.64,0.6,0.64c0.3,0,0.51-0.18,0.51-0.48c0-0.31-0.27-0.42-0.62-0.54c-0.38-0.14-0.99-0.31-0.99-1.06
		c0-0.52,0.44-1.02,1.11-1.02c0.4,0,1.06,0.25,1.08,1.03L29.4,14.22L29.4,14.22z M31.52,16.81h-0.66v-2.93h-0.48v-0.61h0.48v-1.19
		h0.66v1.19h0.58v0.61h-0.58V16.81z M36.97,16.81l-2.33-3.65h-0.01v3.65h-0.69v-4.72h0.75l2.3,3.59h0.01v-3.59h0.69v4.72H36.97z
		 M41.87,16.81v-3.53h-0.66v0.5h-0.01c-0.26-0.39-0.71-0.59-1.2-0.59c-1.27,0-1.88,1.01-1.88,1.88c0,0.93,0.68,1.84,1.88,1.84
		c0.48,0,0.94-0.2,1.2-0.64h0.01v0.55L41.87,16.81L41.87,16.81z M41.22,15.05c0,0.68-0.54,1.24-1.23,1.24
		c-0.7,0-1.21-0.61-1.21-1.24c0-0.55,0.4-1.26,1.21-1.26C40.68,13.79,41.22,14.3,41.22,15.05 M43.52,16.81h-0.66v-2.93h-0.48v-0.61
		h0.48v-1.19h0.66v1.19h0.58v0.61h-0.58V16.81z M45.17,12.87H44.5v-0.78h0.66V12.87z M45.17,16.81H44.5v-3.53h0.66V16.81z
		 M49.42,15.03c0-1.01-0.84-1.85-1.91-1.85c-1.1,0-1.91,0.87-1.91,1.84c0,0.89,0.72,1.88,1.91,1.88
		C48.71,16.9,49.42,15.89,49.42,15.03 M48.75,15.03c0,0.67-0.53,1.26-1.24,1.26c-0.74,0-1.24-0.62-1.24-1.26
		c0-0.63,0.5-1.25,1.24-1.25C48.26,13.79,48.75,14.41,48.75,15.03 M52.33,16.81v-1.92c0-0.27,0-1.1-0.88-1.1
		c-0.55,0-0.93,0.39-0.93,1.1v1.93h-0.66v-3.53h0.62v0.38h0.01c0.36-0.47,0.89-0.47,1.03-0.47c0.55,0,1,0.24,1.25,0.63
		c0.14,0.23,0.22,0.51,0.22,0.91v2.09H52.33z M57.18,16.81v-3.53h-0.66v0.5H56.5c-0.26-0.39-0.71-0.59-1.2-0.59
		c-1.27,0-1.88,1.01-1.88,1.88c0,0.93,0.68,1.84,1.88,1.84c0.48,0,0.94-0.2,1.2-0.64h0.01v0.55L57.18,16.81L57.18,16.81z
		 M56.53,15.05c0,0.68-0.54,1.24-1.23,1.24c-0.7,0-1.21-0.61-1.21-1.24c0-0.55,0.4-1.26,1.21-1.26
		C55.99,13.79,56.53,14.3,56.53,15.05 M57.81,12.09h0.66v4.72h-0.66V12.09z M61.21,12.72h0.52c0.15,0,0.8,0,0.8,0.67
		c0,0.27-0.12,0.66-0.76,0.66h-0.56L61.21,12.72L61.21,12.72z M60.53,16.81h1.41c1.3,0,1.57-0.89,1.57-1.37
		c0-0.73-0.5-1.03-0.7-1.15c0.16-0.14,0.42-0.37,0.42-0.89c0-0.33-0.14-1.31-1.47-1.31h-1.22V16.81z M61.21,14.69h0.66
		c0.24,0,0.56,0.01,0.77,0.29c0.1,0.13,0.17,0.29,0.17,0.47c0,0.24-0.16,0.74-0.86,0.74h-0.75V14.69z M67.55,16.81v-3.53h-0.66v0.5
		h-0.01c-0.25-0.39-0.71-0.59-1.2-0.59c-1.27,0-1.88,1.01-1.88,1.88c0,0.93,0.68,1.84,1.88,1.84c0.48,0,0.94-0.2,1.2-0.64h0.01v0.55
		L67.55,16.81L67.55,16.81z M66.9,15.05c0,0.68-0.54,1.24-1.23,1.24c-0.7,0-1.2-0.61-1.2-1.24c0-0.55,0.4-1.26,1.21-1.26
		C66.35,13.79,66.9,14.3,66.9,15.05 M70.74,16.81v-1.92c0-0.27,0-1.1-0.88-1.1c-0.56,0-0.93,0.39-0.93,1.1v1.93h-0.66v-3.53h0.62
		v0.38h0.01c0.36-0.47,0.89-0.47,1.03-0.47c0.55,0,1,0.24,1.25,0.63c0.14,0.23,0.22,0.51,0.22,0.91v2.09H70.74z M74.75,13.28
		l-1.28,1.67l1.49,1.87h-0.83l-1.42-1.83H72.7v1.83h-0.66v-4.72h0.66v2.89h0.01l1.26-1.7L74.75,13.28z"/>
</g>
<g>
	<defs>
		<path id="SVGID_3_" d="M115.02,75.21H4.85c-2.72,0-4.92-2.2-4.92-4.92V5.12c0-2.72,2.2-4.92,4.92-4.92h110.16
			c2.72,0,4.92,2.2,4.92,4.92v65.16C119.94,73,117.73,75.21,115.02,75.21z"/>
	</defs>
	<clipPath id="SVGID_4_">
		<use xlink:href="#SVGID_3_"  style="overflow:visible;"/>
	</clipPath>
	<path class="st5" d="M126.91,38.58c0-17.23-13.96-31.19-31.2-31.19c-17.23,0-31.19,13.96-31.19,31.19
		c0,17.23,13.96,31.2,31.19,31.2c1.78,0,3.53-0.14,5.24-0.43V21.77h-7.16c-2.42,6.44-8.58,6.39-8.58,6.39v6.56h5.56v25.16
		c-9.68-2.24-16.9-10.93-16.9-21.3c0-12.06,9.78-21.84,21.85-21.84c12.06,0,21.85,9.78,21.85,21.84c0,9.1-5.55,16.89-13.44,20.18
		v9.88C117.27,64.97,126.91,52.91,126.91,38.58"/>
</g>
</svg>
