<?xml version="1.0" encoding="utf-8"?>
<!-- Generator: Adobe Illustrator 24.0.0, SVG Export Plug-In . SVG Version: 6.00 Build 0)  -->
<svg version="1.1" id="Layer_1" xmlns="http://www.w3.org/2000/svg" xmlns:xlink="http://www.w3.org/1999/xlink" x="0px" y="0px"
	 viewBox="0 0 120 75" style="enable-background:new 0 0 120 75;" xml:space="preserve">
<style type="text/css">
	.st0{fill:url(#SVGID_1_);}
	.st1{fill:url(#SVGID_2_);}
	.st2{fill:url(#SVGID_3_);}
	.st3{fill:url(#SVGID_4_);}
	.st4{fill:url(#SVGID_5_);}
	.st5{fill:#FFFFFF;}
	.st6{fill:#CF4037;}
	.st7{clip-path:url(#SVGID_7_);}
	.st8{fill-rule:evenodd;clip-rule:evenodd;fill:#FFFFFF;}
	.st9{fill-rule:evenodd;clip-rule:evenodd;fill:url(#SVGID_8_);}
</style>
<radialGradient id="SVGID_1_" cx="60.05" cy="37.705" r="50.0331" gradientUnits="userSpaceOnUse">
	<stop  offset="0" style="stop-color:#0294CF"/>
	<stop  offset="0.6826" style="stop-color:#004F8A"/>
	<stop  offset="0.9305" style="stop-color:#003A74"/>
</radialGradient>
<path class="st0" d="M115.14,75.21H4.97c-2.72,0-4.92-2.2-4.92-4.92V5.12c0-2.72,2.2-4.92,4.92-4.92h110.16
	c2.72,0,4.92,2.2,4.92,4.92v65.16C120.06,73,117.85,75.21,115.14,75.21z"/>
<radialGradient id="SVGID_2_" cx="59.7628" cy="56.4922" r="44.5039" gradientUnits="userSpaceOnUse">
	<stop  offset="0" style="stop-color:#009C74"/>
	<stop  offset="0.4189" style="stop-color:#007F50"/>
	<stop  offset="1" style="stop-color:#006B33"/>
</radialGradient>
<path class="st1" d="M114.85,75.5H4.68c-2.72,0-4.92-2.2-4.92-4.92V37.49h120v33.08C119.77,73.29,117.56,75.5,114.85,75.5z"/>
<linearGradient id="SVGID_3_" gradientUnits="userSpaceOnUse" x1="0" y1="35.5287" x2="120.05" y2="35.5287">
	<stop  offset="0.116" style="stop-color:#005C97"/>
	<stop  offset="0.3043" style="stop-color:#0294CF"/>
	<stop  offset="0.6836" style="stop-color:#004F8A"/>
	<stop  offset="0.9305" style="stop-color:#003A74"/>
</linearGradient>
<rect y="33.35" class="st2" width="120.05" height="4.35"/>
<linearGradient id="SVGID_4_" gradientUnits="userSpaceOnUse" x1="0" y1="39.8413" x2="120.05" y2="39.8413">
	<stop  offset="0.0215" style="stop-color:#008557"/>
	<stop  offset="0.3301" style="stop-color:#009C74"/>
	<stop  offset="0.6395" style="stop-color:#007F50"/>
	<stop  offset="1" style="stop-color:#006B33"/>
</linearGradient>
<rect y="37.66" class="st3" width="120.05" height="4.35"/>
<linearGradient id="SVGID_5_" gradientUnits="userSpaceOnUse" x1="13.06" y1="38.505" x2="29.0501" y2="38.505">
	<stop  offset="0" style="stop-color:#575757"/>
	<stop  offset="0.5192" style="stop-color:#FFFFFF"/>
	<stop  offset="1" style="stop-color:#A8A8A8"/>
</linearGradient>
<path class="st4" d="M27.13,44.45H14.98c-1.06,0-1.92-0.86-1.92-1.92v-8.05c0-1.06,0.86-1.92,1.92-1.92h12.15
	c1.06,0,1.92,0.86,1.92,1.92v8.05C29.06,43.59,28.19,44.45,27.13,44.45z"/>
<g>
	<path class="st5" d="M18,10.75h-1.52v7.4H18V10.75z M19.37,10.75v1.38h1.31v4.17c0,0.58,0.11,1.05,0.44,1.42
		c0.33,0.33,0.73,0.51,1.23,0.54c0.54,0,0.98-0.11,1.34-0.36l0.36-1.31v-0.11l-0.07,0.04c-0.4,0.25-0.76,0.4-1.12,0.4
		c-0.47,0-0.69-0.29-0.69-0.83v-3.95h1.52v-1.38h-1.52V8.46l-1.49,0.76v1.52H19.37z M26.7,10.75h-1.52v7.4h1.52V10.75z M12.99,10.64
		c-1.09,0-2,0.29-2.72,0.98c-0.8,0.69-1.16,1.63-1.16,2.83c0,1.16,0.36,2.14,1.16,2.83c0.73,0.69,1.63,1.02,2.72,1.02
		c1.02,0,1.89-0.44,2.61-1.27v-0.04l-0.83-1.02l-0.04,0.04c-0.54,0.54-1.12,0.83-1.81,0.83c-0.65,0-1.2-0.22-1.63-0.69
		c-0.44-0.44-0.65-0.98-0.65-1.71c0-0.69,0.22-1.27,0.65-1.7c0.44-0.47,0.98-0.65,1.63-0.65c0.69,0,1.27,0.25,1.81,0.8l0.04,0.04
		l0.83-1.02v-0.04C14.88,11.04,14.01,10.64,12.99,10.64L12.99,10.64z"/>
	<path class="st6" d="M17.23,9.55c1.2-1.27,2.65-1.89,4.35-1.89c1.67,0,3.12,0.62,4.28,1.89h1.78l-0.04-0.11
		c-0.69-0.98-1.6-1.7-2.68-2.28c-1.05-0.58-2.18-0.83-3.34-0.83c-1.2,0-2.32,0.25-3.37,0.83c-1.09,0.58-1.96,1.31-2.65,2.28
		l-0.07,0.11H17.23z"/>
</g>
<g>
	<g>
		<defs>
			<rect id="SVGID_6_" x="99.32" y="55.56" width="16.67" height="16.74"/>
		</defs>
		<clipPath id="SVGID_7_">
			<use xlink:href="#SVGID_6_"  style="overflow:visible;"/>
		</clipPath>
		<g class="st7">
			<path class="st8" d="M97.88,54.2h19.53v19.53H97.88V54.2z"/>
			
				<linearGradient id="SVGID_8_" gradientUnits="userSpaceOnUse" x1="98.287" y1="11.036" x2="116.097" y2="11.036" gradientTransform="matrix(1 0 0 -1 0 75)">
				<stop  offset="0.0646" style="stop-color:#0B3974"/>
				<stop  offset="0.5627" style="stop-color:#0077A6"/>
				<stop  offset="1" style="stop-color:#266FB1"/>
			</linearGradient>
			<path class="st9" d="M98.74,72.21h-0.06c0-0.03-0.01-0.07-0.01-0.08s0-0.04-0.04-0.04h-0.08v0.13h-0.04v-0.29h0.13
				c0.06,0,0.1,0.01,0.1,0.07c0,0.04-0.01,0.06-0.03,0.07c0.01,0.01,0.03,0.03,0.03,0.06v0.06c0,0.01,0,0.01,0.01,0.01L98.74,72.21
				L98.74,72.21z M98.69,72c0-0.04-0.03-0.04-0.04-0.04h-0.1v0.08h0.08C98.66,72.04,98.69,72.02,98.69,72z M98.92,72.05
				c0-0.17-0.14-0.31-0.32-0.31c-0.17,0-0.31,0.14-0.31,0.31c0,0.18,0.14,0.32,0.31,0.32C98.78,72.37,98.92,72.23,98.92,72.05z
				 M98.88,72.05c0,0.15-0.13,0.27-0.28,0.27s-0.27-0.11-0.27-0.27c0-0.14,0.11-0.27,0.27-0.27S98.88,71.91,98.88,72.05z
				 M116.1,66.41c0,0.42-0.27,0.61-0.74,0.61h-0.91V66.6h0.91c0.08,0,0.15-0.01,0.18-0.04s0.06-0.07,0.06-0.13s-0.03-0.11-0.06-0.14
				s-0.08-0.04-0.17-0.04c-0.43-0.01-0.98,0.01-0.98-0.6c0-0.28,0.18-0.59,0.67-0.59H116v0.42h-0.87c-0.08,0-0.14,0-0.18,0.03
				c-0.04,0.04-0.07,0.08-0.07,0.15s0.04,0.11,0.1,0.14c0.06,0.01,0.11,0.03,0.18,0.03h0.25c0.27,0,0.43,0.06,0.55,0.15
				C116.04,66.08,116.1,66.21,116.1,66.41z M114.13,65.99c-0.11-0.1-0.28-0.15-0.55-0.15h-0.25c-0.07,0-0.13-0.01-0.18-0.03
				c-0.06-0.03-0.1-0.07-0.1-0.14s0.01-0.11,0.07-0.15c0.04-0.03,0.1-0.03,0.18-0.03h0.87v-0.42h-0.94c-0.5,0-0.67,0.31-0.67,0.59
				c0,0.61,0.55,0.59,0.98,0.6c0.08,0,0.14,0.01,0.17,0.04s0.06,0.08,0.06,0.14s-0.03,0.1-0.06,0.13c-0.04,0.03-0.1,0.04-0.18,0.04
				h-0.91v0.42h0.91c0.48,0,0.74-0.2,0.74-0.61C114.27,66.21,114.21,66.08,114.13,65.99L114.13,65.99z M112.34,66.62h-1.1v-0.39
				h1.08v-0.39h-1.08v-0.37h1.1v-0.41h-1.57v1.96h1.57V66.62L112.34,66.62z M110.27,65.16c-0.15-0.08-0.34-0.1-0.57-0.1h-1.08v1.96
				h0.48v-0.71h0.5c0.17,0,0.27,0.01,0.34,0.08c0.08,0.1,0.08,0.27,0.08,0.39v0.24h0.46v-0.38c0-0.18-0.01-0.27-0.07-0.36
				c-0.04-0.06-0.13-0.13-0.24-0.17c0.13-0.04,0.34-0.21,0.34-0.52C110.51,65.37,110.43,65.25,110.27,65.16z M107.62,65.06h-1.5
				l-0.6,0.64l-0.57-0.64h-1.89v1.96h1.86l0.6-0.64l0.57,0.64H107v-0.66h0.59c0.41,0,0.81-0.11,0.81-0.66
				C108.4,65.18,107.98,65.06,107.62,65.06L107.62,65.06z M109.89,65.87c-0.07,0.03-0.14,0.03-0.22,0.03l-0.57,0.01v-0.44h0.57
				c0.08,0,0.17,0,0.22,0.04c0.06,0.03,0.1,0.08,0.1,0.17C109.99,65.76,109.95,65.83,109.89,65.87z M107.62,65.97h-0.61v-0.5h0.61
				c0.17,0,0.28,0.07,0.28,0.24C107.9,65.87,107.78,65.97,107.62,65.97z M105.81,66.04l0.73-0.77v1.58L105.81,66.04z M104.68,66.62
				h-1.16v-0.39h1.03v-0.39h-1.03v-0.37h1.17l0.52,0.57L104.68,66.62L104.68,66.62z M114.8,63.65h-0.67l-0.88-1.47v1.47h-0.95
				l-0.18-0.43h-0.98l-0.18,0.43h-0.55c-0.22,0-0.52-0.06-0.68-0.22c-0.15-0.17-0.24-0.39-0.24-0.74c0-0.29,0.04-0.56,0.25-0.77
				c0.14-0.15,0.39-0.22,0.71-0.22h0.45v0.42h-0.45c-0.17,0-0.27,0.03-0.36,0.11c-0.08,0.08-0.13,0.24-0.13,0.45
				s0.04,0.36,0.13,0.46c0.07,0.07,0.2,0.1,0.32,0.1h0.21l0.67-1.54h0.7l0.78,1.84V61.7h0.73l0.82,1.36V61.7h0.48V63.65L114.8,63.65
				L114.8,63.65z M109.25,61.7h-0.48v1.96h0.48V61.7L109.25,61.7z M108.26,61.78c-0.15-0.08-0.32-0.08-0.56-0.08h-1.08v1.96h0.46
				v-0.71h0.5c0.17,0,0.28,0.01,0.35,0.08c0.08,0.1,0.07,0.27,0.07,0.38v0.25h0.48v-0.39c0-0.17-0.01-0.25-0.08-0.35
				c-0.04-0.06-0.13-0.13-0.22-0.17c0.13-0.06,0.34-0.21,0.34-0.52C108.51,62,108.41,61.88,108.26,61.78L108.26,61.78z
				 M106.29,63.25h-1.09v-0.39h1.08v-0.41h-1.08V62.1h1.09v-0.41h-1.57v1.96h1.57V63.25L106.29,63.25z M104.37,61.7h-0.77
				l-0.57,1.33l-0.61-1.33h-0.75v1.84l-0.8-1.84h-0.7l-0.84,1.96h0.5l0.18-0.43h0.98l0.18,0.43h0.95v-1.54l0.68,1.54h0.41l0.68-1.54
				v1.54h0.48L104.37,61.7L104.37,61.7L104.37,61.7z M111.95,62.8l-0.32-0.77l-0.32,0.77H111.95z M107.9,62.49
				c-0.07,0.04-0.14,0.04-0.24,0.04h-0.57V62.1h0.57c0.08,0,0.18,0,0.24,0.03c0.06,0.04,0.08,0.1,0.08,0.18
				S107.95,62.46,107.9,62.49z M100.18,62.8l0.32-0.77l0.32,0.77H100.18z M115.99,55.56H99.32v7.04l0.57-1.3h1.22l0.17,0.32V61.3
				h1.43l0.32,0.7l0.31-0.7h4.54c0.21,0,0.39,0.04,0.53,0.15V61.3h1.24v0.15c0.21-0.11,0.48-0.15,0.78-0.15h1.8l0.17,0.32V61.3h1.33
				l0.2,0.32V61.3h1.3v2.74h-1.31l-0.25-0.42v0.42h-1.64l-0.18-0.45h-0.41l-0.18,0.45h-0.85c-0.34,0-0.59-0.08-0.75-0.17v0.17h-2.03
				v-0.63c0-0.08-0.01-0.1-0.07-0.1h-0.07v0.73h-3.91v-0.35l-0.14,0.35h-0.82l-0.14-0.34v0.34h-1.58l-0.17-0.45h-0.42l-0.18,0.45
				h-0.81v8.26h16.67v-5.02c-0.18,0.08-0.43,0.13-0.68,0.13h-1.22v-0.17c-0.14,0.11-0.39,0.17-0.63,0.17h-3.83v-0.63
				c0-0.08-0.01-0.08-0.08-0.08h-0.07v0.71h-1.26v-0.74c-0.21,0.1-0.45,0.1-0.66,0.1h-0.14v0.64h-1.54l-0.36-0.42l-0.41,0.42h-2.47
				v-2.74h2.52l0.36,0.42l0.39-0.42h1.69c0.2,0,0.52,0.03,0.66,0.17v-0.17h1.51c0.15,0,0.45,0.03,0.64,0.17v-0.17h2.28v0.17
				c0.13-0.11,0.36-0.17,0.57-0.17h1.27v0.17c0.14-0.1,0.34-0.17,0.59-0.17h0.87V55.56L115.99,55.56z"/>
		</g>
	</g>
</g>
</svg>
