<?xml version="1.0" encoding="utf-8"?>
<!-- Generator: Adobe Illustrator 24.0.0, SVG Export Plug-In . SVG Version: 6.00 Build 0)  -->
<svg version="1.1" id="Layer_1" xmlns="http://www.w3.org/2000/svg" xmlns:xlink="http://www.w3.org/1999/xlink" x="0px" y="0px"
	 viewBox="0 0 277.01 71.83" style="enable-background:new 0 0 277.01 71.83;" xml:space="preserve">
<style type="text/css">
	.st0{fill:#FFFFFF;}
</style>
<g>
	<path class="st0" d="M26.47,62.95c-7.74,0-14.47-2-20.13-5.99c-0.5-0.42-0.75-0.83-0.75-1.33c0-0.42,0.25-0.92,0.67-1.5l3.58-4.24
		c0.42-0.5,0.92-0.75,1.41-0.83c0.33,0.08,0.83,0.25,1.41,0.66c4.49,2.91,9.23,4.33,14.31,4.33c3.99,0,6.91-1.5,6.91-4.83
		c0-1.58-0.83-2.83-2.41-3.74c-1.91-1.08-5.91-2.16-9.32-2.83c-1.75-0.33-3.58-0.83-5.49-1.58c-5.41-2.08-9.9-5.08-9.9-12.23v-0.16
		c0-4.58,1.67-8.24,4.99-10.82c3.41-2.58,7.74-3.91,12.98-3.91c6.82,0,12.65,1.58,17.55,4.74c0.42,0.33,0.58,0.75,0.66,1.33
		c0,0.25-0.08,0.5-0.25,0.75l-3.83,5.41c-0.58,0.75-1.33,0.92-2.25,0.33c-4.08-2.41-8.15-3.58-12.23-3.58c-2.16,0-3.83,0.5-4.91,1.5
		c-0.92,0.75-1.33,1.83-1.33,3.08c0.08,3.33,2.58,4.49,9.57,6.07c6.32,1.41,10.82,3.16,13.48,5.24c2.74,2.16,4.16,5.24,4.16,9.15
		c0,3.16-0.83,5.91-2.5,8.15C39.7,60.71,34.21,62.95,26.47,62.95z"/>
	<path class="st0" d="M97.76,61.62H66.73c-1,0-1.83-0.83-1.83-1.83V16.45c0-0.25,0.08-0.42,0.17-0.67c0.25-0.75,0.83-1.16,1.66-1.16
		h6.24c1,0,1.83,0.83,1.83,1.83v34.77c0,0.42,0.17,0.58,0.5,0.58h22.46c1,0,1.83,0.75,1.83,1.83v6.16
		C99.6,60.79,98.76,61.62,97.76,61.62z"/>
	<path class="st0" d="M220.14,16.45v6.32c0,1-0.92,1.83-1.83,1.83h-13.14c-0.33,0-0.5,0.17-0.5,0.5v34.86
		c0,0.92-0.75,1.91-1.91,1.91h-6.16c-1,0-1.83-0.83-1.83-1.91V25.1c0-0.33-0.16-0.5-0.5-0.5h-13.14c-1,0-1.83-0.83-1.83-1.83v-6.32
		c0-1,0.83-1.83,1.83-1.83h37.19C219.31,14.62,220.14,15.45,220.14,16.45z"/>
	<path class="st0" d="M272.72,24.77h-1.08h-20.96c-0.75,0-1.08,0.16-1.17,0.41v0.67v6.99c0,0.75,0.17,1.16,0.58,1.16h19.3
		c1,0,1.58,0.5,1.75,1.41c0.08,0.08,0.08,0.42,0.08,0.91v3.41c0,1.5-0.08,2.41-0.25,2.66c-0.33,0.58-1.08,0.92-2.16,0.92H251h-0.91
		c-0.75,0-0.58,1.58-0.58,2v5.66c0,0.75,0.17,1.08,0.58,1.08h22.38c1,0,1.83,0.83,1.83,1.83v5.66v0.83
		c-0.08,0.92-0.83,1.5-1.75,1.58h-31.2c-1,0-1.83-0.92-1.83-1.91V17.2c0-0.92,0.25-1.5,0.66-1.91c0.33-0.25,0.83-0.42,1.5-0.42h30.7
		c1,0,1.91,0.75,1.91,1.75v2.33v3.41v0.75C274.21,24.02,273.46,24.68,272.72,24.77z"/>
	<polygon class="st0" points="141.62,32.03 132.63,61.62 150.61,61.62 	"/>
	<path class="st0" d="M111.73,61.62h10.78l16.75-49.88c0.06-0.19-0.03-0.34-0.21-0.34h-0.32L111.73,61.62z"/>
	<path class="st0" d="M144.19,11.4c-0.18,0-0.27,0.15-0.21,0.34l16.75,49.88h10.78l-27-50.22C144.51,11.4,144.36,11.4,144.19,11.4z"
		/>
</g>
</svg>
