<?xml version="1.0" encoding="utf-8"?>
<!-- Generator: Adobe Illustrator 23.1.1, SVG Export Plug-In . SVG Version: 6.00 Build 0)  -->
<svg version="1.1" id="Layer_1" xmlns="http://www.w3.org/2000/svg" xmlns:xlink="http://www.w3.org/1999/xlink" x="0px" y="0px"
	 viewBox="0 0 639.7 195" style="enable-background:new 0 0 639.7 195;" xml:space="preserve">
<style type="text/css">
	.st0{fill:#FFFFFF;}
	.st1{fill:none;}
</style>
<g>
	<g>
		<path class="st0" d="M378,123c-0.2-2.6-0.3-8.2-0.3-16.7V94.6c0-4.5,0.1-7.5,0.3-8.9c0.1-0.6,0.4-0.9,1-1.1
			c0.2-0.1,1.4-0.2,3.4-0.2l0.3-0.3v-2l-0.3-0.2c-2,0.1-4.2,0.2-6.7,0.2c-1.9,0-4-0.1-6.1-0.2l-0.2,0.2v2l0.2,0.3
			c2,0.1,3.1,0.2,3.4,0.2c0.6,0.2,0.9,0.5,1,1.1c0.2,1.4,0.4,4.4,0.4,8.9v16.7c-9.3-10.5-17.4-20.3-24.2-29.5
			c-1.7,0.1-3.9,0.2-6.4,0.2c-1.6,0-3.4-0.1-5.2-0.2l-0.3,0.2v2l0.3,0.3c2,0.1,3.1,0.2,3.4,0.2c0.6,0.2,0.9,0.5,1,1.1
			c0.2,1.4,0.3,4.4,0.3,8.9v15.2c0,4.5-0.1,7.5-0.3,8.9c-0.1,0.6-0.4,0.9-1,1.1c-0.3,0.1-1.4,0.2-3.4,0.2l-0.3,0.3v2l0.3,0.2
			c2.2-0.1,4.5-0.2,6.6-0.2c1.9,0,4,0.1,6.1,0.2l0.2-0.2v-2l-0.2-0.3c-2-0.1-3.1-0.2-3.4-0.2c-0.6-0.2-0.9-0.5-1-1.1
			c-0.2-1.4-0.4-4.4-0.4-8.9V91c12.4,15.3,21.1,25.7,26.2,31.5c1.1,0.2,2.7,0.4,4.9,0.7L378,123z"/>
		<path class="st0" d="M276.2,122.3v-1.9l-0.2-0.3c-2-0.1-3.1-0.2-3.4-0.2c-0.6-0.2-0.9-0.5-1-1.1c-0.2-1.4-0.4-4.4-0.4-8.9V93.5
			c0-4.6,0-7.3,0.1-8h3.9c3.2,0,5,0,5.4,0.1c1,0.2,1.6,0.6,1.8,1.3c0.1,0.4,0.2,1.8,0.3,4.3l0.3,0.2h1.8l0.2-0.2l0.1-4.8
			c0-1.5,0.2-3,0.3-4.4l-0.2-0.2c-1.6,0.2-5.8,0.2-12.3,0.2h-11.6c-7.1,0-11.2-0.1-12.3-0.2l-0.2,0.2c0.2,1.5,0.3,2.9,0.3,4.3
			l0.1,4.9l0.3,0.2h1.8l0.3-0.2c0-1.1,0.1-2.1,0.2-3.1c0.1-0.9,0.2-1.6,0.4-1.8c0.1-0.2,0.3-0.3,0.7-0.4c0.6-0.2,2.6-0.3,6-0.3h4.1
			c0.1,0.6,0.1,3.2,0.1,8v16.2c0,4.5-0.2,7.5-0.4,8.9c-0.1,0.6-0.4,0.9-1,1.1c-0.2,0.1-1.4,0.2-3.4,0.2l-0.2,0.3v2l0.2,0.2
			c1.8-0.1,4.7-0.2,8.8-0.2c4,0,6.9,0.1,8.8,0.2L276.2,122.3z"/>
		<path class="st0" d="M311.7,81.2c-0.2,0-0.3,0-0.6,0c-4.5,0.1-8.2,0.9-11.2,2.4c-7,3.5-10.6,9.9-10.6,19c0,6.6,1.9,11.6,5.6,15.3
			c3.7,3.7,8.9,5.5,15.4,5.5c0.2,0,0.5,0,0.7,0c6.6-0.2,11.8-2.1,15.6-5.9c4.1-4,6.2-9.6,6.2-16.6c0-6.2-1.9-11.1-5.6-14.7
			C323.5,82.9,318.3,81.2,311.7,81.2z M322.5,112.3c-1.9,5.4-5.5,8.1-11,8.1c-0.2,0-0.3,0-0.5,0c-4.3-0.1-7.5-1.9-9.6-5.3
			c-2.1-3.5-3.3-8.1-3.3-14c0-3.2,0.5-6.2,1.4-8.8c1.9-5.1,5.6-7.7,11.3-7.7h0.2c4.2,0.1,7.4,1.6,9.6,4.9c2.2,3.2,3.3,7.7,3.3,13.2
			C324,106.2,323.5,109.4,322.5,112.3z"/>
		<path class="st0" d="M236.3,94c-1.2-0.5-2.5-0.8-3.9-1.1c-2.3-0.4-3.7-0.7-4.2-0.7c-4.8-0.7-7.8-1.6-9.2-2.4c-2-1.3-3-3.3-3-6
			c0-2.6,0.9-4.6,2.6-6.2c1.9-1.7,4.4-2.6,7.6-2.6c2.1,0,4.2,0.4,6.1,1.2c1.8,0.8,3.1,1.7,3.9,2.9c0.2,0.8,0.3,2.7,0.3,5.6l0.3,0.3
			h2.2l0.4-0.3c0.1-4,0.5-7.4,1-10.2l-0.2-0.8c-3.5-1.8-7.9-2.7-13.5-2.7c-6.2,0-11,1.6-14.5,4.6c-3.3,2.9-4.9,6.8-4.9,11.7
			c0,4.7,1.5,8.2,4.5,10.4c2,1.5,6.2,2.7,12.5,3.7c2.8,0.4,4.9,1,6.1,1.6c2.6,1.3,3.9,3.5,3.9,6.5c0,1.8-0.5,3.5-1.4,5.3
			c-1.8,3.3-5.1,4.9-9.8,4.9c-2.5,0-4.9-0.6-7.3-1.7c-2.2-1.1-3.8-2.4-4.6-4c-0.3-2.2-0.4-4-0.4-5.3V108l-0.3-0.3h-2.3l-0.3,0.3
			c0,5-0.3,9-1,11.7l0.4,0.8c4.8,2.3,9.7,3.5,14.8,3.5c4,0,7.5-0.6,10.4-1.8c3.2-1.3,5.8-3.2,7.7-5.9c2.2-3,3.4-6.5,3.4-10.4
			c0-3.1-0.7-5.5-2-7.6C240.5,96.3,238.7,94.9,236.3,94z"/>
		<path class="st0" d="M516.2,122.4c4,0,6.9,0.1,8.8,0.2l0.2-0.2v-1.9l-0.2-0.3c-2-0.1-3.1-0.2-3.4-0.2c-0.6-0.2-0.9-0.5-1-1.1
			c-0.2-1.4-0.4-4.4-0.4-8.9V94.6c0-4.5,0.2-7.5,0.4-8.9c0.1-0.6,0.4-0.9,1-1.1c0.3-0.1,1.4-0.2,3.4-0.2l0.2-0.3v-2l-0.2-0.2
			c-1.8,0.1-4.8,0.2-8.8,0.2s-7-0.1-8.8-0.2l-0.2,0.2v2l0.2,0.3c2,0.1,3.1,0.2,3.4,0.2c0.6,0.2,0.9,0.5,1,1.1
			c0.2,1.4,0.4,4.4,0.4,8.9v15.2c0,4.5-0.2,7.5-0.4,8.9c-0.1,0.6-0.4,0.9-1,1.1c-0.3,0.1-1.4,0.2-3.4,0.2l-0.2,0.3v1.9l0.2,0.2
			C509.3,122.4,512.3,122.4,516.2,122.4z"/>
		<path class="st0" d="M417.3,122.3c0-3.5,0.2-6.7,0.7-9.5l-0.3-0.2H416l-0.3,0.3l-0.7,3.5c-0.2,0.9-0.3,1.5-0.6,1.7
			c-0.1,0.2-0.2,0.2-0.5,0.3c-1.2,0.4-4.7,0.7-10.2,0.7h-3.9c-0.1-2.3-0.2-4.8-0.2-7.3v-8.7c1.2-0.1,2.5-0.2,3.9-0.2
			c1.3,0,2.6,0,3.7,0.2c1.6,0.2,2.5,0.4,2.8,0.8s0.5,1.7,0.5,3.9l0.2,0.2h1.9l0.3-0.2c-0.1-2.3-0.1-4.4-0.1-6.3c0-1.7,0-3.7,0.1-5.9
			l-0.3-0.3h-1.8l-0.3,0.3c-0.1,2.2-0.3,3.5-0.6,3.9c-0.2,0.2-1.2,0.4-3,0.4h-3.8c-0.9,0-2.1-0.1-3.6-0.2v-5.9
			c0-3.5,0.1-6.3,0.3-8.3c1.7-0.2,3.4-0.2,5-0.2c1.4,0,3,0.1,4.9,0.2c1.8,0.2,2.9,0.3,3.1,0.7c0.2,0.3,0.4,1.8,0.4,4.5l0.3,0.3h1.6
			l0.2-0.3l0.2-2.6c0.1-0.7,0.2-1.6,0.2-2.6l0.3-3.2l-0.3-0.2c-10.1,0.1-16.9,0.2-20.4,0.2c-4,0-7-0.1-9-0.2l-0.2,0.2v2l0.2,0.3
			c2,0.1,3.1,0.2,3.4,0.2c0.6,0.2,0.9,0.5,1,1.1c0.2,1.4,0.4,4.4,0.4,8.9v14.5l-0.1,6.4c0,2.1-0.2,3.5-0.3,3.8
			c-0.1,0.2-0.9,0.8-2.3,1.6l-0.2,0.3v0.8l0.2,0.2c1.4-0.1,3.9-0.2,7.3-0.2l20.9,0.2L417.3,122.3z"/>
		<path class="st0" d="M567.8,82c-1.9,0-4-0.1-6.1-0.2l-0.2,0.2v2l0.2,0.3c2,0.1,3,0.2,3.4,0.2c0.6,0.2,0.9,0.5,1,1.1
			c0.2,1.4,0.4,4.4,0.4,8.9v16.7c-9.3-10.5-17.4-20.3-24.2-29.5c-1.7,0.1-3.9,0.2-6.4,0.2c-1.6,0-3.4-0.1-5.2-0.2l-0.3,0.2v2
			l0.3,0.3c2,0.1,3,0.2,3.4,0.2c0.6,0.2,0.9,0.5,1,1.1c0.2,1.4,0.3,4.4,0.3,8.9v15.2c0,4.5-0.1,7.5-0.3,8.9c-0.1,0.6-0.4,0.9-1,1.1
			c-0.3,0.1-1.4,0.2-3.4,0.2l-0.3,0.3v2l0.3,0.2c2.2-0.1,4.5-0.2,6.6-0.2c1.9,0,4,0.1,6.1,0.2l0.2-0.2v-2l-0.2-0.3
			c-2-0.1-3.1-0.2-3.4-0.2c-0.6-0.2-0.9-0.5-1-1.1c-0.2-1.4-0.4-4.4-0.4-8.9V91c12.4,15.3,21.1,25.7,26.2,31.5
			c1.1,0.2,2.7,0.4,4.9,0.7l0.3-0.2c-0.2-2.6-0.3-8.2-0.3-16.7V94.6c0-4.5,0.2-7.5,0.3-8.9c0.1-0.6,0.4-0.9,1-1.1
			c0.2-0.1,1.4-0.2,3.4-0.2l0.3-0.3v-2l-0.3-0.2C572.5,82,570.3,82,567.8,82z"/>
		<path class="st0" d="M496,117.7c4.1-4,6.2-9.6,6.2-16.6c0-6.2-1.9-11.1-5.7-14.7c-3.7-3.5-8.9-5.3-15.6-5.3c-0.2,0-0.3,0-0.6,0
			c-4.5,0.1-8.2,0.9-11.2,2.4c-7,3.5-10.6,9.9-10.6,19c0,6.6,1.9,11.6,5.6,15.3c3.7,3.7,8.9,5.5,15.4,5.5c0.2,0,0.5,0,0.7,0
			C486.9,123.4,492.1,121.5,496,117.7z M470.7,115c-2.1-3.5-3.3-8.1-3.3-14c0-3.2,0.5-6.2,1.4-8.8c1.9-5.1,5.6-7.7,11.3-7.7h0.2
			c4.2,0.1,7.4,1.6,9.6,4.9c2.2,3.2,3.3,7.7,3.3,13.2c0,3.5-0.5,6.8-1.5,9.6c-1.9,5.4-5.5,8.1-11,8.1c-0.2,0-0.3,0-0.5,0
			C476.1,120.2,472.9,118.4,470.7,115z"/>
		<path class="st0" d="M614.3,81.7c-1.6,0.2-5.8,0.2-12.3,0.2h-11.6c-7.1,0-11.2-0.1-12.3-0.2l-0.2,0.2c0.2,1.5,0.3,2.9,0.3,4.3
			l0.1,4.9l0.3,0.2h1.8l0.3-0.2c0-1.1,0.1-2.1,0.2-3.1c0.1-0.9,0.2-1.6,0.4-1.8c0.1-0.2,0.3-0.3,0.7-0.4c0.6-0.2,2.6-0.3,5.9-0.3
			h4.1c0.1,0.6,0.1,3.2,0.1,8v16.2c0,4.5-0.2,7.5-0.4,8.9c-0.1,0.6-0.4,0.9-1,1.1c-0.2,0.1-1.4,0.2-3.4,0.2l-0.2,0.3v2l0.2,0.2
			c1.8-0.1,4.7-0.2,8.8-0.2c4,0,6.9,0.1,8.8,0.2l0.2-0.2v-1.9l-0.2-0.3c-2-0.1-3.1-0.2-3.4-0.2c-0.6-0.2-0.9-0.5-1-1.1
			c-0.2-1.4-0.4-4.4-0.4-8.9V93.5c0-4.6,0-7.3,0.1-8h3.9c3.2,0,5,0,5.4,0.1c1,0.2,1.6,0.6,1.8,1.3c0.1,0.4,0.2,1.8,0.3,4.3l0.3,0.2
			h1.8l0.2-0.2l0.1-4.8c0-1.5,0.2-3,0.3-4.4L614.3,81.7z"/>
		<path class="st0" d="M439.7,100.7c-0.7,0-1.4-0.1-2.2-0.4l-0.6,0.7c0.5,0.9,0.8,1.6,1,2.1c1.2,0.2,2.3,0.4,3.5,0.4
			c3.4,0,6.4-1.1,9.1-3.3s4-5.3,4-9.2c0-2-0.4-3.6-1.2-5c-1.6-2.6-4.9-4-10.2-4c-0.4,0-2.2,0-5.2,0.1c-3,0.1-5.3,0.1-6.9,0.1
			c-3.9,0-6.8-0.1-8.7-0.2l-0.3,0.2V84l0.2,0.3c2,0.1,3.1,0.2,3.4,0.2c0.6,0.2,0.9,0.5,1,1.1c0.2,1.4,0.4,4.4,0.4,8.9v15.2
			c0,4.5-0.1,7.5-0.4,8.9c-0.1,0.6-0.4,0.9-1,1.1c-0.3,0.1-1.4,0.2-3.3,0.2l-0.3,0.3v1.9l0.2,0.2c1.8-0.1,4.7-0.2,8.8-0.2
			c3.6,0,6.8,0.1,9.4,0.2l0.3-0.2v-1.9l-0.3-0.3c-2.5-0.2-3.8-0.2-4-0.2c-0.6-0.2-0.9-0.5-1-1.1c-0.2-1.4-0.4-4.4-0.4-8.9V94.5
			c0-5.8,0.1-8.9,0.2-9.4c1.7-0.2,2.9-0.3,3.5-0.3c4.8,0,7.2,2.6,7.2,8c0,2.5-0.6,4.4-1.7,5.8C443.2,100,441.6,100.7,439.7,100.7z"
			/>
	</g>
	<g>
		<line class="st1" x1="169.7" y1="93.5" x2="171.1" y2="95.3"/>
		<path class="st0" d="M194.5,162.5l-8.2-35.9L171.1,115l-11.9-47.2l-15.1,11l-0.3-0.4l2.5,24.1h-3.4c-1.6-5.9-3.1-9.4-5.5-12.5
			c-4.7-6-11.4-10.5-19.4-10.5c-8.3,0-13.5,5.4-13.5,12.7c0,9.1,9.9,14.7,23.9,22.8c14.2,8.3,20.7,16.1,20.7,26.2
			c0,9.3-4.5,16.7-11.8,21l38.2-0.1l-16.7-45.2l0.9,34.9l-5.5-50.1l25.1,40.7l5.4,8.5l-24.8-34.5l18.6,45.7h13.2l-8.8-34.7
			l10.9,34.7L194.5,162.5z"/>
		<path class="st0" d="M97.8,162.5h5.7c-1.5-0.4-2.8-0.6-3.7-0.6C99.1,161.9,98.4,162,97.8,162.5z"/>
		<path class="st0" d="M92.2,137.8c6.2,16.2,14.8,23.7,27.5,23.7c9.4,0,15.9-6.2,15.9-15c0-4.7-1.3-7.7-3.9-10.6
			c-4.7-5.1-13.9-11-22.5-15.5c-12-6.4-16.3-14.7-16.3-23C92.9,82.8,103,74,116.1,74c5.5,0,9,0.8,14,3c2.4,1.1,4.5,1.6,5.9,1.6
			c2.3,0,3.7-1.6,4.3-4.5h0.2l-14.2-20.6l21.4,20.8l-35.2-41.8L83.8,77.2l13.5-4.4l-16,8.7l-29.1,20.9l38.5-19.5l-22.3,35
			l-16.6,24.9l31.6-53.3l-36.1,16.9l-9.8,35.3l11.7-26l-12.4,33l-3.2-6.5l-8.2,20l29.3,0.2l11-13.9l-7.6,13.9h34.4l-3.4-24.6
			L92.2,137.8L92.2,137.8z"/>
	</g>
</g>
</svg>
