<?xml version="1.0" encoding="utf-8"?>
<!-- Generator: Adobe Illustrator 23.1.1, SVG Export Plug-In . SVG Version: 6.00 Build 0)  -->
<svg version="1.1" id="Layer_1" xmlns="http://www.w3.org/2000/svg" xmlns:xlink="http://www.w3.org/1999/xlink" x="0px" y="0px"
	 viewBox="0 0 277.01 71.83" style="enable-background:new 0 0 277.01 71.83;" xml:space="preserve">
<style type="text/css">
	.st0{fill:#FFFFFF;}
</style>
<g>
	<path class="st0" d="M62.84,48.93v18.44h-7.78V48.93h-7.57v-7.07h22.92v7.07H62.84z"/>
	<path class="st0" d="M72.72,67.38V41.86h7.82v25.51H72.72z"/>
	<path class="st0" d="M107.6,55.42v-1.25l-5.27,13.22h-4.52l-5.19-13.22v1.05l-0.29,12.17h-7.74l1.05-25.51h8.66l5.1,12.3
		c0.33,0.75,0.54,1.55,0.67,2.01c0.13-0.46,0.33-1.25,0.63-2.01l5.14-12.3h8.7l1.05,25.51h-7.82L107.6,55.42z"/>
	<path class="st0" d="M130.64,41.86c6.4,0,10,2.63,10,7.32c0,2.47-1.38,4.06-3.6,4.94c3.51,0.92,5.23,2.93,5.23,6.32
		c0,4.43-4.06,6.94-11.33,6.94H119.6V41.86H130.64z M131.14,51.86c1.34,0,2.09-0.71,2.09-1.97c0-1.25-0.92-1.92-2.59-1.92h-3.22
		v3.89H131.14z M131.02,61.19c2.05,0,3.18-0.79,3.18-2.26c0-1.34-1.09-2.09-3.05-2.09h-3.72v4.35H131.02z"/>
	<path class="st0" d="M144.86,67.38V41.86h19.36v6.52H152.6v3.26h9.87v6.11h-9.87v3.05h11.96v6.57H144.86z"/>
	<path class="st0" d="M178.41,41.86c7.36,0,11.5,3.47,11.5,9.66c0,3.81-1.51,6.48-4.18,8.03l5.06,6.94v0.88h-8.32l-4.68-6.4h-2.51
		v6.4h-7.82V41.86H178.41z M178.91,54.75c2.13,0,3.3-1.17,3.3-3.22c0-2.01-1.34-3.14-3.72-3.14h-3.22v6.36H178.91z"/>
	<path class="st0" d="M192.96,67.38V41.86h7.82v18.4h10.96v7.11H192.96z"/>
	<path class="st0" d="M214.71,67.38V41.86h7.82v25.51H214.71z"/>
	<path class="st0" d="M244.03,67.38l-9.58-12.92v12.92h-7.82V41.86h7.07l9.58,12.92V41.86h7.82v25.51H244.03z"/>
	<path class="st0" d="M255.2,67.38V41.86h19.36v6.52h-11.63v3.26h9.87v6.11h-9.87v3.05h11.96v6.57H255.2z"/>
</g>
<path class="st0" d="M13.05,28.81c1.03,1.19,1.9,2.19,2.9,3.36c3.04-2.09,5.98-3.95,8.74-6.05c2.1-1.6,4.01-2.73,6.14,0
	c8.19-7.89,16.2-15.61,24.08-23.2c5.16,6.54,10.38,10.21,15.75,14.73c-0.24,0.03-0.02,0.06,0.12-0.02c4.02-2.45,4.01-2.44,7.8,0.44
	c3.08,2.34,6.17,4.67,9.45,7.16c1.99-2.8,3.89-5.47,5.89-8.28c9.36,7.37,3.84,4.05,14.16,10.14c-0.16,0.27-0.58,0.3-0.74,0.57
	c-2.23-1.33-6.66-2.66-13.31-9c-2.04,2.88-3.97,5.6-6.03,8.5c-3.83-2.91-7.58-5.65-11.2-8.55c-1.58-1.27-2.92-1.78-4.48-0.16
	c-1.5,1.56-2.59,1.05-4.07-0.34c-4.51-4.26-9.22-8.31-14.09-12.65c-7.09,6.82-15.16,14.59-23.4,22.53
	c-2.21-2.79-4.12-1.57-6.21,0.03c-2.76,2.1-5.69,3.98-8.84,6.15c-0.93-1.23-1.74-2.31-2.64-3.5c-3.32,3.6-6.36,6.9-9.4,10.2
	c-0.28-0.26-0.56-0.51-0.84-0.77C6.19,36.4,9.52,32.71,13.05,28.81z"/>
</svg>
