<?xml version="1.0" encoding="utf-8"?>
<!-- Generator: Adobe Illustrator 23.1.1, SVG Export Plug-In . SVG Version: 6.00 Build 0)  -->
<svg version="1.1" id="Layer_1" xmlns="http://www.w3.org/2000/svg" xmlns:xlink="http://www.w3.org/1999/xlink" x="0px" y="0px"
	 viewBox="0 0 588 168.8" style="enable-background:new 0 0 588 168.8;" xml:space="preserve">
<style type="text/css">
	.st0{fill:#FFFFFF;}
</style>
<g>
	<g>
		<path class="st0" d="M216.6,74.9l-8.1,29.8h-8.1L189.5,64h8.7l7.1,27.7l7.3-27.7h8.4l7.1,27.7l7.1-27.7h8.7l-10.8,40.7H225
			L216.6,74.9z"/>
		<path class="st0" d="M249.9,104.7V64h8.1v16.3h19V64h8.1v40.7H277V87.9h-19v16.8H249.9z"/>
		<path class="st0" d="M293.9,64h8.1v40.7h-8.1V64z"/>
		<path class="st0" d="M343.2,64v7.6h-13.6v33.1h-8.1V71.6h-13.6V64H343.2z"/>
		<path class="st0" d="M349.2,104.7V64.1h29.9v7.6h-21.8v8.7h16.3V88h-16.3v9.2h21.7v7.6L349.2,104.7L349.2,104.7z"/>
		<path class="st0" d="M409.2,65.4c2.1,0.9,4,2.3,5.8,4.1l-5.4,5.4c-1.8-2.2-4.3-3.3-7.6-3.3c-3.3,0-5.3,0.8-6.2,2.3
			c-0.9,1.5-0.9,2.8,0,3.9s3,1.9,6.2,2.4c3.4,0.4,6.6,1.5,9.4,3.4s4.2,4.9,4.2,9.1c0,3.3-1.5,6.1-4.5,8.4c-3,2.4-6.5,3.5-10.5,3.5
			c-3.8,0-6.9-0.5-9.5-1.6c-2.5-1.1-4.7-2.5-6.5-4.3l5.4-5.4c1.8,2.2,4.9,3.4,9.2,3.8c3.6,0,5.9-0.8,6.8-2.3s0.9-3.1,0-4.6
			s-3.1-2.5-6.8-2.8c-3.3-0.4-6.2-1.4-8.9-3c-2.7-1.6-4.1-4.4-4.1-8.4c0-3.6,1.5-6.5,4.6-8.7c3.1-2.2,6.2-3.3,9.5-3.3
			C404.2,64,407.2,64.5,409.2,65.4z"/>
		<path class="st0" d="M456.1,64v7.6h-13.6v33.1h-8.1V71.6h-13.6V64H456.1z"/>
		<path class="st0" d="M466,98.9c-3.9-3.9-5.8-8.7-5.8-14.5c0-5.8,1.9-10.6,5.8-14.5s8.7-5.8,14.5-5.8s10.6,1.9,14.5,5.8
			c3.9,3.9,5.8,8.7,5.8,14.5c0,5.8-1.9,10.6-5.8,14.5s-8.7,5.8-14.5,5.8C474.6,104.7,469.9,102.8,466,98.9z M480.5,97.1
			c3.6,0,6.5-1.2,8.8-3.7c2.3-2.4,3.4-5.5,3.4-9.1s-1.1-6.6-3.4-9.1c-2.3-2.4-5.2-3.7-8.8-3.7c-3.6,0-6.5,1.2-8.8,3.7
			c-2.3,2.4-3.4,5.5-3.4,9.1s1.1,6.6,3.4,9.1C473.9,95.9,476.9,97.1,480.5,97.1z"/>
		<path class="st0" d="M506.9,104.7V64h2.7L535,89.5V64h8.1v40.7h-3L515,79.5v25.2H506.9z"/>
		<path class="st0" d="M551.4,104.7V64.1h29.9v7.6h-21.7v8.7h16.3V88h-16.3v9.2h21.7v7.6L551.4,104.7L551.4,104.7z"/>
	</g>
	<g>
		<g>
			<path class="st0" d="M44.8,112.5c-5.7,0.8-11.4,1.7-17.1,2.7c-7,1.3-14.1,2.7-21,4.4c0.1,0.5,0.2,1,0.3,1.5
				c13.4-1.5,26.9-2.7,40.4-3.6C46.5,115.8,45.6,114.2,44.8,112.5z"/>
			<path class="st0" d="M179,115.2c-5.9-1.1-11.9-2-17.8-2.8c-0.8,1.7-1.7,3.4-2.7,5c13.8,0.9,27.5,2.1,41.2,3.7
				c0.1-0.5,0.2-1,0.3-1.5C193,117.9,186,116.5,179,115.2z"/>
		</g>
		<path class="st0" d="M72.1,109.6c-5.7-16.7-15.7-45.5-21.7-62.7c-7.5,10.6-12,23.5-12,37.5c0,10.1,2.3,19.6,6.4,28.1
			C53.9,111.2,63,110.3,72.1,109.6z"/>
		<path class="st0" d="M56.2,39.8c6.1,19.1,19.1,58.8,20.9,64.1h0.4L99.7,51c1.4-3.4,2.4-5,3.7-5c1.3,0,2.3,1.7,3.7,5l22.2,52.9h0.4
			c1.8-5.2,14.5-44,20.7-63.4c-11.8-12.7-28.7-20.7-47.4-20.7C84.6,19.8,68.1,27.5,56.2,39.8z"/>
		<path class="st0" d="M134.6,109.6c8.9,0.7,17.7,1.6,26.6,2.8c-0.3,0.6-0.6,1.3-1,1.9c4.7-8.9,7.3-19.1,7.3-29.9
			c0-13.6-4.2-26.2-11.4-36.7C150,65,140.4,93.1,134.6,109.6z"/>
		<path class="st0" d="M132.5,116.1c-0.9,2.7-1.6,4.7-2,5.8c-0.1,0.1-0.1,0.3-0.2,0.4c-0.1,0.2-0.2,0.3-0.3,0.4
			c-0.5,0.8-1.2,0.8-1.9,0.7c-1.4-0.2-1.9-1.3-2-1.5l-2.5-6.1c-12-0.3-24.1-0.3-36.1-0.1l3-7.1c10.1-0.3,20.2-0.2,30.2,0.2
			l-13.6-32.4c-1.4-3.4-2.4-5-3.7-5l0,0l0,0c-1.3,0-2.3,1.6-3.6,5l-13.6,32.4l-3,7l-2.5,6.1c-0.1,0.2-0.6,1.3-2,1.5
			c-0.7,0.1-1.4,0.1-1.9-0.7c-0.1-0.1-0.2-0.3-0.3-0.4c-0.1-0.1-0.1-0.3-0.2-0.4c-0.4-1.1-1-3.1-2-5.8c-9,0.3-17.9,0.7-26.9,1.3
			c-0.9-1.5-1.7-3-2.5-4.6c10.5,21.4,32.6,36.2,58,36.2c23.6,0,44.3-12.7,55.6-31.6C149.9,116.8,141.1,116.4,132.5,116.1z"/>
		<path class="st0" d="M160,114.9c-0.4,0.8-0.9,1.6-1.4,2.4C159,116.6,159.5,115.7,160,114.9z"/>
	</g>
</g>
</svg>
