<?xml version="1.0" encoding="utf-8"?>
<!-- Generator: Adobe Illustrator 23.1.1, SVG Export Plug-In . SVG Version: 6.00 Build 0)  -->
<svg version="1.1" id="Layer_1" xmlns="http://www.w3.org/2000/svg" xmlns:xlink="http://www.w3.org/1999/xlink" x="0px" y="0px"
	 viewBox="0 0 550 238" style="enable-background:new 0 0 550 238;" xml:space="preserve">
<style type="text/css">
	.st0{fill:#FFFFFF;}
</style>
<g>
	<g>
		<path class="st0" d="M241,145.6l-9.2-32.4l-9.4,32.4h-10.6l-15-45.5h11.1l9.6,34.3l9.5-34.3H237l9.6,34.3l9.5-34.3h10.5
			l-15.1,45.5H241z"/>
		<path class="st0" d="M292.5,145.6h-10.3v-14.4l-16.8-31.1h10.3l11.6,20.4l11.4-20.4H309l-16.6,30.8V145.6z"/>
		<path class="st0" d="M356.8,122.8c0,13.1-10.5,23.2-24.5,23.2s-24.5-10-24.5-23.2c0-13.3,10.5-23.1,24.5-23.1
			S356.8,109.6,356.8,122.8z M318.5,122.8c0,8,6.4,14.2,14,14.2c7.6,0,13.8-6.2,13.8-14.2s-6.2-14.1-13.8-14.1
			C324.8,108.7,318.5,114.8,318.5,122.8z"/>
		<path class="st0" d="M392.7,136.6v9H363v-45.5h10.3v36.5H392.7z"/>
		<path class="st0" d="M407.4,136.8l-3.6,8.8h-10.6l19.8-45.5h10.6l19.4,45.5h-11l-3.6-8.8H407.4z M418,110.8l-7.2,17.7h14.4
			L418,110.8z"/>
		<path class="st0" d="M482.9,145.6l-9.2-32.4l-9.4,32.4h-10.6l-15-45.5h11.1l9.6,34.3l9.5-34.3h10.1l9.6,34.3l9.5-34.3h10.5
			l-15.1,45.5H482.9z"/>
	</g>
	<polygon class="st0" points="63.3,151.6 81.6,151.6 68.9,171.5 125.7,171.1 87.6,105.9 119.4,51.8 200.5,186.2 182.2,186.2 
		119.4,81.2 105.1,105.9 152,186.2 41.4,186.2 	"/>
</g>
</svg>
